<?xml version="1.0" encoding="utf-8"?>
<!-- Generator: Adobe Illustrator 23.1.0, SVG Export Plug-In . SVG Version: 6.00 Build 0)  -->
<svg version="1.1" xmlns="http://www.w3.org/2000/svg" xmlns:xlink="http://www.w3.org/1999/xlink" x="0px" y="0px"
	 viewBox="0 0 72 72" style="enable-background:new 0 0 72 72;" xml:space="preserve">
<style type="text/css">
	.st0{enable-background:new    ;}
	.st1{fill:#ED1B24;}
	.st2{fill:#FFFFFF;}
</style>
<g id="Shape_1_copy_1_" class="st0">
	<g id="Shape_1_copy">
		<g>
			<rect y="22" class="st1" width="72" height="29"/>
		</g>
	</g>
</g>
<g id="Shape_1_1_" class="st0">
	<g id="Shape_1">
		<g>
			<path class="st2" d="M56.9,29.3h3.9v-4.4H48.5l-2,14.8l-2-14.8h-4.4l0.5,3.9c-0.5-1-2.3-3.9-6.3-3.9c0,0-4.5,0-4.5,0l0,21.6
				l-3.2-21.6l-5.8,0l-3.4,22.3l0-22.3h-5.6l-2,12.5l-2-12.5H2.2v24.3h4.4V37.5l2,11.7h2.3l2-11.7v11.7h8.5l0.5-3.7h3.4l0.5,3.7
				l8.3,0h0v0h0v-7.9l1-0.1l2.1,8h4.3l0,0h0l-2.8-9.4c1.4-1,3-3.7,2.6-6.2v0c0,0,2.6,15.6,2.6,15.6l5.1,0l3.5-22v22h8.3v-4.4h-3.9
				v-5.6h3.9v-4.4h-3.9V29.3z M22.4,41.6l1.2-10.4l1.3,10.4H22.4z M35.2,36.8c-0.3,0.2-0.7,0.2-1,0.2v-7.8c0,0,0,0,0,0
				c0.3,0,2.9,0.1,2.9,3.9C37.1,35.1,36.2,36.3,35.2,36.8z M66,44.8V24.9h-4.4v24.3h8.1v-4.4H66z"/>
		</g>
	</g>
</g>
</svg>
