<?xml version="1.0" encoding="utf-8"?>
<!-- Generator: Adobe Illustrator 23.1.0, SVG Export Plug-In . SVG Version: 6.00 Build 0)  -->
<svg version="1.1" xmlns="http://www.w3.org/2000/svg" xmlns:xlink="http://www.w3.org/1999/xlink" x="0px" y="0px"
	 viewBox="0 0 502 738" style="enable-background:new 0 0 502 738;" xml:space="preserve">
<style type="text/css">
	.st0{enable-background:new    ;}
	.st1{fill:#FFFFFF;}
	.st2{fill-rule:evenodd;clip-rule:evenodd;}
</style>
<g id="Shape_1_copy_1_" class="st0">
	<g id="Shape_1_copy">
		<g>
			<path class="st1" d="M0.9,0.1v737.5h500.9V0.1H0.9z M494.3,653.6H8.5v-7.6h485.8V653.6z M494.3,561.6H8.5v-7.6h485.8V561.6z
				 M494.3,469.6H353c68.9-176-38.2-305.7-33.4-301.5c74.4,64.9,83.5,206.4,56.1,287.1h68.7c8.1-20.6,20-57.5,20.5-100.4
				c0,0-15,25-29.8,33.6c0,0,32.1-45.1,29.1-117.8c0,0-17.5,31.9-29.5,35.5c0,0,23.8-46.8,14.1-106.2c0,0-13.9,27.3-25,33.2
				c0,0,7.1-25.5,7.9-41.6c1.6-28.9-3.5-47.9-11.3-61.8c0,0-8.8,30.4-19.2,41.5c0,0-0.5-32.7-5.3-51.6
				c-6.8-26.9-16.4-38.6-25.4-48.2c0,0,0.4,38.5-7.9,50.8c0,0-9.7-53-63.1-84.6c0,0,13.3,30.7,10.6,51.1c0,0-39.5-43.4-116.6-55.9
				c0,0,50.1,43.4,46.4,47.6c0,0-69.6-29.3-162.1-13.8c0,0,60.7,16.5,85.1,31c-91.8,15.1-125.5,46.6-125.5,46.6
				c60.4-8.1,95.6-5,95.6-5l-44.2,45.1l9.3,24.8c0,0-8.9,59.5-14.3,80c-1.8,16.4-10.1,39.9-10.1,39.9l9.2,16.8l-0.5,19.7
				c12.6,6.6,33.4,20.9,33.4,20.9l3.5-2.8c0,0,2-9.6,5-15c11.8-21,22.1-21.8,22.1-21.8c6.3,9.5,0.1,32.1-3.6,39.1
				c0.7,1.8,1.4,1.8,3.1,1.6c8.3-4.6,15.6-6.7,20.7-11.4c9.2-8.5,13.1-19,15.8-22.8c4.9-5.2-2.8-15.2-3.9-17.3
				c-7-13.1-1.1-29.2-1.1-29.2c3-19.5,9.4-21.8,9.4-21.8l15.8-13.5c10.9-6.3,22.6-16.3,27.1-31c10.5-34.9-3.7-53-3.7-53
				c16.2,12.8,17.5,40.5,11.4,58.1c-7.1,20.5-13.4,24.3-22.5,32.9c5.6,7.4,11,25.1,8.5,41.3C206.6,428.2,123.8,465,112.2,469.6H8.5
				V7.7h485.8V469.6z M141.3,216.6c-2.9,4.7-9,4.9-19-4.6c5.5-6.4,8.7-9.3,15.4-15.3c8.2-7.3,11-11,13-9.7
				C155.7,190.7,155.2,193.7,141.3,216.6z M114.2,328.1c-0.8-2.3-2-4.3-3.3-6.2c4.3,0.8,8.1,4,9.6,8.5c2.1,6.6-1.3,13.7-7.8,15.8
				c-6.5,2.1-13.5-1.6-15.6-8.2c-0.4-1.2-0.6-2.4-0.6-3.5l0.6-0.1c2.2,5.7,7.5,9,12.1,7.5C113.8,340.3,116.2,334.2,114.2,328.1z"/>
		</g>
	</g>
</g>
<g id="Shape_1_1_" class="st0">
	<g id="Shape_1">
		<g>
			<path class="st2" d="M199.4,536.5c4.2-0.3,8.1-1.2,11.5-2.5c8.2-3.2,13.7-8.6,16.5-16.2l3.4-9.4c0.8-2.1,1.1-4.1,1.1-5.9
				c0-6.1-4-10.3-12.1-12.9c-3.4-1.1-7.4-1.7-12.1-2h-35.2l12,8l-14.7,40.9H199.4z M204.3,497.4h2.4c4,0.2,6.1,1.3,6.1,3.4
				c0,0.4-0.1,0.8-0.3,1.3l-5.9,16.4c-0.8,3.4-2.3,5.7-4.6,7.1c-0.9,0.6-2,0.9-3.2,1H194L204.3,497.4z M229.6,536.5h21.3l3.3-5.3
				h14.8l-0.1,5.3h21.5l-1.4-48.9h-43.8l12.1,7.9L229.6,536.5z M270.7,504.6l-1.1,20.3h-11.9L270.7,504.6z M322.5,536.5l5.8-16.5
				l6.5,16.5h18.8l-6.7-17.1c4.2-0.7,7.7-2.1,10.4-4.2c3.5-2.9,5.5-5.7,6.1-8.5c0.6-1.8,0.9-3.6,0.9-5.4c0-3.5-1.1-6.4-3.2-8.8
				c-3.9-3.3-8.8-4.9-14.7-4.9h-41.7l12,8l-14.7,40.9H322.5z M335.6,499.3h5.1c1.7,0,3,0.3,3.7,1c0.8,0.7,1.2,1.6,1.2,2.7
				c0,0.6-0.2,1.4-0.7,2.3c-0.5,1.1-1.2,1.8-1.9,2.2c-1.1,0.5-2.6,0.7-4.6,0.7h-5.9L335.6,499.3z M388.5,536.5l8.1-23.1l5.3,23.1
				h20.6l-6.2-23.7l23.4-25.2h-22.5l-18.4,19.7l6.9-19.7h-35.2l12,8l-14.7,40.9H388.5z M115,671.9c-3.6-1-7.9-1.6-12.8-1.8
				c-4.3,0.3-8.2,1.1-11.6,2.4c-8.3,3.2-13.7,8.6-16.3,16.2l-4.4,12.8c-0.7,2.1-1.1,4-1.1,5.8c0,6.4,4.3,10.8,12.8,13.2
				c3.6,1,7.9,1.6,12.8,1.7c4.3-0.3,8.2-1.1,11.6-2.4c8.3-3.2,13.7-8.6,16.3-16.2l1.3-3.6h-20.5l-1.5,4.4c-0.8,3.3-2.3,5.7-4.6,7
				c-0.9,0.6-2,0.9-3.1,1c-4-0.2-6-1.3-6-3.4c0-0.4,0.1-0.8,0.2-1.3L95,688c0.8-3.4,2.3-5.7,4.6-7.1c0.9-0.5,2-0.9,3.1-1
				c4,0.2,6,1.3,6,3.5c0,0.4-0.1,0.8-0.2,1.2l-2.8,7.9h20.5l0.5-1.6c0.7-2.1,1.1-4,1.1-5.8C127.8,678.7,123.5,674.3,115,671.9z
				 M178.3,671.9c-3.6-1-7.9-1.6-12.8-1.8c-4.3,0.3-8.2,1.1-11.6,2.4c-8.3,3.2-13.7,8.6-16.3,16.2l-4.4,12.8c-0.7,2.1-1.1,4-1.1,5.8
				c0,6.4,4.3,10.8,12.8,13.2c3.6,1,7.9,1.6,12.8,1.7c4.3-0.3,8.2-1.1,11.6-2.4c8.3-3.2,13.7-8.6,16.3-16.2l4.4-12.9
				c0.7-2.1,1.1-4,1.1-5.8C191.2,678.7,186.9,674.3,178.3,671.9z M171.8,684.6l-6.9,19.9c-0.8,3.3-2.3,5.7-4.6,7
				c-0.9,0.6-2,0.9-3.1,1c-4-0.2-6-1.3-6-3.4c0-0.4,0.1-0.8,0.2-1.3l6.9-19.9c0.8-3.4,2.3-5.7,4.6-7.1c0.9-0.5,2-0.9,3.1-1
				c4,0.2,6,1.3,6,3.5C172.1,683.8,172,684.2,171.8,684.6z M235.9,693.9l-1.1-21.2h-37.2l9.7,6.4l-14.4,40.3h18.3l8.2-23.4l2,0.3
				v23.1h13.2l15.9-23.7l1.8,0.9l-8.2,22.8h18.3l16.5-46.7h-28L235.9,693.9z M285.2,672.2l10.9,7.2L281.5,720H301l16.8-47.8H285.2z
				 M363.7,671.9c-3.6-1-7.9-1.6-12.8-1.8c-4.3,0.3-8.2,1.1-11.7,2.4c-8.2,3.2-13.7,8.6-16.3,16.2l-4.4,12.8c-0.7,2.1-1.1,4-1.1,5.8
				c0,6.4,4.3,10.8,12.8,13.2c3.6,1,7.9,1.6,12.8,1.7c4.3-0.3,8.2-1.1,11.6-2.4c8.2-3.2,13.7-8.6,16.3-16.2l1.2-3.6h-20.5l-1.5,4.4
				c-0.8,3.3-2.4,5.7-4.6,7c-0.9,0.6-2,0.9-3.1,1c-4-0.2-6-1.3-6-3.4c0-0.4,0.1-0.8,0.2-1.3l6.9-19.9c0.8-3.4,2.4-5.7,4.6-7.1
				c0.9-0.5,2-0.9,3.1-1c4,0.2,6,1.3,6,3.5c0,0.4-0.1,0.8-0.2,1.2l-2.7,7.9h20.4l0.5-1.6c0.7-2.1,1.1-4,1.1-5.8
				C376.5,678.7,372.2,674.3,363.7,671.9z M434,674.9c-4.2-3.6-11.2-5.4-20.9-5.4c-4.4,0.2-8.3,0.7-11.6,1.5
				c-8,2.1-12.7,5.7-14.1,10.9c-0.5,1.5-0.8,3-0.8,4.3c0,3.6,2.1,6.8,6.4,9.4c1.1,0.7,5,2.5,11.9,5.4c4.3,1.8,6.4,3.6,6.4,5.3
				c0,0.5-0.1,1-0.4,1.6c-1.4,2.7-3.4,4-6.1,4c-4-0.2-6-1.3-6-3.5c0-0.4,0.1-0.8,0.2-1.2l1.4-4h-20.2c-0.2,1-0.3,2.1-0.3,3.2
				c0,4.1,1.5,7.4,4.6,10c4.2,3.6,11.2,5.4,20.9,5.4c4.4-0.2,8.3-0.9,11.7-2c8.2-2.6,13.1-7.2,14.8-13.8c0.4-1.2,0.6-2.4,0.6-3.5
				c0-3.4-2.1-6.5-6.4-9.2c-0.3-0.2-4.1-2.1-11.5-5.7c-3.9-2-5.7-3.8-5.3-5.5c0.5-1.9,1.9-2.9,4.2-2.9c4,0.2,6,1.3,6,3.4
				c0,0.4-0.1,0.8-0.2,1.3l-0.9,2.7h20c0.1-0.6,0.1-1.2,0.1-1.8C438.5,680.8,437,677.5,434,674.9z M140.2,628.5l6.5-18.4h11.3
				l-6.6,18.4H172l17.2-48.9h-20.3l-6.7,18.8h-11.3l6.6-18.8h-35.2l12,8l-14.7,40.9H140.2z M215.1,630.4c4.3-0.3,8.2-1.1,11.6-2.4
				c8.2-3.2,13.7-8.6,16.3-16.2l4.4-12.9c0.7-2.1,1.1-4,1.1-5.8c0-6.4-4.3-10.8-12.8-13.2c-3.6-1-7.9-1.6-12.8-1.8
				c-4.3,0.3-8.2,1.1-11.7,2.4c-8.2,3.2-13.7,8.6-16.3,16.3l-4.4,12.8c-0.7,2.1-1.1,4.1-1.1,5.8c0,6.4,4.3,10.8,12.8,13.2
				C205.8,629.7,210.1,630.3,215.1,630.4z M208.7,615.9l6.9-19.9c0.8-3.4,2.3-5.7,4.6-7.1c0.9-0.5,2-0.9,3.1-1c4,0.2,6,1.3,6,3.5
				c0,0.4-0.1,0.8-0.2,1.2l-6.9,19.9c-0.8,3.3-2.3,5.7-4.6,7c-0.9,0.6-2,0.9-3.1,1c-4-0.2-6-1.3-6-3.4
				C208.5,616.7,208.6,616.3,208.7,615.9z M263.8,587.6l-14.7,40.9h20.6l5.8-16.6l6.4,16.6h18.8l-6.7-17.1c4.2-0.7,7.7-2.1,10.4-4.2
				c3.4-2.9,5.5-5.7,6-8.5c0.6-1.8,0.9-3.6,0.9-5.4c0-3.5-1.1-6.4-3.2-8.8c-3.9-3.2-8.8-4.9-14.7-4.9h-41.7L263.8,587.6z
				 M282.8,591.4h5.1c1.7,0,3,0.3,3.7,1c0.8,0.7,1.2,1.6,1.2,2.7c0,0.6-0.2,1.4-0.7,2.3c-0.5,1.1-1.2,1.8-1.9,2.2
				c-1.1,0.4-2.6,0.7-4.6,0.7h-5.9L282.8,591.4z M354.9,594.8h20c0.1-0.6,0.1-1.2,0.1-1.8c0-4.1-1.5-7.5-4.6-10
				c-4.2-3.6-11.2-5.4-20.9-5.4c-4.4,0.2-8.3,0.7-11.6,1.5c-8,2.1-12.7,5.7-14.1,10.9c-0.5,1.5-0.8,3-0.8,4.3c0,3.6,2.1,6.8,6.4,9.4
				c1.1,0.7,5,2.4,11.9,5.4c4.3,1.8,6.4,3.6,6.4,5.3c0,0.5-0.1,1-0.4,1.6c-1.4,2.7-3.4,4-6,4c-4-0.2-6-1.4-6-3.5
				c0-0.4,0.1-0.8,0.2-1.2l1.4-4h-20.2c-0.2,1.1-0.3,2.1-0.3,3.2c0,4.1,1.5,7.5,4.6,10c4.2,3.6,11.2,5.4,20.9,5.4
				c4.4-0.2,8.3-0.9,11.7-2c8.2-2.6,13.1-7.2,14.8-13.8c0.4-1.2,0.6-2.3,0.6-3.5c0-3.4-2.1-6.4-6.4-9.2c-0.3-0.2-4.1-2.1-11.5-5.7
				c-3.9-2-5.7-3.8-5.3-5.5c0.5-1.9,1.9-2.9,4.2-2.9c4,0.2,6,1.3,6,3.4c0,0.4-0.1,0.8-0.2,1.2L354.9,594.8z M391.3,587.6l-14.7,40.9
				h45.6l4.2-11.7h-25.1l2.3-6.4H417l4.2-11.7h-13.4l2.6-7.3h25l4.2-11.7h-60.2L391.3,587.6z"/>
		</g>
	</g>
</g>
</svg>
