<?xml version="1.0" encoding="utf-8"?>
<!-- Generator: Adobe Illustrator 23.1.0, SVG Export Plug-In . SVG Version: 6.00 Build 0)  -->
<svg version="1.1" xmlns="http://www.w3.org/2000/svg" xmlns:xlink="http://www.w3.org/1999/xlink" x="0px" y="0px"
	 viewBox="0 0 2726.9 1336.3" style="enable-background:new 0 0 2726.9 1336.3;" xml:space="preserve">
<style type="text/css">
	.st0{enable-background:new    ;}
	.st1{fill:#FFFFFF;}
	.st2{fill-rule:evenodd;clip-rule:evenodd;fill:#FFFFFF;}
</style>
<g id="Rectangle_2_1_" class="st0">
	<g id="Rectangle_2">
		<g>
			<path d="M2706.4,759.9l20.1-759.7h-201.8l20.1,759.7H2706.4z M5.5,1046.9h2427.1V0.3H5.5V1046.9z M2529.4,1047.4h195.1V829.3
				h-195.1V1047.4z"/>
		</g>
	</g>
</g>
<g id="Rectangle_2_copy_1_" class="st0">
	<g id="Rectangle_2_copy">
		<g>
			<path class="st1" d="M485.5,476.6c31.6-6.3,67.7-24.2,76.4-35.8c8.7-11.6,24.8-29,24.8-100.3s-7.1-119.3-46-170.3
				C501.8,119.1,415.8,115,341,115s-200.7,0-200.7,0v780.4c0,0,149.4,0.1,262.5,0.1c113.1,0,143.6-12.5,166.8-43.3
				c23.3-30.7,26.6-91.3,26.6-146.8c0-23.3,0-29.2,0-54.6c0-79.7-12.2-111.9-28.7-131.3C551.1,500.1,522.5,484,485.5,476.6z
				 M344.8,251.2c0,0,31.3,0.1,40.7,3.7c9.4,3.6,21.1,13.3,21.1,37.7c0,24.4,0,64,0,84.9c0,24.3-2.9,32.9-12.7,39.4
				c-7.9,5.3-29.7,6.1-49.1,7.1V251.2z M406.4,718.2c0,23-4.1,35-16,38.7c-11.9,3.7-45.5,5.3-45.5,5.3V546.4c0,0,34,0.4,40.8,3.5
				c6.8,3.1,21,10.6,21,35.9C406.6,611.2,406.4,695.1,406.4,718.2z M882,102c-166.6,0-217.8,97.5-217.8,217.8v371
				c0,120.3,52.4,217.8,217.8,217.8s217.8-97.5,217.8-217.8v-371C1099.8,199.5,1048.6,102,882,102z M919.6,760.8
				c0,18.7-15.2,33.9-33.9,33.9s-33.9-15.2-33.9-33.9V268.5c0-18.7,15.2-33.9,33.9-33.9s33.9,15.2,33.9,33.9V760.8z M2042.3,114
				l-46.1,349.7L1947.4,114l-243.5,0v782.7h162.8V377l72.5,518.7l117.3,0l68.5-518.7v519.6h166.9V114L2042.3,114z M1399.5,102
				c-166.6,0-217.8,97.5-217.8,217.8v371c0,120.3,52.4,217.8,217.8,217.8s217.8-97.5,217.8-217.8v-371
				C1617.3,199.5,1566,102,1399.5,102z M1437.1,760.8c0,18.7-15.2,33.9-33.9,33.9c-18.7,0-33.9-15.2-33.9-33.9V268.5
				c0-18.7,15.2-33.9,33.9-33.9c18.7,0,33.9,15.2,33.9,33.9V760.8z"/>
		</g>
	</g>
</g>
<g id="Shape_2_1_" class="st0">
	<g id="Shape_2">
		<g>
			<path class="st2" d="M79.8,1221.4c-29.7-6.6-32.3-14-32.3-22.1c0-8.1,5.6-16.9,23.8-16.9c22.5,0,47.7,17.9,47.7,17.9l20.3-30.2
				c0,0-25.8-23-68-23c-33.3,0-63.7,16.5-63.7,56.8s31.1,46.7,63.4,55.5c32.3,8.8,34.2,14.6,34.2,22.8c0,8.2-5.2,18-27,18
				c-30.2,0-54.1-21.8-54.1-21.8l-23.9,28.3c0,0,29.8,28.9,78.2,28.9c34.1,0,66.9-16.6,66.9-56.7S109.6,1228,79.8,1221.4z
				 M2658.4,1221.4c-29.7-6.6-32.3-14-32.3-22.1c0-8.1,5.6-16.9,23.8-16.9c22.5,0,47.7,17.9,47.7,17.9l20.3-30.2c0,0-25.8-23-68-23
				c-33.3,0-63.7,16.5-63.7,56.8s31.1,46.7,63.4,55.5s34.2,14.6,34.2,22.8c0,8.2-5.2,18-27,18c-30.2,0-54.1-21.8-54.1-21.8
				l-23.9,28.3c0,0,29.8,28.9,78.2,28.9c34.1,0,66.9-16.6,66.9-56.7S2688.1,1228,2658.4,1221.4z M2203.8,1146.1
				c-54,0-97.7,42.6-97.7,95.1c0,52.5,43.7,95.1,97.7,95.1s97.7-42.6,97.7-95.1C2301.5,1188.7,2257.8,1146.1,2203.8,1146.1z
				 M2203.8,1299.3c-30.7,0-55.5-26-55.5-58.1s24.9-58.1,55.5-58.1s55.5,26,55.5,58.1S2234.5,1299.3,2203.8,1299.3z M1772.8,1333.4
				h40.3v-184h-40.3V1333.4z M418.8,1187.3h56.1v146.1h40.3v-146.1h55.5v-37.9H418.8V1187.3z M974,1254.7c0,23.6-10.8,44-39.8,44.2
				c-29-0.2-39.8-20.6-39.8-44.2c0-23.7,0-105.3,0-105.3H854c0,0,0.4,41.3,0.4,104.3c0,54.8,29.2,82.4,81.1,82.4
				c51.9,0,78.7-31.1,78.7-82.4c0-62.9,0.4-104.3,0.4-104.3H974C974,1149.3,974,1231,974,1254.7z M1380.8,1150.1
				c-19.1,0-69.5,0-69.5,0v182.7c0,0,50.5,0,69.5,0c50,0,99.1-32.2,99.1-91.4C1479.9,1177.6,1428.8,1150.1,1380.8,1150.1z
				 M1384.4,1297c-15.4,0-33.3,0-33.3,0V1186c0,0,17.9,0,33.3,0C1455.4,1186,1455.4,1297,1384.4,1297z"/>
		</g>
	</g>
</g>
</svg>
