<?xml version="1.0" encoding="utf-8"?>
<!-- Generator: Adobe Illustrator 23.1.0, SVG Export Plug-In . SVG Version: 6.00 Build 0)  -->
<svg version="1.1" id="Shape_1_1_" xmlns="http://www.w3.org/2000/svg" xmlns:xlink="http://www.w3.org/1999/xlink" x="0px" y="0px"
	 viewBox="0 0 512 512" style="enable-background:new 0 0 512 512;" xml:space="preserve">
<style type="text/css">
	.st0{fill:#147CC2;}
</style>
<g id="Shape_1">
	<g>
		<path class="st0" d="M189.7,209.2l-55.6,42L226,373.1l54.5-40.9l4.3-32.1l-65.2-86.6L189.7,209.2z M231.7,324.2l-50-66.3
			l18.4-13.6l49.7,66L231.7,324.2z M491.9,156.4c-6.4-15.2-14.4-29.8-23.6-43.5C459.1,99.3,448.6,86.6,437,75
			c-11.6-11.6-24.3-22.1-37.9-31.3c-13.7-9.2-28.3-17.2-43.5-23.6C324,6.8,290.5,0,256,0s-68,6.8-99.6,20.1
			c-15.2,6.4-29.8,14.4-43.5,23.6C99.3,52.9,86.6,63.4,75,75c-11.6,11.6-22.1,24.3-31.3,37.9c-9.2,13.7-17.2,28.3-23.6,43.5
			C6.8,188,0,221.5,0,256s6.8,68.1,20.1,99.6c6.4,15.2,14.4,29.8,23.6,43.5c9.2,13.6,19.7,26.3,31.3,37.9
			c11.6,11.6,24.3,22.1,37.9,31.3c13.7,9.2,28.3,17.2,43.5,23.6C188,505.2,221.5,512,256,512s68-6.8,99.6-20.1
			c15.2-6.4,29.8-14.4,43.5-23.6c13.6-9.2,26.3-19.7,37.9-31.3c11.6-11.6,22.1-24.3,31.3-37.9c9.2-13.7,17.2-28.3,23.6-43.5
			C505.2,324,512,290.5,512,256C512,221.5,505.2,187.9,491.9,156.4z M256,509.4C116.3,509.4,2.6,395.7,2.6,256
			C2.6,116.3,116.3,2.6,256,2.6S509.4,116.3,509.4,256C509.4,395.7,395.7,509.4,256,509.4z M256,11.2C121,11.2,11.4,121,11.4,256
			C11.4,391,121,500.6,256,500.6c135,0,244.8-109.6,244.8-244.6C500.8,121,391,11.2,256,11.2z M118.4,72.8L140,88.2L161.7,72
			L154,98.2l22.4,15.7l-27,0.3l-7.8,25.8L133,114l-27.4,0.1L127.1,98L118.4,72.8z M115,390l-7.8,25.8l-8.7-25.9L71.1,390l21.6-16.2
			L84,348.7l21.6,15.4l21.7-16.3l-7.6,26.2l22.4,15.7L115,390z M117.7,255.9L117.7,255.9c0-76.4,62-138.4,138.4-138.4
			c76.4,0,138.4,62,138.4,138.4c0,76.5-62,138.4-138.4,138.4C179.7,394.3,117.7,332.3,117.7,255.9z M383.3,424.5l-7.8,25.8
			l-8.8-25.9l-27.4,0.1l21.6-16.2l-8.6-25.1l0,0l21.6,15.4l21.6-16.3l-7.6,26.2l22.3,15.7L383.3,424.5z M423.4,157.5l-7.8,25.8
			l-8.7-25.9l-27.4,0.1l21.6-16.2l-8.7-25.1l21.6,15.4l21.6-16.3l-7.6,26.2l22.3,15.7L423.4,157.5z M374.1,232.7l-22.7-29.7
			l-27,20.6l14.4,19.2l-17.9,13.9l-49.7-66.3l17.9-13.6l13.6,18.2l27.5-20.6l-21.6-28.3l-29.4-4.3l0,0l-39,29.4l-4.3,29.4l65.5,86.9
			l32.1,4.5l36.1-27.3L374.1,232.7z"/>
	</g>
</g>
</svg>
