<?xml version="1.0" encoding="utf-8"?>
<!-- Generator: Adobe Illustrator 23.1.0, SVG Export Plug-In . SVG Version: 6.00 Build 0)  -->
<svg version="1.1" id="Layer_1" xmlns="http://www.w3.org/2000/svg" xmlns:xlink="http://www.w3.org/1999/xlink" x="0px" y="0px"
	 viewBox="0 0 512 240.5" style="enable-background:new 0 0 512 240.5;" xml:space="preserve">
<style type="text/css">
	.st0{enable-background:new    ;}
	.st1{fill:#FFFFFF;}
	.st2{fill-rule:evenodd;clip-rule:evenodd;fill:#C73732;}
</style>
<g id="ARTISANS_1_" class="st0">
	<g id="ARTISANS">
		<g>
			<path class="st1" d="M130.8,227.7c-1-0.4-2.3-0.8-3.8-1.1c-0.1,0-0.1,0-0.2,0c-0.1,0-0.1,0-0.2,0c0,0-0.1,0-0.1,0
				c0,0-0.1,0-0.1,0c-1.2-0.2-2.1-0.4-2.7-0.7c-0.6-0.2-1.2-0.5-1.6-1s-0.6-1-0.6-1.8v0c0-1,0.4-1.8,1.3-2.4c0.8-0.6,2-0.8,3.6-0.8
				c0.9,0,1.9,0.2,2.8,0.5c1,0.3,1.9,0.8,2.9,1.5l1.9-3.3c-0.8-0.6-1.6-1-2.4-1.4c-0.8-0.4-1.7-0.7-2.6-0.8
				c-0.9-0.2-1.7-0.3-2.6-0.3c-1.9,0-3.4,0.3-4.7,0.8c-1.3,0.6-2.3,1.4-3,2.5c-0.7,1.1-1,2.4-1,3.9v0c0,1.7,0.4,3.1,1.1,4
				c0.7,0.9,1.6,1.6,2.7,2s2.4,0.7,4,0.9l0.3,0.1c0,0,0.1,0,0.1,0c0,0,0.1,0,0.1,0c1,0.2,1.8,0.4,2.5,0.6c0.6,0.2,1.2,0.5,1.6,1
				c0.4,0.4,0.6,1,0.6,1.8v0c0,1.1-0.4,1.9-1.3,2.4c-0.9,0.6-2.2,0.9-3.8,0.9c-1.3,0-2.5-0.2-3.7-0.6c-1.2-0.4-2.2-1-3.1-1.8
				l-2.1,3.2c0.8,0.7,1.6,1.2,2.6,1.6c0.9,0.4,1.9,0.8,3,1c1.1,0.2,2.2,0.3,3.4,0.3c1.9,0,3.5-0.3,4.9-0.8c1.4-0.6,2.4-1.4,3.1-2.4
				c0.7-1.1,1.1-2.4,1.1-3.9v0c0-1.6-0.3-2.9-1-3.8C132.6,228.8,131.8,228.1,130.8,227.7z M10.9,216.4l-9.1,24.1h4.3l1.6-4.6h9.4
				l1.6,4.6H23l-9.1-24.1H10.9z M9,232.1l3.4-9.6l3.4,9.6H9z M40.9,229.6c1-0.6,1.9-1.4,2.4-2.5c0.6-1.1,0.9-2.3,0.9-3.7
				c0-1.4-0.3-2.6-0.9-3.7c-0.6-1.1-1.4-1.9-2.4-2.5c-1-0.6-2.2-0.9-3.6-0.9h-6.1h-2.3h-1.7v24.1h4v-10h3.9l5.3,10h4.8l-5.7-10.3
				C40,230.1,40.5,229.9,40.9,229.6z M38.6,226.3c-0.4,0.3-0.9,0.4-1.5,0.4h-6v-6.6h6c0.6,0,1.1,0.1,1.5,0.4c0.4,0.3,0.8,0.7,1,1.2
				c0.2,0.5,0.4,1.1,0.4,1.7c0,0.7-0.1,1.2-0.4,1.7C39.4,225.7,39.1,226,38.6,226.3z M191.9,233.9l-4.8-17.5h-3l-4.8,17.5l-3.7-17.5
				h-4.1l5.8,24.1h3.9l4.6-16.9l4.4,16.9h3.9l5.8-24.1h-4.1L191.9,233.9z M217.2,229.6c1-0.6,1.9-1.4,2.4-2.5
				c0.6-1.1,0.9-2.3,0.9-3.7c0-1.4-0.3-2.6-0.9-3.7c-0.6-1.1-1.4-1.9-2.4-2.5c-1-0.6-2.2-0.9-3.6-0.9h-6.1h-2.3h-1.7v24.1h4v-10h3.9
				l5.3,10h4.8l-5.7-10.3C216.3,230.1,216.7,229.9,217.2,229.6z M214.9,226.3c-0.4,0.3-0.9,0.4-1.5,0.4h-6v-6.6h6
				c0.6,0,1.1,0.1,1.5,0.4c0.4,0.3,0.8,0.7,1,1.2c0.2,0.5,0.4,1.1,0.4,1.7c0,0.7-0.1,1.2-0.4,1.7C215.7,225.7,215.4,226,214.9,226.3
				z M47,220.2h6.7v20.3h4v-20.3h6.7v-3.8H47V220.2z M68.1,240.5h4.1v-24.1h-4.1V240.5z M97.1,220.2h6.7v20.3h4v-20.3h6.7v-3.8H97.1
				V220.2z M91.5,227.7c-1-0.4-2.3-0.8-3.8-1.1c-0.1,0-0.1,0-0.2,0c-0.1,0-0.1,0-0.2,0c0,0-0.1,0-0.1,0c0,0-0.1,0-0.1,0
				c-1.2-0.2-2.1-0.4-2.7-0.7c-0.6-0.2-1.2-0.5-1.6-1s-0.6-1-0.6-1.8v0c0-1,0.4-1.8,1.3-2.4c0.8-0.6,2-0.8,3.6-0.8
				c0.9,0,1.9,0.2,2.8,0.5c1,0.3,1.9,0.8,2.9,1.5l1.9-3.3c-0.8-0.6-1.6-1-2.4-1.4c-0.8-0.4-1.7-0.7-2.6-0.8
				c-0.9-0.2-1.7-0.3-2.6-0.3c-1.9,0-3.4,0.3-4.7,0.8s-2.3,1.4-3,2.5c-0.7,1.1-1,2.4-1,3.9v0c0,1.7,0.4,3.1,1.1,4
				c0.7,0.9,1.6,1.6,2.7,2s2.4,0.7,4,0.9l0.3,0.1c0,0,0.1,0,0.1,0c0,0,0.1,0,0.1,0c1,0.2,1.8,0.4,2.5,0.6c0.6,0.2,1.2,0.5,1.6,1
				c0.4,0.4,0.6,1,0.6,1.8v0c0,1.1-0.4,1.9-1.3,2.4c-0.9,0.6-2.2,0.9-3.8,0.9c-1.3,0-2.5-0.2-3.7-0.6c-1.2-0.4-2.2-1-3.1-1.8
				l-2.1,3.2c0.8,0.7,1.6,1.2,2.6,1.6c0.9,0.4,1.9,0.8,3,1c1.1,0.2,2.2,0.3,3.4,0.3c1.9,0,3.5-0.3,4.9-0.8c1.4-0.6,2.4-1.4,3.1-2.4
				c0.7-1.1,1.1-2.4,1.1-3.9v0c0-1.6-0.3-2.9-1-3.8C93.4,228.8,92.6,228.1,91.5,227.7z M310.4,227.7c-1-0.4-2.3-0.8-3.8-1.1
				c-0.1,0-0.1,0-0.2,0c-0.1,0-0.1,0-0.2,0c0,0-0.1,0-0.1,0c0,0-0.1,0-0.1,0c-1.2-0.2-2.1-0.4-2.7-0.7c-0.6-0.2-1.2-0.5-1.6-1
				c-0.4-0.4-0.6-1-0.6-1.8v0c0-1,0.4-1.8,1.3-2.4c0.8-0.6,2-0.8,3.6-0.8c0.9,0,1.9,0.2,2.8,0.5c1,0.3,1.9,0.8,2.9,1.5l1.9-3.3
				c-0.8-0.6-1.6-1-2.4-1.4c-0.8-0.4-1.7-0.7-2.6-0.8c-0.9-0.2-1.7-0.3-2.6-0.3c-1.9,0-3.4,0.3-4.7,0.8c-1.3,0.6-2.3,1.4-3,2.5
				c-0.7,1.1-1,2.4-1,3.9v0c0,1.7,0.4,3.1,1.1,4c0.7,0.9,1.6,1.6,2.7,2c1,0.4,2.4,0.7,4,0.9l0.3,0.1c0,0,0.1,0,0.1,0
				c0,0,0.1,0,0.1,0c1,0.2,1.8,0.4,2.5,0.6c0.6,0.2,1.2,0.5,1.6,1c0.4,0.4,0.6,1,0.6,1.8v0c0,1.1-0.4,1.9-1.3,2.4
				c-0.9,0.6-2.2,0.9-3.8,0.9c-1.3,0-2.5-0.2-3.7-0.6c-1.2-0.4-2.2-1-3.1-1.8l-2.1,3.2c0.8,0.7,1.6,1.2,2.6,1.6s1.9,0.8,3,1
				c1.1,0.2,2.2,0.3,3.4,0.3c1.9,0,3.5-0.3,4.9-0.8c1.4-0.6,2.4-1.4,3.1-2.4c0.7-1.1,1.1-2.4,1.1-3.9v0c0-1.6-0.3-2.9-1-3.8
				C312.2,228.8,311.4,228.1,310.4,227.7z M439.2,227.7c-1-0.4-2.3-0.8-3.8-1.1c-0.1,0-0.1,0-0.2,0c-0.1,0-0.1,0-0.2,0
				c0,0-0.1,0-0.1,0c0,0-0.1,0-0.1,0c-1.2-0.2-2.1-0.4-2.7-0.7c-0.6-0.2-1.2-0.5-1.6-1c-0.4-0.4-0.6-1-0.6-1.8v0
				c0-1,0.4-1.8,1.3-2.4c0.8-0.6,2-0.8,3.6-0.8c0.9,0,1.9,0.2,2.8,0.5c1,0.3,1.9,0.8,2.9,1.5l1.9-3.3c-0.8-0.6-1.6-1-2.4-1.4
				c-0.8-0.4-1.7-0.7-2.6-0.8c-0.9-0.2-1.7-0.3-2.6-0.3c-1.9,0-3.4,0.3-4.7,0.8c-1.3,0.6-2.3,1.4-3,2.5c-0.7,1.1-1,2.4-1,3.9v0
				c0,1.7,0.4,3.1,1.1,4c0.7,0.9,1.6,1.6,2.7,2c1,0.4,2.4,0.7,4,0.9l0.3,0.1c0,0,0.1,0,0.1,0c0,0,0.1,0,0.1,0c1,0.2,1.8,0.4,2.5,0.6
				c0.6,0.2,1.2,0.5,1.6,1c0.4,0.4,0.6,1,0.6,1.8v0c0,1.1-0.4,1.9-1.3,2.4c-0.9,0.6-2.2,0.9-3.8,0.9c-1.3,0-2.5-0.2-3.7-0.6
				c-1.2-0.4-2.2-1-3.1-1.8l-2.1,3.2c0.8,0.7,1.6,1.2,2.6,1.6c0.9,0.4,1.9,0.8,3,1c1.1,0.2,2.2,0.3,3.4,0.3c1.9,0,3.5-0.3,4.9-0.8
				c1.4-0.6,2.4-1.4,3.1-2.4c0.7-1.1,1.1-2.4,1.1-3.9v0c0-1.6-0.3-2.9-1-3.8C441.1,228.8,440.3,228.1,439.2,227.7z M415.8,240.5h4.1
				v-24.1h-4.1V240.5z M225.9,240.5h4.1v-24.1h-4.1V240.5z M485,234.2L475,216.4h-4.3v24.1h3.9v-17.6l10,17.6h4.4v-24.1H485V234.2z
				 M394.7,220.2h6.7v20.3h4v-20.3h6.7v-3.8h-17.5L394.7,220.2L394.7,220.2z M511,229.7c-0.7-0.9-1.5-1.6-2.5-2
				c-1-0.4-2.3-0.8-3.8-1.1c-0.1,0-0.1,0-0.2,0c-0.1,0-0.1,0-0.2,0c0,0-0.1,0-0.1,0c0,0-0.1,0-0.1,0c-1.2-0.2-2.1-0.4-2.7-0.7
				c-0.6-0.2-1.2-0.5-1.6-1s-0.6-1-0.6-1.8v0c0-1,0.4-1.8,1.3-2.4c0.8-0.6,2-0.8,3.6-0.8c0.9,0,1.9,0.2,2.8,0.5
				c1,0.3,1.9,0.8,2.9,1.5l1.9-3.3c-0.8-0.6-1.6-1-2.4-1.4c-0.8-0.4-1.7-0.7-2.6-0.8c-0.9-0.2-1.7-0.3-2.6-0.3
				c-1.9,0-3.4,0.3-4.7,0.8c-1.3,0.6-2.3,1.4-3,2.5c-0.7,1.1-1,2.4-1,3.9v0c0,1.7,0.4,3.1,1.1,4c0.7,0.9,1.6,1.6,2.7,2
				c1,0.4,2.4,0.7,4,0.9l0.3,0.1c0,0,0.1,0,0.1,0s0.1,0,0.1,0c1,0.2,1.8,0.4,2.5,0.6c0.6,0.2,1.2,0.5,1.6,1c0.4,0.4,0.6,1,0.6,1.8v0
				c0,1.1-0.4,1.9-1.3,2.4c-0.9,0.6-2.2,0.9-3.8,0.9c-1.3,0-2.5-0.2-3.7-0.6c-1.2-0.4-2.2-1-3.1-1.8l-2.1,3.2
				c0.8,0.7,1.6,1.2,2.6,1.6s1.9,0.8,3,1c1.1,0.2,2.2,0.3,3.4,0.3c1.9,0,3.5-0.3,4.9-0.8c1.4-0.6,2.4-1.4,3.1-2.4
				c0.7-1.1,1.1-2.4,1.1-3.9v0C512,231.9,511.7,230.7,511,229.7z M454.4,216.4l-9.1,24.1h4.3l1.6-4.6h9.4l1.6,4.6h4.3l-9.1-24.1
				H454.4z M452.5,232.1l3.4-9.6l3.4,9.6H452.5z M256.3,216.4h-1.7v24.1h1.7h2.3h11.9v-3.8h-11.9v-6.3h10.1v-3.8h-10.1v-6.5h11.9
				v-3.8h-11.9H256.3z M233.8,220.2h6.7v20.3h4v-20.3h6.7v-3.8h-17.5V220.2z M289.1,229.6c1-0.6,1.9-1.4,2.4-2.5
				c0.6-1.1,0.9-2.3,0.9-3.7c0-1.4-0.3-2.6-0.9-3.7c-0.6-1.1-1.4-1.9-2.4-2.5c-1-0.6-2.2-0.9-3.6-0.9h-6.1h-2.3h-1.7v24.1h4v-10h3.9
				l5.3,10h4.8l-5.7-10.3C288.2,230.1,288.7,229.9,289.1,229.6z M286.9,226.3c-0.4,0.3-0.9,0.4-1.5,0.4h-6v-6.6h6
				c0.6,0,1.1,0.1,1.5,0.4c0.4,0.3,0.8,0.7,1,1.2c0.2,0.5,0.4,1.1,0.4,1.7c0,0.7-0.1,1.2-0.4,1.7C287.7,225.7,287.3,226,286.9,226.3
				z M358.6,216.4l-9.1,24.1h4.3l1.6-4.6h9.4l1.6,4.6h4.3l-9.1-24.1H358.6z M356.7,232.1l3.4-9.6l3.4,9.6H356.7z M388.6,229.6
				c1-0.6,1.9-1.4,2.4-2.5c0.6-1.1,0.9-2.3,0.9-3.7c0-1.4-0.3-2.6-0.9-3.7c-0.6-1.1-1.4-1.9-2.4-2.5c-1-0.6-2.2-0.9-3.6-0.9h-6.1
				h-2.3h-1.7v24.1h4v-10h3.9l5.3,10h4.8l-5.7-10.3C387.7,230.1,388.2,229.9,388.6,229.6z M386.3,226.3c-0.4,0.3-0.9,0.4-1.5,0.4h-6
				v-6.6h6c0.6,0,1.1,0.1,1.5,0.4c0.4,0.3,0.8,0.7,1,1.2c0.2,0.5,0.4,1.1,0.4,1.7c0,0.7-0.1,1.2-0.4,1.7
				C387.1,225.7,386.8,226,386.3,226.3z"/>
		</g>
	</g>
</g>
<g id="ARTISANS_copy_1_" class="st0">
	<g id="ARTISANS_copy">
		<g>
			<path class="st2" d="M332.1,224c-3,0-5.4,2.4-5.4,5.4c0,3,2.4,5.4,5.4,5.4c3,0,5.4-2.4,5.4-5.4C337.5,226.4,335.1,224,332.1,224z
				 M153.3,224c-3,0-5.4,2.4-5.4,5.4c0,3,2.4,5.4,5.4,5.4c3,0,5.4-2.4,5.4-5.4C158.7,226.4,156.3,224,153.3,224z M18.1,196.5H54
				L91,124.1h52.6l36.9,72.4h35.9L117.4,2.1L18.1,196.5z M101.8,96.5l15.5-31.2l15.3,31.2H101.8z M396.8,2.1l-99.2,194.4h35.9
				l36.9-72.4H423l36.9,72.4h35.9L396.8,2.1z M381.2,96.5l15.5-31.2L412,96.5H381.2z M324.3,0.1l-34.1,65.2L257,0.6l-33.2,64.7
				L189.7,0.1h-35.9L223.6,137L257,72.1l33.2,65.2l70-137.2L324.3,0.1L324.3,0.1z M229.5,196.3h55.5l-28-53.8L229.5,196.3z"/>
		</g>
	</g>
</g>
</svg>
