<?xml version="1.0" encoding="utf-8"?>
<!-- Generator: Adobe Illustrator 23.1.0, SVG Export Plug-In . SVG Version: 6.00 Build 0)  -->
<svg version="1.1" id="Shape_1_1_" xmlns="http://www.w3.org/2000/svg" xmlns:xlink="http://www.w3.org/1999/xlink" x="0px" y="0px"
	 viewBox="0 0 500 500" style="enable-background:new 0 0 500 500;" xml:space="preserve">
<style type="text/css">
	.st0{fill:#147CC2;}
</style>
<g id="Shape_1">
	<g>
		<path class="st0" d="M186.28,205.04l-53.44,40.33l88.37,117.17l52.42-39.31l4.11-30.83l-62.7-83.26L186.28,205.04z M226.62,315.51
			l-48.05-63.72l17.73-13.09l47.79,63.46L226.62,315.51z M476.73,154.24c-6.17-14.58-13.81-28.64-22.7-41.8
			c-8.81-13.03-18.92-25.28-30.06-36.42c-11.14-11.14-23.39-21.25-36.42-30.06c-13.16-8.89-27.22-16.53-41.8-22.7
			C315.41,10.43,283.2,3.92,250,3.92c-33.2,0-65.41,6.51-95.75,19.35c-14.58,6.17-28.64,13.81-41.8,22.7
			c-13.03,8.81-25.29,18.92-36.42,30.06c-11.14,11.14-21.25,23.39-30.06,36.42c-8.89,13.16-16.53,27.22-22.7,41.8
			c-12.84,30.34-19.35,62.55-19.35,95.75c0,33.2,6.51,65.42,19.35,95.75c6.17,14.58,13.81,28.64,22.7,41.8
			c8.81,13.03,18.92,25.29,30.06,36.43c11.14,11.14,23.39,21.25,36.42,30.06c13.16,8.89,27.22,16.53,41.8,22.7
			c30.34,12.84,62.55,19.35,95.75,19.35c33.2,0,65.41-6.51,95.75-19.35c14.58-6.17,28.64-13.81,41.8-22.7
			c13.03-8.81,25.29-18.92,36.42-30.06c11.14-11.14,21.25-23.39,30.06-36.43c8.89-13.16,16.53-27.22,22.7-41.8
			c12.84-30.34,19.35-62.56,19.35-95.75C496.08,216.79,489.57,184.58,476.73,154.24z M250,493.61
			c-134.33,0-243.61-109.29-243.61-243.62C6.39,115.67,115.68,6.39,250,6.39c134.32,0,243.6,109.28,243.6,243.61
			C493.61,384.33,384.33,493.61,250,493.61z M250,14.66c-129.75,0-235.08,105.58-235.08,235.33c0,129.76,105.33,235.1,235.08,235.1
			c129.73,0,235.33-105.34,235.33-235.1C485.33,120.25,379.74,14.66,250,14.66z M117.76,73.93l20.75,14.82l20.81-15.63L152,98.29
			l21.5,15.06l-25.92,0.26l-7.47,24.81l-8.39-24.87l-26.36,0.14l20.75-15.58L117.76,73.93z M114.45,378.76l-7.47,24.83l-8.4-24.89
			l-26.36,0.12l20.74-15.57l-8.32-24.16l20.74,14.81l20.82-15.63l-7.33,25.17l21.5,15.06L114.45,378.76z M117.07,249.87
			L117.07,249.87c0-73.48,59.57-133.05,133.04-133.05c73.48,0,133.05,59.57,133.05,133.05c0,73.49-59.57,133.06-133.05,133.06
			C176.64,382.93,117.07,323.36,117.07,249.87z M372.39,412l-7.45,24.81l-8.43-24.88l-26.34,0.13l20.73-15.58l-8.3-24.16v0
			l20.74,14.82l20.8-15.64l-7.3,25.18l21.48,15.06L372.39,412z M410.94,155.33l-7.47,24.82l-8.41-24.88l-26.35,0.12l20.74-15.57
			l-8.33-24.16l20.76,14.81l20.81-15.63l-7.32,25.17l21.48,15.06L410.94,155.33z M363.56,227.64l-21.84-28.53l-25.96,19.8
			l13.87,18.49l-17.2,13.38l-47.79-63.73l17.2-13.1l13.1,17.48l26.46-19.79l-20.8-27.23l-28.27-4.11v0l-37.5,28.26l-4.11,28.26
			l62.95,83.49l30.82,4.37l34.68-26.21L363.56,227.64z"/>
	</g>
</g>
</svg>
