<?xml version="1.0" encoding="utf-8"?>
<!-- Generator: Adobe Illustrator 23.1.0, SVG Export Plug-In . SVG Version: 6.00 Build 0)  -->
<svg version="1.1" id="Layer_1" xmlns="http://www.w3.org/2000/svg" xmlns:xlink="http://www.w3.org/1999/xlink" x="0px" y="0px"
	 viewBox="0 0 512 395" style="enable-background:new 0 0 512 395;" xml:space="preserve">
<style type="text/css">
	.st0{enable-background:new    ;}
	.st1{fill:#FFFFFF;}
	.st2{fill-rule:evenodd;clip-rule:evenodd;fill:#FFFA1D;}
	.st3{fill:#E23B18;}
</style>
<g id="Rectangle_1_copy_1_" class="st0">
	<g id="Rectangle_1_copy">
		<g>
			<path class="st1" d="M376.4,205c0-62.1-49.4-111.4-111.7-111.4S152.9,142.9,152.9,205c0,26.9,9.7,51.3,25.6,70.7l-12.9,13.6
				c-4.6,4.8-4.7,11.4,0.1,16l0,0c4.8,4.6,11.7,4.3,16.3-0.5l12.6-13.2c6.6,5.2,14.4,10.2,22,13.9l-6.1,18.9
				c-2.2,6.3,0.4,12,6.7,14.2h0c6.3,2.2,12.1-0.8,14.3-7.1l6.7-18.5c7,1.6,15.2,3.1,22.6,3.4l1,16.7c0.4,6.6,5.4,11,12.1,10.5h0
				c6.6-0.4,11-5.4,10.6-12.1l-1-16.5c7.4-1.3,16-3.6,22.9-6.2l8.4,14.5c3.4,5.7,10.3,7.8,16,4.4h0c5.7-3.4,6.9-10.1,3.5-15.8
				l-8-13.4C356.5,278.4,376.4,244,376.4,205z"/>
		</g>
	</g>
</g>
<g id="Ellipse_1_1_" class="st0">
	<g id="Ellipse_1">
		<g>
			<path d="M231.5,377.4l6,0.5l-1.6,15.9l11.5,1.2l1.8-16l5.8,0.5l1.5-11.4l-23.9-2.1L231.5,377.4z M260,366.9l0.6,28l11.6-0.5
				l-0.6-27.9L260,366.9z M320.9,354.3c0,0,3,6.5,3.4,7.3s-0.7,1.3-1.2,1c-0.5-0.4-8.9-5.7-8.9-5.7l-7.7,3.6l11.2,25.2l10.6-4.9
				c0,0-3.1-6.3-3.6-7.2c-0.5-0.9,0.7-1.1,0.7-1.1l9.4,6l8-3.6l-11.2-25.4L320.9,354.3z M158.4,329.5c-2.4-1.6-4.4-3.5-4.4-3.5
				l-17.6,21.6c0,0,7.2,6.5,13.8,10.4c6.5,3.9,14.9,1.7,18.5-3.7s2-13.3-0.7-16.7C165.2,334.1,160.8,331.1,158.4,329.5z M156,349.2
				c-2,0-3.5-2.3-3.5-2.3l4.5-5.2c0,0,2.5,1.1,2.8,3.1C160.1,346.8,158,349.1,156,349.2z M218.8,373.2c3,0.8,5.2,2.4,5.2,2.4
				l7.1-7.8c0,0-5.2-4.2-9.7-5.7c-3.1-1.1-13.1-1.8-17.6,6.9c-4.5,8.7,0.8,16.5,6.2,19.5c5.4,2.9,14.9,1.8,14.9,1.8l-2-11
				c0,0-3.1,0.5-6.2-0.8C212.4,376.8,214,371.9,218.8,373.2z M354.5,347.1c-3.7,0.7-5.6,0.6-6.4-0.6c-0.8-1.2,2.3-4.9,9.4-3.6
				c0,0-1.9-3.1-2.4-7.9c-6.2,2.5-12.5,5.7-15.5,10.1c-3,4.5-1.8,8.3,0.9,11c2.7,2.6,7.3,1.6,9.4,1.1c2.2-0.6,4.6-0.8,5.3,0.6
				c0.7,1.4-0.5,3.4-2.3,4c-1.9,0.6-7.2-0.4-7.2-0.4l2.6,8.6c0,0,7.3-1.3,13.3-6.4s7.2-9.7,4.4-13.9
				C363.1,345.3,358.1,346.4,354.5,347.1z M192.9,352.5c0,0-5.9,10.6-7.1,12.6c-1.1,2-4,0.7-2.9-1.3c1.1-2,6.3-12.8,6.3-12.8
				l-10.7-5.8c0,0-4.6,9.4-6.7,14.4c-2.1,5-1,12.9,5.1,16c6.1,3.2,14.9,2.8,18.3-2.6c3.4-5.4,8.2-15.2,8.2-15.2L192.9,352.5z
				 M350.7,150.8c0.4,1.4,0.1,1.1,1.5,1.5C351.9,151,352.1,151.2,350.7,150.8z M353.2,154.4c0.3,0.7,0.7,1.3,1,2h0.5v0.5h0.5
				c-0.2-1.9-1.2-3.3-2.5-4c-0.2,0.3-0.3,0.7-0.5,1C352.6,154,352.9,154.2,353.2,154.4z M285.2,331.5l-1-15.8
				c7.4-1.3,14.7-3.3,21.5-6l8.7,14.5c3.4,5.7,10.8,7.6,16.5,4.2h0c5.7-3.4,7.6-10.8,4.2-16.5l-7.9-13.4
				c26.5-17.6,45.1-46.1,49.3-79.1l20.9-8.8l-20.6,31.1L512,197.1l-0.2-0.9l-100.3,20.2l22.3-37.2l-56.6,17.2
				c-4.4-58.1-53.1-103.8-112.5-103.8c-61.6,0-111.7,49.2-112.8,110.4l-21.8,10.7l7.6-21.9l-138,25.8l-0.2,0.8l111.9-8.1L75,245.6
				l79.4-16.9c3.8,17.6,11.8,33.8,22.8,47.3l-12.3,12.7c-4.6,4.8-4.5,12.4,0.3,17l0,0c4.8,4.6,12.4,4.5,17-0.3l12.1-12.6
				c6.6,5.2,13.7,9.7,21.4,13.4l-6.1,17.6c-2.2,6.3,1.1,13.2,7.4,15.3h0c6.3,2.2,13.2-1.1,15.3-7.4l6.1-17.5
				c7,1.6,14.2,2.7,21.6,2.9l1,15.7c0.4,6.6,6.1,11.7,12.8,11.3h0C280.6,343.8,285.6,338.1,285.2,331.5z M333.6,313
				c2.9,4.8,1.3,11-3.5,13.9c-4.8,2.9-11,1.3-13.9-3.5l-8.6-14.4c6.3-2.6,12.4-5.7,18.1-9.4L333.6,313z M316.6,114.7
				c1.4,0.4,1.8,1,3,1.5v1c-1.9-0.2-1.4-0.6-3-1V114.7z M180.7,304.2c-3.9,4-10.3,4.1-14.3,0.3c-4-3.9-4.1-10.3-0.3-14.3l12.3-12.7
				c4.4,5.2,9.2,9.9,14.4,14.2L180.7,304.2z M257.4,314.5c0.2-0.1,0.3-0.1,0.4-0.2c0.3-0.5,0.7-1,1-1.5h2v-0.5
				c0.8-0.6,0.7-0.3,1-1.5c1,0.2,2,0.3,3,0.5c0.2-0.3,0.3-0.7,0.5-1h1v-0.5c2.8-1,5.6,1.2,7.5-1h0.5c0.4-1.2-0.8-1-1-1.5v-1
				c1.8,0.2,3.7,0.3,5.5,0.5v-0.5c1-0.2,2-0.3,3-0.5c0.2-0.3,0.3-0.7,0.5-1h1v-0.5h1v-0.5c0.7-0.2,1.3-0.3,2-0.5
				c0.2-0.3,0.3-0.7,0.5-1h1.5c0.2-0.3,0.3-0.7,0.5-1h1c1-1.5,2-3,3-4.5c4-1.3,8-2.7,12-4c0.3-0.5,0.7-1,1-1.5
				c2.4-2.3,5.1-4.3,6.5-7.5v-1.5h0.5v-1.5h0.5v-1c2.7-2.5,5.4-5,8-7.5v-1c0.5-0.3,1-0.7,1.5-1v-2h0.5v-2.5h-0.5v-0.5
				c-1.5,0.8-1.8-0.2-3.5-0.5c-0.4-1.4-0.9-1.4-1.5-2.5c-1.5,0.2-3,0.3-4.5,0.5c0,0-0.4-0.8-1.5-0.5v0.5c-1,0.3-1.3,0.2-2,0.5v-0.5
				h-0.5v-1.5h-0.5c-0.6-0.5-3.8-1.4-5-1.5c-0.4,1.4-0.1,1.1-1.5,1.5v-2.5H301c-0.3,1-0.7,2-1,3c-1.2-0.3-1.1-0.5-2-1
				c0.4-2.2,1.3-3.6,3-4.5c-0.2-0.7-0.3-1.3-0.5-2c-0.3-0.2-0.7-0.3-1-0.5v-3.5H299c-0.2-0.5-0.3-1-0.5-1.5c-1.7-0.3-3.3-0.7-5-1
				v-0.5c-1.2,0.2-2.3,0.3-3.5,0.5c-0.3-0.5-0.7-1-1-1.5h-1v-0.5c-0.5-0.3-1-0.7-1.5-1c-0.4-0.6-0.4-2.1-1-2.5c-1-0.2-2-0.3-3-0.5
				c-0.1-1.1,0.1-2-0.5-2.5h-1.5v-0.5c-0.7-0.6-0.9-1-1.5-1.5v-0.5c-0.7,0.2-1.3,0.3-2,0.5v0.5h-2v0.5c-0.4,0.1-3.2-0.5-4.5-0.5
				c-0.4-0.6-1.3-0.7-1.5-1v-1.5c-0.3-0.4-1.8-0.9-2.5-1c-0.6-0.6,0-0.2-1-0.5c-0.5,0.9-1.1,1.5-2,2c0.2,1,0.3,2,0.5,3
				c-0.8,0.2-1.7,0.3-2.5,0.5v-3c0.3-0.2,0.7-0.3,1-0.5v-1h0.5v-1h0.5c0.2-0.5,0.3-1,0.5-1.5c-1.8,0.1-2,0.2-3,1v0.5
				c-0.7,0.2-1.3,0.3-2,0.5v0.5c-1-0.2-2-0.3-3-0.5c0,1.8,0.1,2.3-1,3v0.5c-0.7-0.4-0.8-0.4-2-0.5c-0.2,0.7-0.3,1.3-0.5,2
				c-0.5-0.2-1-0.3-1.5-0.5c-0.3-1.4-0.7-1.1-1-2.5c-1.2-0.3-0.9-0.1-1.5-1c-1.1,0.1-1.3,0-2,0.5v0.5h-0.5c-0.6,0.4-0.1-0.1-0.5,0.5
				h-3c-0.2-0.3-0.3-0.7-0.5-1c-0.5-0.2-1-0.3-1.5-0.5v-1c-0.3-0.2-0.7-0.3-1-0.5c-0.6-0.9,0-1.1-1-2c0.1-2.2,0.6-2.2,1.5-3.5h0.5
				v-3h0.5v-2.5c-0.7-1.3-6.7-2.6-9-2.5c-0.4-0.6,0.1-0.1-0.5-0.5c0.2-1.6,0.4-1.6,1-2.5h0.5c0.2-1,0.3-2,0.5-3c0.5-0.3,1-0.7,1.5-1
				c0.2-0.8,0.3-1.7,0.5-2.5h0.5c0.5-0.7,1-1.3,1.5-2c-0.6-0.4-0.1,0.1-0.5-0.5h-4c-0.5,0.6-1.7,1-2,1.5c-1.3,1.9,0.2,2.3-3,3
				c-0.2,0.3,0.1,0.8-0.5,0.5v-0.5h-1V212c-1-0.3-1.5,0.5-1.5,0.5c-0.8-0.2-1.7-0.3-2.5-0.5c-0.6-2.6-2.2-4.8-3-7
				c-0.6-1.7,1-7.2,1.5-8c0.3-0.2,0.7-0.3,1-0.5v-1h0.5c0.2-1.5,0.3-3,0.5-4.5c0.5-0.2,1-0.3,1.5-0.5V190h1v-0.5
				c2.1-0.9,1.8,0.6,3-1.5c3.3,0.2,4.9,1.8,7,3c0.3-0.8,0.5-1.2,0.5-2.5c3.6,0.4,9.2,2.4,11,4.5h0.5c0.2,0.8,0.3,1.7,0.5,2.5h0.5
				c0.3,1-0.5,1.5-0.5,1.5c0.2,1.8,0.3,3.7,0.5,5.5c0.6,0.4,0.1-0.1,0.5,0.5h1.5v-0.5h0.5v-2h0.5c0.2-0.8-0.5-0.9-0.5-1v-5h-0.5v-3
				h0.5v-1h0.5c0.2-0.5,0.3-1,0.5-1.5h0.5v-0.5h1V188h1c0.5-0.7,1-1.3,1.5-2h1v-0.5h2V185c0.7-0.5,1.3-1,2-1.5
				c0.2-1.5,1.1-3.4,0-4.5c0-2.3,0.2-2.6,1.5-3.5v-0.5c0.8,0.2,1.7,0.3,2.5,0.5c0.5-1,1-2,1.5-3c1.2-0.2,2.3-0.3,3.5-0.5
				c0.3-1,0.7-2,1-3c0.5-0.8,7.2-3.8,8.5-4c0.4,0.6-0.1,0.1,0.5,0.5c-0.3,1.3-0.5,1.4-1.5,2c0.4,0.6-0.1,0.1,0.5,0.5
				c0.6,0.6,0,0.2,1,0.5c1-1.2,3.9-2.8,5.5-3.5c0.2-0.5,0.3-1,0.5-1.5h-0.5v-1c-2.1,0.6-0.6,0.2-1.5,1.5c-0.3,0.4-0.7,0.3-1,1
				c-2.2,0-2,0.2-3-1h-0.5v-1.5c-0.3-0.4-1.1-0.4-1.5-1c-0.6-0.6-0.2,0-0.5-1h0.5v-0.5c0.5,0.2,1,0.3,1.5,0.5c0.2-0.5,0.3-1,0.5-1.5
				c-0.6,0-2-0.5-2-0.5v0.5c-0.5,0.2-1,0.3-1.5,0.5v0.5c-1.8,1.1-2.9,0.4-3.5,3h-1.5c0.4-2.5,1.4-1.9,2-4c1.7-0.5,5.2-4,7-2.5h5.5
				c0.5-0.8,1-1.7,1.5-2.5h1c0.2-0.5,0.3-1,0.5-1.5h0.5v-0.5H289c-0.8-2.4-0.4-0.5-2-1.5c-0.3-0.5-0.7-1-1-1.5h-1
				c-0.2-0.5-0.3-1-0.5-1.5c-0.5-0.3-1-0.7-1.5-1v-1h-0.5c-0.2-1-0.3-2-0.5-3h-1c-0.2-1-0.3-2-0.5-3c-1.8,0.5-1.4,1-2,2.5
				c-2.1-0.1-2.2-0.3-3-1.5H275c0.2-0.8,0.3-1.7,0.5-2.5H275c-0.9-1.3-1.5-0.7-2-2.5c-1.5-0.2-3-0.3-4.5-0.5v1h-0.5v3h-0.5
				c-0.2,0.4-1,1.6-0.5,2.5h0.5c0.1,3.9-0.9,4.5-3.5,5.5c0.2,1.7,0.3,3.3,0.5,5c-1.2,0.3-2.3,0.7-3.5,1c-0.2-0.5-0.3-1.6-0.5-2
				c-0.3-0.2-0.7-0.3-1-0.5c0.3-1.7,0.7-3.3,1-5c-2.2-0.1-1.7-0.3-3-1v-1c-1.8-0.5-1.7-1.6-3-2.5v-0.5h-2c0.1-2.3,0.8-3.1-0.5-4
				c0.3-2.7,1.7-2.8,3.5-4c0.2-0.3,0.3-0.7,0.5-1h2c0.2-0.3,0.3-0.7,0.5-1c1.2-0.3,2.3-0.7,3.5-1c0.4-1.4,0.1-1.1,1.5-1.5v-1h1.5
				v0.5c1.6-0.2,1.5-0.5,2.5-1c0.2-1,0.3-2,0.5-3h-1.5v0.5c-1.4,1.2-0.3,1.3-3,1.5c0.2-1.1,0.3-1.4,1-2v-0.5h-1.5
				c0.3-1.5,0.7-3,1-4.5h0.5v-0.5h2c-0.3,1,0.1,0.4-0.5,1c0,1.2-0.1,2.4,0.5,3h1c0.2,0.3,0.3,0.7,0.5,1h1v0.5
				c0.8-0.2,1.7-0.3,2.5-0.5v0.5c1.1,0.7,1.3,1.8,2.5,2.5c-0.1,2.3-0.8,2.5-1.5,4c-1-0.2-2-0.3-3-0.5v2h3c0.2,0.5,0.3,1,0.5,1.5
				c0.3,0.2,0.7,0.3,1,0.5c1.1,1.2,1.3,1.8,3.5,2c-0.2-0.7-0.3-1.3-0.5-2h1v1h1.5c-0.4-3-1.9-2.7-2.5-5h1.5c0.2,0.5,0.3,1,0.5,1.5
				h1.5c0.4-0.6-0.1-0.1,0.5-0.5c-0.3-2.4-1.6-2.4-2.5-4H277c0-4.2-2-4-3.5-6.5h-2.5c-0.2-0.5-0.3-1-0.5-1.5
				c-1.5-0.6-2.1-0.9-3.5-0.5c-0.2-0.5-0.3-1-0.5-1.5h-1.5v0.5h-1c0.2-0.5,0.3-1,0.5-1.5h-1.5v0.5c-1,0.3-0.4-0.1-1,0.5h-0.5v1.5h2
				c-0.5,1.7-0.6,0.9-1.5,2h-0.5v2.5c0,0-0.8,0.6-1,1c-2.2-0.4-1.1,0.2-1-2h-0.5c-0.2,0.5-0.3,1-0.5,1.5c-1,0.3-0.4-0.1-1,0.5
				c-2.3-0.3-1.9-0.7-2.5-2.5h-2v0.5c-1.7-0.2-1.9-0.4-2.5-1.5h-0.5c0.2-0.7,0.3-1.3,0.5-2h-0.5v-2h-1.5v-2c-1.8,0-3.1-0.1-4-1h-0.5
				c0.2-0.7,0.3-1.3,0.5-2h0.5v-2.5h0.5c0.4-0.7,0.4-0.9,0.5-2c-1.7-0.1-4.8-1.3-7-0.5v0.5h-1v0.5c-0.5,0.2-1,0.3-1.5,0.5
				c-0.2-0.3-0.3-0.7-0.5-1c-1.2,0-2.4-0.1-3,0.5v1h-0.5c-0.3,0.5-0.7,1-1,1.5c-1.4-0.4-3.1-1.8-4.5-0.5c-1.8,0-2.9,0.1-4,0.5v2.5
				c-1.6,0.4-1.9,1.1-2.5,2.5c-2-0.2-4-0.3-6-0.5v-0.5c-0.7-0.2-1.3-0.3-2-0.5v-0.5h-0.5v0.5h-1c1,1.4,4.4,3,7,3
				c0.3,1-0.1,0.4,0.5,1c1.1,0.8,2.4-0.8,3.5-1.5v-0.5c1.6-0.6,1.7,0.9,2,1h2.5c-0.2,0.7-0.3,1.3-0.5,2h0.5v2h-0.5v1.5
				c-0.3,0.2-0.7,0.3-1,0.5c-1.1,1.3-0.7,1.9-0.5,3.5c-1,0.3-2,0.7-3,1c0.2,1,0.3,2,0.5,3c-0.8,0.7-1.7,1.3-2.5,2
				c-0.2,0.8-0.3,1.7-0.5,2.5h-0.5c-0.2,0.5-0.3,1-0.5,1.5c-0.7,0.2-1.3,0.3-2,0.5v1.5h-0.5v3.5h0.5c0.5-1.1,0.9-1.4,1-3h0.5
				c0.2,0.5,0.3,1,0.5,1.5h0.5c0.3,0.8-1.2,2.6-1.5,3.5h-1.5v-2h-0.5c-1.5,3.2-2.2,3.8-4.5,6c-0.3,0.5-0.7,1-1,1.5h-1
				c-0.2,0.3-0.3,0.7-0.5,1h-0.5v1h-0.5v1c-0.5,0.3-1,0.7-1.5,1v1c-0.3,0.2-0.7,0.3-1,0.5v1h-0.5v1.5h-0.5v3.5h-0.5v1h-0.5
				c-1.2,3-0.6,6.3,1.5,7.5c-0.1,1.9-0.4,2.6-1,4h-0.5c-0.9,2.5,0.3,5.9-0.5,7c-0.4,1.4-0.1,1.1-1.5,1.5c0.1,1.7,0.2,2.5,1,3.5
				c0.3,0.2,0.7,0.3,1,0.5c0.5,1.1-0.4,1.9-0.5,2.5c0.2,1.8,0.3,3.7,0.5,5.5c0.5,0.2,1,0.3,1.5,0.5V191h-0.5c-0.6-2.2,1.6-4.7,0-6.5
				c-0.1-2.8-0.7-8.3,1-9.5c0.4-0.6-0.1-0.1,0.5-0.5c0.2,0.3,0.3,0.7,0.5,1c0.6,0.8-0.7,5.8,0,8h0.5v1.5h0.5c-0.2,1.5-0.3,3-0.5,4.5
				h0.5c0.3,1,0.7,2,1,3h0.5c0.2,1.8,0.3,3.7,0.5,5.5c0,0.1,0.8,0.2,0.5,1h-0.5c-0.2,0.5-0.3,1-0.5,1.5h-0.5v4h0.5v1
				c0.5,0.3,1,0.7,1.5,1v0.5h1c0.2,0.3,0.3,0.7,0.5,1h0.5v1c0.3,0.2,0.7,0.3,1,0.5v1c0.3,0.2,0.7,0.3,1,0.5c0.7,0.8,1.3,1.7,2,2.5h1
				c0.2,0.3,0.3,0.7,0.5,1c1.7,0.2,3.3,0.3,5,0.5v0.5c0.5,0.3,1,0.7,1.5,1v1h0.5v1c0.3,0.2,0.7,0.3,1,0.5v1c1.2,0.8,2.3,1.7,3.5,2.5
				h1v0.5c0.8,0.6,0.9,0.7,2,1v0.5h2c0.2,3.8,1.8,2.9,2.5,5.5h0.5c0.4,1-0.6,1.2-1,1.5c0.8,1.2,0.4,0.3,1.5,1v0.5h1
				c0.6,0.5,0.6,1.9,1,2.5c0.5,0.3,1,0.7,1.5,1v0.5h1c0.8,1.2,1.7,2.3,2.5,3.5h1c0.7-1.7,0.4-2.6,2-3.5v-0.5c1.2,0.3,1.1,0.5,2,1
				v3.5h1.5c0.4,0.6-0.1,0.1,0.5,0.5v2h-0.5v5.5h-0.5c-1.2,1.4-2.3,0.7-3,3c-2.9,0.8-2.4,3.2-4.5,4.5c-0.2,0.5-0.3,1-0.5,1.5
				c0.6,0.4,0.1-0.1,0.5,0.5h2c-0.4,3.6-1,1.5-3,2.5c-0.1,0.1-0.5,0.8-1,1c0.2,2.7,1.1,4,2.5,5.5c0.3,0.2,0.7,0.3,1,0.5
				c0.3,1,0.7,2,1,3c0.3,0.2,0.7,0.3,1,0.5v1.5h0.5c0.2,1,0.3,2,0.5,3h0.5v1h0.5c0.2,0.8,0.3,1.7,0.5,2.5c0.5,0.3,1,0.7,1.5,1v1
				c0.8,1.1,2.3,0.9,3.5,1.5v0.5h1v0.5h1v0.5h1.5v0.5c0.7,0.5,1.3,1,2,1.5c0,0.8,0.5,1.9,0.5,2h-0.5c-0.3,1.7-0.7,3.3-1,5h-0.5
				c-0.2,1.5-0.3,3-0.5,4.5h-0.5c-0.2,0.7-0.3,1.3-0.5,2h-0.5v1c-0.3,0.2-0.7,0.3-1,0.5c0.2,0.8,0.3,1.7,0.5,2.5c-1.2,1-2.3,2-3.5,3
				v2c-0.2,0.5-0.6,0-1,1.5h1.5v1c-0.8,0.2-1.7,0.3-2.5,0.5v1.4c-4.1-0.6-8-1.3-11.9-2.3l0,0l-6.9,20c-1.8,5.3-7.6,8.1-12.9,6.2
				c-5.3-1.8-8.1-7.6-6.2-12.9l6.9-19.8l0.1-0.3l-0.7-0.3c-37.4-17.6-63.2-55.4-63.2-99.3c0-50.2,33.9-92.6,80.1-105.7
				c-0.6,0.4-0.8,0.6-1.8,0.9c-0.3,1,0.1,0.4-0.5,1v0.5c0.5,0.2,1,0.3,1.5,0.5v-0.5c1-0.2,2-0.3,3-0.5v1h-0.5c-0.9,1-1,0.3-1.5,2
				c2.6-0.1,3.6-0.6,5.5-1.5v-0.5h2v-0.5c1.5-0.3,3-0.7,4.5-1v1h2.5v-1c-1.4-0.4-1.1-0.1-1.5-1.5c0.5-0.2,1-0.3,1.5-0.5v-0.5h1v-0.5
				h4v-0.5h2v-0.5c0.8-0.1,0.9,0.5,1,0.5c1.7-0.2,3.3-0.3,5-0.5v1h1.5v0.5h3.5v-0.5c-0.9-0.3-1.6-0.5-3-0.5c-0.2-0.5-0.3-1-0.5-1.5
				h2c0.1,0,0.1-0.3,0.4-0.5c0.2,0,0.4,0,0.6,0c0.2,0.3,0.3,0.7,0.5,1c2.5,1,6.8-1.1,8.5,0.5h0.5c-0.2,0.5-0.3,1-0.5,1.5
				c1.4,0,2.1,0.2,3,0.5c-0.3,0.5-0.7,1-1,1.5c0.7,0.5,0.7,1,1.5,1.5c0.4,0.6-0.1,0.1,0.5,0.5c0.2-0.3,0.3-0.7,0.5-1h0.5
				c0.1-0.8-1.3-1.2-1.5-1.5v-1c2.3,0.2,4.7,0.3,7,0.5v0.5c0.8,0.2,1.7,0.3,2.5,0.5c0.2,0.5,0.3,1,0.5,1.5c2.8,1,5.7,2,8.5,3v0.5
				c0.7,0.2,1.3,0.3,2,0.5v0.5h1.5v0.5c1.5,0.5,3,1,4.5,1.5v0.5c0.5,0.2,1,0.3,1.5,0.5c-0.4,0.7-0.3,0.6-1,1c0.8,2.9,3.8,4,6,5.5
				c0.3,0.5,0.7,1,1,1.5c0.7,0.2,1.3,0.3,2,0.5c1,1.2,2,2.3,3,3.5c0.3,0.2,0.7,0.3,1,0.5c0.2,0.7,0.3,1.3,0.5,2
				c0.3,0.2,0.7,0.3,1,0.5c0.7,0.8,1.3,1.7,2,2.5h1c1,0.6,1.9,1.5,2.5,2.5h1.5v-2c2.5,0.3,3,1.5,5,2c-0.5-1.9-1.5-1.6-2-3.5
				c-1.7-0.5-2.3-1.6-3.5-2.5v-0.5c-0.8-0.2-1.7-0.3-2.5-0.5c-1.4-0.7-2.3-2.1-4-2.5c-0.3-1,0.1-0.4-0.5-1v-1
				c1.9,0.9,2.9,2.3,5.5,2.5c-0.3-1.4-0.7-1.1-1-2.5c1.4,0.4,1.3,0.6,2,1.5h0.5v1.5h0.5c1.1,1.4,0.1,0.1,1.5,1v0.5h1
				c0.6,0.5,0.6,1.9,1,2.5c1.3,1,2.7,2,4,3c0.1,2.5,0.4,2.8,0,5h-1c-0.5,0.5,0.5,0.5,0.5,0.5v1.5c0.7,2.1,2.2,3.8,2.5,6.5
				c-1.3-0.4-1.6-0.8-2.5-1.5v-0.5c-0.7-0.2-1.3-0.3-2-0.5c-0.3-0.5-0.7-1-1-1.5h-1.5v-0.5h-1v-0.5h-1v-0.5c-1.2-1-1.5-1.8-3.5-2
				c-0.4-1.4-0.1-1.1-1.5-1.5v2.5h0.5c0.9,1,1.1,0.4,2,1c0.2,0.3,0.3,0.7,0.5,1h1v0.5h1c0.2,0.3,0.3,0.7,0.5,1h1v0.5
				c0.5,0.2,1,0.3,1.5,0.5v1.5c0.3,0.2,0.7,0.3,1,0.5v1c0.7,0.5,1.3,1,2,1.5v2h0.5c0.4,0.6-0.1,0.1,0.5,0.5c0.3-1.4,0.6-2.8,1.5-3.5
				v-0.5c1.2,0.3,1.1,0.5,2,1c-0.2,2.3-1.1,3.7-1.5,5.5h2.5c0.7,0.8,2.5,1.4,3,2c0.9,1.1,0.7,2.2,2,3c-0.2,0.8-0.3,1.7-0.5,2.5
				c-1.6,0.3-2.4,0.9-3.5,1.5c0.1,1.8,0.2,2,1,3h0.5v1c0.3,0.2,0.7,0.3,1,0.5c0.2,0.7,0.3,1.3,0.5,2h0.5v2.5h0.5
				c0.5,0.7,1,1.3,1.5,2h0.5v0.5c0.5-0.2,1-0.3,1.5-0.5v0.5c0.7,0.2,1.3,0.3,2,0.5c-0.2-0.8-0.3-1.7-0.5-2.5h1.5
				c0.4-0.6-0.1-0.1,0.5-0.5c0-2.7,0-3.9-1-5.5c-0.3-0.2-0.7-0.3-1-0.5v-5c-0.3-0.2-0.7-0.3-1-0.5c-0.2-0.5-0.3-1-0.5-1.5h-0.5
				c-0.6-1.6,0.8-1.6,1-2v-1h0.5c0-0.3-0.8-1.7-1-2.5c1.3,0.1,1.8,0,2.5,0.5v0.5h1c0.2,0.3,0.3,0.7,0.5,1h1v0.5h2
				c0.2,0.5,0.3,1,0.5,1.5c0.3,0.2,0.7,0.3,1,0.5v1h0.5c-0.4-3-1.7-2.3-2-5h-1.5v-0.5c-3.4-0.2-3.8-2.2-6-3.5v-1
				c1.1,0.1,1.3,0.1,2,0.5v0.5h1v0.5h1.5v0.5h1c0.2,0.3,0.3,0.7,0.5,1c1,0.8,2,1.7,3,2.5h1c-0.6-1.2-1.2-2.1-2-3
				c-0.3-0.2-0.7-0.3-1-0.5v-1.5h-0.5v-1h0.5v1c1.3,0.3,0.8,0.3,1.5,1h0.5c0,0,0,0,0,0v1c0.2,0.4,0.7,0.3,1,1h0.3
				c1.1,1.7,2.1,3.5,3.1,5.2c-0.8-1.1-2.2-2.1-3.3-2.7c0.4,1.5,1,2.2,2.5,2.5v0.5h1c0.9,1.6,1.7,3.3,2.6,5c0,0,0,0,0,0
				c-0.4,0.6,0.1,0.1-0.5,0.5c0.2,2,0.7,3.7,2,4.5v1.5h-0.5v0.5c-0.7-0.2-1.3-0.3-2-0.5c0,0-0.7,0.9-1,1c-0.6-0.7-0.9-0.8-2-1
				c0-2.4-0.5-3.6-2.5-4c-0.2,0.5-0.3,1-0.5,1.5h-0.5v1c-0.3,0.2-0.7,0.3-1,0.5c-0.2,0.7-0.3,1.3-0.5,2h-0.5v3.5c0,0-0.3,0-0.5,1
				c-1.8,0.5-1.1,0.9-3.5,1c0.3,1.7,0.7,3.3,1,5c-0.2,1.1-1.6,2.6-1,4.5h0.5c0.5,2.2,1,4.3,1.5,6.5h-0.5v1h-0.5v1
				c-0.3,0.2-0.7,0.3-1,0.5v6.5c-0.4,1.4-1.9,6.1-1,8.5h0.5c0.2,0.7,0.3,1.3,0.5,2h0.5v2c0.6,1.8,1.8,5.6,1,8.5h-0.5
				c0.2,1.8,0.3,3.7,0.5,5.5c1.3,1.1,1.5,2.5,3.5,3c0.3,1-0.1,0.4,0.5,1c0.1,3.9,2.1,4.2,3.5,6.5c2.1-0.2,2.8-1,4-2v-0.5h1
				c0.5-0.7,1-1.3,1.5-2h0.5v-1c0.3-0.2,0.7-0.3,1-0.5v-1h0.5v-1h0.5v-1h0.5c0.2-0.8,0.3-1.7,0.5-2.5h0.5c0.6-0.6,0-0.2,1-0.5
				c0.2,0.5,0.3,1,0.5,1.5c1.2,0.3,0.9,0.1,1.5,1c0,0,0,0,0,0c-8.8,51.8-54.1,91.2-108.7,91.2C262.3,314.8,259.8,314.7,257.4,314.5z
				 M226.3,114.7h-1v-1h1V114.7z M273.8,342.5c-5.6,0.4-10.4-3.9-10.7-9.5l-1-15.8c0.9,0,1.7,0,2.6,0c6,0,11.9-0.5,17.6-1.4l1,15.8
				C283.6,337.4,279.4,342.2,273.8,342.5z M352.7,158.9h-1v1h1V158.9z M292.1,363.3c-8,0-14.4,6.5-14.4,14.6c0,8,6.5,14.6,14.4,14.6
				s14.4-6.5,14.4-14.6C306.5,369.8,300,363.3,292.1,363.3z M292.1,380.5c-1.8,0-3.3-1.5-3.3-3.4c0-1.9,1.5-3.4,3.3-3.4
				c1.8,0,3.3,1.5,3.3,3.4S293.9,380.5,292.1,380.5z M359.3,156.9c-0.3-1.2-0.1-0.9-1-1.5c-0.3-1,0.1-0.4-0.5-1
				c-0.3,0.8-0.5,1.2-0.5,2.5c0.5,0.2,1,0.3,1.5,0.5C359.2,156.8,358.7,157.3,359.3,156.9z M433.7,231.7c-4.2,0-7.7,3.4-7.7,7.7
				c0,4.2,3.4,7.7,7.7,7.7c4.2,0,7.7-3.4,7.7-7.7S437.9,231.7,433.7,231.7z M220.4,74.5l-7.1-19.1c0,0,7.1-2.4,11.9-7.5
				c4.7-5.2,9-16.4,4.6-26.6c-4.4-10.2-14.4-14.7-26.9-12.7c-12.4,2-29.5,11.6-29.5,11.6L200,83.7C206.3,79.7,220.4,74.5,220.4,74.5
				z M208.2,25.4c3,0.2,5.6,2.7,5.6,5.8s-1,6.7-7,7.5l-4.6-11.3C202.2,27.4,205.1,25.2,208.2,25.4z M184.3,94
				c7.4-7.3,13.1-24-2.5-44.2c-15.6-20.1-33.8-20.8-44-12c-9.5,8.2-13.4,29.4,5.2,48.7S176.9,101.3,184.3,94z M155.2,59.1
				c1.6-1.4,5.9-1.3,9.3,2.6s3.4,8.6,1.5,10.4c-1.9,1.9-6.5,1-9.8-2.9C152.9,65.2,152.6,61.4,155.2,59.1z M420.9,255.8
				c0,0,0.4,3.1-0.9,6.1c-1.9,4.2-6.7,2.5-5.3-2.3c0.9-2.9,2.6-5.1,2.6-5.1l-7.6-7.3c0,0-4.3,5.1-5.9,9.5c-1.1,3.1-2.2,13,6.4,17.7
				c8.5,4.7,16.6-0.3,19.7-5.6c3.1-5.4,2.2-14.8,2.2-14.8L420.9,255.8z M302,77.1c5.4,0,9.3-2.1,9.3-2.1s-1.3-13.5,2.3-28.1
				c-11,1.3-15.3-5.2-12.8-9.8c2.5-4.6,11.4-2.7,15.6,3.2c3.5-6.7,12.1-14.4,18.4-18.9C330.6,13.1,322.1,4,306.4,4
				S273,19.4,273,40.9C273,62.3,286.6,77.1,302,77.1z M363.2,115l28-15.8l0.6,0.7l-21,24.6l9,13l65.2-21.6l-12.2-21.3L416,99.3
				l-0.7-0.7l10.6-13.6l-11.6-14.6l-16.1,7.1l-0.4-0.9l8.7-14.5L389.6,46l-36.5,58.7L363.2,115z M146.4,321.4
				c0-8-6.5-14.6-14.4-14.6c-8,0-14.4,6.5-14.4,14.6c0,8,6.5,14.6,14.4,14.6C139.9,336,146.4,329.5,146.4,321.4z M132.5,324.6
				c-1.8,0-3.3-1.5-3.3-3.4s1.5-3.4,3.3-3.4s3.3,1.5,3.3,3.4S134.3,324.6,132.5,324.6z M321.1,47c-11.8,24.1-1.8,38.7,7.7,43
				c11,5.1,27.1,2.4,39.8-19.2c12.9-22,7-38.9-4.4-46.1C351.9,16.8,332.8,22.9,321.1,47z M341.5,53.4c2.6-4.5,6.2-6.1,9.2-4.4
				c1.8,1,3.3,5,0.7,9.6c-2.5,4.5-6.9,6.2-9.3,5C339.6,62.4,338.9,57.9,341.5,53.4z M124.4,303.3c4.6-1.9,4.6-7.2,2.4-13
				c-2.2-5.8-6.6-11.5-7.2-12.8c-0.6-1.3-0.9-2.9-0.9-2.9L94,287.4l5.5,10.3c0,0,8.7-4.2,10-4.9c0.4-0.2,0.8,0.4,0.7,0.7
				c-0.1,0.3-0.2,0.7-0.2,1c-0.3,1.4-1.6,5.4-7.2,8.8l5.9,10.5c0,0,5.7-3.5,7.7-8.9c0.3-0.8,0.8-1.4,1.3-1.3
				C119.7,304.2,122.1,304.2,124.4,303.3z M115.1,292.3c-0.6-0.8-0.7-2-0.7-2l4.7-2.7c0,0,1.1,0.9,1.5,2.2c0.4,1.3-1.5,3-2.6,3.4
				S115.7,293,115.1,292.3z M372.2,339.9c-1.9,1.3-3.9,5.3-1.5,8.3c2.4,3,6.6,2.6,8.1,1.5c1.9,2.2,0.8,4.9,0.8,4.9l0.8,0.2
				c2.4-4.3,2.3-10.6,0-13.4C378.1,338.7,374.1,338.7,372.2,339.9z M375.5,312.5l22.3,17l6.9-9.4l-22.2-17L375.5,312.5z
				 M114.7,114.2l30.6,19.9c4.6-7.9,13-17.5,13-17.5l-29.6-23.2l8.4-11.4l-23.6-17.6c0,0-8.9,8.8-18.2,21.6
				c-9.3,12.8-14.9,25.9-14.9,25.9l25.4,15.1L114.7,114.2z M98,263c-1.1,1.8-1.4,5.9,0.4,8.6c1.8,2.6,5.7,4.8,10.6,3.8
				c4.8-1,6.6-6.4,5.5-12.5c-1-6.1-3.8-12.3-4.1-13.7c-0.3-1.4-0.3-3-0.3-3l-26.8,7.7l3.4,11.2c0,0,9.4-2.4,10.7-2.8
				C97.9,262,98.2,262.7,98,263z M101.6,260.8l6.3-1.8c0,0,0.8,1.2,1,2.7c0.2,1.6-2.1,3-3.6,3.1c-1.4,0.1-2.8-0.7-3.4-1.7
				C101.4,262.1,101.6,260.8,101.6,260.8z M393.5,285.3c0,0,6.3,3.4,7.2,3.8c0.8,0.4,0.2,1.5-0.4,1.5c-0.6,0-10.6,0.9-10.6,0.9
				l-4,7.6l24.2,13.3l5.5-10.3c0,0-6.3-3.1-7.2-3.6c-0.9-0.4-0.2-1.3-0.2-1.3l11.1-0.9l4.2-7.6L399,275.1L393.5,285.3z M255.4,218.6
				V218c-0.5-0.2-1-0.3-1.5-0.5V217h-2c0.3,1.2,0.6,1.6,1,2.5c0.8,0.2,1.7,0.3,2.5,0.5v0.5c0.5-0.2,1-0.3,1.5-0.5
				C256.3,218,256.7,219.4,255.4,218.6z M262.9,218c-0.4,0.6,0.1,0.1-0.5,0.5v0.5c-1-0.2-2-0.3-3-0.5v1.5h0.5v0.5
				c0.7-0.2,1.3-0.3,2-0.5c0.5,0.2,1,0.3,1.5,0.5v1h1.5v-1c0.7-0.2,1.3-0.3,2-0.5v0.5h3.5v-0.5c0.6-0.6,0.2,0,0.5-1
				c-2.9-1.4-4.3-3.1-9-3C262.1,217.5,261.9,217.4,262.9,218z M275,219.6c-2.2,0.1-1.7,0.3-3,1c0.2,0.3,0.3,0.7,0.5,1h3v-1.5H275
				V219.6z M286.5,103.7v-0.5c-1-0.2-2-0.3-3-0.5c-0.2,0.5-0.3,1-0.5,1.5c1.3,0.2,2.7,0.3,4,0.5
				C286.7,103.7,287.1,104.3,286.5,103.7z M294.5,108.7v-0.5c-2.1-0.9-4.1-2-7-2v1c1.5,0.5,3,1,4.5,1.5H294.5z M254.4,202
				c0.9,0.3,0.7-0.3,1-0.5c0.6-0.4,0.1,0.1,0.5-0.5c-0.8-0.3-1.2-0.5-2.5-0.5v1h1V202z M308.6,125.3h-1.5c-0.5,0.2-0.9,2.2-2.5,1.5
				v-0.5h-0.5v1.5c2.5,0.3,3.1,1.6,5.5,2c0.4-0.6-0.1-0.1,0.5-0.5c0-1.5-0.1-2.6-0.5-3.5C308.6,125.5,309.2,125.8,308.6,125.3z
				 M260.4,215h0.5v-0.5c-0.5-0.3-0.9-1-1-1h-1.5V213c-0.8-0.2-1.7-0.3-2.5-0.5c-0.8-1.2-1.7-2.3-2.5-3.5h-2.5c-0.5-0.7-1-1.3-1.5-2
				h-1v-0.5c-1.4-0.5-5.4-0.1-6,0.5c-1,0.3-0.4-0.1-1,0.5h-0.5v1.5c1.2-0.2,2.3-0.3,3.5-0.5V208c1.7,0.2,1.6,0,2,1.5
				c1.3,0.3,2.7,0.7,4,1c0.2,0.3,0.3,0.7,0.5,1c0.8,0.5,1.5-0.2,2,0.5c0.3,1,0.7,2,1,3c1.1,0.2,1,0.5,1,0.5h2.5v0.5
				C259.2,216,259.7,216.1,260.4,215z M253.9,203.5c-0.1,2.4-0.5,3.5,1.5,4C255.5,205.1,255.9,204,253.9,203.5z M290,158.4v-0.5
				h-0.5c-0.4-1,0.6-1.2,1-1.5v-1.5H290v-0.5h-0.5v0.5c-1.6,1.1-0.8,1.7-1.5,3.5h-0.5v1.5c-0.3,0.2-0.7,0.3-1,0.5
				c0.3,1-0.1,0.4,0.5,1v0.5c0,0,2.7-0.5,3.5-0.5v1.5c1.9-0.1,1.6-0.7,2.5,0.5h1.5v-0.5h0.5c-0.6-1.8-1.7-2.4-2-4.5H290z
				 M270.9,114.7c-1-0.2-2-0.3-3-0.5v1.5h0.5v0.5h2.5v0.5h0.5v-1.5h-0.5V114.7z M299,120.3h-0.5c-0.2-0.3-0.3-0.7-0.5-1h-1v-0.5
				c-1-0.8-2-1.7-3-2.5v-1c-1.1-0.3-1.3-0.4-2-1v-0.5c-0.5-0.2-1-0.3-1.5-0.5c-0.2-0.3-0.3-0.7-0.5-1h-1c-0.2-0.3-0.3-0.7-0.5-1h-1
				c-0.7-0.8-1.3-1.7-2-2.5c-1.1-0.7-2.7,0.2-4-0.5v-0.5c-1-0.7-1.5-1.2-3-1.5c-0.3,0.8-0.4,0.8-0.5,2c-1.2-0.3-0.9-0.1-1.5-1
				c-2.9,0.3-4.1,1.9-6,3c0.2,1,0.3,2,0.5,3h-0.5v0.5c1,0.2,2,0.3,3,0.5c0.4-1.4,0.5-1.7,2-2v-1.5c1-0.3,0.4,0.1,1-0.5h0.5v1.5
				c-0.5,0.2-1,0.3-1.5,0.5c0.3,1.3,0.7,2.3,1.5,3v0.5h3v0.5c1.5,1,2.3,3.8,3,5.5h2c-0.2,1-0.3,2-0.5,3h2c-0.2,1.2-0.3,2.3-0.5,3.5
				h0.5v1.5h0.5v1h0.5v1c0.5,0.3,1,0.7,1.5,1v1c0.3,0.2,0.7,0.3,1,0.5v1h0.5c0.5,0.7,1,1.3,1.5,2h3c0.4,1.4,0.1,1.1,1.5,1.5
				c0.6,0.6,0,0.2,1,0.5c0.4-0.6-0.1-0.1,0.5-0.5c-0.2-2-0.3-4-0.5-6H297v-1h-0.5c-0.2-0.5-0.3-1-0.5-1.5c0.8-0.3,1.7-0.7,2.5-1
				v-2.5H298c0.2-1.9,0.6-1.9,2-2.5v-2.5c-0.3-0.2-0.7-0.3-1-0.5V120.3z M265.9,110.2v-0.5h-1C265.5,110.3,264.9,109.9,265.9,110.2z
				 M260.4,114.7h-0.5v0.5h-0.5v-0.5h-1.5v-0.5h-0.5c0.6-1.5,0.9-1.5-0.5-2.5v-0.5c-1.4,0.7-3.7,1.2-4.5,2.5h-0.5v0.5h2.5
				c-0.3,0.8-0.5,1.2-0.5,2.5h-2c-0.3,1,0.1,0.4-0.5,1c0.3,1-0.1,0.4,0.5,1c1.4,1.4,2.8,0.3,4,1v0.5c4.2-0.2,1.8-1.8,3-3.5h0.5
				c0.2-0.3,0.3-0.7,0.5-1h1v-0.5C260.2,115,261,115.1,260.4,114.7z M263.9,111.7h-0.5v0.5h-2v-1.5h1.5v-0.5h0.5v-0.5
				c-1.7,0-2.3,0.3-3.5,0.5v3c1.2,0.2,1.8,0.6,3.5,0.5c0.7,0-0.2-0.5,0.5-0.5c0.2,0.3,0.3,0.7,0.5,1c1.8-0.2,2.1-0.4,2.5-2h-3V111.7
				z M268.4,111.2h0.5v-1.5c-1,0.3-0.4-0.1-1,0.5h-0.5v1.5C268.4,111.4,267.9,111.8,268.4,111.2z M266.9,130.8h-0.5
				c-0.5-0.8-1.3-2-2-2.5c-0.4-0.6,0.1-0.1-0.5-0.5c-0.6,1-1.5,1.9-2.5,2.5c0.2,0.5,0.3,1,0.5,1.5c1.9-0.2,1.4-0.6,3-1
				c0.2,0.5,0.3,1,0.5,1.5h1.5V130.8z M257.4,204.5v0.5h0.5v-1.5h-1C257.2,204.5,256.8,203.9,257.4,204.5z M221.7,251.6v0.5h1.5
				c0.2-0.5,0.3-1,0.5-1.5c-0.3-0.2-0.7-0.3-1-0.5c-0.4-0.6,0.1-0.1-0.5-0.5c-0.4,0.7-0.3,0.6-1,1
				C221.5,251.6,221.2,251.1,221.7,251.6z M230.8,105.2h-0.5v0.5h1.5c0.2-0.5,0.3-1,0.5-1.5C231.1,104.5,231.3,104.4,230.8,105.2z
				 M217.7,130.8h1c0.3-1-0.1-0.4,0.5-1v-0.5h-1.5c-0.5,1.7-1.1,1.3-1.5,3C217.6,131.9,217.4,132.2,217.7,130.8z M329.7,142.8v1.5
				h0.5c0.6,0.6,0,0.2,1,0.5c0.4-0.6-0.1-0.1,0.5-0.5v-2c-0.3-0.2-0.7-0.3-1-0.5v-1h-1c-0.4-1.4-0.5-1.7-2-2c0,1.9,0.1,2.5,1,3.5
				C329,142.5,329.3,142.7,329.7,142.8z M164.5,164.9c-0.3,0.2-0.7,0.3-1,0.5v1.5c0.5-0.2,1-0.3,1.5-0.5v-2
				C164.5,164.8,165,164.3,164.5,164.9z M333.2,132.3v0.5h1c-0.4-0.6,0.1-0.1-0.5-0.5c-0.6-1.1-1.1-1.7-2.5-2
				C331.5,131.7,331.7,132,333.2,132.3z M166,158.4c-0.3,1,0.1,0.4-0.5,1v1.5h0.5c0.2-0.4,1-1.6,0.5-2.5H166z M265.9,135.3
				c1.4-0.4,1.1-0.1,1.5-1.5C266.1,134.2,266.3,133.9,265.9,135.3z M263.9,212.5v0.5h1.5v-1.5h-1.5c-0.4,0.6,0.1,0.1-0.5,0.5
				C263.8,212.6,263.3,212.1,263.9,212.5z M270.4,126.8v0.5h1.5v-2c-1.2,0.3-1.1,0.5-2,1C270.4,126.8,269.9,126.4,270.4,126.8z
				 M261.9,209.5h-1.5v1.5C261.8,210.6,261.5,210.9,261.9,209.5z M348.7,191.5c0.5-1,1-2,1.5-3c-0.5-0.2-1-0.3-1.5-0.5v1.5h-0.5
				c-0.2,0.5-0.3,1-0.5,1.5h0.5C348.7,191.5,348.2,191,348.7,191.5z M263.9,132.3h-0.5v2c1.4-0.4,1.1-0.1,1.5-1.5
				C263.9,132.5,264.5,132.9,263.9,132.3z"/>
		</g>
	</g>
</g>
<g id="Shape_1_copy_2_1_" class="st0">
	<g id="Shape_1_copy_2">
		<g>
			<path class="st2" d="M151.9,205l-24.5,11.4l8.4-22.9L18.3,215.6l96.7-6.7L79.8,243l74.4-15.3c0,0-0.9-4.1-1.5-9.3
				C152.2,212.3,151.9,205,151.9,205z M497.1,200.6L408.9,218l22-36.7l-53.3,16.2c0,0-0.2,5.8-0.5,11.2c-0.3,4.9-0.7,9.6-0.7,9.6
				l24.1-10.4l-20.7,31.4L497.1,200.6z"/>
		</g>
	</g>
</g>
<g id="Shape_1_1_" class="st0">
	<g id="Shape_1">
		<g>
			<path class="st3" d="M140.5,34.4c-9.5,8.2-13.4,29.4,5.2,48.7s33.9,14.8,41.3,7.5c7.4-7.3,13.1-24-2.5-44.2
				C168.9,26.2,150.8,25.6,140.5,34.4z M168.7,68.7c-1.9,1.9-6.5,1-9.8-2.9c-3.3-4-3.6-7.9-1-10.1c1.6-1.4,5.9-1.3,9.3,2.6
				C170.6,62.3,170.6,66.9,168.7,68.7z M139.7,78.4l-23.6-17.6c0,0-8.9,8.8-18.2,21.6C88.6,95.3,83,108.3,83,108.3l25.4,15.1l9-12.7
				l30.6,19.9c4.6-7.9,13-17.5,13-17.5l-29.6-23.2L139.7,78.4z M367,66.8c12.9-22,7-38.9-4.4-46.1c-12.3-7.8-31.4-1.8-43.1,22.3
				c-11.8,24.1-1.8,38.7,7.7,43C338.3,91,354.4,88.4,367,66.8z M349.9,54.6c-2.5,4.5-6.9,6.2-9.3,5s-3.2-5.7-0.6-10.2
				s6.2-6.1,9.2-4.4C350.9,46,352.4,50,349.9,54.6z M431.2,90.7l-16.7,4.6l-0.7-0.7l10.6-13.6l-11.6-14.6l-16.1,7.1l-0.4-0.9L405,58
				L388.1,42l-36.5,58.7l10.1,10.3l28-15.8l0.6,0.7l-21,24.6l9,13l65.2-21.6L431.2,90.7z M205.6,5.2c-12.4,2-29.5,11.6-29.5,11.6
				l26.7,63.5c6.2-4,20.4-9.2,20.4-9.2L216,52c0,0,7.1-2.4,11.9-7.5c4.7-5.2,9-16.4,4.6-26.6C228.1,7.7,218.1,3.2,205.6,5.2z
				 M209.5,35.3L204.9,24c0,0,2.9-2.2,6-2c3,0.2,5.6,2.7,5.6,5.8C216.5,30.9,215.5,34.5,209.5,35.3z M314.9,36.3
				c3.5-6.7,12.1-14.4,18.4-18.9c-4.3-8.2-12.7-17.4-28.5-17.4s-33.3,15.5-33.3,36.9s13.6,36.3,29,36.3c5.4,0,9.3-2.1,9.3-2.1
				s-1.3-13.5,2.3-28.1c-11,1.3-15.3-5.2-12.8-9.8C301.8,28.5,310.7,30.4,314.9,36.3z"/>
		</g>
	</g>
</g>
</svg>
