<?xml version="1.0" encoding="utf-8"?>
<!-- Generator: Adobe Illustrator 23.1.0, SVG Export Plug-In . SVG Version: 6.00 Build 0)  -->
<svg version="1.1" id="Shape_1_1_" xmlns="http://www.w3.org/2000/svg" xmlns:xlink="http://www.w3.org/1999/xlink" x="0px" y="0px"
	 viewBox="0 0 512 288.5" style="enable-background:new 0 0 512 288.5;" xml:space="preserve">
<style type="text/css">
	.st0{fill-rule:evenodd;clip-rule:evenodd;fill:#FFFFFF;}
</style>
<g id="Shape_1">
	<g>
		<path class="st0" d="M96.7,225.8c-7.7-6-10.9-7.7-10.9-15c0-5.3,1.9-7.9,4.4-7.9c3,0,5.2,3.6,6.7,7.8s3.3,9,6.4,9
			c3.1,0,3.9-3.1,3.9-5.3c0-2.2-2.2-15.8-2.7-17.4c-0.4-1.7-1.9-2.7-4.1-2.7c-4.7,0-6.3-1-10.7-1c-8.1,0-17.6,6.3-17.6,24.3
			c0,13.2,8.8,19,12.3,22.4c3.5,3.4,11,8.6,11,22.7c0,11.7-4.7,14.1-6.5,14.1c-3.3,0-7.4-5.3-11.1-16.1c-0.8-2.3-3-4.8-4.8-4.8
			c-1.9,0-3.9,1.8-3.9,5.8c0,4.1,2.5,16.9,3.1,20c0.6,3.1,2.6,5.1,5,5.1s2.3-0.5,4.7-0.5c4.1,0,4.3,1.6,9.3,1.6
			c7.8,0,21.5-6.6,21.5-31.3C112.5,239.7,104.4,231.8,96.7,225.8z M424,199.7c-0.9-4.7-3.4-4.8-4.9-4.8h-6.3c-3.3,0-3.6,2.2-3.9,4.1
			c-0.3,1.9-12.7,73.8-13.3,76.6c-0.6,2.8-0.9,4.2-2,5.2s-2.2,2.5-2.2,3.4c0,0.9,0.5,1.8,1.4,2.4c0.9,0.6,3.9,1.2,8.5,1.2
			c4.6,0,5.6-0.2,7.1-0.4c1.5-0.3,2.4-1.3,2.4-2.7s-2.8-2.6-2.8-6.1c0-2.5,0.4-6.3,2.8-6.8c1.5-0.3,5.5-0.2,6.6-0.1
			c3,0.2,3.5,3.8,3.8,5.6c0.3,1.8-0.1,2.9-0.8,3.8c-0.7,0.9-1.5,1.9-1.5,3.3s1,2.9,3.1,3.2c2.2,0.3,9,0.5,13.8,0.5
			c4.8,0,6.2-2,6.2-3.5c0-2.1-2.5-2.6-3.5-6.5C437.7,274.1,425,204.4,424,199.7z M414.6,261.2c-1.6,0-3.1-0.2-3.5-1.4
			c-0.4-1.2-0.1-3.9,0.5-7.4c0.6-3.6,2-11.9,2.2-12.8c0.2-0.9,1-0.9,1.1,0c0.5,2.3,2.7,16.9,2.7,18.8
			C417.7,261.1,416.2,261.2,414.6,261.2z M389.7,198.5c0-2.1-1.3-3.7-4.3-3.7c-3,0-13.9-0.2-15.6,0s-3.9,1.5-3.9,3.6
			s2.8,3.9,2.8,5.9c0,0.8,0,11.2,0.1,24.5c-0.6,2.4-2.4,2.7-4,2.7c-1.5,0-3.2,0.2-3.8-1.3c0-13.9,0-25.5,0-26.3c0-2,2.8-3.4,2.8-5.4
			c0-2.1-2.2-3.4-3.9-3.6c-1.7-0.2-12.6,0-15.6,0s-4,2.2-4,4.2c0,2.1,2.7,3.7,2.7,5.8s0.5,67.6,0.5,71.5c0,3.9-3.5,3.8-3.5,7.3
			c0,1.9,3.1,3.7,4.1,3.7c4.3,0.3,8,0.2,8.7,0.2c-1.1,0-1.4,0,0,0c0.2,0,0.2,0,0,0c1.6,0,5,0,7.6-0.2c1-0.1,3-1.2,3-3.1
			c0-3.5-2.5-1.9-2.5-5.8c0-1.8,0-17.4,0-33.8c0.5-1.5,2.2-1.9,3.9-1.9c2.1,0,3.8,0.7,3.9,3.8c0,0,0,0,0,0c0,15.3,0.1,29.2,0.1,30.9
			c0,3.9-3.5,3.4-3.5,7c0,1.9,2.8,2.9,3.8,2.9c3.4,0.2,11.8,0.3,16.3,0c1-0.1,3.8-1.8,3.8-3.7c0-3.5-3.1-3.4-3.1-7.3
			s0.5-70.5,0.5-72.5C386.6,201.7,389.7,200.6,389.7,198.5z M212.1,195.2c-1.2,0-9.6,0-11.3,0.3c-1.7,0.3-2.8,1.9-2.8,2.9
			c0,2.6,2.7,3.3,2.7,5.8s-0.1,62.5-0.1,65.8c0,3.2-1.8,6.3-5.8,6.3c-3.9,0-5.6-2.9-5.6-5.8c0-3.9,0.6-64.7,0.6-66.7
			c0-2,2.8-3.3,2.8-5.4c0-2-2.2-3.4-3.9-3.6c-1.7-0.2-12.7,0-15.7,0s-4,2.1-4,4.2s2.8,3.7,2.8,5.7c0,2-0.1,63.1-0.1,66.9
			c0,11.2,8.9,16.5,22.6,16.5c9.8,0,18.7-5.4,18.7-16.3v-67.1c0-4,3.4-3.6,3.4-6.4C216.4,196.3,213.3,195.2,212.1,195.2z M294,198.9
			c0-2-2.2-3.4-3.9-3.6c-1.7-0.2-12.7,0-15.7,0c-3,0-4.4,1.5-4.4,3.5s3.2,3.4,3.2,5.4c0,2,0.1,68.9,0.1,72.8s-3.2,3.8-3.2,7.3
			c0,1.9,3,2.9,4,2.9c4.9,0.3,11.4,0.3,16.4,0c1-0.1,3.4-1.2,3.4-3.1c0-3.5-3.2-2.5-3.2-6.4c0-3.9,0.3-71.5,0.3-73.6
			C290.8,202.3,294,201,294,198.9z M324,225.8c-7.7-6-10.9-7.7-10.9-15c0-5.3,1.9-7.9,4.4-7.9c3,0,5.2,3.6,6.7,7.8s3.3,9,6.4,9
			c3.1,0,3.9-3.1,3.9-5.3c0-2.2-2.2-15.8-2.7-17.4c-0.4-1.7-1.9-2.7-4.1-2.7c-4.7,0-6.3-1-10.7-1c-8.1,0-17.6,6.3-17.6,24.3
			c0,13.2,8.8,19,12.3,22.4c3.5,3.4,11,8.6,11,22.7c0,11.7-4.7,14.1-6.5,14.1c-3.3,0-7.4-5.3-11.1-16.1c-0.8-2.3-3-4.8-4.8-4.8
			c-1.9,0-3.9,1.8-3.9,5.8c0,4.1,2.5,16.9,3.1,20c0.6,3.1,2.6,5.1,5,5.1c2.4,0,2.3-0.5,4.7-0.5c4.1,0,4.3,1.6,9.3,1.6
			c7.8,0,21.5-6.6,21.5-31.3C339.7,239.7,331.6,231.8,324,225.8z M165.5,197.8c0-2-1-3.5-4-3.5c-3,0-14-0.2-15.7,0
			c-1.7,0.2-3.9,1.5-3.9,3.6c0,2,2.8,3.4,2.8,5.4c0,0.8,0,11.6,0.1,24.8c-0.6,2.4-2.4,2.7-4,2.7c-1.5,0-3.2,0.2-3.8-1.3
			c0-13.8,0-25.4,0-26.2c0-2,2.8-3.3,2.8-5.4c0-2-2.2-3.4-3.9-3.6c-1.7-0.2-12.7,0-15.7,0s-4,2.1-4,4.2c0,2,2.8,3.7,2.8,5.7
			c0,2,0.5,67.2,0.5,71.1c0,3.9-3.1,3.8-3.1,7.3c0,1.9,2.8,3.6,3.8,3.7c4.3,0.3,8,0.2,8.8,0.2c-1.1,0-1.4,0,0,0c0.2,0,0.2,0,0,0
			c1.6,0,5,0,7.6-0.2c1-0.1,3-1.2,3-3c0-3.5-2.6-1.9-2.6-5.7c0-1.8,0-17.3,0-33.7c0.5-1.5,2.2-1.9,3.9-1.9c2.2,0,3.8,0.7,3.9,3.7
			c0,0,0,0,0,0c0,15.2,0.1,29,0.1,30.7c0,3.9-3.5,3.4-3.5,6.9c0,1.9,2.8,2.9,3.8,2.9c3.4,0.2,11.9,0.3,16.4,0c1-0.1,3.8-1.8,3.8-3.7
			c0-3.5-3.1-3.4-3.1-7.3c0-3.9,0.5-70.1,0.5-72.1C162.7,201.1,165.5,199.9,165.5,197.8z M264.3,260.5c-2.4-0.7-4.1,0.8-8.6,6.6
			c-5.8,7.5-8.1,9.1-11.3,9.1c-2.8,0-4.4-1.7-4.7-3.2c0.1-6.3,0.3-18.8,0.4-31.4c0.2-1.3,1-2.3,3.1-2.3c2.4,0,4.6,1.9,7.8,6
			c3.2,4,4.6,4.6,6.8,4.2c2.2-0.4,3.5-2.5,1.9-7.2c-1.5-4.7-5.2-14.7-7-17.4c-2.2-3.5-5.8-2.4-6.6-0.1c-0.8,2.2-1.8,2.8-3.3,2.8
			c-1.1,0-2-0.6-2.5-1.5c0.1-8,0.2-15,0.3-19c0.3-1.5,1.2-2.6,2.8-2.6c1.9,0,5.6,2,9.8,8.5c4.2,6.5,6.8,9.2,9.1,7.7s3.2-3,2.3-7.1
			s-3.6-14.2-4.6-17.4c-1-2.9-3.2-3.3-4.1-3.3c-1.7,0-2.9,1.6-5.8,1.6s0,0-10.8,0c-0.6,0-1.3,0-1.9,0c-3.8,0-11.2,0.1-13.6,0.1
			c-3,0-4.3,2.2-4.3,4.2s3,3.7,3,5.7c0,2-0.6,69.1-0.6,73c0,3.9-2.8,2.2-2.8,6.7c0,1.9,3,2.9,4,2.9c3.6,0.2,8.1,0.3,12.2,0.2
			c3,0,12.1-0.1,15.4-0.1c3.5,0,3.1,1.5,6.4,1.5c1.9,0,3.3-1.2,4-3.1c0.7-1.9,4.2-14.8,5.1-18C267.4,264.2,266.5,261.2,264.3,260.5z
			 M507,133.5c0,0-1.3,1.6-2.4,1.6c-0.4,0-10.5,0-23.4,0.1V62.5c9.3,0,16.8,0,19.2,0c8.8,0,9.7-5.1,9.7-5.1l-5.1-3.5c0,0-0.9,2-2,2
			c-0.4,0-9.9,0-21.8,0.1V3.1c-11,0.7-20.7,2.2-20.7,2.6c0,0.2,0,23.4-0.1,50.2c-14.6,0-27.5,0.1-28.4,0.1c-2.1,0-2,6.4,0,6.4
			c0.9,0,13.9,0,28.4,0c0,32-0.1,66.7-0.1,72.7c-17,0.1-32.7,0.1-33.6,0.1c-2.1,0-2,7,0,7s67.9,0,75.2,0c7.3,0,10-5.4,10-5.4
			L507,133.5z M187.1,28.7c0.5,0,14.6,0,33.5,0c0,9.5-0.2,18.5-0.2,18.5c8.9-1.3,19.6-4.5,19.6-4.5l-0.1-14c10.1,0,20.7,0,30.7,0
			c0,9.4,0.3,18.1,0.3,18.1c8.9-1.3,18.7-4.1,18.7-4.1l-0.1-14c16.6,0,29,0,31,0c6.8,0,8.8-4.9,8.8-4.9l-5.2-3.6c0,0-1.6,2.1-3,2.1
			c-0.4,0-13.7,0-31.6,0l-0.1-20.7l-18.6,4.2c0,0-0.2,7.2-0.2,16.4c-10,0-20.6,0-30.7,0l-0.1-20.7l-19.4,4.3c0,0,0,7.2,0.1,16.4
			c-18.7,0-32.6,0-33.4,0C184.6,22.6,185.1,28.7,187.1,28.7z M261.5,101.5c4.4,7.5,12.9,20.8,23.4,30.4
			c12.5,11.5,29.6,16.7,29.6,16.7l15.2-21.6c0,0-16.4-2.4-32.7-8.6c-20.5-7.9-26.8-18.7-27.7-20.4c25.9,0,48.7,0.1,51.5,0.1
			c6.8,0,8.8-4.9,8.8-4.9l-5.2-3.6c0,0-1.6,2.1-3,2.1c-0.3,0-7.2,0-17.8,0L303.4,49l-18.7,4.6h-18.9l-0.1-16.2l-20.4,0.1l-0.1,16.2
			h-18.7l0-3.3l-1.3-1.2l-17.7,4.1l-0.1,38.4c-11.8,0-19.8,0-20.3,0c-2.6,0-2.1,6.1-0.1,6.1c0.6,0,26.8,0,55.8,0.1
			c-1,3.2-5.1,13.3-19.8,24.9c-13.7,10.8-37.8,22.2-37.8,22.2l0,1.4c0,0,27.3-1.9,46.3-12.6C249,124.2,257.4,110.7,261.5,101.5z
			 M284.5,60.8l-0.2,30.8c-5.8,0-12,0-18.4,0l-0.1-30.8C265.8,60.8,284.5,60.8,284.5,60.8z M226.7,91.7l-0.1-30.8h18.6L245,91.6
			C238.7,91.6,232.5,91.7,226.7,91.7z M86.5,108.2c2,2.9,8.5,11.9,19,21.2c12.8,11.3,28.8,16.2,28.8,16.2l16.5-21.3
			c0,0-14.3-2.4-31-7.4c-13.3-4.1-20.8-9.8-23.2-12c21,0,38,0,40.4,0c6.8,0,8.8-4.9,8.8-4.9l-5.2-3.6c0,0-1.6,2.1-3,2.1
			c-0.6,0-24.1,0-51.2,0l0.1-12.5c15.6,0,29.8,0,32.8,0c7.3,0,10-5.4,10-5.4l-5-3.4c0,0-1.3,1.6-2.4,1.6c-0.5,0-17.2,0-35.4,0.1
			l0.1-9.6H114c7.3,0,10-5.4,10-5.4l-5-3.4c0,0-1.3,1.6-2.4,1.6H86.8l0.1-9.9H114c7.3,0,10-5.4,10-5.4l-5-3.4c0,0-1.3,1.6-2.4,1.6
			H86.9l0.1-10h32.9c7.3,0,10-5.4,10-5.4l-5-3.4c0,0-1.3,1.6-2.4,1.6H87l0-0.6c0,0,9.8-4.3,10-15.8L83.5,3.2L67.9,27.8H48.6l0-7.7
			l9.9-11.8l-24-8.7c-2,9.6-5,18.4-8.8,25.8C18.3,40,9.4,49.5,9.4,49.5l1.1,1.1c6.4-1.9,18.5-11,18.5-11l0.6,48.7l0.7,1l12.2-3.1
			c4.1,0,12.9,0,23.1,0l0,12.5c-30.4,0-59.1,0.1-60.1,0.1c-2.6,0-2.1,6.1-0.1,6.1c0.5,0,18.4,0,40.9,0.1
			c-1.5,2.5-6.7,10.7-17.4,20.4C15.8,136.8,0.1,144,0.1,144l0.2,0.7c0,0,21.7-3.2,40.8-13.7c16.6-9.1,22.9-14.8,24.3-16.1v0.7
			l0.7,31.6l20.1-3.7L86.5,108.2z M65.6,79c-6.7,0-12.7,0-17.3,0.1l0-9.7h17.3L65.6,79z M65.6,62.2H48.4l0-9.9h17.2L65.6,62.2z
			 M65.7,45.1H48.5l0-10h17.2L65.7,45.1z M392.4,145.5l19.8-3.6l0.4-70.3l16.5,24.4l14.4-8.9c-0.3-13.3-10.3-19.8-29.8-21.1
			c15.5-15.8,23.1-29.4,23.1-29.4l-18.9-13.5l-4,8.4l-1.7-0.2l0.1-28.2c-12,0.4-20.9,2.5-20.9,2.5v25.5l-20.5,0.3l0.2,5.7l40.6,0.6
			c-19.3,38.7-46.4,64.1-46.4,64.1l1,1c11.9-5.7,25.3-16.7,25.3-16.7l-0.1,58.5L392.4,145.5z"/>
	</g>
</g>
</svg>
