<?xml version="1.0" encoding="utf-8"?>
<!-- Generator: Adobe Illustrator 23.1.0, SVG Export Plug-In . SVG Version: 6.00 Build 0)  -->
<svg version="1.1" id="Shape_1_1_" xmlns="http://www.w3.org/2000/svg" xmlns:xlink="http://www.w3.org/1999/xlink" x="0px" y="0px"
	 viewBox="0 0 960 541" style="enable-background:new 0 0 960 541;" xml:space="preserve">
<style type="text/css">
	.st0{fill-rule:evenodd;clip-rule:evenodd;fill:#FFFFFF;}
</style>
<g id="Shape_1">
	<g>
		<path class="st0" d="M181.35,422.77c-14.35-11.24-20.39-14.35-20.39-28.02c0-9.82,3.61-14.77,8.22-14.77
			c5.54,0,9.73,6.71,12.5,14.6c2.77,7.89,6.12,16.86,11.91,16.86c5.79,0,7.38-5.71,7.38-9.82c0-4.11-4.2-29.45-5.03-32.55
			s-3.52-5.12-7.72-5.12c-8.89,0-11.83-1.85-20.14-1.85c-15.19,0-33.06,11.75-33.06,45.39c0,24.67,16.53,35.49,23.07,41.78
			c6.54,6.29,20.64,16.11,20.64,42.45c0,21.81-8.81,26.35-12.25,26.35c-6.21,0-13.84-9.98-20.89-30.04
			c-1.49-4.23-5.54-8.98-9.06-8.98s-7.38,3.27-7.38,10.91s4.7,31.46,5.79,37.34c1.09,5.87,4.87,9.48,9.31,9.48s4.36-0.92,8.81-0.92
			c7.64,0,8.14,3.02,17.45,3.02c14.68,0,40.36-12.25,40.36-58.4C210.88,448.87,195.7,434.02,181.35,422.77z M794.93,374.07
			c-1.75-8.86-6.42-8.91-9.12-8.91h-11.83c-6.21,0-6.74,4.08-7.32,7.64c-0.58,3.55-23.87,137.84-24.93,143.09
			c-1.06,5.25-1.7,7.85-3.66,9.65c-1.96,1.8-4.08,4.61-4.08,6.26c0,1.64,0.9,3.34,2.65,4.45c1.75,1.11,7.32,2.28,15.91,2.28
			s10.52-0.31,13.26-0.84c2.73-0.53,4.48-2.5,4.48-5.07c0-2.57-5.33-4.77-5.33-11.39c0-4.58,0.66-11.82,5.27-12.68
			c2.72-0.5,10.22-0.39,12.41-0.23c5.57,0.4,6.65,7.11,7.21,10.44c0.56,3.33-0.28,5.46-1.5,7.05c-1.22,1.59-2.76,3.5-2.76,6.1
			c0,2.6,1.8,5.46,5.89,6.05s16.81,1.01,25.83,1.01c9.02,0,11.56-3.82,11.56-6.52c0-3.98-4.72-4.93-6.58-12.14
			C820.44,513.07,796.68,382.92,794.93,374.07z M777.28,488.88c-2.92,0-5.88-0.33-6.55-2.63s-0.14-7.22,0.91-13.87
			s3.78-22.19,4.21-23.86c0.43-1.67,1.82-1.6,2.15,0.05c0.86,4.3,5.12,31.51,5.12,35.19C783.11,488.69,780.19,488.88,777.28,488.88z
			 M730.52,371.9c0-3.84-2.46-6.9-8.1-6.9c-5.64,0-26.1-0.33-29.25,0c-3.15,0.33-7.28,2.87-7.28,6.7s5.24,7.19,5.24,10.97
			c0,1.48,0.06,21,0.14,45.65c-1.09,4.57-4.55,5.02-7.42,5.02c-2.81,0-5.99,0.34-7.07-2.43c0.01-25.88,0.01-47.59,0.01-49.12
			c0-3.78,5.24-6.26,5.24-10.1s-4.13-6.38-7.28-6.7c-3.15-0.33-23.61,0-29.25,0c-5.64,0-7.48,4.02-7.48,7.85
			c0,3.84,5.14,6.97,5.14,10.75c0,3.78,0.88,126.18,0.88,133.45s-6.47,7.14-6.47,13.7c0,3.54,5.88,6.85,7.75,6.97
			c8.02,0.51,14.95,0.43,16.38,0.38c-2.06,0-2.57-0.02,0.03-0.02c0.34,0,0.31,0.01-0.03,0.02c3.02-0.01,9.36-0.07,14.16-0.38
			c1.87-0.12,5.64-2.18,5.64-5.72c0-6.55-4.75-3.49-4.75-10.75c0-3.35,0.01-32.42,0.02-63.17c0.97-2.89,4.03-3.56,7.34-3.56
			c4.01,0,7.05,1.35,7.25,7.02c0,0.03,0.01,0.04,0.01,0.07c0.09,28.51,0.17,54.45,0.17,57.62c0,7.26-6.54,6.44-6.54,13
			c0,3.54,5.19,5.36,7.06,5.48c6.43,0.41,22.18,0.53,30.54,0c1.87-0.12,7.12-3.42,7.12-6.97c0-6.55-5.84-6.44-5.84-13.7
			s0.88-131.64,0.88-135.42C724.75,377.85,730.52,375.74,730.52,371.9z M397.72,365.72c-2.21-0.08-18.03,0-21.22,0.49
			c-3.2,0.49-5.33,3.61-5.33,5.49c0,4.83,5,6.23,5,10.82s-0.16,116.75-0.16,122.82c0,6.06-3.44,11.72-10.82,11.72
			c-7.37,0-10.52-5.4-10.52-10.74c0-7.22,1.2-120.83,1.2-124.59c0-3.76,5.27-6.23,5.27-10.04c0-3.82-4.16-6.34-7.32-6.67
			c-3.16-0.33-23.74,0-29.41,0c-5.67,0-7.52,3.99-7.52,7.81c0,3.82,5.17,6.93,5.17,10.69c0,3.76-0.12,117.76-0.12,124.98
			c0,20.87,16.76,30.81,42.45,30.81c18.44,0,34.99-10.16,34.99-30.48V383.5c0-7.4,6.37-6.71,6.37-11.96
			C405.75,367.85,399.94,365.8,397.72,365.72z M551.14,372.68c0-3.82-4.16-6.34-7.32-6.67c-3.16-0.33-23.74,0-29.41,0
			c-5.67,0-8.29,2.76-8.29,6.58c0,3.82,5.94,6.39,5.94,10.15c0,3.76,0.15,128.68,0.15,135.91s-5.96,7.06-5.96,13.58
			c0,3.52,5.65,5.36,7.53,5.48c9.17,0.57,21.38,0.58,30.71,0c1.88-0.12,6.31-2.25,6.31-5.78c0-6.52-6.09-4.66-6.09-11.88
			c0-7.22,0.48-133.56,0.48-137.32C545.18,378.97,551.14,376.5,551.14,372.68z M607.35,422.77c-14.35-11.24-20.39-14.35-20.39-28.02
			c0-9.82,3.61-14.77,8.22-14.77c5.54,0,9.73,6.71,12.5,14.6s6.12,16.86,11.91,16.86s7.38-5.71,7.38-9.82
			c0-4.11-4.2-29.45-5.03-32.55c-0.84-3.1-3.52-5.12-7.72-5.12c-8.89,0-11.83-1.85-20.14-1.85c-15.19,0-33.06,11.75-33.06,45.39
			c0,24.67,16.53,35.49,23.07,41.78c6.54,6.29,20.64,16.11,20.64,42.45c0,21.81-8.81,26.35-12.25,26.35
			c-6.21,0-13.84-9.98-20.89-30.04c-1.49-4.23-5.54-8.98-9.06-8.98s-7.38,3.27-7.38,10.91s4.7,31.46,5.79,37.34
			c1.09,5.87,4.87,9.48,9.31,9.48s4.36-0.92,8.81-0.92c7.63,0,8.14,3.02,17.45,3.02c14.68,0,40.36-12.25,40.36-58.4
			C636.88,448.87,621.7,434.02,607.35,422.77z M310.28,370.64c0-3.82-1.85-6.61-7.52-6.61c-5.67,0-26.25-0.33-29.41,0
			c-3.16,0.33-7.32,2.85-7.32,6.67c0,3.82,5.27,6.28,5.27,10.04c0,1.48,0.06,21.75,0.14,46.27c-1.09,4.55-4.58,4.99-7.46,4.99
			c-2.82,0-6.02,0.34-7.11-2.41c0.01-25.74,0.01-47.34,0.01-48.85c0-3.76,5.27-6.23,5.27-10.04c0-3.82-4.16-6.34-7.32-6.67
			c-3.16-0.33-23.74,0-29.41,0c-5.67,0-7.52,3.99-7.52,7.81s5.17,6.93,5.17,10.69c0,3.76,0.88,125.5,0.88,132.72
			s-5.87,7.11-5.87,13.62c0,3.52,5.29,6.81,7.17,6.93c8.06,0.5,15.03,0.42,16.47,0.37c-2.07,0-2.58-0.02,0.03-0.02
			c0.35,0,0.31,0.01-0.03,0.02c3.03-0.01,9.41-0.07,14.24-0.37c1.88-0.12,5.67-2.16,5.67-5.69c0-6.52-4.78-3.47-4.78-10.69
			c0-3.33,0.01-32.25,0.02-62.83c0.98-2.87,4.05-3.54,7.38-3.54c4.03,0,7.09,1.34,7.29,6.98c0,0.03,0.01,0.04,0.01,0.07
			c0.09,28.36,0.17,54.16,0.17,57.31c0,7.22-6.58,6.41-6.58,12.93c0,3.52,5.22,5.34,7.1,5.45c6.46,0.4,22.3,0.53,30.71,0
			c1.88-0.12,7.17-3.41,7.17-6.93c0-6.52-5.87-6.4-5.87-13.62s0.88-130.93,0.88-134.69C305.11,376.81,310.28,374.46,310.28,370.64z
			 M495.44,487.62c-4.44-1.33-7.7,1.54-16.03,12.32c-10.86,14.05-15.19,16.94-21.21,16.94c-5.34,0-8.2-3.09-8.78-5.94
			c0.15-11.84,0.49-35.05,0.84-58.63c0.39-2.42,1.94-4.25,5.77-4.25c4.55,0,8.54,3.57,14.56,11.13c6.02,7.56,8.54,8.68,12.67,7.91
			c4.13-0.77,6.51-4.69,3.64-13.44c-2.87-8.75-9.8-27.4-13.09-32.55c-4.2-6.58-10.78-4.41-12.32-0.28
			c-1.54,4.13-3.36,5.32-6.16,5.32c-2.05,0-3.83-1.05-4.64-2.82c0.22-15.02,0.41-28.02,0.52-35.56c0.63-2.83,2.3-4.88,5.17-4.88
			c3.57,0,10.5,3.78,18.41,15.96c7.91,12.18,12.67,17.15,17.08,14.35c4.41-2.8,6.02-5.53,4.34-13.23
			c-1.68-7.7-6.69-26.57-8.68-32.55c-1.82-5.46-5.95-6.23-7.7-6.23c-3.15,0-5.39,2.94-10.78,2.94s0-0.07-20.23-0.07
			c-1.2,0-2.36,0.01-3.48,0.04c-7.12-0.08-21.01,0.13-25.51,0.13c-5.67,0-7.98,4.07-7.98,7.89c0,3.82,5.63,6.85,5.63,10.61
			c0,3.76-1.07,129.04-1.07,136.26s-5.29,4.13-5.29,12.45c0,3.52,5.65,5.36,7.53,5.48c6.78,0.42,15.23,0.54,22.94,0.33
			c5.53-0.02,22.67-0.14,28.79-0.14c6.65,0,5.81,2.87,12.04,2.87c3.64,0,6.23-2.24,7.56-5.81c1.33-3.57,7.84-27.58,9.59-33.6
			S499.64,488.88,495.44,487.62z M950.4,250.55c0,0-2.45,3-4.57,3c-0.77,0-19.75,0.06-43.77,0.13V118c17.41,0,31.57,0,35.9,0
			c16.52,0,18.19-9.58,18.19-9.58l-9.51-6.6c0,0-1.68,3.75-3.81,3.75c-0.78,0-18.51,0.06-40.77,0.13V7.13
			c-20.57,1.26-38.72,4.2-38.72,4.93c0,0.31-0.07,43.7-0.14,93.76c-27.31,0.09-51.52,0.16-53.2,0.16c-3.91,0-3.69,12.01,0,12.01
			c1.7,0,26.05,0,53.18,0c-0.09,59.7-0.19,124.55-0.21,135.81c-31.89,0.1-61.21,0.19-62.97,0.19c-3.91,0-3.69,13,0,13
			c3.69,0,127.35,0,140.96,0c13.61,0,18.82-10.07,18.82-10.07L950.4,250.55z M350.72,54.94c0.86,0.01,27.34,0.04,62.78,0.09
			c-0.05,17.74-0.3,34.58-0.3,34.58c16.77-2.44,36.79-8.33,36.79-8.33l-0.1-26.2c18.96,0.02,38.75,0.05,57.55,0.07
			c0.09,17.59,0.49,33.85,0.49,33.85c16.77-2.44,35.07-7.72,35.07-7.72l-0.1-26.09c31.04,0.04,54.4,0.06,58.2,0.06
			c12.83,0,16.42-9.24,16.42-9.24l-9.78-6.72c0,0-2.98,3.97-5.58,3.97c-0.82,0-25.61,0.02-59.32,0.06L542.7,4.74l-34.86,7.93
			c0,0-0.33,13.39-0.4,30.68c-18.82,0.02-38.63,0.04-57.59,0.05L449.7,4.74l-36.29,8.03c0,0,0.08,13.35,0.1,30.66
			c-34.97,0.03-61.16,0.05-62.56,0.05C346.02,43.47,347.02,54.91,350.72,54.94z M490.19,190.86c8.19,13.94,24.21,38.76,43.79,56.69
			c23.51,21.52,55.39,31.26,55.39,31.26l28.47-40.37c0,0-30.82-4.45-61.3-16.14c-38.51-14.77-50.25-34.98-51.9-38.17
			c48.61,0.06,91.2,0.11,96.46,0.11c12.83,0,16.42-9.24,16.42-9.24l-9.78-6.72c0,0-2.98,3.97-5.58,3.97
			c-0.59,0-13.58,0.01-33.35,0.03l-0.1-79.53l-35.04,8.68H498.3l-0.12-30.33l-38.22,0.1l-0.18,30.23h-34.97l-0.02-6.14l-2.44-2.24
			l-33.14,7.72l-0.2,71.67c-22.09,0.02-37.02,0.03-38.07,0.03c-4.93-0.01-3.93,11.43-0.23,11.46c1.18,0.01,50.18,0.07,104.57,0.14
			c-1.83,5.91-9.49,24.88-37.04,46.55c-25.59,20.13-70.83,41.52-70.83,41.52l-0.04,2.64c0,0,51.12-3.6,86.83-23.52
			C466.77,233.1,482.59,207.92,490.19,190.86z M533.38,114.89l-0.33,57.43c-10.92,0.01-22.55,0.02-34.46,0.03l-0.23-57.46H533.38z
			 M425,172.42l-0.15-57.53h34.86l-0.34,57.5C447.56,172.4,435.96,172.41,425,172.42z M162.14,203.35
			c3.68,5.37,15.91,22.23,35.63,39.62c23.9,21.08,54.07,30.24,54.07,30.24l31.01-39.86c0,0-26.81-4.43-58.04-13.9
			c-24.98-7.57-38.91-18.36-43.49-22.38c39.41,0.05,71.27,0.08,75.8,0.08c12.83,0,16.42-9.24,16.42-9.24l-9.78-6.72
			c0,0-2.98,3.97-5.58,3.97c-1.1,0-45.21,0.04-95.92,0.09L162.4,162c29.24,0,55.91,0,61.57,0c13.61,0,18.82-10.07,18.82-10.07
			l-9.37-6.39c0,0-2.45,3-4.57,3c-0.96,0-32.24,0.09-66.35,0.19l0.11-17.85h51.15c13.61,0,18.82-10.07,18.82-10.07l-9.37-6.39
			c0,0-2.45,3-4.57,3h-55.93l0.12-18.55h50.95c13.61,0,18.82-10.07,18.82-10.07l-9.37-6.39c0,0-2.45,3-4.57,3h-55.73l0.12-18.66
			h61.75c13.61,0,18.82-10.07,18.82-10.07l-9.37-6.39c0,0-2.45,3-4.57,3h-66.53l0.01-1.04c0,0,18.33-8.12,18.7-29.52l-25.34-15.5
			l-29.06,46.05H91.1l0.07-14.39l18.56-22.02L64.78,0.71c-3.71,17.87-9.43,34.31-16.56,48.23C34.35,76.05,17.71,93.62,17.71,93.62
			l2.12,2.01C31.91,92.05,54.5,75.06,54.5,75.06l1.12,90.89l1.23,1.9L79.74,162c7.73,0,24.14,0,43.25,0l-0.05,23.28
			c-56.94,0.05-110.71,0.1-112.74,0.1c-4.93-0.01-3.93,11.43-0.23,11.46c0.98,0.01,34.51,0.05,76.61,0.11
			c-2.74,4.67-12.52,19.94-32.61,38c-24.21,21.77-53.61,35.21-53.61,35.21l0.46,1.22c0,0,40.63-5.99,76.55-25.55
			c31.06-16.91,42.88-27.56,45.52-30.13l0,1.27l1.23,59.03l37.64-6.89L162.14,203.35z M123.02,148.86
			c-12.54,0.04-23.88,0.07-32.39,0.1l0.09-18.06h32.35L123.02,148.86z M123.09,117.44H90.78l0.09-18.55h32.26L123.09,117.44z
			 M123.17,85.44H90.94l0.09-18.66h32.18L123.17,85.44z M735.52,273.01l37.04-6.72l0.84-131.26l30.96,45.64l26.97-16.58
			c-0.63-24.87-19.31-37.04-55.83-39.45c28.96-29.59,43.24-54.88,43.24-54.88l-35.47-25.18l-7.56,15.63l-3.15-0.31l0.1-52.67
			c-22.56,0.73-39.14,4.62-39.14,4.62v47.64l-38.51,0.63l0.31,10.6l76.19,1.15c-36.1,72.19-87,119.62-87,119.62l1.89,1.89
			c22.35-10.7,47.43-31.16,47.43-31.16l-0.1,109.23L735.52,273.01z"/>
	</g>
</g>
</svg>
