<?xml version="1.0" encoding="utf-8"?>
<!-- Generator: Adobe Illustrator 23.1.0, SVG Export Plug-In . SVG Version: 6.00 Build 0)  -->
<svg version="1.1" xmlns="http://www.w3.org/2000/svg" xmlns:xlink="http://www.w3.org/1999/xlink" x="0px" y="0px"
	 viewBox="0 0 960 2174" style="enable-background:new 0 0 960 2174;" xml:space="preserve">
<style type="text/css">
	.st0{enable-background:new    ;}
	.st1{fill-rule:evenodd;clip-rule:evenodd;}
	.st2{fill:#FFFFFF;}
</style>
<g id="Ellipse_1_1_" class="st0">
	<g id="Ellipse_1">
		<g>
			<path class="st1" d="M479.7,609.8C287.8,609.8,115.9,566,0,496.9v1675.4h958.3V497.6C842.4,566.3,671,609.8,479.7,609.8z
				 M479.7,572.5c262.2,0,474.8-128.2,474.8-286.3C954.5,128.2,741.9,0,479.7,0S4.8,128.2,4.8,286.3
				C4.8,444.3,217.4,572.5,479.7,572.5z"/>
		</g>
	</g>
</g>
<g id="Shape_1_1_" class="st0">
	<g id="Shape_1">
		<g>
			<path class="st2" d="M149.6,1952c4.1-17.2,7.3-26.4,7.3-33.8c0-8.7-8.4-9.6-15.7-9.6c-7.4,0-18.1,1.2-28.7,1.2
				c-10.6,0-14.4-1.7-24,0.4c-3,0.6-2.2,2.2-1.6,3.1c3.5,5.2,3.5,9,1.7,17.5c-1.8,8.5-19.5,80.9-21.8,90.6s-5.1,19-5.1,24.9
				s3.5,8.4,6.9,8.9c14.1,2,54,0.7,59.2,0c6.5-0.9,5.6-3.9,4-5.4c-1.6-1.5-3.2-4.6-1.3-14.8C132.4,2024.6,145.5,1969.3,149.6,1952z
				 M389.7,2038.9c1.7-15,26.5-116.6,26.5-120.4c0-3.8-3-9.7-9.9-10.4s-40.4-0.1-49-0.1c-8.6,0-13.1,9.1-19.4,13.9
				c-2.7,2.1-4,1-4.1-2c-0.3-8.1-4.1-12.1-23.1-12.1c-19.1,0-24.2,0.9-36.5,0.5c-9-0.3-14.6,9.1-18.5,13.5c-3.9,4.4-5,2.7-5.4-4.4
				c-0.4-7.1-9.3-9.3-23-9.3c-13.8,0-20,1-27.7,1s-12.7-1-18.7-0.5c-3.2,0.3-3.8,4-2.2,5.1c4.4,3,5,7.2,3.7,12.1
				c-1.3,4.8-23.1,95.7-24.9,103.4c-1.8,7.7-2.6,11.2-2.6,16.8s3.7,8.3,8.1,8.8c11.3,1.2,47.7,1.7,61.6-0.7c3.6-0.6,3.7-1.5,0.9-4.9
				c-2.8-3.4-3.1-10.8-1.1-18.2c2-7.4,13.3-56.6,16.3-70.1s7.5-16.2,11.4-16.2c3.9,0,6.5,4.7,6.6,12.7c0.2,7.9-5.4,20.3-7.1,27.6
				c-1.7,7.3-9.5,41.5-12.5,54.2s2.2,16.1,11.1,16.1s44.5,0.1,51.8-0.8c7.3-0.9,6.9-1.9,5.3-4c-2.5-3.5-2.2-8.3-0.7-15.7
				c1.5-7.4,14.2-59.1,17-73.8c2.8-14.8,7.6-17.2,12.3-17.2s8.1,8,5.7,16.8c-2.4,8.8-16.9,65-19.3,75.8c-2.3,10.8,0.5,17,7.1,17.8
				c6.6,0.8,43.2,1.1,60.2-0.3c4.2-0.3,3.2-3.1,1.6-5.3C389.7,2046.3,389.2,2043,389.7,2038.9z M104.5,1893.9
				c3,1.3,9.3,2.6,14.2,2.6c4.9,0,7.6-0.6,15.6-0.6c8,0,11.9,0.5,17.8,0.5c5.8,0,7.8-0.4,9.8-2.4s2.8-4.9,3.6-10
				c0.8-5,0.7-7.8-1.4-9.9c-2.1-2.1-6.4-3.3-12.8-3.3c-6.4,0-12.2,0.6-17,0.6s-12.6-0.5-18.1-0.5c-5.5,0-9.3,0.3-11.4,1.7
				c-2.1,1.4-2.9,5.9-4,11.9C99.6,1890.6,101.6,1892.6,104.5,1893.9z M729.8,1905.3c-13.5,0-19.3,0.7-33.6,0.7
				c-14.3,0-19.6-1.2-36.9,0.2c-19.3,1.7-29.1,4.6-36.8,11c-7.7,6.3-12.6,13.6-15.6,23.3c-3,9.7-8.5,30.4-14,54.2
				c-1.5,6.6-5,18.9,0.8,26.8c5.9,7.8,13.1,10.1,31.9,10.1s21.7-1.4,31-9.7c6.6-5.9,7.2-6.6,10.1-8.1c1-0.5,1.4,0.1,1.4,3.6
				c-0.2,14.2-8.6,25.5-15,28.5c-6.5,3-24.9,4-39.6,4c-14.7,0-16.3-2.4-17.8-3.7c-1.5-1.3-3.4-2.4-5.8-4.5c-2.4-2.1-5.5-1.8-7.2,3.4
				c-1.6,5.2-4.7,18.7-5,28.1c-0.3,12.7,13.4,17.5,26.1,17.8c15.4,0.3,30.3-0.1,68.9-0.8c40.9-0.7,51.2-27.6,58.4-59.4
				c8.9-39.5,15.7-69.3,19.1-85.2c3.4-16,4.9-19.3,4.9-26.4C754.9,1906.7,743.3,1905.3,729.8,1905.3z M682.2,1959.1
				c-1.9,7.8-6.2,23.9-7.2,26.9c-1.1,3-3.1,6.7-4.5,6.7c-1.4,0-5.7-1.6-8-5.1s-2.7-7.5-0.1-17.7c2.6-10.3,5-18.7,7.6-25.9
				c2.5-7.2,8.2-8.3,11.5-8.3c3.3,0,4.6,0.4,4.4,2.4C685.8,1940.1,685.8,1944.1,682.2,1959.1z M893.6,1906.1
				c-17.6-2.2-50.9-1.6-64.2-1.5c-13.3,0.2-21.2,3.7-32.4,11.7c-11.2,8-18.2,19.3-21.2,33.2c-3,13.9-11.2,44.2-12.8,52.1
				s-3.7,15.7-3.7,22c-0.2,19.6,19.1,26.4,33.3,27.2c14.3,0.8,49.4,0.8,72.2,0.2c22.8-0.6,28.4-12.3,30.4-20.7
				c2-8.4,3.7-20.6,4.1-24.1c0.5-5.4-1.8-3-8.4-0.1c-6.5,2.9-24.3,2.6-40.9,2.6c-16.5,0-19.5-4.6-19.5-15.9s3.8-13.7,7.4-13.7h47.6
				c18.5,0,23-5.4,26.7-13.6c3.7-8.3,7.3-21.3,7.3-36.6C919.5,1913.7,911.2,1908.3,893.6,1906.1z M850.7,1956.1
				c-6,0.1-10.1-1.6-10.1-1.6s-0.7-20.7,9.3-20.7c8.1,0,8,9.2,8,13.2C857.9,1951,858.8,1956,850.7,1956.1z M574.4,1974.7
				c4.2-18.4,8.1-31.1,8.1-41.7c0-16.4-10.4-25.9-30.7-25.9c-41.8,0-38.1,0.7-57.6,0.7c-19.5,0-19.3-0.3-24.4-0.3
				c-5.1,0-7.5,2-9.8,7.2c-2.3,5.2-4.6,8.4-4.6,14.4c0,7.1,6.4,10.3,18.7,10.3c12.3,0,19.1-1.3,25-1.3c5.9,0,15.9,3.9,15.9,10.3
				c0,6.4-6.4,9.6-9.7,9.6s-6.3,0.2-28.2,0.2c-29.5,0-43.5,10.5-54.7,29.9c-10,17.4-12,43-4.2,55.9c5.8,9.6,20.1,9.9,36,9.9
				c13.2,0,15.8-0.6,21.3-3.8c5.6-3.2,11.4-13.7,15.9-15.8c1.4-0.7,1.5-0.4,1.4,0.7c-0.1,1.1-0.1,3.5-0.4,9.3
				c-0.3,5.6,3.5,8.1,7.1,8.5c11.2,1.4,49.5,1.3,61.8-0.2c3.1-0.4,3.9-2.6,1.1-5.3c-2.8-2.7-4-7.1-1.9-14.4
				S570.3,1993.1,574.4,1974.7z M503.1,1989.3c-0.5,1.5-3.1,12.3-5.2,22.1c-0.4,2-1.9,4.7-4.3,4.7c-1.3,0-9-0.1-9-10.4
				s3.3-25,12.9-25S503.6,1987.8,503.1,1989.3z"/>
		</g>
	</g>
</g>
</svg>
