<?xml version="1.0" encoding="utf-8"?>
<!-- Generator: Adobe Illustrator 23.1.0, SVG Export Plug-In . SVG Version: 6.00 Build 0)  -->
<svg version="1.1" id="Layer_1" xmlns="http://www.w3.org/2000/svg" xmlns:xlink="http://www.w3.org/1999/xlink" x="0px" y="0px"
	 viewBox="0 0 348.4 512" style="enable-background:new 0 0 348.4 512;" xml:space="preserve">
<style type="text/css">
	.st0{enable-background:new    ;}
	.st1{fill:#676766;}
	.st2{fill-rule:evenodd;clip-rule:evenodd;fill:#FFFFFF;}
	.st3{fill-rule:evenodd;clip-rule:evenodd;fill:#D42027;}
</style>
<g id="Ellipse_1_1_" class="st0">
	<g id="Ellipse_1">
		<g>
			<path class="st1" d="M174.4,318.1C110.9,318.1,59,269,54.2,206.7l-13.3-2.6c3.5,70.8,61.9,127.1,133.4,127.1
				c71.4,0,129.7-56.1,133.4-126.6l-13.2,1.9C289.9,268.9,237.9,318.1,174.4,318.1z M183,77.1c59.9,4.3,107.7,52.3,111.6,112.4
				l-42.3-7l-7,15.4h100.2l-37.5-6.2c-2.9-69-58.1-124.5-126.9-127.8l-6.1-37.6v179.6l23.1-36.6L183,77.1z M98.4,182.5l-44.3,7.3
				c3.8-60.2,51.7-108.5,111.7-112.7l2.7-13.3C99.3,66.8,43.7,122.6,40.9,192l-35.6,5.9h100.2L98.4,182.5z"/>
		</g>
	</g>
</g>
<g id="Shape_1_1_" class="st0">
	<g id="Shape_1">
		<g>
			<path class="st2" d="M39.2,412l-9,47.3l-0.1,2.7l-9.5-50H0.3l24.8,100h5L54.7,412L39.2,412L39.2,412z M75.3,411.9L49.7,512.1
				h14.7l2.2-10.2h16.3l2,10.2h20.2L79.6,411.9L75.3,411.9L75.3,411.9z M69,490.5l5.9-27.5l0.3,0l5.4,27.4H69z M133.4,411.8h-18.9
				l0.1,100.1h34.9l4.3-14h-20.4L133.4,411.8L133.4,411.8z M160.7,411.8l0.1,100.1h18.8l-0.1-100.1L160.7,411.8L160.7,411.8z
				 M212.9,411.9l-25.6,100.2h14.7l2.2-10.2h16.3l2,10.2h20.2l-25.5-100.2L212.9,411.9L212.9,411.9z M206.6,490.5l5.9-27.5l0.3,0
				l5.4,27.4H206.6z M278,456.7l-23.6-44.6h-5.3v100h14.2v-47.2l24.1,47.3h4.9V411.9H278L278,456.7L278,456.7z M303.2,411.9v14H315
				v86.2h18.3v-86.2h10.2l4.9-14H303.2z M174.5,273.9v108.7L323.9,0L174.7,273.6l-0.2-75.8L25.5,0.6L174.5,273.9L174.5,273.9z"/>
		</g>
	</g>
</g>
<g id="Shape_1_copy_1_" class="st0">
	<g id="Shape_1_copy">
		<g>
			<polygon class="st3" points="323.9,0.6 174.6,197.8 174.6,273.9 25.5,0 174.8,382.6 174.6,274 			"/>
		</g>
	</g>
</g>
</svg>
