<?xml version="1.0" encoding="utf-8"?>
<!-- Generator: Adobe Illustrator 23.1.0, SVG Export Plug-In . SVG Version: 6.00 Build 0)  -->
<svg version="1.1" id="Layer_1" xmlns="http://www.w3.org/2000/svg" xmlns:xlink="http://www.w3.org/1999/xlink" x="0px" y="0px"
	 viewBox="0 0 512 250.9" style="enable-background:new 0 0 512 250.9;" xml:space="preserve">
<style type="text/css">
	.st0{fill:#FFFFFF;}
	.st1{enable-background:new    ;}
	.st2{fill-rule:evenodd;clip-rule:evenodd;fill:#FFFFFF;}
</style>
<g id="Rectangle_2_1_">
	<g id="Rectangle_2">
		<g>
			<path class="st0" d="M510.1,142.9l3.8-143.8h-38.2l3.8,143.8H510.1z M-1.1,197.2h459.4V-0.9H-1.1V197.2z M476.6,197.3h36.9V156
				h-36.9V197.3z"/>
		</g>
	</g>
</g>
<g id="Rectangle_2_copy_1_" class="st1">
	<g id="Rectangle_2_copy">
		<g>
			<path d="M89.7,89.3c6-1.2,12.8-4.6,14.5-6.8s4.7-5.5,4.7-19s-1.3-22.6-8.7-32.2c-7.4-9.7-23.6-10.4-37.8-10.4s-38,0-38,0v147.7
				c0,0,28.3,0,49.7,0s27.2-2.4,31.6-8.2c4.4-5.8,5-17.3,5-27.8c0-4.4,0-5.5,0-10.3c0-15.1-2.3-21.2-5.4-24.9
				C102.2,93.7,96.7,90.7,89.7,89.3z M63.1,46.6c0,0,5.9,0,7.7,0.7c1.8,0.7,4,2.5,4,7.1s0,12.1,0,16.1c0,4.6-0.5,6.2-2.4,7.5
				c-1.5,1-5.6,1.2-9.3,1.3V46.6z M74.8,135c0,4.4-0.8,6.6-3,7.3c-2.3,0.7-8.6,1-8.6,1v-40.8c0,0,6.4,0.1,7.7,0.7s4,2,4,6.8
				C74.8,114.8,74.8,130.6,74.8,135z M164.8,18.4c-31.5,0-41.2,18.5-41.2,41.2v70.2c0,22.8,9.9,41.2,41.2,41.2s41.2-18.5,41.2-41.2
				V59.6C206,36.8,196.3,18.4,164.8,18.4z M171.9,143.1c0,3.5-2.9,6.4-6.4,6.4s-6.4-2.9-6.4-6.4V49.9c0-3.5,2.9-6.4,6.4-6.4
				s6.4,2.9,6.4,6.4V143.1z M384.4,20.6l-8.7,66.2l-9.2-66.2h-46.1v148.2h30.8V70.4l13.7,98.2h22.2l13-98.2v98.4h31.6V20.6H384.4z
				 M262.7,18.4c-31.5,0-41.2,18.5-41.2,41.2v70.2c0,22.8,9.9,41.2,41.2,41.2s41.2-18.5,41.2-41.2V59.6
				C304,36.8,294.3,18.4,262.7,18.4z M269.9,143.1c0,3.5-2.9,6.4-6.4,6.4c-3.5,0-6.4-2.9-6.4-6.4V49.9c0-3.5,2.9-6.4,6.4-6.4
				s6.4,2.9,6.4,6.4V143.1z"/>
		</g>
	</g>
</g>
<g id="Shape_2_1_" class="st1">
	<g id="Shape_2">
		<g>
			<path class="st2" d="M12.9,230.3c-5.6-1.2-6.1-2.6-6.1-4.2c0-1.5,1.1-3.2,4.5-3.2c4.3,0,9,3.4,9,3.4l3.8-5.7
				c0,0-4.9-4.4-12.9-4.4c-6.3,0-12.1,3.1-12.1,10.8c0,7.6,5.9,8.8,12,10.5s6.5,2.8,6.5,4.3c0,1.6-1,3.4-5.1,3.4
				c-5.7,0-10.2-4.1-10.2-4.1l-4.5,5.4c0,0,5.6,5.5,14.8,5.5c6.5,0,12.7-3.1,12.7-10.7C25.3,233.5,18.6,231.5,12.9,230.3z
				 M501,230.3c-5.6-1.2-6.1-2.6-6.1-4.2c0-1.5,1.1-3.2,4.5-3.2c4.3,0,9,3.4,9,3.4l3.8-5.7c0,0-4.9-4.4-12.9-4.4
				c-6.3,0-12.1,3.1-12.1,10.8c0,7.6,5.9,8.8,12,10.5c6.1,1.7,6.5,2.8,6.5,4.3c0,1.6-1,3.4-5.1,3.4c-5.7,0-10.2-4.1-10.2-4.1
				l-4.5,5.4c0,0,5.6,5.5,14.8,5.5c6.5,0,12.7-3.1,12.7-10.7C513.4,233.5,506.6,231.5,501,230.3z M415,216c-10.2,0-18.5,8.1-18.5,18
				c0,9.9,8.3,18,18.5,18c10.2,0,18.5-8.1,18.5-18C433.5,224.1,425.2,216,415,216z M415,245c-5.8,0-10.5-4.9-10.5-11s4.7-11,10.5-11
				s10.5,4.9,10.5,11S420.8,245,415,245z M333.4,251.5h7.6v-34.8h-7.6V251.5z M77.1,223.8h10.6v27.7h7.6v-27.7h10.5v-7.2H77.1V223.8
				z M182.2,236.6c0,4.5-2,8.3-7.5,8.4c-5.5,0-7.5-3.9-7.5-8.4c0-4.5,0-19.9,0-19.9h-7.6c0,0,0.1,7.8,0.1,19.7
				c0,10.4,5.5,15.6,15.4,15.6c9.8,0,14.9-5.9,14.9-15.6c0-11.9,0.1-19.7,0.1-19.7h-7.7C182.2,216.6,182.2,232.1,182.2,236.6z
				 M259.2,216.8c-3.6,0-13.2,0-13.2,0v34.6c0,0,9.6,0,13.2,0c9.5,0,18.8-6.1,18.8-17.3C278,222,268.3,216.8,259.2,216.8z
				 M259.9,244.6c-2.9,0-6.3,0-6.3,0v-21c0,0,3.4,0,6.3,0C273.3,223.6,273.3,244.6,259.9,244.6z"/>
		</g>
	</g>
</g>
</svg>
