<?xml version="1.0" encoding="utf-8"?>
<!-- Generator: Adobe Illustrator 23.1.0, SVG Export Plug-In . SVG Version: 6.00 Build 0)  -->
<svg version="1.1" xmlns="http://www.w3.org/2000/svg" xmlns:xlink="http://www.w3.org/1999/xlink" x="0px" y="0px"
	 viewBox="0 0 619 331" style="enable-background:new 0 0 619 331;" xml:space="preserve">
<style type="text/css">
	.st0{enable-background:new    ;}
	.st1{fill:#FFFFFF;}
	.st2{fill-rule:evenodd;clip-rule:evenodd;fill:#C73732;}
</style>
<g id="ARTISANS_1_" class="st0">
	<g id="ARTISANS">
		<g>
			<path class="st1" d="M170.02,285.11c-1.12-0.47-2.52-0.87-4.19-1.2c-0.06-0.01-0.13-0.02-0.2-0.04c-0.07-0.01-0.14-0.02-0.2-0.04
				c-0.05-0.01-0.1-0.02-0.14-0.03c-0.04-0.01-0.09-0.02-0.14-0.03c-1.3-0.26-2.31-0.5-3.04-0.73c-0.72-0.23-1.33-0.59-1.81-1.08
				c-0.48-0.49-0.72-1.16-0.72-2.01v-0.02c0-1.13,0.47-2.01,1.4-2.63c0.94-0.62,2.26-0.93,3.97-0.93c1.03,0,2.08,0.19,3.16,0.57
				c1.08,0.38,2.14,0.94,3.18,1.68l2.16-3.64c-0.88-0.62-1.79-1.13-2.72-1.54c-0.94-0.41-1.89-0.73-2.86-0.94
				c-0.97-0.22-1.94-0.32-2.91-0.32c-2.06,0-3.82,0.31-5.28,0.94c-1.46,0.63-2.58,1.55-3.34,2.75c-0.77,1.21-1.15,2.66-1.15,4.36
				v0.02c0,1.92,0.41,3.4,1.23,4.45c0.82,1.05,1.81,1.77,2.97,2.18c1.16,0.41,2.65,0.76,4.46,1.05l0.33,0.06
				c0.04,0.01,0.07,0.02,0.11,0.02s0.07,0.01,0.11,0.02c1.13,0.2,2.05,0.41,2.77,0.64c0.72,0.23,1.3,0.58,1.75,1.07
				c0.45,0.49,0.67,1.14,0.67,1.97v0.02c0,1.17-0.5,2.07-1.5,2.71c-1,0.64-2.4,0.96-4.21,0.96c-1.45,0-2.82-0.22-4.12-0.67
				c-1.29-0.45-2.46-1.11-3.5-1.99l-2.36,3.53c0.87,0.73,1.82,1.34,2.87,1.83c1.05,0.49,2.17,0.87,3.36,1.12
				c1.2,0.25,2.44,0.38,3.74,0.38c2.13,0,3.95-0.31,5.46-0.93c1.51-0.62,2.66-1.53,3.46-2.72c0.79-1.19,1.19-2.63,1.19-4.3v-0.04
				c0-1.78-0.38-3.19-1.13-4.23C172.08,286.33,171.14,285.58,170.02,285.11z M36.64,272.46L26.5,299.31h4.78l1.78-5.1h10.41
				l1.78,5.1h4.78l-10.15-26.85H36.64z M34.53,289.99l3.73-10.67l3.73,10.67H34.53z M69.97,287.25c1.16-0.65,2.06-1.58,2.69-2.77
				c0.64-1.19,0.96-2.58,0.96-4.16c0-1.56-0.32-2.94-0.96-4.14c-0.64-1.19-1.53-2.12-2.69-2.77c-1.15-0.65-2.49-0.98-4.01-0.98
				h-6.84h-2.6h-1.84v26.87h4.44v-11.08h4.37l5.93,11.08h5.33l-6.35-11.41C68.96,287.74,69.49,287.53,69.97,287.25z M67.48,283.55
				c-0.48,0.3-1.03,0.45-1.64,0.45h-6.71v-7.33h6.71c0.63,0,1.19,0.15,1.66,0.45c0.48,0.3,0.85,0.73,1.11,1.28
				c0.26,0.55,0.39,1.19,0.39,1.92c-0.01,0.74-0.15,1.39-0.41,1.94C68.33,282.82,67.96,283.25,67.48,283.55z M238.07,291.95
				l-5.35-19.48h-3.34l-5.35,19.48l-4.13-19.48h-4.59l6.41,26.85h4.33l5.11-18.76l4.89,18.76h4.33l6.41-26.85h-4.59L238.07,291.95z
				 M266.17,287.25c1.16-0.65,2.06-1.58,2.69-2.77c0.64-1.19,0.96-2.58,0.96-4.16c0-1.56-0.32-2.94-0.96-4.14
				c-0.64-1.19-1.53-2.12-2.68-2.77c-1.15-0.65-2.49-0.98-4.01-0.98h-6.84h-2.6h-1.84v26.87h4.44v-11.08h4.37l5.93,11.08h5.33
				l-6.35-11.41C265.16,287.74,265.68,287.53,266.17,287.25z M263.68,283.55c-0.48,0.3-1.03,0.45-1.64,0.45h-6.71v-7.33h6.71
				c0.63,0,1.19,0.15,1.66,0.45c0.48,0.3,0.85,0.73,1.11,1.28c0.26,0.55,0.39,1.19,0.39,1.92c-0.01,0.74-0.15,1.39-0.41,1.94
				S264.16,283.25,263.68,283.55z M76.73,276.69h7.51v22.62h4.42v-22.62h7.51v-4.23H76.73V276.69z M100.28,299.31h4.53v-26.85h-4.53
				V299.31z M132.56,276.69h7.51v22.62h4.42v-22.62H152v-4.23h-19.44V276.69z M126.36,285.11c-1.12-0.47-2.52-0.87-4.19-1.2
				c-0.06-0.01-0.13-0.02-0.2-0.04c-0.07-0.01-0.14-0.02-0.2-0.04c-0.05-0.01-0.1-0.02-0.14-0.03c-0.04-0.01-0.09-0.02-0.14-0.03
				c-1.3-0.26-2.31-0.5-3.04-0.73c-0.72-0.23-1.33-0.59-1.81-1.08c-0.48-0.49-0.72-1.16-0.72-2.01v-0.02c0-1.13,0.47-2.01,1.4-2.63
				c0.94-0.62,2.26-0.93,3.97-0.93c1.03,0,2.08,0.19,3.16,0.57c1.08,0.38,2.14,0.94,3.18,1.68l2.16-3.64
				c-0.88-0.62-1.79-1.13-2.72-1.54c-0.94-0.41-1.89-0.73-2.86-0.94c-0.97-0.22-1.94-0.32-2.91-0.32c-2.06,0-3.82,0.31-5.28,0.94
				c-1.46,0.63-2.58,1.55-3.34,2.75c-0.77,1.21-1.15,2.66-1.15,4.36v0.02c0,1.92,0.41,3.4,1.23,4.45c0.82,1.05,1.81,1.77,2.97,2.18
				c1.16,0.41,2.65,0.76,4.46,1.05l0.33,0.06c0.04,0.01,0.07,0.02,0.11,0.02c0.04,0,0.07,0.01,0.11,0.02
				c1.13,0.2,2.05,0.41,2.77,0.64c0.72,0.23,1.3,0.58,1.75,1.07c0.45,0.49,0.67,1.14,0.67,1.97v0.02c0,1.17-0.5,2.07-1.5,2.71
				c-1,0.64-2.4,0.96-4.21,0.96c-1.45,0-2.82-0.22-4.12-0.67c-1.29-0.45-2.46-1.11-3.5-1.99l-2.36,3.53
				c0.87,0.73,1.82,1.34,2.87,1.83c1.05,0.49,2.17,0.87,3.36,1.12c1.2,0.25,2.44,0.38,3.74,0.38c2.13,0,3.95-0.31,5.46-0.93
				c1.51-0.62,2.66-1.53,3.46-2.72c0.79-1.19,1.19-2.63,1.19-4.3v-0.04c0-1.78-0.38-3.19-1.13-4.23
				C128.42,286.33,127.48,285.58,126.36,285.11z M369.9,285.11c-1.12-0.47-2.52-0.87-4.19-1.2c-0.06-0.01-0.13-0.02-0.2-0.04
				c-0.07-0.01-0.14-0.02-0.2-0.04c-0.05-0.01-0.1-0.02-0.14-0.03c-0.04-0.01-0.09-0.02-0.14-0.03c-1.3-0.26-2.31-0.5-3.04-0.73
				c-0.72-0.23-1.33-0.59-1.81-1.08c-0.48-0.49-0.72-1.16-0.72-2.01v-0.02c0-1.13,0.47-2.01,1.4-2.63c0.94-0.62,2.26-0.93,3.97-0.93
				c1.03,0,2.08,0.19,3.16,0.57c1.08,0.38,2.14,0.94,3.18,1.68l2.16-3.64c-0.88-0.62-1.79-1.13-2.72-1.54
				c-0.94-0.41-1.89-0.73-2.86-0.94c-0.97-0.22-1.94-0.32-2.91-0.32c-2.06,0-3.82,0.31-5.28,0.94c-1.46,0.63-2.58,1.55-3.34,2.75
				c-0.77,1.21-1.15,2.66-1.15,4.36v0.02c0,1.92,0.41,3.4,1.23,4.45c0.82,1.05,1.81,1.77,2.97,2.18c1.16,0.41,2.65,0.76,4.46,1.05
				l0.33,0.06c0.04,0.01,0.07,0.02,0.11,0.02s0.07,0.01,0.11,0.02c1.13,0.2,2.05,0.41,2.77,0.64c0.72,0.23,1.3,0.58,1.75,1.07
				c0.45,0.49,0.67,1.14,0.67,1.97v0.02c0,1.17-0.5,2.07-1.5,2.71c-1,0.64-2.4,0.96-4.21,0.96c-1.45,0-2.82-0.22-4.12-0.67
				c-1.29-0.45-2.46-1.11-3.5-1.99l-2.36,3.53c0.87,0.73,1.82,1.34,2.87,1.83c1.05,0.49,2.17,0.87,3.36,1.12
				c1.2,0.25,2.44,0.38,3.74,0.38c2.13,0,3.95-0.31,5.46-0.93c1.51-0.62,2.66-1.53,3.46-2.72c0.79-1.19,1.19-2.63,1.19-4.3v-0.04
				c0-1.78-0.38-3.19-1.13-4.23C371.96,286.33,371.02,285.58,369.9,285.11z M513.36,285.11c-1.12-0.47-2.52-0.87-4.19-1.2
				c-0.06-0.01-0.13-0.02-0.2-0.04c-0.07-0.01-0.14-0.02-0.2-0.04c-0.05-0.01-0.1-0.02-0.14-0.03c-0.04-0.01-0.09-0.02-0.14-0.03
				c-1.3-0.26-2.31-0.5-3.04-0.73c-0.72-0.23-1.33-0.59-1.81-1.08c-0.48-0.49-0.72-1.16-0.72-2.01v-0.02c0-1.13,0.47-2.01,1.4-2.63
				c0.94-0.62,2.26-0.93,3.97-0.93c1.03,0,2.08,0.19,3.16,0.57c1.08,0.38,2.14,0.94,3.18,1.68l2.16-3.64
				c-0.88-0.62-1.79-1.13-2.72-1.54c-0.94-0.41-1.89-0.73-2.86-0.94c-0.97-0.22-1.94-0.32-2.91-0.32c-2.06,0-3.82,0.31-5.28,0.94
				c-1.46,0.63-2.58,1.55-3.34,2.75c-0.77,1.21-1.15,2.66-1.15,4.36v0.02c0,1.92,0.41,3.4,1.23,4.45c0.82,1.05,1.81,1.77,2.97,2.18
				c1.16,0.41,2.65,0.76,4.46,1.05l0.33,0.06c0.04,0.01,0.07,0.02,0.11,0.02c0.04,0,0.07,0.01,0.11,0.02
				c1.13,0.2,2.05,0.41,2.77,0.64c0.72,0.23,1.3,0.58,1.75,1.07c0.45,0.49,0.67,1.14,0.67,1.97v0.02c0,1.17-0.5,2.07-1.5,2.71
				c-1,0.64-2.4,0.96-4.21,0.96c-1.45,0-2.82-0.22-4.12-0.67c-1.29-0.45-2.46-1.11-3.5-1.99l-2.36,3.53
				c0.87,0.73,1.82,1.34,2.87,1.83c1.05,0.49,2.17,0.87,3.36,1.12c1.2,0.25,2.44,0.38,3.74,0.38c2.13,0,3.95-0.31,5.46-0.93
				c1.51-0.62,2.66-1.53,3.46-2.72c0.79-1.19,1.19-2.63,1.19-4.3v-0.04c0-1.78-0.38-3.19-1.13-4.23
				C515.42,286.33,514.48,285.58,513.36,285.11z M487.28,299.31h4.53v-26.85h-4.53V299.31z M275.89,299.31h4.53v-26.85h-4.53V299.31
				z M564.33,292.34l-11.19-19.87h-4.83v26.83h4.31v-19.57l11.15,19.57h4.87v-26.83h-4.31V292.34z M463.73,276.69h7.51v22.62h4.42
				v-22.62h7.51v-4.23h-19.44V276.69z M593.19,287.37c-0.76-1.03-1.69-1.79-2.82-2.25c-1.12-0.47-2.52-0.87-4.19-1.2
				c-0.06-0.01-0.13-0.02-0.2-0.04c-0.07-0.01-0.14-0.02-0.2-0.04c-0.05-0.01-0.1-0.02-0.14-0.03c-0.04-0.01-0.09-0.02-0.14-0.03
				c-1.3-0.26-2.31-0.5-3.04-0.73c-0.72-0.23-1.33-0.59-1.81-1.08c-0.48-0.49-0.72-1.16-0.72-2.01v-0.02c0-1.13,0.47-2.01,1.4-2.63
				c0.94-0.62,2.26-0.93,3.97-0.93c1.03,0,2.08,0.19,3.16,0.57c1.08,0.38,2.14,0.94,3.18,1.68l2.16-3.64
				c-0.88-0.62-1.79-1.13-2.72-1.54c-0.94-0.41-1.89-0.73-2.86-0.94c-0.97-0.22-1.94-0.32-2.91-0.32c-2.06,0-3.82,0.31-5.28,0.94
				c-1.46,0.63-2.58,1.55-3.34,2.75c-0.77,1.21-1.15,2.66-1.15,4.36v0.02c0,1.92,0.41,3.4,1.23,4.45c0.82,1.05,1.81,1.77,2.97,2.18
				c1.16,0.41,2.65,0.76,4.46,1.05l0.33,0.06c0.04,0.01,0.07,0.02,0.11,0.02s0.07,0.01,0.11,0.02c1.13,0.2,2.05,0.41,2.77,0.64
				c0.72,0.23,1.3,0.58,1.75,1.07c0.45,0.49,0.67,1.14,0.67,1.97v0.02c0,1.17-0.5,2.07-1.5,2.71c-1,0.64-2.4,0.96-4.21,0.96
				c-1.45,0-2.82-0.22-4.12-0.67c-1.29-0.45-2.46-1.11-3.5-1.99l-2.36,3.53c0.87,0.73,1.82,1.34,2.87,1.83
				c1.05,0.49,2.17,0.87,3.36,1.12c1.2,0.25,2.44,0.38,3.74,0.38c2.13,0,3.95-0.31,5.46-0.93c1.51-0.62,2.66-1.53,3.46-2.72
				c0.79-1.19,1.19-2.63,1.19-4.3v-0.04C594.33,289.81,593.95,288.4,593.19,287.37z M530.27,272.46l-10.15,26.85h4.78l1.78-5.1
				h10.41l1.78,5.1h4.78l-10.15-26.85H530.27z M528.15,289.99l3.73-10.67l3.73,10.67H528.15z M309.71,272.46h-1.84v26.85h1.84h2.6
				h13.29v-4.23h-13.29v-7h11.24v-4.21h-11.24v-7.18h13.29v-4.23h-13.29H309.71z M284.7,276.69h7.51v22.62h4.42v-22.62h7.51v-4.23
				H284.7V276.69z M346.28,287.25c1.16-0.65,2.06-1.58,2.69-2.77c0.64-1.19,0.96-2.58,0.96-4.16c0-1.56-0.32-2.94-0.96-4.14
				c-0.64-1.19-1.53-2.12-2.69-2.77c-1.15-0.65-2.49-0.98-4.01-0.98h-6.84h-2.6h-1.84v26.87h4.44v-11.08h4.37l5.93,11.08h5.33
				l-6.35-11.41C345.26,287.74,345.79,287.53,346.28,287.25z M343.79,283.55c-0.48,0.3-1.03,0.45-1.64,0.45h-6.71v-7.33h6.71
				c0.63,0,1.19,0.15,1.66,0.45c0.48,0.3,0.85,0.73,1.11,1.28c0.26,0.55,0.39,1.19,0.39,1.92c-0.01,0.74-0.15,1.39-0.41,1.94
				C344.63,282.82,344.26,283.25,343.79,283.55z M423.64,272.46l-10.15,26.85h4.78l1.78-5.1h10.41l1.78,5.1h4.78l-10.15-26.85
				H423.64z M421.53,289.99l3.73-10.67l3.73,10.67H421.53z M456.97,287.25c1.16-0.65,2.06-1.58,2.69-2.77
				c0.64-1.19,0.96-2.58,0.96-4.16c0-1.56-0.32-2.94-0.96-4.14c-0.64-1.19-1.53-2.12-2.69-2.77c-1.15-0.65-2.49-0.98-4.01-0.98
				h-6.84h-2.6h-1.84v26.87h4.44v-11.08h4.37l5.93,11.08h5.33l-6.35-11.41C455.96,287.74,456.49,287.53,456.97,287.25z
				 M454.48,283.55c-0.48,0.3-1.03,0.45-1.64,0.45h-6.71v-7.33h6.71c0.63,0,1.19,0.15,1.66,0.45c0.48,0.3,0.85,0.73,1.11,1.28
				c0.26,0.55,0.39,1.19,0.39,1.92c-0.01,0.74-0.15,1.39-0.41,1.94C455.33,282.82,454.96,283.25,454.48,283.55z"/>
		</g>
	</g>
</g>
<g id="ARTISANS_copy_1_" class="st0">
	<g id="ARTISANS_copy">
		<g>
			<path class="st2" d="M394.12,280.94c-3.31,0-5.98,2.68-5.98,5.98c0,3.31,2.68,5.98,5.98,5.98c3.31,0,5.98-2.68,5.98-5.98
				C400.11,283.62,397.43,280.94,394.12,280.94z M195.11,280.94c-3.31,0-5.98,2.68-5.98,5.98c0,3.31,2.68,5.98,5.98,5.98
				s5.98-2.68,5.98-5.98C201.09,283.62,198.41,280.94,195.11,280.94z M44.66,250.35h39.94l41.11-80.55h58.59l41.11,80.55h39.94
				L155.09,33.95L44.66,250.35z M137.8,139.1l17.2-34.72l17.04,34.72H137.8z M466.09,33.95l-110.43,216.4h39.94l41.11-80.55h58.59
				l41.11,80.55h39.94L466.09,33.95z M448.8,139.1l17.2-34.72l17.04,34.72H448.8z M385.44,31.74l-37.94,72.6l-37-72.01l-37,72.01
				l-37.94-72.6h-39.94l77.74,152.35l37.13-72.22l36.98,72.55l77.91-152.67H385.44z M279.96,250.15h61.81l-31.15-59.83
				L279.96,250.15z"/>
		</g>
	</g>
</g>
</svg>
