<?xml version="1.0" encoding="utf-8"?>
<!-- Generator: Adobe Illustrator 23.1.0, SVG Export Plug-In . SVG Version: 6.00 Build 0)  -->
<svg version="1.1" id="Ellipse_1_1_" xmlns="http://www.w3.org/2000/svg" xmlns:xlink="http://www.w3.org/1999/xlink" x="0px"
	 y="0px" viewBox="0 0 512 244" style="enable-background:new 0 0 512 244;" xml:space="preserve">
<style type="text/css">
	.st0{fill-rule:evenodd;clip-rule:evenodd;fill:#FFFFFF;}
</style>
<g id="Ellipse_1">
	<g>
		<path class="st0" d="M511.7,117.9h-0.5v-7c0.1-0.7,0.6,0.2,0.5-0.5h-0.5v-3h-0.5v-2h-0.5v-5h-0.5v-1.5h-0.5v-2h-0.5v-5h-0.5v-1.5
			h-0.5v-1.5h-0.5v-1.5h-0.5v-1h-0.5c-0.5-2.8-1-5.7-1.5-8.5h-0.5v-1c-0.5-0.3-1-0.7-1.5-1v-1h-0.5v-2.5c-0.3-0.2-0.7-0.3-1-0.5v-1
			h-0.5v-1h-0.5v-1h-0.5c-0.2-0.7-0.3-1.3-0.5-2h-0.5c-0.2-0.7-0.3-1.3-0.5-2h-0.5c-0.2-0.7-0.3-1.3-0.5-2h-0.5v-1h-0.5v-1h-0.5v-1
			h-0.5v-1h-0.5c-0.2-0.7-0.3-1.3-0.5-2c-0.3-0.2-0.7-0.3-1-0.5c-0.2-0.7-0.3-1.3-0.5-2h-0.5c-0.2-0.5-0.3-1-0.5-1.5
			c-0.3-0.2-0.7-0.3-1-0.5v-1c-0.7-0.5-1.3-1-2-1.5v-1c-0.8-0.7-1.7-1.3-2.5-2v-1c-0.8-0.7-1.7-1.3-2.5-2v-1c-0.7-0.5-1.3-1-2-1.5
			v-1c-1.5-1.3-3-2.7-4.5-4c-0.7-0.8-1.3-1.7-2-2.5h-1c-0.5-0.7-1-1.3-1.5-2h-1c-2.2-2.5-4.3-5-6.5-7.5h-1v-0.5h-1v-0.5h-1v-0.5h-1
			c-0.7-0.8-1.3-1.7-2-2.5c-0.7-0.2-1.3-0.3-2-0.5c-0.5-0.7-1-1.3-1.5-2h-1c-0.2-0.3-0.3-0.7-0.5-1h-1v-0.5h-1v-0.5h-1v-0.5h-1v-0.5
			h-1v-0.5h-1c-0.2-0.3-0.3-0.7-0.5-1c-0.7-0.2-1.3-0.3-2-0.5v-0.5c-1-0.3-2-0.7-3-1v-0.5c-1.3-0.2-2.7-0.3-4-0.5
			c-0.2-0.3-0.3-0.7-0.5-1c-0.7-0.2-1.3-0.3-2-0.5c-0.2-0.3-0.3-0.7-0.5-1h-1V7.4h-1.5V6.9h-2V6.4h-2V5.9H427V5.4h-1.5V4.9
			c-0.7-0.2-1.3-0.3-2-0.5V3.9c-1.2-0.2-2.3-0.3-3.5-0.5V2.9c-2.3-0.2-4.7-0.3-7-0.5V1.9h-2.5V1.4h-2V0.9H406V0.4
			c-2.8-0.8-7.7,0.3-10.5-0.5c-1.3-0.4-3.2,0.2-4,0.5v0.5c-1.1,0.3-2.8-0.2-3.5-0.5v-0.5c-3.5,0.2-7,0.3-10.5,0.5
			c0,0-0.4,0.8-1.5,0.5V0.4c-3.8-0.2-7.6-0.3-11.5-0.5v0.5c-1.2,0.3-2.1-0.6-2.5-0.5v0.5c-3,0.5-7.8,0.1-10-0.5h-2v0.5h-10.5v0.5
			h-0.5V0.4h-2.5v-0.5c-0.8-0.1-0.9,0.5-1,0.5h-3v-0.5c-3.5,0.2-7,0.3-10.5,0.5h-38.4c-1.9-0.5-13.4-1.2-15.9-0.5v0.5
			c-2.7-0.2-5.3-0.3-8-0.5v0.5c-1.5,0.4-3.7-0.3-4.5-0.5H248v0.5c-2.8-0.2-5.6-0.3-8.5-0.5v0.5c-1.5-0.2-3-0.3-4.5-0.5h-4v0.5
			c-3.7-0.2-7.3-0.3-11-0.5v0.5c-2.5-0.2-5-0.3-7.5-0.5v0.5c-0.4,0-1.6-0.9-3-0.5v0.5h-3v-0.5h-2v0.5c-2,0.2-4,0.3-6,0.5V0.4h-1.5
			v-0.5c-1.6-0.5-2.4,0.5-3.5,0.5c-1.3-0.2-2.7-0.3-4-0.5v0.5h-12.5c-6.6-0.2-13.3-0.3-19.9-0.5v0.5c-1.2-0.2-2.3-0.3-3.5-0.5h-4.5
			v0.5c-2.2,0.6-5.7-0.8-7-0.5v0.5c-3.8-0.2-7.6-0.3-11.5-0.5v0.5h-12v0.5h-6c-1.1-0.2-4.2-1.1-6-0.5v0.5h-1v0.5
			c-1.1,0.4-1.4-0.6-2-0.5v0.5h-1v0.5c-1.3-0.2-2.7-0.3-4-0.5c-0.2,0.3-0.3,0.7-0.5,1H95v0.5h-2v0.5h-1.5v0.5H90v0.5h-2v0.5
			c-1.3,0.2-2.7,0.3-4,0.5c-0.2,0.3-0.3,0.7-0.5,1h-1v0.5h-1v0.5h-1.5v0.5h-4v0.5h-1c-0.2,0.3-0.3,0.7-0.5,1h-1v0.5
			c-1.2,0.2-2.3,0.3-3.5,0.5c-0.2,0.3-0.3,0.7-0.5,1c-0.5,0.2-1,0.3-1.5,0.5v0.5c-1.8,0.7-3.7,1.3-5.5,2c-0.2,0.3-0.3,0.7-0.5,1
			c-0.7,0.2-1.3,0.3-2,0.5c-0.2,0.3-0.3,0.7-0.5,1h-1c-0.2,0.3-0.3,0.7-0.5,1h-1c-0.2,0.3-0.3,0.7-0.5,1h-1c-0.2,0.3-0.3,0.7-0.5,1
			h-1c-0.3,0.5-0.7,1-1,1.5h-1c-0.2,0.3-0.3,0.7-0.5,1h-1c-0.2,0.3-0.3,0.7-0.5,1h-1c-0.2,0.3-0.3,0.7-0.5,1h-1v0.5
			c-0.5,0.2-1,0.3-1.5,0.5c-0.2,0.3-0.3,0.7-0.5,1h-1c-0.3,0.5-0.7,1-1,1.5h-1c-1.2,1.3-2.3,2.7-3.5,4c-0.7,0.5-1.3,1-2,1.5v1h-0.5
			c-0.2,0.3-0.3,0.7-0.5,1h-1c-0.2,0.3-0.3,0.7-0.5,1c-0.7,0.5-1.3,1-2,1.5v1c-0.7,0.5-1.3,1-2,1.5c-0.2,0.3-0.3,0.7-0.5,1h-1
			c-0.7,1.2-1.3,2.3-2,3.5h-1c-0.3,1.1-0.4,1.3-1,2h-0.5c-0.2,0.5-0.3,1-0.5,1.5c-0.3,0.2-0.7,0.3-1,0.5v1c-0.3,0.2-0.7,0.3-1,0.5
			c-0.2,0.7-0.3,1.3-0.5,2h-0.5c-0.2,0.5-0.3,1-0.5,1.5c-0.3,0.2-0.7,0.3-1,0.5c-3.2,5.8-6.3,11.7-9.5,17.5v1.5H9.8v1H9.3
			c-0.2,0.7-0.3,1.3-0.5,2H8.3v1.5H7.8v1H7.3v1.5H6.8v1.5H6.3v1.5H5.8c-0.2,1.5-0.3,3-0.5,4.5H4.8v1H4.3c-0.2,1-0.3,2-0.5,3H3.3v2.5
			H2.8v2.5H2.3v2.5H1.8v4.5H1.3v1.5H0.8v1.5H0.3v2h0.5c-0.2,0.3-0.3,0.7-0.5,1h0.5c0.2,1.2,0.3,2.3,0.5,3.5H0.8v1H0.3
			c0.2,3.3,0.3,6.7,0.5,10c-0.4,1.5-1.2,11-0.5,13c0.4,1.1,1.7,2,1.5,3.5H1.3c0.3,1.2,0.7,2.3,1,3.5h0.5c0.4,1.1-0.5,2.9-0.5,3h0.5
			v1h0.5v2.5h0.5v2.5c0.3,0.2,0.7,0.3,1,0.5v1h0.5c0.5,2.7,1,5.3,1.5,8c0.3,0.2,0.7,0.3,1,0.5v1h0.5v2.5c0.5,0.3,1,0.7,1.5,1v1h0.5
			c0.5,2.2,1,4.3,1.5,6.5h0.5c0.2,0.7,0.3,1.3,0.5,2h0.5v1c0.3,0.2,0.7,0.3,1,0.5c1.2,2.7,2.3,5.3,3.5,8c0.3,0.2,0.7,0.3,1,0.5v1
			c0.5,0.3,1,0.7,1.5,1v1c1.2,1,2.3,2,3.5,3c0.3,1,0.7,2,1,3c0.8,0.7,1.7,1.3,2.5,2v1c0.3,0.2,0.7,0.3,1,0.5c0.2,0.7,0.3,1.3,0.5,2
			c0.5,0.3,1,0.7,1.5,1v1c1.2,0.7,2.3,1.3,3.5,2v0.5c0.5,0.3,1,0.7,1.5,1v1c1.8,1.7,3.7,3.3,5.5,5c0.7,0.8,1.3,1.7,2,2.5h1
			c0.2,0.3,0.3,0.7,0.5,1c0.7,0.2,1.3,0.3,2,0.5c1.5,1.7,3,3.3,4.5,5h1c0.2,0.3,0.3,0.7,0.5,1c1.5,0.5,3,1,4.5,1.5
			c0.7,0.8,1.3,1.7,2,2.5h1v0.5h1v0.5h1.5v0.5h1.5v0.5h1c0.2,0.3,0.3,0.7,0.5,1c1.5,0.5,3,1,4.5,1.5v0.5c1.6,0.8,3,1.3,5,1.5v1
			c2.1,0.5,3.6,1.8,5.5,2.5c2.8,0.5,5.6,1,8.5,1.5v0.5h1v0.5h1c0.2,0.3,0.3,0.7,0.5,1h1.5v0.5h4c1.4,0.4,3.1,1,5,1h5.5v0.5h1v0.5
			h1.5v0.5c0.3,0.1,3.1-0.5,4.5-0.5h1.5v0.5c0.8,0.1,0.9-0.5,1-0.5h6v-0.5c4.2,0.2,8.3,0.3,12.5,0.5c0,0,0.4,0.8,1.5,0.5v-0.5h1
			v-0.5c9.5,0.2,18.9,0.3,28.4,0.5c2.8,0.2,5.6,0.3,8.5,0.5v-0.5h7c2.5-0.1,6.8-1.4,10-0.5v0.5h2c3-0.2,6-0.3,9-0.5v0.5h1v0.5
			c1-0.2,2-0.3,3-0.5h6v-0.5c1.3,0.2,2.7,0.3,4,0.5v-0.5c1.2,0.3,2.3,0.7,3.5,1v-0.5c2.7-0.2,5.3-0.3,8-0.5v0.5h1v0.5
			c0.5-0.2,1-0.3,1.5-0.5h14v0.5c2.4,0.6,2.6-1.6,5-1v0.5h2v0.5h2v-0.5h13v0.5c4.7-0.2,9.3-0.3,14-0.5c10,0.2,19.9,0.3,29.9,0.5
			v-0.5h1.5v-0.5c1,0.2,2,0.3,3,0.5v0.5c1-0.2,2-0.3,3-0.5h9.5v-0.5c1.3,0.2,2.7,0.3,4,0.5c0.7-0.1-0.2-0.4,0.5-0.5
			c2.2,0.2,4.3,0.3,6.5,0.5v0.5c2.7-0.2,5.3-0.3,8-0.5v-0.5c1.4-0.4,3.6,0.8,4.5,1c2-0.2,4-0.3,6-0.5h17.4c1.7-0.2,3.3-0.3,5-0.5
			c4.3,1,18.7,1.2,22.9,0h7v-0.5h1v-0.5c2.2-0.3,4.3-0.7,6.5-1v-0.5c2.7-0.3,5.3-0.7,8-1v-0.5c0.7-0.2,1.3-0.3,2-0.5v-0.5h2.5v-0.5
			h2v-0.5h1.5v-0.5h1.5v-0.5h1v-0.5h1v-0.5h1v-0.5h1.5v-0.5h1v-0.5c0.7-0.2,1.3-0.3,2-0.5v-0.5c1-0.2,2-0.3,3-0.5v-0.5
			c1-0.3,2-0.7,3-1v-0.5c0.7-0.2,1.3-0.3,2-0.5c0.2-0.3,0.3-0.7,0.5-1c1-0.3,2-0.7,3-1c0.2-0.3,0.3-0.7,0.5-1c1-0.3,2-0.7,3-1
			c0.2-0.3,0.3-0.7,0.5-1h1v-0.5h1c0.2-0.3,0.3-0.7,0.5-1h1c0.2-0.3,0.3-0.7,0.5-1h1c0.2-0.3,0.3-0.7,0.5-1h1c0.2-0.3,0.3-0.7,0.5-1
			h1c0.3-0.5,0.7-1,1-1.5h1c0.3-0.5,0.7-1,1-1.5h1c0.7-0.8,1.3-1.7,2-2.5h1c0.2-0.3,0.3-0.7,0.5-1c0.5-0.3,1-0.7,1.5-1v-1
			c1.8-1.7,3.7-3.3,5.5-5v-1c1.2-1,2.3-2,3.5-3v-1c1.8-1.7,3.7-3.3,5.5-5v-1h0.5v-1h0.5v-1h0.5v-1c0.3-0.2,0.7-0.3,1-0.5
			c0.2-0.7,0.3-1.3,0.5-2c0.5-0.3,1-0.7,1.5-1v-1c0.3-0.2,0.7-0.3,1-0.5v-1c0.3-0.2,0.7-0.3,1-0.5c0.2-0.7,0.3-1.3,0.5-2
			c0.3-0.2,0.7-0.3,1-0.5c0.2-0.7,0.3-1.3,0.5-2c0.3-0.2,0.7-0.3,1-0.5v-1h0.5v-1h0.5c0.2-1,0.3-2,0.5-3h0.5v-1c0.5-0.3,1-0.7,1.5-1
			v-1c0.3-0.2,0.7-0.3,1-0.5c0.3-1.5,0.7-3,1-4.5h0.5v-1h0.5v-1c0.3-0.2,0.7-0.3,1-0.5v-3h0.5v-1c0.3-0.2,0.7-0.3,1-0.5v-1.5h0.5
			v-1.5h0.5c0.2-1.7,0.3-3.3,0.5-5h0.5v-3.5h0.5v-2.5h0.5v-1.5h0.5v-2h0.5v-2h0.5c0.6-1.8-0.7-4.6-0.5-5.5h0.5v-1.5h0.5v-7
			C511.5,125.4,512.5,120.7,511.7,117.9z M485.8,123.9h-0.5v3h-0.5c0.3,1.8,0.7,3.7,1,5.5h-0.5v1h-0.5v5.5h-0.5v1.5h-0.5v1.5h-0.5
			c-0.3,2.3-0.7,4.7-1,7h-0.5c-0.2,1-0.3,2-0.5,3h-0.5v1h-0.5v1.5h-0.5v1.5h-0.5v3.5c-0.3,0.2-0.7,0.3-1,0.5c-0.3,1-0.7,2-1,3
			c-0.3,0.2-0.7,0.3-1,0.5v1h-0.5v1h-0.5v1h-0.5v1c-0.3,0.2-0.7,0.3-1,0.5c-0.3,1-0.7,2-1,3c-0.3,0.2-0.7,0.3-1,0.5
			c-0.2,0.7-0.3,1.3-0.5,2c-0.3,0.2-0.7,0.3-1,0.5c-0.2,0.7-0.3,1.3-0.5,2c-0.3,0.2-0.7,0.3-1,0.5c-0.3,1-0.7,2-1,3
			c-0.3,0.2-0.7,0.3-1,0.5c-1.4,1.5-3,2.7-3.5,5h-1c-0.7,0.8-1.3,1.7-2,2.5h-0.5v1c-0.8,0.7-1.7,1.3-2.5,2v1c-0.3,0.2-0.7,0.3-1,0.5
			c-0.7,0.8-1.3,1.7-2,2.5h-1c-0.2,0.3-0.3,0.7-0.5,1c-1,0.3-2,0.7-3,1v0.5h-1v0.5c-0.5,0.2-1,0.3-1.5,0.5v1h-0.5
			c-1,1.2-2,2.3-3,3.5h-1c-0.3,0.5-0.7,1-1,1.5h-1v0.5h-1v0.5h-1v0.5h-1c-0.2,0.3-0.3,0.7-0.5,1c-2.3,1.5-2.6,0.1-4,3
			c-0.3,0-2.1,0.3-1.5-0.5c0.4-0.6,0.5,0.2,0.5-0.5c-1.8,0.2-2.7,0.7-4,1.5c-0.2,0.3-0.3,0.7-0.5,1h-1v0.5c-1.2,0.2-2.3,0.3-3.5,0.5
			v0.5h-1c-0.2,0.3-0.3,0.7-0.5,1h-1v0.5h-1.5v0.5h-2v0.5h-3v0.5c-2.7,0.2-5.3,0.3-8,0.5c-5.3,1.6-12.1,2-18.9,2
			c-4.3-0.2-8.6-0.3-13-0.5c-0.9,0.3-3.3,0.9-5,0.5c-0.1,0-0.1-0.7-1-0.5v0.5h-7c-0.7-0.1-1.7-0.9-3-0.5v0.5c-2-0.2-4-0.3-6-0.5
			c-3.6,1-17.3,1-20.9,0c-2.5,0.2-5,0.3-7.5,0.5v0.5c-1.8,0.5-3.4-0.7-4.5-1h-3.5v0.5c-0.8-0.2-1.7-0.3-2.5-0.5v-0.5h-0.5v0.5h-1.5
			v0.5h-2.5v-0.5c-1-0.2-1,0.5-1,0.5h-6.5c-4.3,0-11.2-0.8-14,0c-2-0.2-4-0.3-6-0.5v0.5h-1v-0.5c-0.7,0,0.2,0.4-0.5,0.5h-2.5v-0.5
			c-1,0.2-2,0.3-3,0.5v-0.5c-1.6-0.4-4.1,0.3-5,0.5h-3.5v-0.5c-2.2,0.2-4.3,0.3-6.5,0.5v-0.5c-5.5,0.2-11,0.3-16.4,0.5
			c-0.7,0.1-1.7,0.9-3,0.5c-1.2-0.4-3.9-1.6-6-1v0.5h-6c-1.8-0.5-9.4-1.2-12-0.5v0.5h-7.5c0,0-0.4-0.8-1.5-0.5v0.5h-5.5v-0.5h-4
			c-0.8,0.2-4.7,1.4-6,1v-0.5h-2v-0.5c-0.7,0.2-1.3,0.3-2,0.5v-0.5c-1.8,0.2-3.7,0.3-5.5,0.5v-0.5h-1.5v-0.5c-2,0.3-4,0.7-6,1v-0.5
			c-2.5,0.2-5,0.3-7.5,0.5c-0.7-0.1-1.7-0.9-3-0.5v0.5c-1.2,0.2-2.3,0.3-3.5,0.5v-0.5h-1.5v-0.5h-7c-0.8,0.2-3.4,1-5,0.5v-0.5
			c-2.5,0.2-5,0.3-7.5,0.5c-0.8-0.2-3-0.9-4.5-0.5c0,0-0.4,0.7-1.5,0.5c0,0-0.5-0.7-1.5-0.5v0.5c-1.6,0.4-2.7-0.7-3.5-0.5
			c-0.2,0.3-0.3,0.7-0.5,1h-0.5v-0.5h-7.5v-0.5c-1.8-0.4-2.8,1.1-3.5,1v-0.5h-2v-0.5c-3.3-0.2-6.6-0.3-10-0.5v-0.5h-2v-0.5H102v-0.5
			c-2.3-0.2-4.7-0.3-7-0.5v-0.5c-1-0.3-2-0.7-3-1v-0.5c-1.5-0.2-3-0.3-4.5-0.5v-0.5c-1-0.2-2-0.3-3-0.5v-0.5c-1-0.3-2-0.7-3-1v-0.5
			h-1v-0.5h-1v-0.5h-1v-0.5h-1.5v-0.5h-1v-0.5h-1c-0.5-0.7-1-1.3-1.5-2c-1-0.3-2-0.7-3-1c-0.3-0.5-0.7-1-1-1.5h-1
			c-0.2-0.3-0.3-0.7-0.5-1c-0.8-0.2-1.7-0.3-2.5-0.5c-0.2-0.3-0.3-0.7-0.5-1h-1c-0.2-0.3-0.3-0.7-0.5-1h-1c-0.3-0.5-0.7-1-1-1.5h-1
			c-0.2-0.3-0.3-0.7-0.5-1h-0.5c-0.2-0.7-0.3-1.3-0.5-2c-1-0.5-2-1-3-1.5c-0.8-1-1.7-2-2.5-3c-0.3-0.2-0.7-0.3-1-0.5v-1
			c-0.7-0.5-1.3-1-2-1.5v-1c-0.3-0.2-0.7-0.3-1-0.5v-1c-0.5-0.3-1-0.7-1.5-1v-0.5h-1c-0.2-0.3-0.3-0.7-0.5-1h-0.5v-1h-0.5v-1
			c-0.5-0.3-1-0.7-1.5-1v-0.5l-1.5-0.5v-1c-0.3-0.2-0.7-0.3-1-0.5v-1h-0.5v-1h-0.5v-1h-0.5v-1h-0.5v-1c-0.5-0.3-1-0.7-1.5-1v-1h-0.5
			v-1h-0.5v-1.5h-0.5v-1h-0.5v-1c-0.3-0.2-0.7-0.3-1-0.5v-2.5c-0.5-0.3-1-0.7-1.5-1v-1h-0.5v-1.5h-0.5v-1.5h-0.5v-1h-0.5v-1.5h-0.5
			v-1.5h-0.5v-1.5h-0.5v-1.5h-0.5c-0.2-1.7-0.3-3.3-0.5-5h-0.5v-1.5h-0.5v-1.5h-0.5v-5h-0.5v-5h-0.5v-4.5h-0.5
			c0.2-2.3,0.3-4.7,0.5-7h-0.5c0.2-1.7,0.3-3.3,0.5-5c-0.3-0.9-1-3.8-0.5-5.5h0.5v-1.5h0.5v-1.5h0.5v-2.5c0.2-0.7,0.6,0.2,0.5-0.5
			h-0.5c-0.3-2.2,0.6-3.7,1-5v-2h0.5v-1h0.5v-1.5h0.5c0.2-1,0.3-2,0.5-3h0.5c0.2-1.5,0.3-3,0.5-4.5h0.5v-1.5h0.5
			c0.2-0.7,0.3-1.3,0.5-2h0.5v-1c0.3-0.2,0.7-0.3,1-0.5c0.3-1,0.7-2,1-3h0.5v-1h0.5v-1h0.5v-1h0.5v-1h0.5v-1h0.5v-1.5
			c0.8-0.7,1.7-1.3,2.5-2c0.2-1.2,0.3-2.3,0.5-3.5c0.3-0.2,0.7-0.3,1-0.5v-1c0.7-0.5,1.3-1,2-1.5v-1c1.3-1.2,2.7-2.3,4-3.5v-1
			c1-0.8,2-1.7,3-2.5v-1.5h0.5c0.2-0.3,0.3-0.7,0.5-1h1c0.2-0.3,0.3-0.7,0.5-1h1c0.3-0.5,0.7-1,1-1.5h0.5v-1c0.7-0.5,1.3-1,2-1.5
			v-0.5h1c0.3-0.5,0.7-1,1-1.5h1c0.3-0.5,0.7-1,1-1.5h1c0.2-0.3,0.3-0.7,0.5-1c0.5-0.2,1-0.3,1.5-0.5v-0.5h1c0.2-0.3,0.3-0.7,0.5-1
			c0.5-0.2,1-0.3,1.5-0.5v-0.5c0.7-0.2,1.3-0.3,2-0.5c0.2-0.3,0.3-0.7,0.5-1c0.7-0.2,1.3-0.3,2-0.5c0.2-0.3,0.3-0.7,0.5-1
			c0.7-0.2,1.3-0.3,2-0.5c0.2-0.3,0.3-0.7,0.5-1c0.7-0.2,1.3-0.3,2-0.5c0.2-0.3,0.3-0.7,0.5-1c0.8-0.2,1.7-0.3,2.5-0.5v-0.5h1
			c0.2-0.3,0.3-0.7,0.5-1c1-0.2,2-0.3,3-0.5c0.6,0.6,0,0.2,1,0.5v-1c1.4-0.3,2.8-1.1,4-1.5c1.2-0.2,2.3-0.3,3.5-0.5v-0.5h1v-0.5h1.5
			v-0.5h3.5v-0.5h2v-0.5h1v-0.5h2.5v-0.5c3-0.2,6-0.3,9-0.5v0.5h2v-0.5c3.3-0.2,6.6-0.3,10-0.5v0.5h1.5v0.5h5.5v-0.5h5.5v0.5
			c0.7-0.2,1.3-0.3,2-0.5v-0.5c1.8,0.2,3.7,0.3,5.5,0.5c7.3,0.2,14.6,0.3,21.9,0.5c2-0.3,6.2-1.8,9-1c4.3,1.2,11.3,0.5,16.4,0.5
			c5.2,0,9.5,0.7,14,0h9v-0.5c1.3-0.3,1.8,0.4,2.5,0.5c4.3,0.2,8.6,0.3,13,0.5v-0.5c5.8,0.2,11.6,0.3,17.4,0.5v-0.5h7.5
			c5.7,0,12.7-0.2,16.9,0c4.5,0.2,11.6-0.6,14.5,0h16.4v0.5c3.1,0.9,8.9-0.4,11-1h8v0.5h1.5v0.5c3.2-0.2,6.3-0.3,9.5-0.5v-0.5h9v0.5
			h6.5c0,0,0.4-0.7,1.5-0.5v0.5c11.8-0.2,23.6-0.3,35.4-0.5v0.5h9.5v0.5h7.5v0.5h4v0.5h2v0.5h2v0.5h2.5v0.5h4v0.5
			c0.7,0.2,1.3,0.3,2,0.5v0.5h1.5v0.5h1.5v0.5h1.5v0.5h1.5v0.5h1.5v0.5h1v0.5h1c0.2,0.3,0.3,0.7,0.5,1c0.7,0.2,1.3,0.3,2,0.5v0.5h2
			v0.5c0.7,0.2,1.3,0.3,2,0.5c0.3,0.5,0.7,1,1,1.5c1.8,0.7,3.7,1.3,5.5,2c0.3,0.5,0.7,1,1,1.5c0.5,0.2,1,0.3,1.5,0.5
			c0.8,1,1.7,2,2.5,3h1c0.2,0.3,0.3,0.7,0.5,1c0.5,0.2,1,0.3,1.5,0.5v0.5h1c0.3,0.5,0.7,1,1,1.5h1c2,2.2,4,4.3,6,6.5
			c1,0.8,2,1.7,3,2.5c0.2,0.7,0.3,1.3,0.5,2c0.5,0.3,1,0.7,1.5,1v1c0.8,0.7,1.7,1.3,2.5,2v1h0.5v1h0.5v1.5c0.3,0.2,0.7,0.3,1,0.5
			v0.5c0.3,0.2,0.7,0.3,1,0.5v1c0.7,0.5,1.3,1,2,1.5v1h0.5v1h0.5v1h0.5v1h0.5v1c0.3,0.2,0.7,0.3,1,0.5v1h0.5v1h0.5v1h0.5v1h0.5v1
			h0.5v1h0.5c0.3,1,0.7,2,1,3h0.5c0.2,1.5,0.3,3,0.5,4.5h0.5v2h0.5v1h0.5v3h0.5v2.5c0.3,0.2,0.7,0.3,1,0.5v3h0.5v1.5h0.5v1h0.5v6
			c0.3,1,1.4,3.3,1,5h-0.5v5C485.4,121.1,486.2,122.5,485.8,123.9z M217.6,95.9c-1.7-5-3.3-10-5-15c-0.3-0.2-0.7-0.3-1-0.5v-1
			c-0.3-0.2-0.7-0.3-1-0.5v-1h-0.5c-0.2-0.7-0.3-1.3-0.5-2h-0.5c-0.2-0.7-0.3-1.3-0.5-2h-0.5v-1.5h-0.5v-1h-0.5v-1.5h-0.5v-2h-0.5
			v-1h-0.5v-1c-0.3-0.2-0.7-0.3-1-0.5v-1c-0.7-0.5-1.3-1-2-1.5c-0.2-0.3-0.3-0.7-0.5-1h-1c-1.7-1.8-3.3-3.7-5-5.5
			c-1-0.2-2-0.3-3-0.5v-0.5c-0.5-0.3-1-0.7-1.5-1c-0.2-0.5-0.3-1-0.5-1.5h-1v-0.5h-3c-0.2-0.3-0.3-0.7-0.5-1h-1
			c-0.7-0.8-1.3-1.7-2-2.5c-2.5-0.8-5-1.7-7.5-2.5v-0.5h-1c-0.2-0.3-0.3-0.7-0.5-1h-1c-0.2-0.3-0.3-0.7-0.5-1h-1
			c-0.2-0.3-0.3-0.7-0.5-1h-1v-0.5h-1v-0.5c-1.8-0.3-3.7-0.7-5.5-1v-0.5h-2v-0.5h-2v-0.5h-2.5v-0.5h-2.5v-0.5h-7.5v-0.5h-4.5v-0.5
			h-2v-0.5c-1.7-0.4-2.5,1.3-4,1v-0.5h-1v-0.5c-3,0.2-6,0.3-9,0.5v0.5h-1v0.5h-1.5v0.5h-6v0.5h-1.5v0.5H115v0.5h-2v0.5h-1.5v0.5H110
			v0.5c-0.7,0.2-1.3,0.3-2,0.5c-0.2,0.3-0.3,0.7-0.5,1h-1v0.5H105c-0.3,0.2-1.4,2.6-2,3h-1c-0.3,0.5-0.7,1-1,1.5
			c-0.8,0.2-1.7,0.3-2.5,0.5v0.5H96v0.5c-0.7,0.2-1.3,0.3-2,0.5c-0.2,0.3-0.3,0.7-0.5,1h-1v0.5c-0.7,0.6-0.9,0.7-2,1
			c-0.6,2.1-1.9,3.8-3.5,5v0.5c-1,0.6-2.8,0.1-3.5,1c-0.2,0.7-0.3,1.3-0.5,2c-0.3,0.2-0.7,0.3-1,0.5v1c-0.5,0.3-1,0.7-1.5,1v1
			c-0.3,0.2-0.7,0.3-1,0.5v1.5c-1,0.8-2,1.7-3,2.5c-0.2,0.8-0.3,1.7-0.5,2.5c-0.7,0.5-1.3,1-2,1.5c-0.3,1.5-0.7,3-1,4.5h-1
			c-0.7,2.3-1.3,4.7-2,7h-0.5c-0.2,0.7-0.3,1.3-0.5,2h-0.5c-0.2,2.2-0.3,4.3-0.5,6.5h-0.5c-0.2,1.2-0.3,2.3-0.5,3.5h-0.5v1.5h-0.5
			v1.5h-0.5v2.5h-0.5v7h0.5c-0.2,1.7-0.3,3.3-0.5,5h0.5v2.5c0,0.1-0.7,0.2-0.5,1h0.5v1.5h0.5c-0.2,1.8-0.3,3.7-0.5,5.5h0.5v1.5h0.5
			v1h0.5v1.5h0.5c0.7,2-0.4,3.1,1,4.5v0.5h1.5c-0.2,1-0.3,2-0.5,3h0.5c0.2,0.7,0.3,1.3,0.5,2h0.5v3.5c0.7,0.5,1.3,1,2,1.5v1
			c0.3,0.2,0.7,0.3,1,0.5v1l1,0.5v1c0.3,0.2,0.7,0.3,1,0.5v1.5h0.5c0.7,2,1.3,4,2,6c0.5,0.2,1,0.3,1.5,0.5c0.2,2.4,0.5,4.4,2,6.5
			c0.5,0.3,1,0.7,1.5,1v1c0.8,0.7,1.7,1.3,2.5,2v1c0.3,0.2,0.7,0.3,1,0.5c1.2,1.3,2.3,2.7,3.5,4c1.3-0.3,2.7-1.7,4.5-1
			c0.2,0.3,0.3,0.7,0.5,1h1v1c2.1,0,2.2-0.7,4,0v0.5h1.5v0.5h1c0.5,0.7,1,1.3,1.5,2c1.2,0.2,2.3,0.3,3.5,0.5v0.5
			c0.7,0.2,1.3,0.3,2,0.5v0.5h1.5v0.5h1v0.5h1.5v0.5h1v0.5c1,0.2,2,0.3,3,0.5v0.5h1v0.5c1,0.3,2,0.7,3,1v0.5h5v0.5h1v0.5h4v0.5h8.5
			v0.5c4.3-0.3,8.6-0.7,13-1v-0.5h1.5v-0.5h9.5v-0.5h1v-0.5h1v-0.5h1v-0.5h1v-0.5h1v-0.5h1v-0.5h1v-0.5h1v-0.5h1v-0.5
			c1-0.3,2-0.7,3-1v-0.5h1.5v-0.5h1v-0.5h1.5c0.2-0.3,0.3-0.7,0.5-1h1c0.3-0.5,0.7-1,1-1.5h1v-0.5c0.7,0.2,1.3,0.3,2,0.5v-0.5
			c0.6-0.4,0.6-0.4,1-1h0.5c-0.5-0.9-0.7-0.8-1-2c0.6-0.4,0.1,0.1,0.5-0.5c1.3,0.1,1.7-0.1,2,1h-0.5v0.5c0.5-0.2,1-0.3,1.5-0.5v0.5
			h0.5c0.8-1.2,0.6-0.3,1.5-1c0.5-0.7,1-1.3,1.5-2h1c0.3-0.5,0.7-1,1-1.5c1-0.8,2-1.7,3-2.5c0.2-0.5,0.3-1,0.5-1.5
			c0.7-0.5,1.6,0.2,2-0.5v-2h0.5v-1c0.3-0.2,0.7-0.3,1-0.5c1.2-1.9,0-2.6,3-3c-0.2-0.5-0.3-1-0.5-1.5h1v-1h1
			c0.5-1.7,2.4-3.3,3.5-4.5c0.3-0.2,0.7-0.3,1-0.5c0.2-0.7,0.3-1.3,0.5-2c0.5-0.3,1-0.7,1.5-1v-1h0.5v-1.5h0.5v-1.5h0.5v-2h0.5v-2
			h0.5c-0.2-1.2-0.3-2.3-0.5-3.5h0.5v-1.5h0.5v-1h0.5c0.2-1,0.3-2,0.5-3h0.5c0.3-2.8,0.7-5.7,1-8.5c-0.2-0.7-0.3-1.3-0.5-2h0.5v-1
			h0.5c0.7-2.1-0.1-9-0.5-10.5C218.3,102.6,218,99.2,217.6,95.9z M167.3,118.4c-0.3,0.2-0.7,0.3-1,0.5v1.5h-0.5
			c-0.5,1.6,0.2,2.8-0.5,4c-0.3,0.2-0.7,0.3-1,0.5v1c-0.3,0.2-0.7,0.3-1,0.5v1c-0.5,0.3-1,0.7-1.5,1c-0.7,0.8-1.3,1.7-2,2.5h-1
			c-0.3,0.5-0.7,1-1,1.5h-1c-0.2,0.3-0.3,0.7-0.5,1h-1v0.5h-1v0.5h-1v0.5h-1v0.5h-1v0.5c-3,0.5-6,1-9,1.5v-0.5h-1.5v-0.5
			c-1.7,0.2-3.3,0.3-5,0.5v-0.5c-1-0.2-2-0.3-3-0.5v-0.5c-0.7-0.2-1.3-0.3-2-0.5v-0.5h-1c-1.2-1.3-2.3-2.7-3.5-4h-1
			c-0.2-0.3-0.3-0.7-0.5-1h-1c-0.2-0.3-0.3-0.7-0.5-1c-2.4-2.3-5.1-5.2-5.5-9.5c-0.5,0.2-1,0.3-1.5,0.5v-2.5H116v-1h-0.5
			c0.3-1,0.7-2,1-3H116v-1h-0.5c0.2-1,0.3-2,0.5-3h-0.5v-2.5h0.5v-1h0.5c0.2-1.5,0.3-3,0.5-4.5c1.1-2.3,3.7-3.1,4.5-6
			c2.5-0.7,1.2-1.2,2.5-2.5v-0.5c0.8-0.2,1.7-0.3,2.5-0.5v-0.5h1v-0.5h1c0.3-0.5,0.7-1,1-1.5h3v-0.5h1v-0.5c1.3-0.2,2.7-0.3,4-0.5
			v-0.5c0.8-0.1,1.8,0.8,3.5,0.5c0.7-0.1-0.2-0.3,0.5-0.5c1.5,0.2,3,0.3,4.5,0.5v0.5h1c0.3,0.5,0.7,1,1,1.5c1.3,0.2,2.7,0.3,4,0.5
			v0.5h1c0.2,0.3,0.3,0.7,0.5,1c0.7,0.2,1.3,0.3,2,0.5c0.3,0.5,0.7,1,1,1.5c1,0.3,2,0.7,3,1c1,1.3,2,2.7,3,4c0.5,0.2,1,0.3,1.5,0.5
			c1,1.2,2,2.3,3,3.5v1h0.5V118.4z M196.2,163.9c0,0-1.9-0.1-1-0.5h0.5v-1.5h0.5V163.9z M434,110.9h-0.5v-2.5H433v-2.5h-0.5
			c0.2-1.2,0.3-2.3,0.5-3.5h0.5c-0.2-1.7-0.3-3.3-0.5-5V73.9c0-1.4,0.6-4,0.5-4.5H433v-2c0,0,0.7-0.4,0.5-1.5H433
			c0.2-1.7,0.3-3.3,0.5-5H433v-1h-0.5c-0.5-2.3-1-4.7-1.5-7c-0.5-0.3-1-0.7-1.5-1c-1.9-1.9-3.3-3.8-6-5H422v-0.5h-2v-0.5
			c-1.1-0.3-1.5,0.5-1.5,0.5h-3v-0.5h-12v-0.5c-3-0.2-6-0.3-9-0.5c0,0,0,0.5-1,0.5c-1.8-0.2-3.7-0.3-5.5-0.5v0.5
			c-2.2-0.2-4.3-0.3-6.5-0.5c-0.1,0-0.1-0.7-1-0.5c-0.2,0.3-0.3,0.7-0.5,1c-1-0.2-2-0.3-3-0.5v0.5c-0.5,0.2-1,0.3-1.5,0.5
			c-0.2,2.8-0.3,5.7-0.5,8.5h0.5v2c-0.2,1.5-0.3,3-0.5,4.5h0.5v4h0.5v7h-0.5v5h0.5c0.2,1-0.5,1-0.5,1v3h0.5c-0.2,2.3-0.3,4.7-0.5,7
			h-0.5c-0.8,2.7,0.5,5.8,1,7.5v6h-0.5v1.5h-0.5c0.2,2.8,0.3,5.7,0.5,8.5h-0.5v2.5h0.5v1.5h0.5c0.2,0.8-0.9,2.4-0.5,4h0.5v18.5h-0.5
			c-0.2,0.8-0.3,1.7-0.5,2.5h0.5v2h0.5c0.4,1.5-0.3,3.8-0.5,4.5c0.2,1.7,0.3,3.3,0.5,5c-0.2,1.5-0.3,3-0.5,4.5h0.5v8h0.5v0.5h-0.5
			v1.5h-0.5v0.5h0.5c0,3.5-0.5,8.4,0.5,11c1.6,0.3,4.7,1.1,7,0.5c0,0-0.1-0.5,1-0.5c1.2,0,2.7,1,4.5,0.5v-0.5h8.5v0.5
			c3.2,0.2,6.3,0.3,9.5,0.5v-0.5h2c0.7-0.2-0.2-0.4,0.5-0.5c2.7,0.3,5.3,0.7,8,1v-0.5h8.5v-0.5h1v-0.5c1-0.2,2-0.3,3-0.5
			c0.4-1.6,1.4-2.3,2-3.5v-1h0.5v-2h0.5c0.2-1.7,0.3-3.3,0.5-5H433v-19h0.5c-0.2-1.5-0.3-3-0.5-4.5c0,0-0.7-0.4-0.5-1.5h0.5v-3.5
			h-0.5v-2h0.5v-2c-0.2-0.7-0.3-1.3-0.5-2h0.5v-10.5h0.5v-3c0,0-0.5,0-0.5-1C433,114.6,434.6,113.2,434,110.9z M413.5,72.4H413
			c-0.4,0.6,0.1,0.1-0.5,0.5c-0.4-0.6,0.1-0.1-0.5-0.5c0.1-1.2,0.2-1.2,0.5-2C413,70.7,414.1,71.2,413.5,72.4z M363.7,111.4h0.5
			c-0.2-1.8-0.3-3.7-0.5-5.5c0-0.1-0.8-0.4-0.5-1.5h0.5v-3h0.5v-0.5h-0.5v-8h0.5c-0.2-2-0.3-4-0.5-6c0.3-0.2,0.7-0.3,1-0.5
			c-0.1-0.7-0.8-0.8-0.5-2h0.5c-0.3-3.3-0.7-6.7-1-10c1.2-4,1.1-9.2,0-13.5v-2h0.5c-0.2-1.3-0.3-2.7-0.5-4h0.5v-2.5h0.5
			c0.4-1.3-0.2-3.2-0.5-4h-0.5c0.2-0.5,0.3-1,0.5-1.5c-0.6-0.4-0.6-0.3-1-1c-3.5-0.3-7-0.7-10.5-1c-2.1,0.6-10.9,1.9-14,1v-0.5h-7.5
			v0.5c-1,0.2-1-0.5-1-0.5h-8.5v-0.5c-2.2,0.2-4.3,0.3-6.5,0.5v0.5c-0.8,0.1-0.9-0.5-1-0.5h-3v0.5c-1.6,0.4-2.9-0.3-4-0.5
			c-0.4,0.8-0.7,1.1-1.5,1.5v2.5h0.5c-0.2,4.3-0.3,8.7-0.5,13v6.5c0.3,0.2,0.7,0.3,1,0.5c-0.2,2-0.3,4-0.5,6c0.7,0.3,1.3,0.7,2,1v2
			h0.5c-0.3,1.2-0.5,1.1-1,2c-1,0.2-2,0.3-3,0.5c-0.2-0.8-0.3-1.7-0.5-2.5h-0.5v-4h-0.5v-1c-0.3-0.2-0.7-0.3-1-0.5v-1h-0.5
			c-0.2-0.3-0.3-0.7-0.5-1h-1c-0.7-0.8-1.3-1.7-2-2.5c-0.3-0.2-0.7-0.3-1-0.5v-1c-0.3-0.2-0.7-0.3-1-0.5c-0.2-0.7-0.3-1.3-0.5-2
			c-0.7-0.5-1.3-1-2-1.5c-0.2-0.3-0.3-0.7-0.5-1h-1c-0.2-0.3-0.3-0.7-0.5-1h-0.5v-1c-1-0.8-2-1.7-3-2.5v-1c-1.3-1.2-2.7-2.3-4-3.5
			c-0.3-0.5-0.7-1-1-1.5h-1c-0.2-0.3-0.3-0.7-0.5-1h-1v-0.5h-2.5v-0.5c-0.7-0.2-1.3-0.3-2-0.5c-0.2-0.3-0.3-0.7-0.5-1h-1v-0.5h-2.5
			v-0.5H271v-0.5h-1v-0.5h-1.5v-0.5h-14v0.5H253c-1.2-0.2-2.3-0.3-3.5-0.5v-0.5c-0.5-0.1-3.6,0.9-4,1c-2.8-0.2-5.6-0.3-8.5-0.5
			c-2.1,0-6.3-0.6-7.5,0.5h-2.5v0.5c-1.1,0.9-0.4,0.2-1,1.5h-0.5c-0.2,2.5-0.3,5-0.5,7.5h0.5v2.5c0,0.2,0.6,0.1,0.5,1h-0.5
			c-0.6,2.5,0.9,5.3,0,6.5v14.5c0.3-0.2,0.7-0.3,1-0.5v1h-1c-0.2,2-0.3,4-0.5,6h0.5v4h0.5v0.5h-0.5v0.5c-0.5,4.7,0,10.5-0.5,14.5
			c0.2,0.8,0.3,1.7,0.5,2.5c0.1,1.9-0.3,3.8-0.5,5v4c0.3,0.2,0.7,0.3,1,0.5c0.3,0.8-0.8,3.5-1,4v11.5h0.5v2.5h0.5v0.5h-0.5v7.5h-0.5
			c0.2,1.7,0.3,3.3,0.5,5c-0.2,3.3-0.3,6.7-0.5,10c0.2,1.8,1.2,5.5,0.5,8h-0.5c-0.7,2.5,1.3,5.8,0.5,7c0,2.8,0.6,2.9,1.5,4.5
			c3.3,0.2,6.6,0.3,10,0.5v-0.5c0.5-0.2,1-0.3,1.5-0.5v0.5h2v0.5h2.5v-0.5c2.9-0.8,7.1,0.1,9.5-0.5c3.7-1,5.8,1.9,9,1v-0.5h4.5v0.5
			h1.5c0.7,0.2-0.2,0.6,0.5,0.5v-0.5h1v-0.5c2.1-0.6,3,1.2,4.5,0h8c0,0,1-1.2,1.5-1.5c0-3.3-0.1-7.5,0.5-10c-0.2-1.5-0.3-3-0.5-4.5
			c0.3-1.8,1.2-6,0.5-8.5h-0.5c0.2-1.7,0.3-3.3,0.5-5c-0.3-0.2-0.7-0.3-1-0.5v-1h-0.5v-1h-0.5c-0.2-0.5-0.3-1-0.5-1.5
			c0.9-0.5,1.9-1.1,2.5-2h1c0.2,0.8,0.3,1.7,0.5,2.5h0.5v3c1.3,1.2,2.7,2.3,4,3.5v1c0.3,0.2,0.7,0.3,1,0.5c0.7,0.8,1.3,1.7,2,2.5
			c0.8,0.5,1.5-0.2,2,0.5c0.3,1,0.7,2,1,3c1.7,1.5,3.3,3,5,4.5v1c0.8,0.7,1.7,1.3,2.5,2c0.2,0.5,0.3,1,0.5,1.5h0.5
			c0.3,0.5,0.7,1,1,1.5h1c0.3,0.5,0.7,1,1,1.5h1c0.2,0.3,0.3,0.7,0.5,1h1c0.2,0.3,0.3,0.7,0.5,1h1v0.5h1v0.5h1v0.5h1
			c0.2,0.3,0.3,0.7,0.5,1h1v0.5c1.3,0.2,2.7,0.3,4,0.5c0.2,0.3,0.3,0.7,0.5,1h1.5v0.5h12.5c5.1,0.2,10.3,0.3,15.5,0.5v-0.5
			c2.4-0.6,4.7,1.6,6.5,0h7c0,0,0.7-0.8,1-1c0.2-2.2,0.3-4.3,0.5-6.5h-0.5v-2.5h0.5c-0.2-1.5-0.3-3-0.5-4.5h0.5v-1h0.5v-3.5h-0.5
			c-0.1-0.8,0.5-0.9,0.5-1v-6.5h-0.5c-0.5-1.8,0.7-3.4,0.5-4.5h-0.5v-1.5h-0.5c-0.4-1.4,0.8-3.6,1-4.5c0.1-0.8-0.5-0.9-0.5-1v-4.5
			h-0.5c0.2-4.8,0.3-9.7,0.5-14.5h0.5v-1h0.5C365.7,118.5,362.7,114.8,363.7,111.4z M226.6,125.9h-0.5v-1.5h0.5V125.9z M112,188.9
			v-0.5h-1v-0.5c-1.3-0.6-8.4-1.1-9-0.5c-2.8,0-3.3,0.1-5,1v15c0.6,0.5,1.6,1.8,2,2.5c1.9,0.4,2,0.4,4,0c0.2-2,0.3-4,0.5-6
			c1.2-0.4,3.4,0,5-0.5v-0.5h1.5c1.2-0.8,2.3-1.7,3.5-2.5c1.5-3.6,0.4-3.4,0-7C113,189.3,112.5,189.1,112,188.9z M107.5,193.4
			c-0.2,0.5-0.3,1-0.5,1.5h-3c-0.2-1-0.3-2-0.5-3c1.9-0.4,2-0.4,4,0c0.2,0.5,0.3,1,0.5,1.5H107.5z M346.2,196.4h-1
			c-0.3-0.5-0.7-1-1-1.5c-0.7-0.2-1.3-0.3-2-0.5v-0.5c-2.1-0.8-3.4,0.5-5-1c-0.6-0.6-0.2,0-0.5-1h0.5v-0.5h3c0.2,0.3,0.3,0.7,0.5,1
			h3c0.5-0.6,1.3-1.1,2-1.5c-0.3-2.1-0.7-1.6-1.5-3c-7.3-1.6-12.7-1.9-14,6h0.5v1.5h0.5c1,1.2,2,2.3,3,3.5h3.5v0.5
			c1,0.2,2,0.3,3,0.5v1.5h-0.5v0.5h-3.5c-0.2-0.3-0.3-0.7-0.5-1c-1-0.6-3.6-0.8-4.5,0c-0.5,0.2-1,0.3-1.5,0.5v2
			c0.6,1.3,7.1,4.3,10,3.5c2-0.6,4.2-1.6,6-2.5c0.5-1.2,2-5,0.5-6.5C346.6,197.4,346.4,196.9,346.2,196.4z M416.5,195.4v-0.5h-1
			v-0.5h-1v-0.5h-3c-0.3-0.1,0-0.7-1.5-1c0.2-0.5,0.3-1,0.5-1.5h2v0.5c1.1,0.5,3.5,0.9,4.5,0c0.5-0.2,1-0.3,1.5-0.5
			c-0.2-0.8-0.3-1.7-0.5-2.5c-0.7-1-7.2-3-10-2v0.5h-1v0.5h-1v0.5c-0.5,0.2-1,0.3-1.5,0.5c-0.4,1.6-2.7,3.7-1.5,6.5
			c0.3,0.2,0.7,0.3,1,0.5v1c2.9,0.8,5.2,2.7,9,3v1.5h-0.5v0.5H410c-1.2-0.4-3.1-2.8-5.5-2v0.5h-1c-0.2,0.1-0.5,0.7-1,1
			c0.3,2.1,1.2,2.5,2,4c1.6,0.3,2.8,1.1,4,1.5c2.4,0.8,7.8-0.7,9-1.5v-0.5c0.5-0.3,1-0.7,1.5-1c0.3-1.5,1.8-4.1,0.5-5.5
			C419,196.5,418.1,196.3,416.5,195.4z M186.7,198.4c0.5-1.2,3-4.9,2.5-6.5h-0.5c-0.3-1-0.7-2-1-3c-0.5-0.2-1-0.3-1.5-0.5v-0.5h-1.5
			v-0.5c-4.5,0-10.5-0.5-13.5,1c0,4.9-0.9,13.7,0.5,17.5c2.2,0.4,2.7,0.2,5,0v-0.5h0.5c0-3.4-0.1-4.4,1-6.5h1c0.4,1.6,1.4,2.3,2,3.5
			v1.5h0.5c0.2,0.5,0.3,1,0.5,1.5c1.7,0.3,3.3,0.7,5,1c0.4-0.5,0.6-0.5,1-1h0.5c-0.4-1.1-3-5.5-2.5-7H186.7z M182.2,193.9h-0.5v0.5
			h-1.5v0.5c-0.8-0.2-1.7-0.3-2.5-0.5c-0.2-0.5-0.3-1-0.5-1.5h0.5v-1c1-0.2,2-0.3,3-0.5v0.5c0.5,0.2,1,0.3,1.5,0.5V193.9z
			 M266.5,187.9v-0.5c-4.5,0-10.5-0.5-13.5,1v16.5c0,0,1.2,1,1.5,1.5c2.7-0.2,5.3-0.3,8-0.5v0.5h4v-0.5c0.5-0.2,1-0.3,1.5-0.5
			c0-1.4-0.2-2.1-0.5-3c-2.1-0.4-5.1-0.5-8-0.5v-0.5H259v-2h0.5c1.2-1.2,4-1.1,6.5-1c0-1.8-0.1-2.8-0.5-4c-2-0.2-4-0.3-6-0.5v-1.5
			h0.5v-0.5c2.1-0.4,5.9-0.6,8-1c0.3-1.9,0.3-1.1,0-3H266.5z"/>
	</g>
</g>
</svg>
