<?xml version="1.0" encoding="utf-8"?>
<!-- Generator: Adobe Illustrator 23.1.0, SVG Export Plug-In . SVG Version: 6.00 Build 0)  -->
<svg version="1.1" id="Layer_1" xmlns="http://www.w3.org/2000/svg" xmlns:xlink="http://www.w3.org/1999/xlink" x="0px" y="0px"
	 viewBox="0 0 512 206.2" style="enable-background:new 0 0 512 206.2;" xml:space="preserve">
<style type="text/css">
	.st0{enable-background:new    ;}
	.st1{fill:#ED1B24;}
	.st2{fill:#FFFFFF;}
</style>
<g id="Shape_1_copy_1_" class="st0">
	<g id="Shape_1_copy">
		<g>
			<rect class="st1" width="512" height="206.2"/>
		</g>
	</g>
</g>
<g id="Shape_1_1_" class="st0">
	<g id="Shape_1">
		<g>
			<path class="st2" d="M404.6,51.9h27.7V20.6h-87.5l-14.2,105.2L316.4,20.6h-31.3l3.6,27.7c-3.6-7.1-16.4-27.7-44.8-27.7h-32v153.6
				L189.2,20.6h-41.2l-24.2,158.6V20.6H83.9l-14.2,88.9L55.5,20.6H15.6v172.8h31.3v-83.2l14.2,83.2h16.4l14.2-83.2v83.2h60.4
				l3.6-26.3h24.2l3.6,26.3h59l0,0l0,0l0,0v-56.2l7.1-0.7l14.9,56.9h30.6l0,0l0,0l-19.9-66.8c10-7.1,21.3-26.3,18.5-44.1l0,0
				l18.5,110.9h36.3L373.3,37v156.4h59v-31.3h-27.7v-39.8h27.7V91h-27.7C404.6,91,404.6,51.9,404.6,51.9z M159.3,139.4l8.5-74
				l9.2,74H159.3z M250.3,105.2c-2.1,1.4-5,1.4-7.1,1.4V51.2l0,0c2.1,0,20.6,0.7,20.6,27.7C263.8,93.2,257.4,101.7,250.3,105.2z
				 M469.3,162.1V20.6H438v172.8h57.6v-31.3H469.3z"/>
		</g>
	</g>
</g>
</svg>
