<?xml version="1.0" encoding="utf-8"?>
<!-- Generator: Adobe Illustrator 23.1.0, SVG Export Plug-In . SVG Version: 6.00 Build 0)  -->
<svg version="1.1" id="Ellipse_1_1_" xmlns="http://www.w3.org/2000/svg" xmlns:xlink="http://www.w3.org/1999/xlink" x="0px"
	 y="0px" viewBox="0 0 1028 490" style="enable-background:new 0 0 1028 490;" xml:space="preserve">
<style type="text/css">
	.st0{fill-rule:evenodd;clip-rule:evenodd;fill:#FFFFFF;}
</style>
<g id="Ellipse_1">
	<g>
		<path class="st0" d="M1027,237h-1v-14c0.29-1.38,1.18,0.4,1-1h-1v-6h-1v-4h-1v-10h-1v-3h-1v-4h-1v-10h-1v-3h-1v-3h-1v-3h-1v-2h-1
			c-1-5.67-2-11.33-3-17h-1v-2c-1-0.67-2-1.33-3-2v-2h-1v-5c-0.67-0.33-1.33-0.67-2-1v-2h-1v-2h-1v-2h-1c-0.33-1.33-0.67-2.67-1-4
			h-1c-0.33-1.33-0.67-2.67-1-4h-1c-0.33-1.33-0.67-2.67-1-4h-1v-2h-1v-2h-1v-2h-1v-2h-1c-0.33-1.33-0.67-2.67-1-4
			c-0.67-0.33-1.33-0.67-2-1c-0.33-1.33-0.67-2.67-1-4h-1c-0.33-1-0.67-2-1-3c-0.67-0.33-1.33-0.67-2-1v-2c-1.33-1-2.67-2-4-3v-2
			c-1.67-1.33-3.33-2.67-5-4v-2c-1.67-1.33-3.33-2.67-5-4v-2c-1.33-1-2.67-2-4-3v-2c-3-2.67-6-5.33-9-8c-1.33-1.67-2.67-3.33-4-5h-2
			c-1-1.33-2-2.67-3-4h-2c-4.33-5-8.67-10-13-15h-2v-1h-2v-1h-2v-1h-2c-1.33-1.67-2.67-3.33-4-5c-1.33-0.33-2.67-0.67-4-1
			c-1-1.33-2-2.67-3-4h-2c-0.33-0.67-0.67-1.33-1-2h-2v-1h-2v-1h-2v-1h-2v-1h-2v-1h-2c-0.33-0.67-0.67-1.33-1-2
			c-1.33-0.33-2.67-0.67-4-1v-1c-2-0.67-4-1.33-6-2v-1c-2.67-0.33-5.33-0.67-8-1c-0.33-0.67-0.67-1.33-1-2c-1.33-0.33-2.67-0.67-4-1
			c-0.33-0.67-0.67-1.33-1-2h-2v-1h-3v-1h-4v-1h-4v-1h-5v-1h-3v-1c-1.33-0.33-2.67-0.67-4-1V9c-2.33-0.33-4.67-0.67-7-1V7
			c-4.67-0.33-9.33-0.67-14-1V5h-5V4h-4V3h-5V2c-5.53-1.64-15.51,0.52-21-1c-2.54-0.71-6.46,0.38-8,1v1c-2.13,0.68-5.7-0.46-7-1V1
			c-7,0.33-14,0.67-21,1c-0.01,0-0.81,1.5-3,1V2c-7.67-0.33-15.33-0.67-23-1v1c-2.41,0.62-4.24-1.1-5-1v1
			c-6.05,0.99-15.55,0.11-20-1h-4v1h-21v1h-1V2h-5V1c-1.65-0.28-1.78,0.95-2,1h-6V1c-7,0.33-14,0.67-21,1h-77
			c-3.75-1.07-26.96-2.44-32-1v1c-5.33-0.33-10.67-0.67-16-1v1c-3.03,0.83-7.49-0.58-9-1h-15v1c-5.67-0.33-11.33-0.67-17-1v1
			c-3-0.33-6-0.67-9-1h-8v1c-7.33-0.33-14.67-0.67-22-1v1c-5-0.33-10-0.67-15-1v1c-0.88,0.01-3.3-1.73-6-1v1h-6V1h-4v1
			c-4,0.33-8,0.67-12,1V2h-3V1c-3.13-0.93-4.74,0.91-7,1c-2.67-0.33-5.33-0.67-8-1v1h-25c-13.33-0.33-26.67-0.67-40-1v1
			c-2.33-0.33-4.67-0.67-7-1h-9v1c-4.43,1.24-11.43-1.58-14-1v1c-7.67-0.33-15.33-0.67-23-1v1h-24v1h-12c-2.24-0.37-8.34-2.28-12-1
			v1h-2v1c-2.25,0.73-2.85-1.29-4-1v1h-2v1c-2.67-0.33-5.33-0.67-8-1c-0.33,0.67-0.67,1.33-1,2h-7v1h-4v1h-3v1h-3v1h-4v1
			c-2.67,0.33-5.33,0.67-8,1c-0.33,0.67-0.67,1.33-1,2h-2v1h-2v1h-3v1h-8v1h-2c-0.33,0.67-0.67,1.33-1,2h-2v1
			c-2.33,0.33-4.67,0.67-7,1c-0.33,0.67-0.67,1.33-1,2c-1,0.33-2,0.67-3,1v1c-3.67,1.33-7.33,2.67-11,4c-0.33,0.67-0.67,1.33-1,2
			c-1.33,0.33-2.67,0.67-4,1c-0.33,0.67-0.67,1.33-1,2h-2c-0.33,0.67-0.67,1.33-1,2h-2c-0.33,0.67-0.67,1.33-1,2h-2
			c-0.33,0.67-0.67,1.33-1,2h-2c-0.67,1-1.33,2-2,3h-2c-0.33,0.67-0.67,1.33-1,2h-2c-0.33,0.67-0.67,1.33-1,2h-2
			c-0.33,0.67-0.67,1.33-1,2h-2v1c-1,0.33-2,0.67-3,1c-0.33,0.67-0.67,1.33-1,2h-2c-0.67,1-1.33,2-2,3h-2c-2.33,2.67-4.67,5.33-7,8
			c-1.33,1-2.67,2-4,3v2h-1c-0.33,0.67-0.67,1.33-1,2h-2c-0.33,0.67-0.67,1.33-1,2c-1.33,1-2.67,2-4,3v2c-1.33,1-2.67,2-4,3
			c-0.33,0.67-0.67,1.33-1,2h-2c-1.33,2.33-2.67,4.67-4,7h-2c-0.62,2.22-0.82,2.51-2,4h-1c-0.33,1-0.67,2-1,3
			c-0.67,0.33-1.33,0.67-2,1v2c-0.67,0.33-1.33,0.67-2,1c-0.33,1.33-0.67,2.67-1,4h-1c-0.33,1-0.67,2-1,3c-0.67,0.33-1.33,0.67-2,1
			c-6.33,11.67-12.67,23.33-19,35v3h-1v2h-1c-0.33,1.33-0.67,2.67-1,4h-1v3h-1v2h-1v3h-1v3h-1v3h-1c-0.33,3-0.67,6-1,9h-1v2H9
			c-0.33,2-0.67,4-1,6H7v5H6v5H5v5H4v9H3v3H2v3H1v4h1c-0.33,0.67-0.67,1.33-1,2h1c0.33,2.33,0.67,4.67,1,7H2v2H1
			c0.33,6.67,0.67,13.33,1,20c-0.82,2.92-2.34,21.9-1,26c0.71,2.17,3.48,3.91,3,7H3c0.67,2.33,1.33,4.67,2,7h1
			c0.74,2.15-1.06,5.72-1,6h1v2h1v5h1v5c0.67,0.33,1.33,0.67,2,1v2h1c1,5.33,2,10.67,3,16c0.67,0.33,1.33,0.67,2,1v2h1v5
			c1,0.67,2,1.33,3,2v2h1c1,4.33,2,8.67,3,13h1c0.33,1.33,0.67,2.67,1,4h1v2c0.67,0.33,1.33,0.67,2,1c2.33,5.33,4.67,10.67,7,16
			c0.67,0.33,1.33,0.67,2,1v2c1,0.67,2,1.33,3,2v2c2.33,2,4.67,4,7,6c0.67,2,1.33,4,2,6c1.67,1.33,3.33,2.67,5,4v2
			c0.67,0.33,1.33,0.67,2,1c0.33,1.33,0.67,2.67,1,4c1,0.67,2,1.33,3,2v2c2.33,1.33,4.67,2.67,7,4v1c1,0.67,2,1.33,3,2v2
			c3.67,3.33,7.33,6.67,11,10c1.33,1.67,2.67,3.33,4,5h2c0.33,0.67,0.67,1.33,1,2c1.33,0.33,2.67,0.67,4,1c3,3.33,6,6.67,9,10h2
			c0.33,0.67,0.67,1.33,1,2c3,1,6,2,9,3c1.33,1.67,2.67,3.33,4,5h2v1h2v1h3v1h3v1h2c0.33,0.67,0.67,1.33,1,2c3,1,6,2,9,3v1
			c3.13,1.52,6.03,2.67,10,3v2c4.29,0.96,7.27,3.65,11,5c5.67,1,11.33,2,17,3v1h2v1h2c0.33,0.67,0.67,1.33,1,2h3v1h8
			c2.73,0.81,6.29,1.91,10,2h11v1h2v1h3v1c0.66,0.13,6.31-1.09,9-1h3v1c1.66,0.27,1.76-0.95,2-1h12v-1c8.33,0.33,16.67,0.67,25,1
			c0,0,0.88,1.61,3,1v-1h2v-1c19,0.33,38,0.67,57,1c5.67,0.33,11.33,0.67,17,1v-1h14c5-0.22,13.73-2.79,20-1v1h4
			c6-0.33,12-0.67,18-1v1h2v1c2-0.33,4-0.67,6-1h12v-1c2.67,0.33,5.33,0.67,8,1v-1c2.33,0.67,4.67,1.33,7,2v-1
			c5.33-0.33,10.67-0.67,16-1v1h2v1c1-0.33,2-0.67,3-1h28v1c4.79,1.16,5.24-3.25,10-2v1h4v1h4v-1h26v1c9.33-0.33,18.67-0.67,28-1
			c20,0.33,40,0.67,60,1v-1h3v-1c2,0.33,4,0.67,6,1v1c2-0.33,4-0.67,6-1h19v-1c2.67,0.33,5.33,0.67,8,1c1.4-0.2-0.38-0.71,1-1
			c4.33,0.33,8.67,0.67,13,1v1c5.33-0.33,10.67-0.67,16-1v-1c2.88-0.71,7.18,1.59,9,2c4-0.33,8-0.67,12-1h35
			c3.33-0.33,6.67-0.67,10-1c8.59,1.94,37.61,2.37,46,0h14v-1h2v-1c4.33-0.67,8.67-1.33,13-2v-1c5.33-0.67,10.67-1.33,16-2v-1
			c1.33-0.33,2.67-0.67,4-1v-1h5v-1h4v-1h3v-1h3v-1h2v-1h2v-1h2v-1h3v-1h2v-1c1.33-0.33,2.67-0.67,4-1v-1c2-0.33,4-0.67,6-1v-1
			c2-0.67,4-1.33,6-2v-1c1.33-0.33,2.67-0.67,4-1c0.33-0.67,0.67-1.33,1-2c2-0.67,4-1.33,6-2c0.33-0.67,0.67-1.33,1-2
			c2-0.67,4-1.33,6-2c0.33-0.67,0.67-1.33,1-2h2v-1h2c0.33-0.67,0.67-1.33,1-2h2c0.33-0.67,0.67-1.33,1-2h2c0.33-0.67,0.67-1.33,1-2
			h2c0.33-0.67,0.67-1.33,1-2h2c0.67-1,1.33-2,2-3h2c0.67-1,1.33-2,2-3h2c1.33-1.67,2.67-3.33,4-5h2c0.33-0.67,0.67-1.33,1-2
			c1-0.67,2-1.33,3-2v-2c3.67-3.33,7.33-6.67,11-10v-2c2.33-2,4.67-4,7-6v-2c3.67-3.33,7.33-6.67,11-10v-2h1v-2h1v-2h1v-2
			c0.67-0.33,1.33-0.67,2-1c0.33-1.33,0.67-2.67,1-4c1-0.67,2-1.33,3-2v-2c0.67-0.33,1.33-0.67,2-1v-2c0.67-0.33,1.33-0.67,2-1
			c0.33-1.33,0.67-2.67,1-4c0.67-0.33,1.33-0.67,2-1c0.33-1.33,0.67-2.67,1-4c0.67-0.33,1.33-0.67,2-1v-2h1v-2h1c0.33-2,0.67-4,1-6
			h1v-2c1-0.67,2-1.33,3-2v-2c0.67-0.33,1.33-0.67,2-1c0.67-3,1.33-6,2-9h1v-2h1v-2c0.67-0.33,1.33-0.67,2-1v-6h1v-2
			c0.67-0.33,1.33-0.67,2-1v-3h1v-3h1c0.33-3.33,0.67-6.67,1-10h1v-7h1v-5h1v-3h1v-4h1v-4h1c1.11-3.63-1.4-9.1-1-11h1v-3h1v-14
			C1026.65,251.97,1028.55,242.5,1027,237z M975,249h-1v6h-1c0.67,3.67,1.33,7.33,2,11h-1v2h-1v11h-1v3h-1v3h-1
			c-0.67,4.67-1.33,9.33-2,14h-1c-0.33,2-0.67,4-1,6h-1v2h-1v3h-1v3h-1v7c-0.67,0.33-1.33,0.67-2,1c-0.67,2-1.33,4-2,6
			c-0.67,0.33-1.33,0.67-2,1v2h-1v2h-1v2h-1v2c-0.67,0.33-1.33,0.67-2,1c-0.67,2-1.33,4-2,6c-0.67,0.33-1.33,0.67-2,1
			c-0.33,1.33-0.67,2.67-1,4c-0.67,0.33-1.33,0.67-2,1c-0.33,1.33-0.67,2.67-1,4c-0.67,0.33-1.33,0.67-2,1c-0.67,2-1.33,4-2,6
			c-0.67,0.33-1.33,0.67-2,1c-2.72,2.91-6,5.43-7,10h-2c-1.33,1.67-2.67,3.33-4,5h-1v2c-1.67,1.33-3.33,2.67-5,4v2
			c-0.67,0.33-1.33,0.67-2,1c-1.33,1.67-2.67,3.33-4,5h-2c-0.33,0.67-0.67,1.33-1,2c-2,0.67-4,1.33-6,2v1h-2v1c-1,0.33-2,0.67-3,1v2
			h-1c-2,2.33-4,4.67-6,7h-2c-0.67,1-1.33,2-2,3h-2v1h-2v1h-2v1h-2c-0.33,0.67-0.67,1.33-1,2c-4.63,2.92-5.14,0.25-8,6
			c-0.54-0.07-4.14,0.58-3-1c0.83-1.15,1.06,0.41,1-1c-3.59,0.43-5.48,1.35-8,3c-0.33,0.67-0.67,1.33-1,2h-2v1
			c-2.33,0.33-4.67,0.67-7,1v1h-2c-0.33,0.67-0.67,1.33-1,2h-2v1h-3v1h-4v1h-6v1c-5.33,0.33-10.67,0.67-16,1
			c-10.73,3.19-24.2,4-38,4c-8.67-0.33-17.33-0.67-26-1c-1.82,0.53-6.64,1.79-10,1c-0.29-0.07-0.29-1.31-2-1v1h-14
			c-1.42-0.24-3.33-1.71-6-1v1c-4-0.33-8-0.67-12-1c-7.19,2.06-34.79,2.02-42,0c-5,0.33-10,0.67-15,1v1c-3.69,1.04-6.88-1.38-9-2h-7
			v1c-1.67-0.33-3.33-0.67-5-1v-1h-1v1h-3v1h-5v-1c-2.03-0.31-2,1-2,1h-13c-8.67,0-22.52-1.53-28,0c-4-0.33-8-0.67-12-1v1h-2v-1
			c-1.41,0.02,0.39,0.74-1,1h-5v-1c-2,0.33-4,0.67-6,1v-1c-3.3-0.83-8.24,0.51-10,1h-7v-1c-4.33,0.33-8.67,0.67-13,1v-1
			c-11,0.33-22,0.67-33,1c-1.4,0.23-3.35,1.74-6,1c-2.49-0.7-7.82-3.19-12-2v1h-12c-3.64-1.05-18.95-2.46-24-1v1h-15
			c-0.03-0.01-0.8-1.51-3-1v1h-11v-1h-8c-1.69,0.49-9.52,2.71-12,2v-1h-4v-1c-1.33,0.33-2.67,0.67-4,1v-1c-3.67,0.33-7.33,0.67-11,1
			v-1h-3v-1c-4,0.67-8,1.33-12,2v-1c-5,0.33-10,0.67-15,1c-1.36-0.22-3.39-1.79-6-1v1c-2.33,0.33-4.67,0.67-7,1v-1h-3v-1h-14
			c-1.7,0.49-6.78,1.92-10,1v-1c-5,0.33-10,0.67-15,1c-1.54-0.44-5.94-1.8-9-1c-0.07,0.02-0.78,1.45-3,1c0,0-0.94-1.47-3-1v1
			c-3.11,0.75-5.35-1.46-7-1c-0.33,0.67-0.67,1.33-1,2h-1v-1h-15v-1c-3.63-0.89-5.66,2.18-7,2v-1h-4v-1c-6.67-0.33-13.33-0.67-20-1
			v-1h-4v-1h-3v-1c-4.67-0.33-9.33-0.67-14-1v-1c-2-0.67-4-1.33-6-2v-1c-3-0.33-6-0.67-9-1v-1c-2-0.33-4-0.67-6-1v-1
			c-2-0.67-4-1.33-6-2v-1h-2v-1h-2v-1h-2v-1h-3v-1h-2v-1h-2c-1-1.33-2-2.67-3-4c-2-0.67-4-1.33-6-2c-0.67-1-1.33-2-2-3h-2
			c-0.33-0.67-0.67-1.33-1-2c-1.67-0.33-3.33-0.67-5-1c-0.33-0.67-0.67-1.33-1-2h-2c-0.33-0.67-0.67-1.33-1-2h-2c-0.67-1-1.33-2-2-3
			h-2c-0.33-0.67-0.67-1.33-1-2h-1c-0.33-1.33-0.67-2.67-1-4c-2-1-4-2-6-3c-1.67-2-3.33-4-5-6c-0.67-0.33-1.33-0.67-2-1v-2
			c-1.33-1-2.67-2-4-3v-2c-0.67-0.33-1.33-0.67-2-1v-2c-1-0.67-2-1.33-3-2v-1h-2c-0.33-0.67-0.67-1.33-1-2h-1v-2h-1v-2
			c-1-0.67-2-1.33-3-2v-1l-3-1v-2c-0.67-0.33-1.33-0.67-2-1v-2h-1v-2h-1v-2h-1v-2h-1v-2c-1-0.67-2-1.33-3-2v-2h-1v-2h-1v-3h-1v-2h-1
			v-2c-0.67-0.33-1.33-0.67-2-1v-5c-1-0.67-2-1.33-3-2v-2h-1v-3h-1v-3h-1v-2h-1v-3h-1v-3h-1v-3h-1v-3h-1c-0.33-3.33-0.67-6.67-1-10
			h-1v-3h-1v-3h-1v-10h-1v-10h-1v-9h-1c0.33-4.67,0.67-9.33,1-14h-1c0.33-3.33,0.67-6.67,1-10c-0.52-1.82-2.07-7.67-1-11h1v-3h1v-3
			h1v-5c0.31-1.38,1.18,0.4,1-1h-1c-0.67-4.42,1.11-7.36,2-10v-4h1v-2h1v-3h1c0.33-2,0.67-4,1-6h1c0.33-3,0.67-6,1-9h1v-3h1
			c0.33-1.33,0.67-2.67,1-4h1v-2c0.67-0.33,1.33-0.67,2-1c0.67-2,1.33-4,2-6h1v-2h1v-2h1v-2h1v-2h1v-2h1v-3c1.67-1.33,3.33-2.67,5-4
			c0.33-2.33,0.67-4.67,1-7c0.67-0.33,1.33-0.67,2-1v-2c1.33-1,2.67-2,4-3v-2c2.67-2.33,5.33-4.67,8-7v-2c2-1.67,4-3.33,6-5v-3h1
			c0.33-0.67,0.67-1.33,1-2h2c0.33-0.67,0.67-1.33,1-2h2c0.67-1,1.33-2,2-3h1v-2c1.33-1,2.67-2,4-3v-1h2c0.67-1,1.33-2,2-3h2
			c0.67-1,1.33-2,2-3h2c0.33-0.67,0.67-1.33,1-2c1-0.33,2-0.67,3-1v-1h2c0.33-0.67,0.67-1.33,1-2c1-0.33,2-0.67,3-1v-1
			c1.33-0.33,2.67-0.67,4-1c0.33-0.67,0.67-1.33,1-2c1.33-0.33,2.67-0.67,4-1c0.33-0.67,0.67-1.33,1-2c1.33-0.33,2.67-0.67,4-1
			c0.33-0.67,0.67-1.33,1-2c1.33-0.33,2.67-0.67,4-1c0.33-0.67,0.67-1.33,1-2c1.67-0.33,3.33-0.67,5-1v-1h2c0.33-0.67,0.67-1.33,1-2
			c2-0.33,4-0.67,6-1c1.13,1.12-0.01,0.43,2,1v-2c2.84-0.62,5.52-2.15,8-3c2.33-0.33,4.67-0.67,7-1v-1h2v-1h3v-1h7v-1h4v-1h2v-1h5
			v-1c6-0.33,12-0.67,18-1v1h4v-1c6.67-0.33,13.33-0.67,20-1v1h3v1h11v-1h11v1c1.33-0.33,2.67-0.67,4-1v-1c3.67,0.33,7.33,0.67,11,1
			c14.67,0.33,29.33,0.67,44,1c4.09-0.68,12.44-3.55,18-2c8.64,2.4,22.6,1,33,1c10.35,0,19.13,1.48,28,0h18v-1
			c2.52-0.62,3.62,0.78,5,1c8.67,0.33,17.33,0.67,26,1v-1c11.67,0.33,23.33,0.67,35,1v-1h15c11.5,0,25.47-0.32,34,0
			c9.04,0.34,23.3-1.26,29,0h33v1c6.3,1.76,17.83-0.83,22-2h16v1h3v1c6.33-0.33,12.67-0.67,19-1v-1h18v1h13c0,0,0.82-1.47,3-1v1
			c23.66-0.33,47.34-0.67,71-1v1h19v1h15v1h8v1h4v1h4v1h5v1h8v1c1.33,0.33,2.67,0.67,4,1v1h3v1h3v1h3v1h3v1h3v1h2v1h2
			c0.33,0.67,0.67,1.33,1,2c1.33,0.33,2.67,0.67,4,1v1h4v1c1.33,0.33,2.67,0.67,4,1c0.67,1,1.33,2,2,3c3.67,1.33,7.33,2.67,11,4
			c0.67,1,1.33,2,2,3c1,0.33,2,0.67,3,1c1.67,2,3.33,4,5,6h2c0.33,0.67,0.67,1.33,1,2c1,0.33,2,0.67,3,1v1h2c0.67,1,1.33,2,2,3h2
			c4,4.33,8,8.67,12,13c2,1.67,4,3.33,6,5c0.33,1.33,0.67,2.67,1,4c1,0.67,2,1.33,3,2v2c1.67,1.33,3.33,2.67,5,4v2h1v2h1v3
			c0.67,0.33,1.33,0.67,2,1v1c0.67,0.33,1.33,0.67,2,1v2c1.33,1,2.67,2,4,3v2h1v2h1v2h1v2h1v2c0.67,0.33,1.33,0.67,2,1v2h1v2h1v2h1
			v2h1v2h1v2h1c0.67,2,1.33,4,2,6h1c0.33,3,0.67,6,1,9h1v4h1v2h1v6h1v5c0.67,0.33,1.33,0.67,2,1v6h1v3h1v2h1v12
			c0.59,2.05,2.87,6.66,2,10h-1v10C974.23,243.43,975.79,246.13,975,249z M437,193c-3.33-10-6.67-20-10-30c-0.67-0.33-1.33-0.67-2-1
			v-2c-0.67-0.33-1.33-0.67-2-1v-2h-1c-0.33-1.33-0.67-2.67-1-4h-1c-0.33-1.33-0.67-2.67-1-4h-1v-3h-1v-2h-1v-3h-1v-4h-1v-2h-1v-2
			c-0.67-0.33-1.33-0.67-2-1v-2c-1.33-1-2.67-2-4-3c-0.33-0.67-0.67-1.33-1-2h-2c-3.33-3.67-6.67-7.33-10-11c-2-0.33-4-0.67-6-1v-1
			c-1-0.67-2-1.33-3-2c-0.33-1-0.67-2-1-3h-2v-1h-6c-0.33-0.67-0.67-1.33-1-2h-2c-1.33-1.67-2.67-3.33-4-5c-5-1.67-10-3.33-15-5v-1
			h-2c-0.33-0.67-0.67-1.33-1-2h-2c-0.33-0.67-0.67-1.33-1-2h-2c-0.33-0.67-0.67-1.33-1-2h-2v-1h-2v-1c-3.67-0.67-7.33-1.33-11-2v-1
			h-4v-1h-4v-1h-5v-1h-5v-1h-15v-1h-9v-1h-4v-1c-3.49-0.8-4.99,2.64-8,2v-1h-2v-1c-6,0.33-12,0.67-18,1v1h-2v1h-3v1h-12v1h-3v1h-5v1
			h-4v1h-3v1h-3v1c-1.33,0.33-2.67,0.67-4,1c-0.33,0.67-0.67,1.33-1,2h-2v1h-3c-0.57,0.37-2.81,5.14-4,6h-2c-0.67,1-1.33,2-2,3
			c-1.67,0.33-3.33,0.67-5,1v1h-5v1c-1.33,0.33-2.67,0.67-4,1c-0.33,0.67-0.67,1.33-1,2h-2v1c-1.49,1.17-1.77,1.4-4,2
			c-1.13,4.29-3.87,7.62-7,10v1c-1.97,1.13-5.59,0.25-7,2c-0.33,1.33-0.67,2.67-1,4c-0.67,0.33-1.33,0.67-2,1v2c-1,0.67-2,1.33-3,2
			v2c-0.67,0.33-1.33,0.67-2,1v3c-2,1.67-4,3.33-6,5c-0.33,1.67-0.67,3.33-1,5c-1.33,1-2.67,2-4,3c-0.67,3-1.33,6-2,9h-2
			c-1.33,4.67-2.67,9.33-4,14h-1c-0.33,1.33-0.67,2.67-1,4h-1c-0.33,4.33-0.67,8.67-1,13h-1c-0.33,2.33-0.67,4.67-1,7h-1v3h-1v3h-1
			v5h-1v14h1c-0.33,3.33-0.67,6.67-1,10h1v5c-0.04,0.2-1.31,0.35-1,2h1v3h1c-0.33,3.67-0.67,7.33-1,11h1v3h1v2h1v3h1
			c1.32,4.06-0.77,6.23,2,9v1h3c-0.33,2-0.67,4-1,6h1c0.33,1.33,0.67,2.67,1,4h1v7c1.33,1,2.67,2,4,3v2c0.67,0.33,1.33,0.67,2,1v2
			l2,1v2c0.67,0.33,1.33,0.67,2,1v3h1c1.33,4,2.67,8,4,12c1,0.33,2,0.67,3,1c0.34,4.74,1.08,8.79,4,13c1,0.67,2,1.33,3,2v2
			c1.67,1.33,3.33,2.67,5,4v2c0.67,0.33,1.33,0.67,2,1c2.33,2.67,4.67,5.33,7,8c2.51-0.56,5.34-3.45,9-2c0.33,0.67,0.67,1.33,1,2h2
			v2c4.22-0.08,4.36-1.37,8,0v1h3v1h2c1,1.33,2,2.67,3,4c2.33,0.33,4.67,0.67,7,1v1c1.33,0.33,2.67,0.67,4,1v1h3v1h2v1h3v1h2v1
			c2,0.33,4,0.67,6,1v1h2v1c2,0.67,4,1.33,6,2v1h10v1h2v1h8v1h17v1c8.67-0.67,17.33-1.33,26-2v-1h3v-1h19v-1h2v-1h2v-1h2v-1h2v-1h2
			v-1h2v-1h2v-1h2v-1h2v-1c2-0.67,4-1.33,6-2v-1h3v-1h2v-1h3c0.33-0.67,0.67-1.33,1-2h2c0.67-1,1.33-2,2-3h2v-1
			c1.33,0.33,2.67,0.67,4,1v-1c1.24-0.87,1.16-0.72,2-2h1c-0.96-1.79-1.44-1.55-2-4c1.13-0.85,0.16,0.13,1-1
			c2.55,0.29,3.36-0.13,4,2h-1v1c1-0.33,2-0.67,3-1v1h1c1.57-2.43,1.13-0.61,3-2c1-1.33,2-2.67,3-4h2c0.67-1,1.33-2,2-3
			c2-1.67,4-3.33,6-5c0.33-1,0.67-2,1-3c1.4-0.97,3.12,0.41,4-1v-4h1v-2c0.67-0.33,1.33-0.67,2-1c2.39-3.77,0.02-5.2,6-6
			c-0.33-1-0.67-2-1-3h2v-2h2c0.96-3.46,4.72-6.57,7-9c0.67-0.33,1.33-0.67,2-1c0.33-1.33,0.67-2.67,1-4c1-0.67,2-1.33,3-2v-2h1v-3
			h1v-3h1v-4h1v-4h1c-0.33-2.33-0.67-4.67-1-7h1v-3h1v-2h1c0.33-2,0.67-4,1-6h1c0.67-5.67,1.33-11.33,2-17c-0.33-1.33-0.67-2.67-1-4
			h1v-2h1c1.44-4.27-0.17-18.05-1-21C438.33,206.33,437.67,199.67,437,193z M336,238c-0.67,0.33-1.33,0.67-2,1v3h-1
			c-1.03,3.1,0.39,5.67-1,8c-0.67,0.33-1.33,0.67-2,1v2c-0.67,0.33-1.33,0.67-2,1v2c-1,0.67-2,1.33-3,2c-1.33,1.67-2.67,3.33-4,5h-2
			c-0.67,1-1.33,2-2,3h-2c-0.33,0.67-0.67,1.33-1,2h-2v1h-2v1h-2v1h-2v1h-2v1c-6,1-12,2-18,3v-1h-3v-1c-3.33,0.33-6.67,0.67-10,1v-1
			c-2-0.33-4-0.67-6-1v-1c-1.33-0.33-2.67-0.67-4-1v-1h-2c-2.33-2.67-4.67-5.33-7-8h-2c-0.33-0.67-0.67-1.33-1-2h-2
			c-0.33-0.67-0.67-1.33-1-2c-4.84-4.6-10.25-10.48-11-19c-1,0.33-2,0.67-3,1v-5h-1v-2h-1c0.67-2,1.33-4,2-6h-1v-2h-1
			c0.33-2,0.67-4,1-6h-1v-5h1v-2h1c0.33-3,0.67-6,1-9c2.13-4.68,7.52-6.21,9-12c4.98-1.47,2.37-2.43,5-5v-1c1.67-0.33,3.33-0.67,5-1
			v-1h2v-1h2c0.67-1,1.33-2,2-3h6v-1h2v-1c2.67-0.33,5.33-0.67,8-1v-1c1.7-0.29,3.68,1.5,7,1c1.4-0.21-0.37-0.63,1-1
			c3,0.33,6,0.67,9,1v1h2c0.67,1,1.33,2,2,3c2.67,0.33,5.33,0.67,8,1v1h2c0.33,0.67,0.67,1.33,1,2c1.33,0.33,2.67,0.67,4,1
			c0.67,1,1.33,2,2,3c2,0.67,4,1.33,6,2c2,2.67,4,5.33,6,8c1,0.33,2,0.67,3,1c2,2.33,4,4.67,6,7v2h1V238z M394,329c0,0-3.87-0.1-2-1
			h1v-3h1V329z M871,223h-1v-5h-1v-5h-1c0.33-2.33,0.67-4.67,1-7h1c-0.33-3.33-0.67-6.67-1-10v-47c0.01-2.83,1.14-8.01,1-9h-1v-4
			c0,0,1.42-0.87,1-3h-1c0.33-3.33,0.67-6.67,1-10h-1v-2h-1c-1-4.67-2-9.33-3-14c-1-0.67-2-1.33-3-2c-3.74-3.83-6.68-7.68-12-10h-3
			v-1h-4v-1c-2.13-0.51-3,1-3,1h-6v-1h-24v-1c-6-0.33-12-0.67-18-1c0,0,0.01,0.92-2,1c-3.67-0.33-7.33-0.67-11-1v1
			c-4.33-0.33-8.67-0.67-13-1c-0.25-0.06-0.3-1.45-2-1c-0.33,0.67-0.67,1.33-1,2c-2-0.33-4-0.67-6-1v1c-1,0.33-2,0.67-3,1
			c-0.33,5.67-0.67,11.33-1,17h1v4c-0.33,3-0.67,6-1,9h1v8h1v14h-1v10h1c0.31,1.97-1,2-1,2v6h1c-0.33,4.67-0.67,9.33-1,14h-1
			c-1.54,5.45,1.04,11.68,2,15v12h-1v3h-1c0.33,5.67,0.67,11.33,1,17h-1v5h1v3h1c0.31,1.6-1.9,4.76-1,8h1v37h-1
			c-0.33,1.67-0.67,3.33-1,5h1v4h1c0.88,3-0.59,7.52-1,9c0.33,3.33,0.67,6.67,1,10c-0.33,3-0.67,6-1,9h1v16h1v1h-1v3h-1v1h1
			c-0.05,6.95-0.96,16.72,1,22c3.19,0.57,9.47,2.19,14,1c0,0-0.14-1,2-1c2.47,0,5.39,1.99,9,1v-1h17v1c6.33,0.33,12.67,0.67,19,1v-1
			h4c1.35-0.41-0.4-0.79,1-1c5.33,0.67,10.67,1.33,16,2v-1h17v-1h2v-1c2-0.33,4-0.67,6-1c0.82-3.14,2.76-4.58,4-7v-2h1v-4h1
			c0.33-3.33,0.67-6.67,1-10h-1v-38h1c-0.33-3-0.67-6-1-9c-0.01-0.04-1.47-0.8-1-3h1v-7h-1v-4h1v-4c-0.33-1.33-0.67-2.67-1-4h1v-21
			h1v-6c0,0-1.01,0.09-1-2C869.02,230.39,872.21,227.51,871,223z M830,146h-1c-0.85,1.13,0.13,0.16-1,1c-0.85-1.13,0.13-0.16-1-1
			c0.24-2.36,0.42-2.47,1-4C828.92,142.64,831.16,143.53,830,146z M730,224h1c-0.33-3.67-0.67-7.33-1-11c-0.03-0.1-1.53-0.77-1-3h1
			v-6h1v-1h-1v-16h1c-0.33-4-0.67-8-1-12c0.67-0.33,1.33-0.67,2-1c-0.21-1.35-1.64-1.69-1-4h1c-0.67-6.67-1.33-13.33-2-20
			c2.31-7.9,2.17-18.43,0-27v-4h1c-0.33-2.67-0.67-5.33-1-8h1v-5h1c0.76-2.68-0.43-6.3-1-8h-1c0.33-1,0.67-2,1-3
			c-1.3-0.82-1.19-0.69-2-2c-7-0.67-14-1.33-21-2c-4.29,1.19-21.91,3.7-28,2v-1h-15v1c-2.02,0.32-2-1-2-1h-17v-1
			c-4.33,0.33-8.67,0.67-13,1v1c-1.66,0.29-1.77-0.95-2-1h-6v1c-3.25,0.86-5.77-0.61-8-1c-0.9,1.53-1.45,2.11-3,3v5h1
			c-0.33,8.67-0.67,17.33-1,26v13c0.67,0.33,1.33,0.67,2,1c-0.33,4-0.67,8-1,12c1.33,0.67,2.67,1.33,4,2v4h1
			c-0.62,2.43-1.06,2.2-2,4c-2,0.33-4,0.67-6,1c-0.33-1.67-0.67-3.33-1-5h-1v-8h-1v-2c-0.67-0.33-1.33-0.67-2-1v-2h-1
			c-0.33-0.67-0.67-1.33-1-2h-2c-1.33-1.67-2.67-3.33-4-5c-0.67-0.33-1.33-0.67-2-1v-2c-0.67-0.33-1.33-0.67-2-1
			c-0.33-1.33-0.67-2.67-1-4c-1.33-1-2.67-2-4-3c-0.33-0.67-0.67-1.33-1-2h-2c-0.33-0.67-0.67-1.33-1-2h-1v-2c-2-1.67-4-3.33-6-5v-2
			c-2.67-2.33-5.33-4.67-8-7c-0.67-1-1.33-2-2-3h-2c-0.33-0.67-0.67-1.33-1-2h-2v-1h-5v-1c-1.33-0.33-2.67-0.67-4-1
			c-0.33-0.67-0.67-1.33-1-2h-2v-1h-5v-1h-3v-1h-2v-1h-3v-1h-28v1h-3c-2.33-0.33-4.67-0.67-7-1v-1c-0.97-0.17-7.27,1.8-8,2
			c-5.67-0.33-11.33-0.67-17-1c-4.22,0-12.59-1.13-15,1h-5v1c-2.26,1.73-0.72,0.45-2,3h-1c-0.33,5-0.67,10-1,15h1v5
			c0.08,0.31,1.28,0.29,1,2h-1c-1.12,4.95,1.77,10.62,0,13v29c0.67-0.33,1.33-0.67,2-1v2h-2c-0.33,4-0.67,8-1,12h1v8h1v1h-1v1
			c-0.93,9.42-0.05,20.91-1,29c0.33,1.67,0.67,3.33,1,5c0.3,3.75-0.62,7.68-1,10v8c0.67,0.33,1.33,0.67,2,1c0.59,1.68-1.7,6.97-2,8
			v23h1v5h1v1h-1v15h-1c0.33,3.33,0.67,6.67,1,10c-0.33,6.67-0.67,13.33-1,20c0.31,3.69,2.45,10.94,1,16h-1
			c-1.4,5.06,2.65,11.58,1,14c0.02,5.61,1.18,5.88,3,9c6.67,0.33,13.33,0.67,20,1v-1c1-0.33,2-0.67,3-1v1h4v1h5v-1
			c5.79-1.56,14.34,0.29,19-1c7.43-2.06,11.64,3.7,18,2v-1h9v1h3c1.37,0.34-0.4,1.22,1,1v-1h2v-1c4.24-1.28,6.08,2.4,9,0h16
			c0,0,2.08-2.47,3-3c0.01-6.6-0.24-14.98,1-20c-0.33-3-0.67-6-1-9c0.55-3.58,2.41-11.94,1-17h-1c0.33-3.33,0.67-6.67,1-10
			c-0.67-0.33-1.33-0.67-2-1v-2h-1v-2h-1c-0.33-1-0.67-2-1-3c1.86-1,3.87-2.21,5-4h2c0.33,1.67,0.67,3.33,1,5h1v6
			c2.67,2.33,5.33,4.67,8,7v2c0.67,0.33,1.33,0.67,2,1c1.33,1.67,2.67,3.33,4,5c1.55,0.96,2.96-0.32,4,1c0.67,2,1.33,4,2,6
			c3.33,3,6.67,6,10,9v2c1.67,1.33,3.33,2.67,5,4c0.33,1,0.67,2,1,3h1c0.67,1,1.33,2,2,3h2c0.67,1,1.33,2,2,3h2
			c0.33,0.67,0.67,1.33,1,2h2c0.33,0.67,0.67,1.33,1,2h2v1h2v1h2v1h2c0.33,0.67,0.67,1.33,1,2h2v1c2.67,0.33,5.33,0.67,8,1
			c0.33,0.67,0.67,1.33,1,2h3v1h25c10.33,0.33,20.67,0.67,31,1v-1c4.84-1.27,9.43,3.15,13,0h14c0,0,1.37-1.67,2-2
			c0.33-4.33,0.67-8.67,1-13h-1v-5h1c-0.33-3-0.67-6-1-9h1v-2h1v-7h-1c-0.27-1.68,0.94-1.74,1-2v-13h-1c-0.99-3.54,1.49-6.76,1-9h-1
			v-3h-1c-0.78-2.82,1.69-7.24,2-9c0.29-1.68-0.94-1.74-1-2v-9h-1c0.33-9.67,0.67-19.33,1-29h1v-2h1
			C734.09,238.15,728.06,230.71,730,224z M455,253h-1v-3h1V253z M225,379v-1h-2v-1c-2.6-1.17-16.76-2.13-18-1
			c-5.63-0.06-6.68,0.24-10,2v30c1.23,0.99,3.22,3.57,4,5c3.91,0.72,4.08,0.73,8,0c0.33-4,0.67-8,1-12c2.35-0.87,6.74,0.06,10-1v-1
			h3c2.33-1.67,4.67-3.33,7-5c2.94-7.19,0.84-6.7,0-14C227,379.67,226,379.33,225,379z M216,388c-0.33,1-0.67,2-1,3h-6
			c-0.33-2-0.67-4-1-6c3.91-0.72,4.08-0.73,8,0c0.33,1,0.67,2,1,3H216z M695,394h-2c-0.67-1-1.33-2-2-3c-1.33-0.33-2.67-0.67-4-1v-1
			c-4.27-1.62-6.78,0.98-10-2c-1.12-1.13-0.43,0.01-1-2h1v-1h6c0.33,0.67,0.67,1.33,1,2h6c0.98-1.2,2.59-2.26,4-3
			c-0.53-4.2-1.42-3.25-3-6c-14.57-3.2-25.55-3.76-28,12h1v3h1c2,2.33,4,4.67,6,7h7v1c2,0.33,4,0.67,6,1v3h-1v1h-7
			c-0.33-0.67-0.67-1.33-1-2c-2.04-1.15-7.16-1.68-9,0c-1,0.33-2,0.67-3,1v4c1.22,2.53,14.3,8.64,20,7c4.02-1.15,8.46-3.28,12-5
			c1.07-2.46,3.95-9.95,1-13C695.67,396,695.33,395,695,394z M836,392v-1h-2v-1h-2v-1h-6c-0.61-0.27,0.02-1.37-3-2
			c0.33-1,0.67-2,1-3h4v1c2.28,0.96,6.98,1.88,9,0c1-0.33,2-0.67,3-1c-0.33-1.67-0.67-3.33-1-5c-1.47-2.05-14.43-5.98-20-4v1h-2v1
			h-2v1c-1,0.33-2,0.67-3,1c-0.83,3.1-5.32,7.4-3,13c0.67,0.33,1.33,0.67,2,1v2c5.82,1.58,10.42,5.45,18,6v3h-1v1h-5
			c-2.4-0.88-6.28-5.64-11-4v1h-2c-0.36,0.21-0.98,1.43-2,2c0.53,4.18,2.4,5.09,4,8c3.15,0.65,5.68,2.25,8,3
			c4.9,1.58,15.67-1.48,18-3v-1c1-0.67,2-1.33,3-2c0.67-2.93,3.63-8.22,1-11C841.02,394.07,839.1,393.8,836,392z M375,398
			c1.08-2.48,6.02-9.79,5-13h-1c-0.67-2-1.33-4-2-6c-1-0.33-2-0.67-3-1v-1h-3v-1c-8.98-0.08-21.11-1.07-27,2
			c-0.05,9.82-1.82,27.36,1,35c4.38,0.8,5.44,0.46,10,0v-1h1c-0.09-6.73-0.25-8.74,2-13h2c0.84,3.16,2.87,4.56,4,7v3h1
			c0.33,1,0.67,2,1,3c3.33,0.67,6.67,1.33,10,2c0.77-1.02,1.23-0.98,2-2h1c-0.78-2.28-5.92-11-5-14H375z M366,389h-1v1h-3v1
			c-1.67-0.33-3.33-0.67-5-1c-0.33-1-0.67-2-1-3h1v-2c2-0.33,4-0.67,6-1v1c1,0.33,2,0.67,3,1V389z M535,377v-1
			c-8.98-0.08-21.11-1.07-27,2v33c0,0,2.46,2.06,3,3c5.33-0.33,10.67-0.67,16-1v1h8v-1c1-0.33,2-0.67,3-1c-0.05-2.86-0.35-4.28-1-6
			c-4.27-0.8-10.32-1.07-16-1v-1h-1v-4h1c2.39-2.45,8.04-2.17,13-2c0.02-3.59-0.13-5.68-1-8c-4-0.33-8-0.67-12-1v-3h1v-1
			c4.25-0.79,11.74-1.29,16-2c0.58-3.71,0.59-2.28,0-6H535z"/>
	</g>
</g>
</svg>
