<?xml version="1.0" encoding="utf-8"?>
<!-- Generator: Adobe Illustrator 23.1.0, SVG Export Plug-In . SVG Version: 6.00 Build 0)  -->
<svg version="1.1" xmlns="http://www.w3.org/2000/svg" xmlns:xlink="http://www.w3.org/1999/xlink" x="0px" y="0px"
	 viewBox="0 0 1518 271.5" style="enable-background:new 0 0 1518 271.5;" xml:space="preserve">
<style type="text/css">
	.st0{enable-background:new    ;}
	.st1{fill:#CF382E;}
	.st2{fill-rule:evenodd;clip-rule:evenodd;fill:#FFFFFF;}
</style>
<g id="Shape_1_copy_1_" class="st0">
	<g id="Shape_1_copy">
		<g>
			<path d="M163.32,10.91c-39.95,0-90.32,0-90.32,0L0.21,186.11c0,0,41.53,1.42,93.79,1.42c52.26,0,72.95-12.78,89.84-51.14
				c16.9-38.35,24.32-56.35,31.74-75.92C233.32,13.69,203.27,10.91,163.32,10.91z M158.11,59.52c-1.89,4.74-36,87.44-39.79,95.96
				c-3.79,8.52-11.68,16.41-29.37,16.41c-17.68,0-23.53-0.16-23.53-0.16l64.9-158.78c0,0,26.05,31.41,28.26,33.78
				C160.79,49.11,160,54.79,158.11,59.52z M570.38,15.01l-45.95,120.43L500.91,15.17h-63.63l-65.84,176.15h38.69l32.68-86.34l9-61.4
				l23.84,147.1h66l64.58-175.67H570.38z M359.27,15.33l-73.11,92.97l20.53-40.41l-6.47-52.72h-50.05l9.79,119.8l-20.53,54.93
				l50.84,0.32l21.47-54.93l98.37-119.96H359.27z M1293.6,38.25l82.18,0l8.02-23.03h-142.37l-8.41,23.29h44.26l-56.82,152.56h53.97
				c0,0,37.66-101.32,40.12-108.43c2.46-7.12,1.94-12.55-1.16-16.69C1310.29,61.8,1293.6,38.25,1293.6,38.25z M1516.85,14.7h-111.82
				l-65.75,175.98h117.13l7.51-23.16h-61.86l19.56-55.25h54.21l8.41-22.64h-54.61l5.82-16.43l-23.81-34.16l95.64,0L1516.85,14.7z
				 M1092.6,191.32h52.16l66.39-176.49h-53.32L1092.6,191.32z M575.58,191.49l63.01,1.36l38.8-61.64c0,0,29.85,34.71,36.08,41.81
				s0.96,19.7,0.96,19.7l62.54,0.03L807.3,11.04H697.61L575.58,191.49z M730.47,122.74l-48.53,0.13l69.5-108.17L730.47,122.74z
				 M1063.22,14.96L945.45,159.62L933.8,15.47h-59.92l-65.23,175.59h46.46l25.37-69.23l8.28-75.44l10.22,144.79h68.08l118.42-144.66
				l-47.63,75.44l-25.37,69.48h46.33l65.36-176.49H1063.22z"/>
		</g>
	</g>
</g>
<g id="Shape_1_1_" class="st0">
	<g id="Shape_1">
		<g>
			<path class="st1" d="M360.02,4.83L286.91,97.8l20.53-40.41l-6.47-52.72h-50.05l9.79,119.8l-20.53,54.93l50.84,0.32l21.47-54.93
				L410.86,4.83H360.02z M571.13,4.51l-45.95,120.43L501.66,4.67h-63.63l-65.84,176.15h38.69l32.68-86.34l9-61.4l23.84,147.1h66
				L606.97,4.51H571.13z M164.07,0.41c-39.95,0-90.32,0-90.32,0L0.96,175.61c0,0,41.53,1.42,93.79,1.42
				c52.26,0,72.95-12.78,89.84-51.14c16.9-38.35,24.32-56.35,31.74-75.92C234.07,3.19,204.02,0.41,164.07,0.41z M158.86,49.02
				c-1.89,4.74-36,87.44-39.79,95.96c-3.79,8.52-11.68,16.41-29.37,16.41c-17.68,0-23.53-0.16-23.53-0.16l64.9-158.78
				c0,0,26.05,31.41,28.26,33.78C161.54,38.61,160.75,44.29,158.86,49.02z M1517.6,4.2h-111.82l-65.75,175.98h117.13l7.51-23.16
				h-61.86l19.56-55.25h54.21l8.41-22.64h-54.61l5.82-16.43l-23.81-34.16l95.64,0L1517.6,4.2z M1093.35,180.82h52.16l66.39-176.49
				h-53.32L1093.35,180.82z M1294.35,27.75l82.18,0l8.02-23.03h-142.37l-8.41,23.29h44.26l-56.82,152.56h53.97
				c0,0,37.66-101.32,40.12-108.43c2.46-7.12,1.94-12.55-1.16-16.69C1311.04,51.3,1294.35,27.75,1294.35,27.75z M576.33,180.99
				l63.01,1.36l38.8-61.64c0,0,29.85,34.71,36.08,41.81s0.96,19.7,0.96,19.7l62.54,0.03L808.05,0.54H698.36L576.33,180.99z
				 M731.22,112.24l-48.53,0.13L752.19,4.2L731.22,112.24z M1063.97,4.46L946.2,149.12L934.55,4.97h-59.92L809.4,180.56h46.46
				l25.37-69.23l8.28-75.44l10.22,144.79h68.08l118.42-144.66l-47.63,75.44l-25.37,69.48h46.33l65.36-176.49H1063.97z"/>
		</g>
	</g>
</g>
<g id="ENTERTAINMENT_1_" class="st0">
	<g id="ENTERTAINMENT">
		<g>
			<path class="st2" d="M18.8,248.74h54.33v-5.73H18.8v-16.56h58.31v-5.73H3.37v50.78h74.47v-5.73H18.8V248.74z M194.06,251.88
				c0,1.05,0.03,2.32,0.08,3.82c0.05,1.5,0.19,3.14,0.41,4.92c0.13,1.04,0.31,2.12,0.53,3.21c-1.18-1.01-2.37-1.99-3.58-2.92
				c-2.14-1.66-4.13-3.15-5.97-4.46c-1.84-1.32-3.41-2.4-4.71-3.24l-49.21-32.48h-18.19v50.78h15.51v-28.97
				c0-0.91-0.07-2.16-0.2-3.75c-0.14-1.59-0.31-3.45-0.53-5.59c-0.15-1.47-0.31-3.03-0.49-4.69c2.51,1.87,4.71,3.51,6.58,4.91
				c2.6,1.94,4.91,3.62,6.94,5.04c2.03,1.42,4.05,2.8,6.05,4.14l43.85,28.9h18.35v-50.78h-15.43V251.88z M242.79,226.46h38.09v45.05
				h15.43v-45.05h37.93v-5.73h-91.44V226.46z M382.97,248.74h54.33v-5.73h-54.33v-16.56h58.31v-5.73h-73.74v50.78h74.47v-5.73
				h-59.04V248.74z M542.31,249.85c6.06-1.31,10.57-3.12,13.52-5.44c2.95-2.32,4.43-4.99,4.43-8.01c0-3.02-1.48-5.71-4.43-8.08
				c-2.95-2.36-7.47-4.22-13.56-5.57c-6.09-1.35-13.85-2.03-23.27-2.03h-41.42v50.78h15.43v-19.7h26.07c0.96,0,1.88-0.01,2.8-0.02
				l25.22,19.72h17.87l-27.12-20.86C539.43,250.41,540.92,250.15,542.31,249.85z M518.36,246.05h-25.34v-19.63h25.18
				c6.44,0,11.61,0.41,15.51,1.24c3.9,0.83,6.74,1.99,8.53,3.48c1.79,1.49,2.68,3.24,2.68,5.27c0,1.98-0.89,3.69-2.68,5.13
				c-1.79,1.44-4.62,2.56-8.49,3.34C529.87,245.66,524.74,246.05,518.36,246.05z M588.34,226.46h38.09v45.05h15.43v-45.05h37.93
				v-5.73h-91.44V226.46z M732.69,220.73l-43.93,50.78h16.4l11.73-14.18h49.85l12.08,14.18h16.24l-44.5-50.78H732.69z
				 M761.93,251.68h-40.35l8.52-10.29c1.41-1.73,3.18-4,5.32-6.83c1.78-2.35,3.83-5.24,6.15-8.65c2.34,3.36,4.38,6.21,6.11,8.51
				c2.08,2.78,3.91,5.11,5.48,6.97L761.93,251.68z M826.53,271.51h15.43v-50.78h-15.43V271.51z M964.82,251.88
				c0,1.05,0.03,2.32,0.08,3.82c0.05,1.5,0.19,3.14,0.41,4.92c0.13,1.04,0.31,2.12,0.53,3.21c-1.18-1.01-2.37-1.99-3.58-2.92
				c-2.14-1.66-4.13-3.15-5.97-4.46c-1.84-1.32-3.41-2.4-4.71-3.24l-49.21-32.48h-18.19v50.78h15.51v-28.97
				c0-0.91-0.07-2.16-0.2-3.75c-0.14-1.59-0.31-3.45-0.53-5.59c-0.15-1.47-0.31-3.03-0.49-4.69c2.51,1.87,4.71,3.51,6.58,4.91
				c2.6,1.94,4.91,3.62,6.94,5.04c2.03,1.42,4.05,2.8,6.05,4.14l43.85,28.9h18.35v-50.78h-15.43V251.88z M1092.13,252.77
				c-0.7,0.77-1.52,1.74-2.44,2.9c-0.92,1.16-1.88,2.4-2.88,3.73c-1,1.33-1.96,2.64-2.88,3.92c-0.26,0.36-0.5,0.69-0.74,1.03
				c-0.26-0.39-0.52-0.76-0.8-1.17c-0.92-1.31-1.88-2.62-2.88-3.94c-1-1.32-1.95-2.54-2.84-3.66s-1.69-2.06-2.4-2.81l-29.8-32.03
				h-21.93v50.78h14.7v-29c0-1.11-0.03-2.37-0.08-3.77c-0.05-1.4-0.11-2.85-0.16-4.36c-0.05-1.51-0.12-3-0.2-4.48
				c-0.04-0.73-0.08-1.43-0.13-2.11c0.79,0.98,1.59,1.97,2.36,2.95c1.3,1.65,2.56,3.22,3.78,4.7c1.22,1.49,2.34,2.84,3.37,4.06
				c1.03,1.22,1.92,2.22,2.68,3.02l27.45,29h13.4l27.04-29c0.76-0.82,1.68-1.85,2.76-3.1c1.08-1.25,2.23-2.63,3.45-4.14
				c1.22-1.51,2.46-3.08,3.74-4.7c0.77-0.99,1.51-1.96,2.24-2.93c-0.04,0.84-0.08,1.7-0.12,2.57c-0.08,1.52-0.16,3.02-0.24,4.5
				c-0.08,1.48-0.14,2.89-0.16,4.23c-0.03,1.34-0.04,2.53-0.04,3.58v29h15.19v-50.78h-22.01L1092.13,252.77z M1201.24,248.74h54.33
				v-5.73h-54.33v-16.56h58.31v-5.73h-73.74v50.78h74.47v-5.73h-59.04V248.74z M1376.5,251.88c0,1.05,0.03,2.32,0.08,3.82
				c0.05,1.5,0.19,3.14,0.41,4.92c0.13,1.04,0.31,2.12,0.53,3.21c-1.18-1.01-2.37-1.99-3.58-2.92c-2.14-1.66-4.13-3.15-5.97-4.46
				c-1.84-1.32-3.41-2.4-4.71-3.24l-49.21-32.48h-18.19v50.78h15.51v-28.97c0-0.91-0.07-2.16-0.2-3.75
				c-0.14-1.59-0.31-3.45-0.53-5.59c-0.15-1.47-0.31-3.03-0.49-4.69c2.51,1.87,4.71,3.51,6.58,4.91c2.6,1.94,4.91,3.62,6.94,5.04
				c2.03,1.42,4.05,2.8,6.05,4.14l43.85,28.9h18.35v-50.78h-15.43V251.88z M1425.23,220.73v5.73h38.09v45.05h15.43v-45.05h37.93
				v-5.73H1425.23z"/>
		</g>
	</g>
</g>
</svg>
