<?xml version="1.0" encoding="utf-8"?>
<!-- Generator: Adobe Illustrator 23.1.0, SVG Export Plug-In . SVG Version: 6.00 Build 0)  -->
<svg version="1.1" id="Shape_1_1_" xmlns="http://www.w3.org/2000/svg" xmlns:xlink="http://www.w3.org/1999/xlink" x="0px" y="0px"
	 viewBox="0 0 415 421" style="enable-background:new 0 0 415 421;" xml:space="preserve">
<style type="text/css">
	.st0{fill:#F47265;}
</style>
<g id="Shape_1">
	<g>
		<path class="st0" d="M97.03,53.82c-2.57,15.59-11.24,67.48-20.06,120l73.65-17.89L176.65,0.15H73.22l-0.2,0.78
			C84.36,3.7,102.27,21.98,97.03,53.82z M327.3,158.91c-2.48,14.76-4.13,32.93-37.26,51.61c-11.63,6.56-25.27,11.91-25.27,11.91
			l11.94-73.27l-75.81,18.65c-2.07,12.81-3.98,25.36-5.54,37.01c-6.49,48.37-33.49,67.36-66.86,83.43l17.89-107.03l-73.72,18.14
			C65.02,244.92,58,286.47,55.68,299.7c-5.37,30.72-7.18,73.81-54.86,120.48l1.55,0.63c0,0,182.72-92.37,276.54-139.77
			c93.81-47.39,112.35-83.93,119.79-130.54c2.1-13.19,3.77-23.7,5.21-32.64l-72.83,17.92C329.48,145.57,328.11,154.06,327.3,158.91z
			 M347.9,0.55c-44.71,0-150.12,0-150.12,0l-0.46,0.66c19.73,11.08,27.77,24.74,22.37,57.98c-3.26,20.04-9.07,51.28-14.59,83.52
			l75.67-18.38l11.15-68.41c0,0,15.05,0.07,26.2,0.07s26.32,7.74,22.81,23.64c-1.44,6.52-3.57,18.55-5.76,31.48l72.75-17.67
			c1.72-10.16,3.39-19.48,5.65-31.56C418.97,32.97,394.78,0.55,347.9,0.55z"/>
	</g>
</g>
</svg>
