<?xml version="1.0" encoding="utf-8"?>
<!-- Generator: Adobe Illustrator 23.1.0, SVG Export Plug-In . SVG Version: 6.00 Build 0)  -->
<svg version="1.1" id="Layer_1" xmlns="http://www.w3.org/2000/svg" xmlns:xlink="http://www.w3.org/1999/xlink" x="0px" y="0px"
	 viewBox="0 0 512 91.6" style="enable-background:new 0 0 512 91.6;" xml:space="preserve">
<style type="text/css">
	.st0{enable-background:new    ;}
	.st1{fill:#CF382E;}
	.st2{fill-rule:evenodd;clip-rule:evenodd;fill:#FFFFFF;}
</style>
<g id="Shape_1_copy_1_" class="st0">
	<g id="Shape_1_copy">
		<g>
			<path d="M54.9,3.8c-13.5,0-30.5,0-30.5,0L-0.2,62.9c0,0,14,0.5,31.7,0.5s24.6-4.3,30.3-17.3c5.7-12.9,8.2-19,10.7-25.6
				C78.5,4.7,68.3,3.8,54.9,3.8z M53.1,20.2C52.5,21.8,41,49.7,39.7,52.6c-1.3,2.9-3.9,5.5-9.9,5.5c-6,0-7.9-0.1-7.9-0.1L43.7,4.5
				c0,0,8.8,10.6,9.5,11.4C54,16.7,53.7,18.6,53.1,20.2z M192.3,5.2l-15.5,40.6l-7.9-40.6h-21.5l-22.2,59.5h13.1l11-29.1l3-20.7
				l8,49.7h22.3l21.8-59.3C204.4,5.2,192.3,5.2,192.3,5.2z M121,5.3L96.3,36.7l6.9-13.6l-2.2-17.8H84.2l3.3,40.4l-6.9,18.5l17.2,0.1
				l7.2-18.5l33.2-40.5C138.2,5.3,121,5.3,121,5.3z M436.4,13h27.7l2.7-7.8h-48.1l-2.8,7.9h14.9l-19.2,51.5h18.2
				c0,0,12.7-34.2,13.5-36.6c0.8-2.4,0.7-4.2-0.4-5.6C442,21,436.4,13,436.4,13z M511.7,5.1H474l-22.2,59.4h39.5l2.5-7.8H473
				l6.6-18.6h18.3l2.8-7.6h-18.4l2-5.5l-8-11.5h32.3L511.7,5.1z M368.5,64.7h17.6l22.4-59.6h-18L368.5,64.7z M194,64.7l21.3,0.5
				l13.1-20.8c0,0,10.1,11.7,12.2,14.1c2.1,2.4,0.3,6.6,0.3,6.6l21.1,0l10.2-61.3h-37L194,64.7z M246.3,41.5l-16.4,0l23.5-36.5
				L246.3,41.5z M358.6,5.2L318.9,54l-3.9-48.7h-20.2l-22,59.3h15.7l8.6-23.4l2.8-25.5l3.4,48.9h23l40-48.8l-16.1,25.5l-8.6,23.5
				h15.6l22.1-59.6L358.6,5.2L358.6,5.2z"/>
		</g>
	</g>
</g>
<g id="Shape_1_1_" class="st0">
	<g id="Shape_1">
		<g>
			<path class="st1" d="M121.3,1.7L96.6,33.1l6.9-13.6l-2.2-17.8H84.4l3.3,40.4l-6.9,18.5L98,60.8l7.2-18.5l33.2-40.5H121.3z
				 M192.5,1.6L177,42.3l-7.9-40.6h-21.5l-22.2,59.5h13.1l11-29.1l3-20.7l8,49.7h22.3l21.8-59.3H192.5z M55.1,0.3
				c-13.5,0-30.5,0-30.5,0L0.1,59.4c0,0,14,0.5,31.7,0.5S56.3,55.6,62,42.6c5.7-12.9,8.2-19,10.7-25.6C78.7,1.2,68.6,0.3,55.1,0.3z
				 M53.4,16.7C52.7,18.3,41.2,46.2,39.9,49c-1.3,2.9-3.9,5.5-9.9,5.5c-6,0-7.9-0.1-7.9-0.1L44,0.9c0,0,8.8,10.6,9.5,11.4
				C54.3,13.1,54,15.1,53.4,16.7z M512,1.5h-37.7L452,60.9h39.5l2.5-7.8h-20.9l6.6-18.6h18.3l2.8-7.6h-18.4l2-5.5l-8-11.5h32.3
				L512,1.5z M368.8,61.1h17.6l22.4-59.6h-18L368.8,61.1z M436.6,9.5h27.7l2.7-7.8H419l-2.8,7.9h14.9l-19.2,51.5h18.2
				c0,0,12.7-34.2,13.5-36.6c0.8-2.4,0.7-4.2-0.4-5.6C442.3,17.4,436.6,9.5,436.6,9.5z M194.3,61.2l21.3,0.5l13.1-20.8
				c0,0,10.1,11.7,12.2,14.1c2.1,2.4,0.3,6.6,0.3,6.6l21.1,0l10.2-61.3h-37L194.3,61.2z M246.6,38l-16.4,0l23.5-36.5L246.6,38z
				 M358.9,1.6l-39.8,48.8l-3.9-48.7H295l-22,59.3h15.7l8.6-23.4l2.8-25.5l3.4,48.9h23l40-48.8l-16.1,25.5l-8.6,23.5h15.6l22.1-59.6
				L358.9,1.6L358.9,1.6z"/>
		</g>
	</g>
</g>
<g id="ENTERTAINMENT_1_" class="st0">
	<g id="ENTERTAINMENT">
		<g>
			<path class="st2" d="M6.1,84.1h18.3v-1.9H6.1v-5.6h19.7v-1.9H0.9v17.1H26v-1.9H6.1V84.1z M65.2,85.1c0,0.4,0,0.8,0,1.3
				s0.1,1.1,0.1,1.7c0,0.4,0.1,0.7,0.2,1.1c-0.4-0.3-0.8-0.7-1.2-1c-0.7-0.6-1.4-1.1-2-1.5c-0.6-0.4-1.2-0.8-1.6-1.1l-16.6-11H38
				v17.1h5.2V82c0-0.3,0-0.7-0.1-1.3c0-0.5-0.1-1.2-0.2-1.9c-0.1-0.5-0.1-1-0.2-1.6c0.8,0.6,1.6,1.2,2.2,1.7
				c0.9,0.7,1.7,1.2,2.3,1.7c0.7,0.5,1.4,0.9,2,1.4l14.8,9.8h6.2V74.6h-5.2L65.2,85.1L65.2,85.1z M81.7,76.6h12.9v15.2h5.2V76.6
				h12.8v-1.9H81.7L81.7,76.6L81.7,76.6z M129,84.1h18.3v-1.9H129v-5.6h19.7v-1.9h-24.9v17.1h25.1v-1.9H129L129,84.1L129,84.1z
				 M182.8,84.4c2-0.4,3.6-1.1,4.6-1.8s1.5-1.7,1.5-2.7s-0.5-1.9-1.5-2.7c-1-0.8-2.5-1.4-4.6-1.9c-2.1-0.5-4.7-0.7-7.9-0.7h-14v17.1
				h5.2v-6.6h8.8c0.3,0,0.6,0,0.9,0l8.5,6.7h6l-9.2-7C181.8,84.6,182.3,84.5,182.8,84.4z M174.7,83.2h-8.6v-6.6h8.5
				c2.2,0,3.9,0.1,5.2,0.4c1.3,0.3,2.3,0.7,2.9,1.2c0.6,0.5,0.9,1.1,0.9,1.8c0,0.7-0.3,1.2-0.9,1.7c-0.6,0.5-1.6,0.9-2.9,1.1
				C178.6,83,176.9,83.2,174.7,83.2z M198.3,76.6h12.9v15.2h5.2V76.6h12.8v-1.9h-30.9L198.3,76.6L198.3,76.6z M247,74.6l-14.8,17.1
				h5.5l4-4.8h16.8l4.1,4.8h5.5l-15-17.1L247,74.6L247,74.6z M256.9,85.1h-13.6l2.9-3.5c0.5-0.6,1.1-1.4,1.8-2.3
				c0.6-0.8,1.3-1.8,2.1-2.9c0.8,1.1,1.5,2.1,2.1,2.9c0.7,0.9,1.3,1.7,1.8,2.4L256.9,85.1z M278.7,91.8h5.2V74.6h-5.2V91.8z
				 M325.4,85.1c0,0.4,0,0.8,0,1.3s0.1,1.1,0.1,1.7c0,0.4,0.1,0.7,0.2,1.1c-0.4-0.3-0.8-0.7-1.2-1c-0.7-0.6-1.4-1.1-2-1.5
				c-0.6-0.4-1.2-0.8-1.6-1.1l-16.6-11h-6.1v17.1h5.2V82c0-0.3,0-0.7-0.1-1.3c0-0.5-0.1-1.2-0.2-1.9c-0.1-0.5-0.1-1-0.2-1.6
				c0.8,0.6,1.6,1.2,2.2,1.7c0.9,0.7,1.7,1.2,2.3,1.7c0.7,0.5,1.4,0.9,2,1.4l14.8,9.8h6.2V74.6h-5.2L325.4,85.1L325.4,85.1z
				 M368.4,85.4c-0.2,0.3-0.5,0.6-0.8,1c-0.3,0.4-0.6,0.8-1,1.3c-0.3,0.4-0.7,0.9-1,1.3c-0.1,0.1-0.2,0.2-0.2,0.3
				c-0.1-0.1-0.2-0.3-0.3-0.4c-0.3-0.4-0.6-0.9-1-1.3c-0.3-0.4-0.7-0.9-1-1.2s-0.6-0.7-0.8-0.9l-10.1-10.8h-7.4v17.1h5V82
				c0-0.4,0-0.8,0-1.3c0-0.5,0-1-0.1-1.5s0-1-0.1-1.5c0-0.2,0-0.5,0-0.7c0.3,0.3,0.5,0.7,0.8,1c0.4,0.6,0.9,1.1,1.3,1.6
				c0.4,0.5,0.8,1,1.1,1.4c0.3,0.4,0.6,0.7,0.9,1l9.3,9.8h4.5l9.1-9.8c0.3-0.3,0.6-0.6,0.9-1c0.4-0.4,0.8-0.9,1.2-1.4
				c0.4-0.5,0.8-1,1.3-1.6c0.3-0.3,0.5-0.7,0.8-1c0,0.3,0,0.6,0,0.9c0,0.5-0.1,1-0.1,1.5s0,1-0.1,1.4c0,0.5,0,0.9,0,1.2v9.8h5.1
				V74.6h-7.4L368.4,85.4z M405.2,84.1h18.3v-1.9h-18.3v-5.6h19.7v-1.9H400v17.1h25.1v-1.9h-19.9V84.1z M464.4,85.1
				c0,0.4,0,0.8,0,1.3s0.1,1.1,0.1,1.7c0,0.4,0.1,0.7,0.2,1.1c-0.4-0.3-0.8-0.7-1.2-1c-0.7-0.6-1.4-1.1-2-1.5
				c-0.6-0.4-1.2-0.8-1.6-1.1l-16.6-11h-6.1v17.1h5.2V82c0-0.3,0-0.7-0.1-1.3c0-0.5-0.1-1.2-0.2-1.9c-0.1-0.5-0.1-1-0.2-1.6
				c0.8,0.6,1.6,1.2,2.2,1.7c0.9,0.7,1.7,1.2,2.3,1.7c0.7,0.5,1.4,0.9,2,1.4l14.8,9.8h6.2V74.6h-5.2L464.4,85.1L464.4,85.1z
				 M480.8,74.6v1.9h12.9v15.2h5.2V76.6h12.8v-1.9L480.8,74.6L480.8,74.6z"/>
		</g>
	</g>
</g>
</svg>
