<?xml version="1.0" encoding="utf-8"?>
<!-- Generator: Adobe Illustrator 23.1.0, SVG Export Plug-In . SVG Version: 6.00 Build 0)  -->
<svg version="1.1" id="Shape_1_1_" xmlns="http://www.w3.org/2000/svg" xmlns:xlink="http://www.w3.org/1999/xlink" x="0px" y="0px"
	 viewBox="0 0 724 712" style="enable-background:new 0 0 724 712;" xml:space="preserve">
<style type="text/css">
	.st0{fill:#EE1B24;}
</style>
<g id="Shape_1">
	<g>
		<path class="st0" d="M294.7,572.14l43.31-7.37l-4.76-0.82c-2.53-7.29-2.08-17.34-2.08-17.34l-45.77-0.74
			c0.3,13.54,1.94,22.33,1.94,22.33l6.55-0.37L294.7,572.14z M233.75,454.78l53.29,25.82c3.72-5.36,11.91-12.06,11.91-12.06
			l-36.62-43.83C246.03,436.84,233.75,454.78,233.75,454.78z M286.37,578.91c0,0-1.56-4.24-1.86-7.37l-58.12,0.67
			c0.74,7.89,3.2,16.6,3.2,16.6L286.37,578.91z M242.31,532.33c-0.37,2.08-0.22,5.43-0.22,5.43l111.78,7.14L242.31,532.33z
			 M184.55,382.83l56.75,0.3l-57.87-69.23L184.55,382.83z M368.31,525.48l7-103.3c-23.67-0.67-33.71,1.64-33.71,1.64l-5.21-21.66
			C318.29,405.66,304,413.4,304,413.4l26.42,49.86c8.48-4.84,18.46-6.4,18.46-6.4l5.36,17.71c-19.28,3.8-32.37,13.99-32.37,13.99
			l24.49,29.47l-1.71,1.79l-37.14-18.53c-13.17,16.82-15.11,31.48-15.11,31.48l45.7,5.51c6.92-18.08,28.21-19.57,28.21-19.57
			L368.31,525.48z M214.47,527.9l-98.61-10.77v11.81l98.23,6.38C214.09,535.33,213.99,531.04,214.47,527.9z M183.22,429.57
			l46.02,22.87v-55.83h-46.02V429.57z M294.55,611.06c-9.23-8.86-13.62-24.78-13.62-24.78l-56.78,10.42
			c4.54,20.76,16.97,37.43,16.97,37.43L294.55,611.06z M499.68,375.51h52.72V310.4h-6.45L499.68,375.51z M626.31,186.43v-67.36
			l7.88-7.88V74.54h15.66v2.76l-4.4,6.45v79.64l61.42-86.81c0,0,0-13.51,0-23.14c0-24.26-20.88-32.14-20.88-32.14l4.2-6.86
			c0,0-5.22-3.28-14.95-3.28c-5.12,0-81.59,0-81.59,0l-22.52,56.82v144.85l-8.5,13.51l-0.31,52.31l65.93-92.24H626.31z
			 M406.04,471.62c-12.03-8.18-30.17-8.61-30.17-8.61l-2.5,45.01c9.04,0.06,13.5,3.24,13.5,3.24L406.04,471.62z M452.6,375.99h22.62
			l-5.02,8.09h15.76l47.09-65.11h-19.04l5.02-8.77h-3.11v-90.28h36.33v-64.92h-14.39L452.6,375.99z M563.25,5.65v55.59l21.8-55.59
			H563.25z M460.6,517.42l54.8-14.5c-4.4-21.27-23.42-43.74-23.42-43.74l-48.5,30.78C453.59,499.24,460.6,517.42,460.6,517.42z
			 M563.48,626.31v-40.97l-43.35-4.1c-1.14,9.81-4.67,16.1-4.67,16.1l0.29,10.58L563.48,626.31z M545.21,402.12
			c-18.36,0-29.54,10.74-32.83,22.17c-3.29,11.43-1.99,18.36-1.99,18.36l61.93-40.54C572.32,402.12,563.57,402.12,545.21,402.12z
			 M263.74,405.81l49.27,60.88c1.34-1.49,6.1-4.09,6.1-4.09l-35.43-68.99C271.04,398.14,263.74,405.81,263.74,405.81z
			 M487.54,601.73c5.7-10.51,7.47-22.1,7.47-22.1l-54.13-6.97c3.73-12.08,1.87-29.77,1.87-29.77l-44.6,4.13
			c4.42,8.06,0.1,20.24,0.1,20.24L487.54,601.73z M653.95,181.62h-15.97l-67.15,93.26v100.83h18.94l44.43-32.86v-76.57h2.97
			l10.24,67.05l57.43-41.77l-8.29-46.07c7.27,0,19.76-9.93,19.76-35.73s0-138.4,0-138.4l-62.34,87.32V181.62z M399.14,537.77
			l42.57-12.15c-5.86-14.84-17.35-28.52-17.35-28.52l56.99-39.7c-12.15-15.57-27.06-25.84-27.06-25.84l-26.45,36.52
			c-3.05-2.57-9.47-5.62-9.47-5.62l-8.25,14.6c3.48,1.71,8,5.13,8,5.13l-3.05,3.54c-3.05-2.32-8.21-5.62-8.21-5.62l-19.98,40.06
			l27.96-18.35l-27.44,22.26C396.57,529.89,399.14,537.77,399.14,537.77z M518.23,530.88l-27.09,2.02l-0.44-15.04L387.8,544.96
			l71.15-6.42c1.14,17.68-2.99,28.5-2.99,28.5l59.9,5.37C520.96,552.61,518.23,530.88,518.23,530.88z M518.79,512.46
			c2.48,8.29,4,19.34,4,19.34l6.19-0.76c1.43,25.53-2.86,43.45-2.86,43.45l42.88,4.67V523.7l-5.34,0.1v-24.58L518.79,512.46z
			 M628.66,354.93l-43,32.14h43V354.93z M651.39,345.41l6.86,41.26h64.9l-14.23-82.51L651.39,345.41z M660.4,402.53h-47.6v78.11
			l47.6-13.21V402.53z M110.04,510.65l99.76,11.34c2.1-17.63,8.58-31.35,8.58-31.35v-31.54l-46.12-22.87v76.32H157.3v-84.22
			l-47.26-22.01V510.65z M214.85,592.21c-1.62-4.86-3.72-18.29-3.72-18.29L113,574.58l0.19,35.82l46.78-8.77v-25.63h15.44
			l-0.29,23.06L214.85,592.21z M308.84,480.6c-5.21,3.35-11.16,9.9-11.16,9.9l35.35,18.38L308.84,480.6z M225.11,524.44l58,6.75
			c3.51-18.5,14.61-31.63,14.61-31.63l-52.54-26.08C228.9,495.86,225.11,524.44,225.11,524.44z M168.26,396.8h-47.16v2.76
			l47.16,23.06V396.8z M665.82,466.31l48.83-13.21l9.32-50.88h-48.22L665.82,466.31z M218.18,614.88c-4-8.1-6.57-18.48-6.57-18.48
			l-53.83,9.91v64.03l60.41-26.87V614.88z M274.68,544.23l-64.23-3.05c-1.86,13.1,0.3,26.49,0.3,26.49l64.08-0.52
			C273.42,560.38,274.68,544.23,274.68,544.23z M508.01,149.42V69.56h37.05V6.08h-99.82l-0.72,362.75l84.71-219.41L508.01,149.42z
			 M380.66,625.28l-6.18-39c-18.83,4.39-34.16-9.75-36.62-18.53l-44.13,7.52c4.32,14.21,12.95,24.26,12.95,24.26l37.36-16.6
			l2.46,2.01l-13.62,13.02L301.1,613.3c4.47,6.1,11.01,9.3,11.01,9.3l9.53-9.38c16,13.02,36.99,13.69,36.99,13.69l3.13-15.03
			l2.75,0.45l0.52,14.81l2.53,0.07l2.9,53.51c9.6,0.15,22.48-2.98,22.48-2.98l-9.15-52.76L380.66,625.28z M400.83,597.59l1.41-1.04
			l17.56,10.64c0,0,10.27-8.04,16.45-21.66l-38.55-15.26c0,0-7.37,10.94-15.93,14.14l-3.8-5.66l10.12,51.87
			c0,0,8.26-1.79,13.47-4.69l7,11.68c0,0-4.09,3.13-12.65,5.06l8.78,52.54c0,0,15.7-1.93,30.51-9.75l-9.45-19.5
			c0,0,6.92-2.9,16.97-10.49L400.83,597.59z M363.99,638.52l-0.97-14.44L359.3,638C360.72,638.6,363.99,638.52,363.99,638.52z
			 M424.82,623.79l6.01-5.36l-17.88-10.58L424.82,623.79z M357.29,657.73l-13.69,52.76c8.48,1.86,20.54,1.19,20.54,1.19l-2.6-53.58
			L357.29,657.73z M183.31,698.25h46.02v-53.74l-46.02,20.01V698.25z M511.02,615.58l-51.08-19.75c-4.03,11.1-16.11,22.2-16.11,22.2
			l48.43,27.02C502.86,634.35,511.02,615.58,511.02,615.58z M313.9,622.97l-11.61,12.5c-6.47-3.65-10.79-10.27-10.79-10.27
			l-56.04,28.73c9.75,16.52,31.26,30.14,31.26,30.14l13.92-17.19c23.59,19.8,59.69,24.26,59.69,24.26l13.62-52.02
			C326.55,635.62,313.9,622.97,313.9,622.97z M612.74,692.44h47.74v-23.82l-47.74-18.96V692.44z M670.19,687.58h46.4v-85.75
			l-46.4-5.14V687.58z M654.95,595.06l-47.45-4.86v53.16l47.45,18.48V595.06z M704.21,512.89l0.52-2.47l-5.25,0.24l9.53-51.28
			l-48.42,13.34l-1.73,12.21h-4.24v-10.74l-47.29,13.43v36.9l5.76-0.78l0.14,59.8l47.16,5.24v-27.73h15.72v29.44l45.54,4.95
			c0,0,0-30.77,0-58.02S704.21,512.89,704.21,512.89z M121.47,697.68h46.59v-27.06l-46.59,20.77V697.68z M447.76,641.22l31.34,43.62
			c11.2-6.58,23.77-22.01,23.77-22.01l-48.72-27.41C452.47,637.29,447.76,641.22,447.76,641.22z M546.04,692.44
			c12.1,0,18.58,0,18.58,0l-54.31-31.06C511.27,683.19,528.89,692.44,546.04,692.44z M521.13,444.05v53.01l3.29,8.58l45.04-12.99
			v-41.32h31.44v-49.28h-15.16L521.13,444.05z M386.08,398.92l-3.8,54.91c21.63,1.66,31.62,8.56,31.62,8.56l11.65-27.69
			c2.97,1.31,11.77,6.06,11.77,6.06l31.26-44.33c-12.36-8.68-25.32-12.84-25.32-12.84l-12.01,27.1
			C408.07,399.04,386.08,398.92,386.08,398.92z M569.39,642.99v-9.91l-48.31-18.77v46.11l55.26,31.82h24.2v-47.16l-4.76-2.1H569.39z
			 M254.6,328.22l-0.2-108.42l32.28-0.2l-3.76-10.96h2.74l-0.51-64.97H261.6l4.87,11.07l-12.39-0.2v-43.04l-31.37-100.2l-31.88-0.2
			l0.2,193.49L254.6,328.22z M254.6,64.28h36.55V0.63l-66.9,0.1l30.15,99.38L254.6,64.28z M86.7,104.15h3.96l6.29,96.76l67.26,81.11
			l-9.35-131.29L80.22,5.95H33.28L25.19,113.5l55.57,66.9L86.7,104.15z M151.3,611.55l-46.5,8.19v76.22l46.5-20.48V611.55z
			 M237.34,369.84h5.48l-0.3-46.09l-63.25-124.86l0.81,101.62L237.34,369.84z M332.78,380.96h49.73l13.51-188.75V80.34h7.97
			l4.32-63.5H297.65v64.58h35.13V380.96z M390.48,372.86h12.16L403.59,186L390.48,372.86z M436.79,11.47h-22.12l-4.32,64.03h26.62
			L436.79,11.47z M155.94,10.98H92.99l73.2,142.8L155.94,10.98z M45.64,653.74H0.17v50.06c0,0,43.78,0,61.11,0s30.8-7.18,30.8-24.59
			s0-57.24,0-57.24l-46.44,7.98V653.74z M22.19,572.87c14.48,0,180.75-2.1,180.75-2.1c-2.38-12.77-0.1-29.34-0.1-29.34L0.47,529.23
			c0,0-0.1,4.95-0.1,18.58S7.71,572.87,22.19,572.87z M51.36,624.56l45.87-8.55l0.24-37.89l-46.12,0.16V624.56z M77.67,317.14h31.21
			l5.2,65.69h60.65l-5.65-86.79l-66.89-80.7l1.64,37.3h-22l3.72-57.81l-56.04-67.62l-15.9,220.25l59.46,28.09L77.67,317.14z
			 M52.78,451.2h28.77v-48.69c0,0-26.2,0-47.74,0c-21.53,0-28.2,12.67-28.2,27.25c0,13.05,0,67.93,0,67.93l47.16,6.1V451.2z
			 M10.85,504.08v18.58l87.37,5.53c-2.19-3.24-11.34-10.86-22.68-10.86s-16.86,0-16.86,0v-7.53L10.85,504.08z M67.21,380.4
			L8.79,351.04l-2.52,35.01h60.94V380.4z"/>
	</g>
</g>
</svg>
