<?xml version="1.0" encoding="utf-8"?>
<!-- Generator: Adobe Illustrator 23.1.0, SVG Export Plug-In . SVG Version: 6.00 Build 0)  -->
<svg version="1.1" id="Shape_1_1_" xmlns="http://www.w3.org/2000/svg" xmlns:xlink="http://www.w3.org/1999/xlink" x="0px" y="0px"
	 viewBox="0 0 512 503.5" style="enable-background:new 0 0 512 503.5;" xml:space="preserve">
<style type="text/css">
	.st0{fill:#EE1B24;}
</style>
<g id="Shape_1">
	<g>
		<path class="st0" d="M208.4,404.7l30.6-5.2l-3.4-0.6c-1.8-5.2-1.5-12.3-1.5-12.3l-32.4-0.5c0.2,9.6,1.4,15.8,1.4,15.8l4.6-0.3
			L208.4,404.7z M165.3,321.7l37.7,18.3c2.6-3.8,8.4-8.5,8.4-8.5l-25.9-31C174,309,165.3,321.7,165.3,321.7z M202.5,409.5
			c0,0-1.1-3-1.3-5.2l-41.1,0.5c0.5,5.6,2.3,11.7,2.3,11.7L202.5,409.5z M171.4,376.5c-0.3,1.5-0.2,3.8-0.2,3.8l79,5L171.4,376.5z
			 M130.5,270.8l40.1,0.2l-40.9-49L130.5,270.8z M260.5,371.7l5-73.1c-16.7-0.5-23.8,1.2-23.8,1.2l-3.7-15.3
			c-12.8,2.5-22.9,7.9-22.9,7.9l18.7,35.3c6-3.4,13.1-4.5,13.1-4.5l3.8,12.5c-13.6,2.7-22.9,9.9-22.9,9.9l17.3,20.8l-1.2,1.3
			l-26.3-13.1c-9.3,11.9-10.7,22.3-10.7,22.3l32.3,3.9c4.9-12.8,19.9-13.8,19.9-13.8L260.5,371.7z M151.7,373.4L82,365.8v8.4
			l69.5,4.5C151.4,378.6,151.3,375.6,151.7,373.4z M129.6,303.8l32.5,16.2v-39.5h-32.5V303.8z M208.3,432.2
			c-6.5-6.3-9.6-17.5-9.6-17.5l-40.2,7.4c3.2,14.7,12,26.5,12,26.5L208.3,432.2z M353.4,265.6h37.3v-46h-4.6L353.4,265.6z
			 M442.9,131.9V84.3l5.6-5.6V52.8h11.1v2l-3.1,4.6v56.3l43.4-61.4c0,0,0-9.6,0-16.4c0-17.2-14.8-22.7-14.8-22.7l3-4.9
			c0,0-3.7-2.3-10.6-2.3c-3.6,0-57.7,0-57.7,0l-15.9,40.2v102.4l-6,9.6l-0.2,37l46.6-65.2L442.9,131.9L442.9,131.9z M287.2,333.6
			c-8.5-5.8-21.3-6.1-21.3-6.1l-1.8,31.8c6.4,0,9.5,2.3,9.5,2.3L287.2,333.6z M320.1,266h16l-3.6,5.7h11.1l33.3-46h-13.5l3.6-6.2
			h-2.2v-63.8h25.7v-45.9h-10.2L320.1,266z M398.3,4.1v39.3l15.4-39.3C413.8,4.1,398.3,4.1,398.3,4.1z M325.7,366l38.8-10.3
			c-3.1-15-16.6-30.9-16.6-30.9l-34.3,21.8C320.8,353.1,325.7,366,325.7,366z M398.5,443v-29l-30.7-2.9c-0.8,6.9-3.3,11.4-3.3,11.4
			l0.2,7.5L398.5,443z M385.6,284.4c-13,0-20.9,7.6-23.2,15.7c-2.3,8.1-1.4,13-1.4,13l43.8-28.7
			C404.8,284.4,398.6,284.4,385.6,284.4z M186.5,287l34.8,43.1c0.9-1.1,4.3-2.9,4.3-2.9l-25.1-48.8C191.7,281.6,186.5,287,186.5,287
			z M344.8,425.6c4-7.4,5.3-15.6,5.3-15.6l-38.3-4.9c2.6-8.5,1.3-21.1,1.3-21.1l-31.5,2.9c3.1,5.7,0.1,14.3,0.1,14.3L344.8,425.6z
			 M462.5,128.5h-11.3l-47.5,66v71.3h13.4l31.4-23.2v-54.1h2.1l7.2,47.4l40.6-29.5l-5.9-32.6c5.1,0,14-7,14-25.3s0-97.9,0-97.9
			l-44.1,61.8L462.5,128.5L462.5,128.5z M282.3,380.4l30.1-8.6c-4.1-10.5-12.3-20.2-12.3-20.2l40.3-28.1
			c-8.6-11-19.1-18.3-19.1-18.3l-18.7,25.8c-2.2-1.8-6.7-4-6.7-4l-5.8,10.3c2.5,1.2,5.7,3.6,5.7,3.6l-2.2,2.5c-2.2-1.6-5.8-4-5.8-4
			l-14.1,28.3l19.8-13L274,370.7C280.5,374.8,282.3,380.4,282.3,380.4z M366.5,375.5l-19.2,1.4l-0.3-10.6l-72.8,19.2l50.3-4.5
			c0.8,12.5-2.1,20.2-2.1,20.2l42.4,3.8C368.4,390.9,366.5,375.5,366.5,375.5z M366.9,362.5c1.8,5.9,2.8,13.7,2.8,13.7l4.4-0.5
			c1,18.1-2,30.7-2,30.7l30.3,3.3v-39.2l-3.8,0.1v-17.4L366.9,362.5z M444.6,251.1l-30.4,22.7h30.4V251.1z M460.7,244.3l4.9,29.2
			h45.9l-10.1-58.3L460.7,244.3z M467,284.7h-33.7V340l33.7-9.3V284.7z M77.8,361.2l70.5,8c1.5-12.5,6.1-22.2,6.1-22.2v-22.3
			l-32.6-16.2v54h-10.6V303l-33.4-15.6C77.8,287.4,77.8,361.2,77.8,361.2z M152,418.9c-1.1-3.4-2.6-12.9-2.6-12.9l-69.4,0.5
			l0.1,25.3l33.1-6.2v-18.1h10.9l-0.2,16.3L152,418.9z M218.4,339.9c-3.7,2.4-7.9,7-7.9,7l25,13L218.4,339.9z M159.2,370.9l41,4.8
			c2.5-13.1,10.3-22.4,10.3-22.4l-37.2-18.4C161.9,350.7,159.2,370.9,159.2,370.9z M119,280.7H85.7v2l33.4,16.3V280.7z M470.9,329.8
			l34.5-9.3l6.6-36h-34.1L470.9,329.8z M154.3,434.9c-2.8-5.7-4.6-13.1-4.6-13.1l-38.1,7v45.3l42.7-19L154.3,434.9L154.3,434.9z
			 M194.3,384.9l-45.4-2.2c-1.3,9.3,0.2,18.7,0.2,18.7l45.3-0.4C193.4,396.4,194.3,384.9,194.3,384.9z M359.3,105.7V49.3h26.2V4.4
			h-70.6l-0.5,256.5l59.9-155.2L359.3,105.7z M269.2,442.2l-4.4-27.6c-13.3,3.1-24.2-6.9-25.9-13.1l-31.2,5.3
			c3.1,10,9.2,17.2,9.2,17.2l26.4-11.7l1.7,1.4l-9.6,9.2L213,433.8c3.2,4.3,7.8,6.6,7.8,6.6l6.7-6.6c11.3,9.2,26.2,9.7,26.2,9.7
			l2.2-10.6l1.9,0.3l0.4,10.5l1.8,0l2.1,37.8c6.8,0.1,15.9-2.1,15.9-2.1l-6.5-37.3L269.2,442.2z M283.5,422.7l1-0.7l12.4,7.5
			c0,0,7.3-5.7,11.6-15.3l-27.3-10.8c0,0-5.2,7.7-11.3,10l-2.7-4l7.2,36.7c0,0,5.8-1.3,9.5-3.3l5,8.3c0,0-2.9,2.2-8.9,3.6l6.2,37.2
			c0,0,11.1-1.4,21.6-6.9l-6.7-13.8c0,0,4.9-2.1,12-7.4L283.5,422.7z M257.4,451.6l-0.7-10.2l-2.6,9.8
			C255.1,451.7,257.4,451.6,257.4,451.6z M300.4,441.2l4.3-3.8l-12.6-7.5L300.4,441.2z M252.7,465.2l-9.7,37.3
			c6,1.3,14.5,0.8,14.5,0.8l-1.8-37.9L252.7,465.2z M129.7,493.8h32.5v-38L129.7,470V493.8z M361.4,435.4l-36.1-14
			c-2.8,7.8-11.4,15.7-11.4,15.7l34.2,19.1C355.6,448.7,361.4,435.4,361.4,435.4z M222,440.6l-8.2,8.8c-4.6-2.6-7.6-7.3-7.6-7.3
			l-39.6,20.3c6.9,11.7,22.1,21.3,22.1,21.3l9.8-12.2c16.7,14,42.2,17.2,42.2,17.2l9.6-36.8C230.9,449.6,222,440.6,222,440.6z
			 M433.3,489.7h33.8v-16.8l-33.8-13.4V489.7z M474,486.3h32.8v-60.6L474,422V486.3z M463.2,420.9l-33.6-3.4V455l33.6,13.1V420.9z
			 M498,362.8l0.4-1.7l-3.7,0.2l6.7-36.3l-34.2,9.4L466,343h-3v-7.6l-33.4,9.5V371l4.1-0.6l0.1,42.3l33.4,3.7v-19.6h11.1v20.8
			l32.2,3.5c0,0,0-21.8,0-41C510.4,360.8,498,362.8,498,362.8z M85.9,493.4h32.9v-19.1L85.9,489V493.4z M316.7,453.5l22.2,30.8
			c7.9-4.7,16.8-15.6,16.8-15.6l-34.5-19.4C320,450.7,316.7,453.5,316.7,453.5z M386.2,489.7c8.6,0,13.1,0,13.1,0l-38.4-22
			C361.6,483.2,374,489.7,386.2,489.7z M368.6,314.1v37.5l2.3,6.1l31.9-9.2v-29.2H425v-34.8h-10.7L368.6,314.1z M273,282.2
			l-2.7,38.8c15.3,1.2,22.4,6.1,22.4,6.1l8.2-19.6c2.1,0.9,8.3,4.3,8.3,4.3l22.1-31.3c-8.7-6.1-17.9-9.1-17.9-9.1l-8.5,19.2
			C288.6,282.3,273,282.2,273,282.2z M402.7,454.8v-7l-34.2-13.3v32.6l39.1,22.5h17.1v-33.4l-3.4-1.5L402.7,454.8L402.7,454.8z
			 M180.1,232.2l-0.1-76.7l22.8-0.1l-2.7-7.8h1.9l-0.4-45.9H185l3.4,7.8l-8.8-0.1V78.9L157.5,8.1L135,7.9l0.1,136.8L180.1,232.2z
			 M180.1,45.5h25.8v-45l-47.3,0.1l21.3,70.3L180.1,45.5z M61.3,73.7h2.8l4.4,68.4l47.6,57.4l-6.6-92.8L56.7,4.3H23.6l-5.7,76.1
			l39.3,47.3L61.3,73.7z M107,432.5l-32.9,5.8v53.9l32.9-14.5V432.5z M167.9,261.6h3.9l-0.2-32.6l-44.7-88.3l0.6,71.9L167.9,261.6z
			 M235.4,269.5h35.2l9.6-133.5V56.9h5.6l3.1-44.9h-78.3v45.7h24.8V269.5z M276.2,263.7h8.6l0.7-132.1L276.2,263.7z M308.9,8.2
			h-15.6l-3.1,45.3H309L308.9,8.2z M110.3,7.8H65.8l51.8,101L110.3,7.8z M32.3,462.4H0.1v35.4c0,0,31,0,43.2,0s21.8-5.1,21.8-17.4
			c0-12.3,0-40.5,0-40.5l-32.8,5.6C32.3,445.5,32.3,462.4,32.3,462.4z M15.7,405.2c10.2,0,127.8-1.5,127.8-1.5
			c-1.7-9-0.1-20.7-0.1-20.7L0.4,374.3c0,0-0.1,3.5-0.1,13.1C0.3,397.1,5.5,405.2,15.7,405.2z M36.3,441.7l32.4-6l0.2-26.8L36.3,409
			L36.3,441.7L36.3,441.7z M54.9,224.3H77l3.7,46.5h42.9l-4-61.4l-47.3-57.1l1.2,26.4H57.9l2.6-40.9L20.9,90L9.6,245.8l42,19.9
			L54.9,224.3z M37.3,319.1h20.3v-34.4c0,0-18.5,0-33.8,0C8.7,284.7,4,293.7,4,304c0,9.2,0,48,0,48l33.4,4.3L37.3,319.1L37.3,319.1z
			 M7.7,356.5v13.1l61.8,3.9c-1.5-2.3-8-7.7-16-7.7s-11.9,0-11.9,0v-5.3L7.7,356.5z M47.5,269.1L6.2,248.3l-1.8,24.8h43.1V269.1z"/>
	</g>
</g>
</svg>
