<?xml version="1.0" encoding="utf-8"?>
<!-- Generator: Adobe Illustrator 23.1.0, SVG Export Plug-In . SVG Version: 6.00 Build 0)  -->
<svg version="1.1" xmlns="http://www.w3.org/2000/svg" xmlns:xlink="http://www.w3.org/1999/xlink" x="0px" y="0px"
	 viewBox="0 0 739 1086" style="enable-background:new 0 0 739 1086;" xml:space="preserve">
<style type="text/css">
	.st0{enable-background:new    ;}
	.st1{fill:#676766;}
	.st2{fill-rule:evenodd;clip-rule:evenodd;fill:#FFFFFF;}
	.st3{fill-rule:evenodd;clip-rule:evenodd;fill:#D42027;}
</style>
<g id="Ellipse_1_1_" class="st0">
	<g id="Ellipse_1">
		<g>
			<path class="st1" d="M369.64,674.41c-134.53,0-244.79-103.95-254.83-235.91l-28.17-5.49c7.39,149.91,131.26,269.18,283,269.18
				c151.43,0,275.11-118.79,282.96-268.27l-28.09,3.99C614.75,570.15,504.38,674.41,369.64,674.41z M388,163.93
				c127.01,9.02,228.36,110.83,236.64,238.05l-89.81-14.86l-14.94,32.68h212.45l-79.64-13.18
				c-6.21-146.24-123.22-263.77-269.25-270.78l-12.9-79.71V436.6l49.03-77.5L388,163.93z M208.53,387.11l-93.94,15.54
				c7.97-127.63,109.6-229.85,236.97-238.76l5.74-28.14C210.36,142.06,92.43,260.25,86.54,407.3l-75.52,12.5h212.45L208.53,387.11z"
				/>
		</g>
	</g>
</g>
<g id="Shape_1_1_" class="st0">
	<g id="Shape_1">
		<g>
			<path class="st2" d="M82.93,873.31l-19.19,100.2l-0.15,5.79l-20.1-105.84H0.55l52.54,211.83h10.66l52.08-211.98H82.93z
				 M159.47,873.15l-54.3,212.31h31.08l4.64-21.58h34.64l4.27,21.56h42.94l-54.11-212.29H159.47z M146.07,1039.72l12.51-58.21
				l0.65,0.07l11.51,58.14H146.07z M282.74,873.03h-40l0.23,211.96h74.01l9.03-29.56h-43.28V873.03z M340.74,873.03l0.23,211.96
				h39.88l-0.12-211.96H340.74z M451.36,873.15l-54.3,212.31h31.08l4.64-21.58h34.64l4.27,21.56h42.94l-54.11-212.29H451.36z
				 M437.96,1039.72l12.51-58.21l0.65,0.07l11.51,58.14H437.96z M589.41,968.05l-49.97-94.46H528.1v211.75h30.05v-99.95l51.18,100.3
				h10.48V873.1h-30.4V968.05z M642.86,873.19v29.68h25.1v182.52h38.82V902.75h21.58l10.44-29.56H642.86z M370,580.77v230.22
				L686.78,0.54L370.35,580.12L370,419.64L53.82,1.74l316.2,578.98L370,580.77z"/>
		</g>
	</g>
</g>
<g id="Shape_1_copy_1_" class="st0">
	<g id="Shape_1_copy">
		<g>
			<polygon class="st3" points="686.77,1.74 370.18,419.64 370.18,580.77 53.81,0.54 370.59,810.99 370.18,581.07 			"/>
		</g>
	</g>
</g>
</svg>
