<?xml version="1.0" encoding="utf-8"?>
<!-- Generator: Adobe Illustrator 23.1.0, SVG Export Plug-In . SVG Version: 6.00 Build 0)  -->
<svg version="1.1" xmlns="http://www.w3.org/2000/svg" xmlns:xlink="http://www.w3.org/1999/xlink" x="0px" y="0px"
	 viewBox="0 0 1024 790" style="enable-background:new 0 0 1024 790;" xml:space="preserve">
<style type="text/css">
	.st0{enable-background:new    ;}
	.st1{fill:#FFFFFF;}
	.st2{fill-rule:evenodd;clip-rule:evenodd;fill:#FFFA1D;}
	.st3{fill:#E23B18;}
</style>
<g id="Rectangle_1_copy_1_" class="st0">
	<g id="Rectangle_1_copy">
		<g>
			<path class="st1" d="M752.04,409.94c0-123.74-98.33-222.13-222.47-222.13s-222.71,98.38-222.71,222.13
				c0,53.69,19.32,102.36,50.91,140.94l-25.67,27.09c-9.21,9.55-9.29,22.71,0.26,31.92l0.01,0.01c9.55,9.21,23.32,8.57,32.52-0.98
				l25.04-26.24c13.08,10.4,28.68,20.34,43.9,27.65l-12.09,37.73c-4.35,12.54,0.71,23.9,13.25,28.25l0.01,0
				c12.54,4.35,24.17-1.65,28.52-14.18l13.33-36.98c13.89,3.29,30.33,6.14,45.09,6.73l1.97,33.28
				c0.83,13.24,10.79,21.86,24.04,21.03l0.01,0c13.24-0.83,21.86-10.79,21.03-24.04l-1.98-32.81c14.84-2.58,31.84-7.1,45.53-12.43
				l16.69,28.95c6.79,11.4,20.57,15.62,31.97,8.83l0.01,0c11.4-6.79,13.69-20.09,6.9-31.49l-15.99-26.76
				C712.51,556.26,752.04,487.73,752.04,409.94z"/>
		</g>
	</g>
</g>
<g id="Ellipse_1_1_" class="st0">
	<g id="Ellipse_1">
		<g>
			<path d="M463.52,753.68l12.01,1.09l-3.15,31.72l22.82,2.36l3.61-31.97l11.47,1.04l3.02-22.82l-47.71-4.24L463.52,753.68z
				 M520.17,732.83l1.29,55.83l23.2-0.93l-1.2-55.72L520.17,732.83z M641.51,707.71c0,0,5.99,13,6.79,14.61
				c0.8,1.61-1.46,2.63-2.48,1.9c-1.02-0.73-17.82-11.32-17.82-11.32l-15.41,7.23l22.35,50.32l21.18-9.79c0,0-6.21-12.56-7.16-14.39
				s1.31-2.26,1.31-2.26l18.7,11.98l15.85-7.08l-22.35-50.69L641.51,707.71z M317.71,658.18c-4.77-3.26-8.78-7.03-8.78-7.03
				l-35.01,43.04c0,0,14.43,13.05,27.48,20.83s29.62,3.39,36.77-7.28c7.15-10.67,4.02-26.48-1.38-33.38
				C331.39,667.46,322.48,661.44,317.71,658.18z M312.93,697.43c-4.07,0.07-6.96-4.67-6.96-4.67l9.04-10.37c0,0,4.96,2.15,5.56,6.22
				S317,697.36,312.93,697.43z M438.15,745.39c5.89,1.6,10.37,4.81,10.37,4.81l14.05-15.46c0,0-10.37-8.3-19.33-11.31
				c-6.26-2.11-26.02-3.58-34.98,13.67c-8.96,17.25,1.51,33,12.35,38.84c10.84,5.85,29.6,3.49,29.6,3.49l-4.05-21.87
				c0,0-6.08,1.03-12.26-1.51C425.38,752.53,428.65,742.81,438.15,745.39z M708.42,693.32c-7.3,1.39-11.25,1.17-12.78-1.17
				c-1.53-2.34,4.53-9.79,18.7-7.23c0,0-3.8-6.14-4.75-15.85c-12.34,4.89-24.83,11.32-30.82,20.23c-5.99,8.91-3.65,16.65,1.75,21.84
				c5.41,5.19,14.46,3.21,18.77,2.12c4.31-1.1,9.2-1.61,10.59,1.1s-0.95,6.72-4.67,7.96c-3.73,1.24-14.39-0.88-14.39-0.88
				l5.11,17.16c0,0,14.54-2.63,26.44-12.86s14.32-19.36,8.77-27.68S715.72,691.93,708.42,693.32z M386.49,704.18
				c0,0-11.79,21.12-14.05,25.17c-2.26,4.05-8.01,1.41-5.85-2.64c2.17-4.05,12.63-25.55,12.63-25.55l-21.31-11.6
				c0,0-9.15,18.76-13.39,28.66c-4.24,9.9-2.07,25.65,10.09,31.96c12.16,6.32,29.6,5.56,36.39-5.28
				c6.79-10.84,16.31-30.26,16.31-30.26L386.49,704.18z M701,302c0.76,2.72,0.24,2.28,3,3C703.24,302.28,703.76,302.72,701,302z
				 M706,309c0.67,1.33,1.33,2.67,2,4h1v1h1c-0.41-3.81-2.36-6.51-5-8c-0.33,0.67-0.67,1.33-1,2
				C704.67,308.33,705.33,308.67,706,309z M570.44,662.14l-1.98-31.49c14.84-2.58,29.19-6.61,42.88-11.95l17.29,28.95
				c6.79,11.4,21.53,15.14,32.94,8.35l0.01,0c11.4-6.79,15.14-21.53,8.35-32.94l-15.75-26.64c52.83-35.14,89.88-91.99,98.32-157.77
				l41.67-17.48l-40.95,62l269.08-88.91l-0.33-1.84l-199.89,40.28l44.46-74.2l-112.85,34.35
				c-8.75-115.77-105.75-206.98-224.11-206.98c-122.79,0-222.56,98.16-224.71,220.05l-43.52,21.34l15.2-43.58L1.66,435.09
				l-0.45,1.56l223.04-16.09l-72.63,70.4l158.24-33.7c7.59,35.19,23.47,67.31,45.51,94.23l-24.59,25.4
				c-9.21,9.55-8.93,24.76,0.62,33.97l0.01,0.01c9.55,9.21,24.76,8.93,33.97-0.62l24.2-25.03c13.08,10.4,27.35,19.37,42.58,26.68
				l-12.21,35.19c-4.35,12.54,2.28,26.23,14.82,30.58l0.01,0c12.54,4.35,26.23-2.28,30.58-14.82l12.12-34.93
				c13.89,3.29,28.28,5.3,43.04,5.88l1.97,31.35c0.83,13.24,12.24,23.31,25.48,22.47l0.01,0
				C561.2,686.79,571.27,675.38,570.44,662.14z M666.84,625.41c5.7,9.58,2.56,21.96-7.01,27.66c-9.58,5.7-21.96,2.56-27.66-7.01
				l-17.21-28.81c12.62-5.17,24.65-11.45,36-18.71L666.84,625.41z M633,230c2.75,0.71,3.65,1.92,6,3v2c-3.85-0.49-2.78-1.23-6-2V230
				z M362.3,607.88c-7.73,8.02-20.51,8.26-28.53,0.52c-8.02-7.73-8.26-20.51-0.52-28.53l24.6-25.41
				c8.71,10.27,18.32,19.75,28.73,28.32L362.3,607.88z M515.11,628.39c0.31-0.11,0.61-0.24,0.89-0.39c0.67-1,1.33-2,2-3h4v-1
				c1.68-1.14,1.39-0.61,2-3c2,0.33,4,0.67,6,1c0.33-0.67,0.67-1.33,1-2h2v-1c5.6-2.02,11.17,2.3,15-2h1c0.85-2.42-1.6-2.08-2-3v-2
				c3.67,0.33,7.33,0.67,11,1v-1c2-0.33,4-0.67,6-1c0.33-0.67,0.67-1.33,1-2h2v-1h2v-1c1.33-0.33,2.67-0.67,4-1
				c0.33-0.67,0.67-1.33,1-2h3c0.33-0.67,0.67-1.33,1-2h2c2-3,4-6,6-9c8-2.67,16-5.33,24-8c0.67-1,1.33-2,2-3
				c4.72-4.61,10.15-8.53,13-15v-3h1v-3h1v-2c5.33-5,10.67-10,16-15v-2c1-0.67,2-1.33,3-2v-4h1v-5h-1v-1c-2.93,1.59-3.61-0.39-7-1
				c-0.75-2.82-1.79-2.87-3-5c-3,0.33-6,0.67-9,1c0,0-0.88-1.54-3-1v1c-1.91,0.63-2.54,0.42-4,1v-1h-1v-3h-1
				c-1.11-1.09-7.67-2.86-10-3c-0.76,2.72-0.24,2.28-3,3v-5h-3c-0.67,2-1.33,4-2,6c-2.43-0.62-2.2-1.06-4-2c0.82-4.44,2.65-7.14,6-9
				c-0.33-1.33-0.67-2.67-1-4c-0.67-0.33-1.33-0.67-2-1v-7h-1c-0.33-1-0.67-2-1-3c-3.33-0.67-6.67-1.33-10-2v-1
				c-2.33,0.33-4.67,0.67-7,1c-0.67-1-1.33-2-2-3h-2v-1c-1-0.67-2-1.33-3-2c-0.79-1.14-0.8-4.28-2-5c-2-0.33-4-0.67-6-1
				c-0.11-2.14,0.23-4.06-1-5h-3v-1c-1.48-1.2-1.72-2.03-3-3v-1c-1.33,0.33-2.67,0.67-4,1v1h-4v1c-0.75,0.13-6.32-1.02-9-1
				c-0.88-1.16-2.62-1.42-3-2v-3c-0.59-0.86-3.57-1.71-5-2c-1.13-1.12,0.01-0.43-2-1c-1.03,1.79-2.19,2.99-4,4c0.33,2,0.67,4,1,6
				c-1.67,0.33-3.33,0.67-5,1v-6c0.67-0.33,1.33-0.67,2-1v-2h1v-2h1c0.33-1,0.67-2,1-3c-3.58,0.28-3.99,0.48-6,2v1
				c-1.33,0.33-2.67,0.67-4,1v1c-2-0.33-4-0.67-6-1c0.01,3.63,0.16,4.58-2,6v1c-1.46-0.7-1.64-0.89-4-1c-0.33,1.33-0.67,2.67-1,4
				c-1-0.33-2-0.67-3-1c-0.69-2.72-1.36-2.26-2-5c-2.37-0.64-1.87-0.28-3-2c-2.22,0.24-2.68,0.07-4,1v1h-1c-1.19,0.76-0.12-0.11-1,1
				h-6c-0.33-0.67-0.67-1.33-1-2c-1-0.33-2-0.67-3-1v-2c-0.67-0.33-1.33-0.67-2-1c-1.17-1.78-0.05-2.23-2-4c0.26-4.41,1.23-4.46,3-7
				h1v-6h1v-5c-1.36-2.57-13.26-5.1-18-5c-0.85-1.13,0.13-0.16-1-1c0.43-3.1,0.7-3.1,2-5h1c0.33-2,0.67-4,1-6c1-0.67,2-1.33,3-2
				c0.33-1.67,0.67-3.33,1-5h1c1-1.33,2-2.67,3-4c-1.13-0.85-0.16,0.13-1-1h-8c-0.94,1.18-3.32,2.03-4,3c-2.63,3.75,0.37,4.66-6,6
				c-0.47,0.52,0.29,1.58-1,1v-1h-2v-1c-2.05-0.55-3,1-3,1c-1.67-0.33-3.33-0.67-5-1c-1.11-5.14-4.47-9.65-6-14
				c-1.2-3.41,2.03-14.39,3-16c0.67-0.33,1.33-0.67,2-1v-2h1c0.33-3,0.67-6,1-9c1-0.33,2-0.67,3-1v-1h2v-1c4.19-1.73,3.49,1.1,6-3
				c6.54,0.37,9.7,3.57,14,6c0.61-1.6,0.92-2.37,1-5c7.25,0.73,18.29,4.76,22,9h1c0.33,1.67,0.67,3.33,1,5h1c0.62,2.04-1,3-1,3
				c0.33,3.67,0.67,7.33,1,11c1.13,0.85,0.16-0.13,1,1h3v-1h1v-4h1c0.31-1.68-0.94-1.74-1-2v-10h-1v-6h1v-2h1c0.33-1,0.67-2,1-3h1
				v-1h2v-1h2c1-1.33,2-2.67,3-4h2v-1h4v-1c1.33-1,2.67-2,4-3c0.38-2.98,2.16-6.7,0-9c0.07-4.59,0.33-5.2,3-7v-1
				c1.67,0.33,3.33,0.67,5,1c1-2,2-4,3-6c2.33-0.33,4.67-0.67,7-1c0.67-2,1.33-4,2-6c1.05-1.52,14.37-7.5,17-8
				c0.85,1.13-0.13,0.16,1,1c-0.66,2.58-1.02,2.87-3,4c0.85,1.13-0.13,0.16,1,1c1.13,1.12-0.01,0.43,2,1c1.98-2.47,7.84-5.63,11-7
				c0.33-1,0.67-2,1-3h-1v-2c-4.09,1.12-1.16,0.45-3,3c-0.55,0.76-1.3,0.61-2,2c-4.39-0.04-3.94,0.38-6-2h-1v-3
				c-0.53-0.8-2.15-0.83-3-2c-1.12-1.13-0.43,0.01-1-2h1v-1c1,0.33,2,0.67,3,1c0.33-1,0.67-2,1-3c-1.23-0.09-4-1-4-1v1
				c-1,0.33-2,0.67-3,1v1c-3.6,2.21-5.73,0.79-7,6h-3c0.71-5.08,2.85-3.71,4-8c3.4-1.01,10.43-8.01,14-5h11c1-1.67,2-3.33,3-5h2
				c0.33-1,0.67-2,1-3h1v-1h-1c-1.51-4.77-0.84-1.07-4-3c-0.67-1-1.33-2-2-3h-2c-0.33-1-0.67-2-1-3c-1-0.67-2-1.33-3-2v-2h-1
				c-0.33-2-0.67-4-1-6h-2c-0.33-2-0.67-4-1-6c-3.53,0.99-2.85,1.92-4,5c-4.15-0.18-4.3-0.58-6-3h-1c0.33-1.67,0.67-3.33,1-5h-1
				c-1.78-2.61-3.07-1.37-4-5c-3-0.33-6-0.67-9-1v2h-1v6h-1c-0.42,0.77-1.97,3.15-1,5h1c0.24,7.83-1.8,8.9-7,11
				c0.33,3.33,0.67,6.67,1,10c-2.33,0.67-4.67,1.33-7,2c-0.4-0.94-0.6-3.21-1-4c-0.67-0.33-1.33-0.67-2-1c0.67-3.33,1.33-6.67,2-10
				c-4.31-0.23-3.39-0.62-6-2v-2c-3.6-1.05-3.46-3.12-6-5v-1h-4c0.27-4.55,1.69-6.1-1-8c0.59-5.4,3.47-5.68,7-8
				c0.33-0.67,0.67-1.33,1-2h4c0.33-0.67,0.67-1.33,1-2c2.33-0.67,4.67-1.33,7-2c0.76-2.72,0.24-2.28,3-3v-2h3v1
				c3.23-0.39,2.92-0.91,5-2c0.33-2,0.67-4,1-6h-3v1c-2.83,2.32-0.56,2.64-6,3c0.47-2.18,0.64-2.83,2-4v-1h-3c0.67-3,1.33-6,2-9h1
				v-1h4c-0.6,2,0.14,0.86-1,2c0.03,2.42-0.29,4.87,1,6h2c0.33,0.67,0.67,1.33,1,2h2v1c1.67-0.33,3.33-0.67,5-1v1
				c2.18,1.46,2.64,3.66,5,5c-0.27,4.49-1.58,4.97-3,8c-2-0.33-4-0.67-6-1v4h6c0.33,1,0.67,2,1,3c0.67,0.33,1.33,0.67,2,1
				c2.29,2.34,2.57,3.5,7,4c-0.33-1.33-0.67-2.67-1-4h2v2h3c-0.72-6.02-3.75-5.3-5-10h3c0.33,1,0.67,2,1,3h3
				c0.85-1.13-0.13-0.16,1-1c-0.61-4.7-3.11-4.82-5-8h-3c-0.06-8.43-4.03-8.06-7-13h-5c-0.33-1-0.67-2-1-3c-2.93-1.22-4.26-1.89-7-1
				c-0.33-1-0.67-2-1-3h-3v1h-2c0.33-1,0.67-2,1-3h-3v1c-2,0.6-0.86-0.14-2,1h-1v3h4c-1.01,3.39-1.23,1.88-3,4h-1v5
				c0,0-1.58,1.18-2,2c-4.42-0.71-2.19,0.45-2-4h-1c-0.33,1-0.67,2-1,3c-2,0.6-0.86-0.14-2,1c-4.62-0.53-3.69-1.44-5-5h-4v1
				c-3.37-0.36-3.71-0.73-5-3h-1c0.33-1.33,0.67-2.67,1-4h-1v-4h-3v-4c-3.61-0.01-6.26-0.2-8-2h-1c0.33-1.33,0.67-2.67,1-4h1v-5h1
				c0.83-1.45,0.7-1.71,1-4c-3.46-0.26-9.48-2.6-14-1v1h-2v1c-1,0.33-2,0.67-3,1c-0.33-0.67-0.67-1.33-1-2c-2.43,0.01-4.87-0.28-6,1
				v2h-1c-0.67,1-1.33,2-2,3c-2.85-0.7-6.24-3.58-9-1c-3.59-0.02-5.68,0.13-8,1v5c-3.22,0.82-3.84,2.28-5,5c-4-0.33-8-0.67-12-1v-1
				c-1.33-0.33-2.67-0.67-4-1v-1h-1v1h-2c1.9,2.88,8.86,6.05,14,6c0.6,2-0.14,0.86,1,2c2.26,1.62,4.75-1.57,7-3v-1
				c3.15-1.2,3.3,1.72,4,2h5c-0.33,1.33-0.67,2.67-1,4h1v4h-1v3c-0.67,0.33-1.33,0.67-2,1c-2.11,2.69-1.48,3.72-1,7
				c-2,0.67-4,1.33-6,2c0.33,2,0.67,4,1,6c-1.67,1.33-3.33,2.67-5,4c-0.33,1.67-0.67,3.33-1,5h-1c-0.33,1-0.67,2-1,3
				c-1.33,0.33-2.67,0.67-4,1v3h-1v7h1c0.99-2.18,1.74-2.82,2-6h1c0.33,1,0.67,2,1,3h1c0.58,1.54-2.48,5.13-3,7h-3v-4h-1
				c-2.96,6.33-4.48,7.55-9,12c-0.67,1-1.33,2-2,3h-2c-0.33,0.67-0.67,1.33-1,2h-1v2h-1v2c-1,0.67-2,1.33-3,2v2
				c-0.67,0.33-1.33,0.67-2,1v2h-1v3h-1v7h-1v2h-1c-2.31,5.91-1.21,12.57,3,15c-0.21,3.85-0.75,5.15-2,8h-1
				c-1.76,4.91,0.68,11.74-1,14c-0.76,2.72-0.24,2.28-3,3c0.22,3.44,0.47,5.02,2,7c0.67,0.33,1.33,0.67,2,1c0.97,2.22-0.83,3.88-1,5
				c0.33,3.67,0.67,7.33,1,11c1,0.33,2,0.67,3,1v-5h-1c-1.11-4.38,3.25-9.39,0-13c-0.15-5.66-1.46-16.63,2-19
				c0.85-1.13-0.13-0.16,1-1c0.33,0.67,0.67,1.33,1,2c1.21,1.63-1.43,11.49,0,16h1v3h1c-0.33,3-0.67,6-1,9h1c0.67,2,1.33,4,2,6h1
				c0.33,3.67,0.67,7.33,1,11c0.05,0.21,1.52,0.32,1,2h-1c-0.33,1-0.67,2-1,3h-1v8h1v2c1,0.67,2,1.33,3,2v1h2
				c0.33,0.67,0.67,1.33,1,2h1v2c0.67,0.33,1.33,0.67,2,1v2c0.67,0.33,1.33,0.67,2,1c1.33,1.67,2.67,3.33,4,5h2
				c0.33,0.67,0.67,1.33,1,2c3.33,0.33,6.67,0.67,10,1v1c1,0.67,2,1.33,3,2v2h1v2c0.67,0.33,1.33,0.67,2,1v2
				c2.33,1.67,4.67,3.33,7,5h2v1c1.51,1.16,1.75,1.41,4,2v1h4c0.46,7.51,3.59,5.76,5,11h1c0.74,2.09-1.12,2.41-2,3
				c1.61,2.43,0.82,0.63,3,2v1h2c1.29,1,1.1,3.7,2,5c1,0.67,2,1.33,3,2v1h2c1.67,2.33,3.33,4.67,5,7h2c1.32-3.47,0.84-5.12,4-7v-1
				c2.43,0.62,2.2,1.06,4,2v7h3c0.85,1.13-0.13,0.16,1,1v4h-1v11h-1c-2.47,2.85-4.65,1.38-6,6c-5.82,1.56-4.77,6.34-9,9
				c-0.33,1-0.67,2-1,3c1.13,0.85,0.16-0.13,1,1h4c-0.8,7.18-1.99,2.95-6,5c-0.19,0.1-0.94,1.5-2,2c0.3,5.43,2.29,8.06,5,11
				c0.67,0.33,1.33,0.67,2,1c0.67,2,1.33,4,2,6c0.67,0.33,1.33,0.67,2,1v3h1c0.33,2,0.67,4,1,6h1v2h1c0.33,1.67,0.67,3.33,1,5
				c1,0.67,2,1.33,3,2v2c1.69,2.24,4.56,1.73,7,3v1h2v1h2v1h3v1c1.33,1,2.67,2,4,3c0.08,1.65,1.03,3.8,1,4h-1
				c-0.67,3.33-1.33,6.67-2,10h-1c-0.33,3-0.67,6-1,9h-1c-0.33,1.33-0.67,2.67-1,4h-1v2c-0.67,0.33-1.33,0.67-2,1
				c0.33,1.67,0.67,3.33,1,5c-2.33,2-4.67,4-7,6v4c-0.45,0.93-1.29-0.08-2,3h3v2c-1.67,0.33-3.33,0.67-5,1v2.75
				c-8.08-1.12-16.01-2.69-23.78-4.66l-0.01,0.06l-13.66,39.84c-3.65,10.53-15.15,16.1-25.68,12.45
				c-10.53-3.65-16.1-15.15-12.45-25.68l13.7-39.48l0.22-0.63l-1.41-0.64c-74.46-35.04-125.99-110.54-125.99-198.07
				c0-100.2,67.52-184.67,159.67-210.68c-1.27,0.88-1.51,1.16-3.62,1.74c-0.6,2,0.14,0.86-1,2v1c1,0.33,2,0.67,3,1v-1
				c2-0.33,4-0.67,6-1v2h-1c-1.79,2.09-2.02,0.63-3,4c5.23-0.24,7.24-1.24,11-3v-1h4v-1c3-0.67,6-1.33,9-2v2h5v-2
				c-2.72-0.76-2.28-0.24-3-3c1-0.33,2-0.67,3-1v-1h2v-1h8v-1h4v-1c1.63-0.29,1.81,0.96,2,1c3.33-0.33,6.67-0.67,10-1v2h3v1h7v-1
				c-1.71-0.65-3.14-0.99-6-1c-0.33-1-0.67-2-1-3h4c0.14-0.03,0.25-0.68,0.81-0.96c0.41,0.01,0.81,0.01,1.22,0.02
				c0.32,0.65,0.65,1.3,0.97,1.95c4.97,1.92,13.48-2.13,17,1h1c-0.33,1-0.67,2-1,3c2.86,0.05,4.28,0.35,6,1c-0.67,1-1.33,2-2,3
				c1.31,1.05,1.48,2.05,3,3c0.85,1.13-0.13,0.16,1,1c0.33-0.67,0.67-1.33,1-2h1c0.14-1.54-2.68-2.35-3-3v-2
				c4.67,0.33,9.33,0.67,14,1v1c1.67,0.33,3.33,0.67,5,1c0.33,1,0.67,2,1,3c5.67,2,11.33,4,17,6v1c1.33,0.33,2.67,0.67,4,1v1h3v1
				c3,1,6,2,9,3v1c1,0.33,2,0.67,3,1c-0.82,1.3-0.69,1.19-2,2c1.55,5.76,7.65,7.94,12,11c0.67,1,1.33,2,2,3c1.33,0.33,2.67,0.67,4,1
				c2,2.33,4,4.67,6,7c0.67,0.33,1.33,0.67,2,1c0.33,1.33,0.67,2.67,1,4c0.67,0.33,1.33,0.67,2,1c1.33,1.67,2.67,3.33,4,5h2
				c1.94,1.16,3.81,3.02,5,5h3v-4c4.91,0.58,5.93,3,10,4c-1.07-3.86-2.99-3.14-4-7c-3.33-0.94-4.63-3.1-7-5v-1
				c-1.67-0.33-3.33-0.67-5-1c-2.88-1.31-4.56-4.13-8-5c-0.6-2,0.14-0.86-1-2v-2c3.78,1.83,5.83,4.56,11,5c-0.69-2.72-1.36-2.26-2-5
				c2.78,0.77,2.53,1.15,4,3h1v3h1c2.29,2.79,0.22,0.27,3,2v1h2c1.28,0.99,1.1,3.73,2,5c2.67,2,5.33,4,8,6c0.27,4.94,0.8,5.58,0,10
				h-2c-1.01,0.99,1,1,1,1v3c1.41,4.25,4.39,7.65,5,13c-2.61-0.74-3.21-1.57-5-3v-1c-1.33-0.33-2.67-0.67-4-1c-0.67-1-1.33-2-2-3h-3
				v-1h-2v-1h-2v-1c-2.39-1.92-3.02-3.52-7-4c-0.76-2.72-0.24-2.28-3-3v5h1c1.75,2.01,2.18,0.83,4,2c0.33,0.67,0.67,1.33,1,2h2v1h2
				c0.33,0.67,0.67,1.33,1,2h2v1c1,0.33,2,0.67,3,1v3c0.67,0.33,1.33,0.67,2,1v2c1.33,1,2.67,2,4,3v4h1c0.85,1.13-0.13,0.16,1,1
				c0.5-2.71,1.26-5.49,3-7v-1c2.43,0.62,2.2,1.06,4,2c-0.47,4.64-2.16,7.45-3,11h5c1.4,1.69,5.08,2.83,6,4c1.81,2.29,1.48,4.38,4,6
				c-0.33,1.67-0.67,3.33-1,5c-3.15,0.63-4.72,1.81-7,3c0.26,3.56,0.47,4.03,2,6h1v2c0.67,0.33,1.33,0.67,2,1
				c0.33,1.33,0.67,2.67,1,4h1v5h1c1,1.33,2,2.67,3,4h1v1c1-0.33,2-0.67,3-1v1c1.33,0.33,2.67,0.67,4,1c-0.33-1.67-0.67-3.33-1-5h3
				c0.85-1.13-0.13-0.16,1-1c-0.06-5.29-0.01-7.77-2-11c-0.67-0.33-1.33-0.67-2-1v-10c-0.67-0.33-1.33-0.67-2-1c-0.33-1-0.67-2-1-3
				h-1c-1.15-3.22,1.59-3.15,2-4v-2h1c0.09-0.67-1.69-3.35-2-5c2.52,0.16,3.54,0.02,5,1v1h2c0.33,0.67,0.67,1.33,1,2h2v1h4
				c0.33,1,0.67,2,1,3c0.67,0.33,1.33,0.67,2,1v2h1c-0.75-6.02-3.33-4.6-4-10h-3v-1c-6.79-0.41-7.66-4.43-12-7v-2
				c2.26,0.28,2.62,0.11,4,1v1h2v1h3v1h2c0.33,0.67,0.67,1.33,1,2c2,1.67,4,3.33,6,5h2c-1.1-2.34-2.36-4.21-4-6
				c-0.67-0.33-1.33-0.67-2-1v-3h-1v-2h1v2c2.51,0.65,1.64,0.52,3,2h0.99c0,0.01,0.01,0.01,0.01,0.02V293c0.49,0.71,1.32,0.64,2,2
				h0.53c2.12,3.42,4.16,6.9,6.1,10.45c-1.54-2.18-4.4-4.24-6.62-5.45c0.75,3.05,1.91,4.29,5,5v1h1.92
				c1.78,3.29,3.48,6.62,5.09,10.01c0,0-0.01,0-0.01-0.01c-0.85,1.13,0.13,0.16-1,1c0.32,3.95,1.36,7.33,4,9v3h-1v1
				c-1.33-0.33-2.67-0.67-4-1c0,0-1.36,1.7-2,2c-1.15-1.34-1.82-1.58-4-2c-0.08-4.73-1.09-7.09-5-8c-0.33,1-0.67,2-1,3h-1v2
				c-0.67,0.33-1.33,0.67-2,1c-0.33,1.33-0.67,2.67-1,4h-1v7c0,0.01-0.66-0.09-1,2c-3.62,0.93-2.14,1.78-7,2
				c0.67,3.33,1.33,6.67,2,10c-0.48,2.14-3.11,5.28-2,9h1c1,4.33,2,8.67,3,13h-1v2h-1v2c-0.67,0.33-1.33,0.67-2,1v13
				c-0.82,2.89-3.7,12.25-2,17h1c0.33,1.33,0.67,2.67,1,4h1v4c1.2,3.62,3.6,11.07,2,17h-1c0.33,3.67,0.67,7.33,1,11
				c2.62,2.19,3,4.98,7,6c0.6,2-0.14,0.86,1,2c0.21,7.72,4.21,8.3,7,13c4.23-0.43,5.53-1.95,8-4v-1h2c1-1.33,2-2.67,3-4h1v-2
				c0.67-0.33,1.33-0.67,2-1v-2h1v-2h1v-2h1c0.33-1.67,0.67-3.33,1-5h1c1.13-1.12-0.01-0.43,2-1c0.33,1,0.67,2,1,3
				c2.37,0.64,1.87,0.28,3,2c0.03-0.03,0.04-0.05,0.07-0.08c-17.63,103.3-107.84,181.95-216.49,181.95
				C524.72,628.88,519.89,628.7,515.11,628.39z M453,230h-2v-2h2V230z M547.74,684.22c-11.12,0.7-20.71-7.75-21.4-18.88l-1.97-31.42
				c1.73,0.04,3.47,0.08,5.21,0.08c11.93,0,23.64-0.94,35.07-2.72l1.98,31.53C567.32,673.94,558.87,683.52,547.74,684.22z M705,318
				h-2v2h2V318z M584.08,725.59c-15.87,0-28.73,13.01-28.73,29.06s12.86,29.06,28.73,29.06c15.87,0,28.73-13.01,28.73-29.06
				S599.95,725.59,584.08,725.59z M584.2,759.94c-3.63,0-6.57-3-6.57-6.71c0-3.7,2.94-6.71,6.57-6.71s6.57,3,6.57,6.71
				C590.77,756.94,587.83,759.94,584.2,759.94z M718,314c-0.64-2.37-0.28-1.87-2-3c-0.6-2,0.14-0.86-1-2c-0.61,1.6-0.92,2.37-1,5
				c1,0.33,2,0.67,3,1C717.85,313.87,716.87,314.84,718,314z M866.22,463.16c-8.42,0-15.25,6.83-15.25,15.26
				c0,8.43,6.83,15.26,15.25,15.26c8.42,0,15.25-6.83,15.25-15.26C881.47,469.99,874.64,463.16,866.22,463.16z M441.35,149.78
				l-14.19-38.02c0,0,14.19-4.73,23.64-15.04c9.46-10.31,17.97-32.63,9.17-52.96c-8.8-20.33-28.75-29.41-53.53-25.35
				c-24.78,4.07-58.83,23.17-58.83,23.17l53.15,126.54C413.16,160.18,441.35,149.78,441.35,149.78z M416.95,51.89
				c6.05,0.47,11.25,5.3,11.16,11.54c-0.09,6.24-2.08,13.43-14,15.04l-9.08-22.6C405.03,55.87,410.89,51.42,416.95,51.89z
				 M369.41,188.6c14.79-14.54,26.14-47.95-4.97-88.12c-31.12-40.17-67.33-41.5-87.73-23.97c-18.97,16.3-26.65,58.66,10.33,97.17
				S354.62,203.14,369.41,188.6z M311.42,119.08c3.16-2.71,11.67-2.68,18.43,5.2s6.84,17.09,2.97,20.81
				c-3.86,3.72-12.86,2.08-19.47-5.87S306.22,123.54,311.42,119.08z M840.82,511.21c0,0,0.86,6.11-1.85,12.21
				c-3.74,8.43-13.37,4.89-10.53-4.54c1.76-5.85,5.1-10.23,5.1-10.23l-15.07-14.47c0,0-8.58,10.14-11.85,19.01
				c-2.28,6.2-4.31,25.91,12.69,35.35s33.03-0.59,39.17-11.26c6.15-10.68,4.31-29.5,4.31-29.5L840.82,511.21z M603.87,155
				c10.77,0,18.59-4.28,18.59-4.28s-2.66-27,4.57-56.06c-21.84,2.51-30.54-10.33-25.53-19.47c5.02-9.15,22.72-5.46,31.13,6.34
				c6.93-13.28,24.05-28.77,36.74-37.77C660.82,27.39,644,9.1,612.57,9.1c-31.43,0-66.4,30.83-66.4,73.62
				C546.17,125.5,573.18,155,603.87,155z M725.89,230.54l55.77-31.42l1.18,1.33l-41.9,49.13l17.85,25.96l129.84-43.08l-24.35-42.49
				l-33.2,9.15l-1.33-1.48l21.1-27.14l-23.02-29.06l-32.17,14.16l-0.89-1.77l17.26-28.92L778.42,92.9l-72.74,117.14L725.89,230.54z
				 M293.81,642.13c0-16.05-12.86-29.06-28.73-29.06c-15.87,0-28.73,13.01-28.73,29.06c0,16.05,12.86,29.06,28.73,29.06
				C280.95,671.19,293.81,658.18,293.81,642.13z M266.2,648.44c-3.63,0-6.57-3-6.57-6.71s2.94-6.71,6.57-6.71s6.57,3,6.57,6.71
				S269.83,648.44,266.2,648.44z M641.86,94.83c-23.45,47.97-3.51,77.09,15.35,85.73c21.98,10.07,54.01,4.82,79.27-38.21
				c25.72-43.82,14-77.5-8.68-91.96C703.3,34.78,665.31,46.86,641.86,94.83z M682.54,107.69c5.19-8.94,12.27-12.09,18.25-8.74
				c3.63,2.04,6.52,10.04,1.45,19.1c-5.07,9.06-13.7,12.3-18.52,9.95C678.9,125.64,677.35,116.63,682.54,107.69z M250.07,605.93
				c9.1-3.77,9.22-14.29,4.81-25.85c-4.41-11.55-13.24-22.85-14.37-25.5s-1.74-5.72-1.74-5.72l-49.37,25.38l10.89,20.57
				c0,0,17.4-8.39,19.91-9.68c0.8-0.41,1.57,0.82,1.36,1.43c-0.23,0.63-0.34,1.33-0.38,2.06c-0.57,2.74-3.14,10.68-14.3,17.57
				l11.74,20.94c0,0,11.3-7.03,15.34-17.84c0.61-1.63,1.58-2.71,2.66-2.69C240.72,607.75,245.42,607.86,250.07,605.93z
				 M231.42,583.97c-1.28-1.55-1.3-3.95-1.3-3.95l9.39-5.44c0,0,2.13,1.77,2.92,4.45c0.8,2.68-2.9,6-5.1,6.74
				S232.71,585.53,231.42,583.97z M743.75,679.05c-3.7,2.52-7.69,10.58-2.96,16.5c4.74,5.92,13.1,5.25,16.13,2.96
				c3.85,4.29,1.55,9.84,1.55,9.84l1.55,0.44c4.88-8.51,4.59-21.16,0.07-26.71C755.59,676.54,747.45,676.54,743.75,679.05z
				 M750.27,624.43l44.43,33.83l13.75-18.7l-44.29-33.83L750.27,624.43z M230.65,228.85l60.91,39.62
				c9.07-15.74,25.92-34.99,25.92-34.99l-59.06-46.29l16.66-22.77l-47.03-35.18c0,0-17.77,17.59-36.29,43.14
				c-18.51,25.55-29.62,51.65-29.62,51.65l50.54,30.18L230.65,228.85z M197.49,525.55c-2.17,3.62-2.69,11.84,0.87,17.05
				c3.57,5.2,11.44,9.51,21.1,7.58c9.66-1.93,13.08-12.78,11-24.97c-2.08-12.19-7.58-24.52-8.17-27.35s-0.59-5.95-0.59-5.95
				l-53.36,15.31l6.69,22.3c0,0,18.69-4.85,21.41-5.63C197.3,523.64,197.82,524.99,197.49,525.55z M204.63,521.28l12.52-3.66
				c0,0,1.66,2.33,2.05,5.43c0.39,3.1-4.27,5.93-7.09,6.2c-2.83,0.28-5.54-1.38-6.76-3.38
				C204.13,523.89,204.63,521.28,204.63,521.28z M786.18,570.04c0,0,12.64,6.72,14.25,7.51c1.61,0.79,0.43,2.98-0.83,3.02
				c-1.26,0.04-21.04,1.79-21.04,1.79l-7.88,15.09l48.26,26.51l10.93-20.62c0,0-12.55-6.24-14.41-7.11c-1.86-0.88-0.33-2.6-0.33-2.6
				l22.13-1.79l8.32-15.24l-48.49-26.8L786.18,570.04z M511,437v-1c-1-0.33-2-0.67-3-1v-1h-4c0.52,2.38,1.18,3.12,2,5
				c1.67,0.33,3.33,0.67,5,1v1c1-0.33,2-0.67,3-1C512.91,435.92,513.57,438.78,511,437z M526,436c-0.85,1.13,0.13,0.16-1,1v1
				c-2-0.33-4-0.67-6-1v3h1v1c1.33-0.33,2.67-0.67,4-1c1,0.33,2,0.67,3,1v2h3v-2c1.33-0.33,2.67-0.67,4-1v1h7v-1
				c1.12-1.13,0.43,0.01,1-2c-5.77-2.8-8.63-6.18-18-6C524.34,434.99,524.09,434.74,526,436z M550,439c-4.31,0.23-3.39,0.62-6,2
				c0.33,0.67,0.67,1.33,1,2h6v-3h-1V439z M573,208v-1c-2-0.33-4-0.67-6-1c-0.33,1-0.67,2-1,3c2.67,0.33,5.33,0.67,8,1
				C573.4,208,574.14,209.14,573,208z M589,218v-1c-4.12-1.89-8.14-4-14-4v2c3,1,6,2,9,3H589z M509,404c1.85,0.63,1.42-0.58,2-1
				c1.13-0.85,0.16,0.13,1-1c-1.6-0.61-2.37-0.92-5-1v2h2V404z M617,251h-3c-0.98,0.48-1.76,4.47-5,3v-1h-1v3
				c5.01,0.62,6.22,3.1,11,4c0.85-1.13-0.13-0.16,1-1c-0.01-3.09-0.29-5.13-1-7C617,251.4,618.14,252.14,617,251z M521,430h1v-1
				c-0.93-0.51-1.81-1.9-2-2h-3v-1c-1.67-0.33-3.33-0.67-5-1c-1.67-2.33-3.33-4.67-5-7h-5c-1-1.33-2-2.67-3-4h-2v-1
				c-2.76-1.08-10.77-0.13-12,1c-2,0.6-0.86-0.14-2,1h-1v3c2.33-0.33,4.67-0.67,7-1v-1c3.38,0.37,3.22,0,4,3
				c2.67,0.67,5.33,1.33,8,2c0.33,0.67,0.67,1.33,1,2c1.63,0.91,2.96-0.34,4,1c0.67,2,1.33,4,2,6c2.19,0.38,1.91,0.97,2,1h5v1
				C518.63,432.01,519.58,432.16,521,430z M508,407c-0.22,4.86-1.08,6.92,3,8C511.22,410.14,512.08,408.08,508,407z M580,317v-1h-1
				c-0.74-2.09,1.12-2.41,2-3v-3h-1v-1h-1v1c-3.22,2.22-1.5,3.4-3,7h-1v3c-0.67,0.33-1.33,0.67-2,1c0.6,2-0.14,0.86,1,2v1
				c0,0,5.44-0.93,7-1v3c3.84-0.27,3.14-1.46,5,1h3v-1h1c-1.23-3.49-3.41-4.71-4-9H580z M542,230c-2-0.33-4-0.67-6-1v3h1v1h5v1h1v-3
				h-1V230z M598,241h-1c-0.33-0.67-0.67-1.33-1-2h-2v-1c-2-1.67-4-3.33-6-5v-2c-2.22-0.62-2.51-0.82-4-2v-1c-1-0.33-2-0.67-3-1
				c-0.33-0.67-0.67-1.33-1-2h-2c-0.33-0.67-0.67-1.33-1-2h-2c-1.33-1.67-2.67-3.33-4-5c-2.19-1.41-5.28,0.32-8-1v-1
				c-2.03-1.37-3.08-2.39-6-3c-0.59,1.53-0.8,1.63-1,4c-2.37-0.64-1.87-0.28-3-2c-5.79,0.64-8.07,3.76-12,6c0.33,2,0.67,4,1,6h-1v1
				c2,0.33,4,0.67,6,1c0.73-2.89,1.07-3.32,4-4v-3c2-0.6,0.86,0.14,2-1h1v3c-1,0.33-2,0.67-3,1c0.52,2.54,1.35,4.6,3,6v1h6v1
				c3.05,1.96,4.59,7.53,6,11h4c-0.33,2-0.67,4-1,6h4c-0.33,2.33-0.67,4.67-1,7h1v3h1v2h1v2c1,0.67,2,1.33,3,2v2
				c0.67,0.33,1.33,0.67,2,1v2h1c1,1.33,2,2.67,3,4h6c0.76,2.72,0.24,2.28,3,3c1.13,1.12-0.01,0.43,2,1c0.85-1.13-0.13-0.16,1-1
				c-0.33-4-0.67-8-1-12h-1v-2h-1c-0.33-1-0.67-2-1-3c1.67-0.67,3.33-1.33,5-2v-5h-1c0.43-3.8,1.23-3.8,4-5v-5
				c-0.67-0.33-1.33-0.67-2-1V241z M532,221v-1h-2C531.13,221.12,529.99,220.43,532,221z M521,230h-1v1h-1v-1h-3v-1h-1
				c1.24-3.05,1.8-3.03-1-5v-1c-2.88,1.33-7.37,2.31-9,5h-1v1h5c-0.61,1.6-0.92,2.37-1,5h-4c-0.6,2,0.14,0.86-1,2
				c0.6,2-0.14,0.86,1,2c2.72,2.71,5.55,0.59,8,2v1c8.42-0.34,3.68-3.5,6-7h1c0.33-0.67,0.67-1.33,1-2h2v-1
				C520.66,230.54,522.27,230.63,521,230z M528,224h-1v1h-4v-3h3v-1h1v-1c-3.33,0.08-4.52,0.56-7,1v6c2.47,0.39,3.65,1.15,7,1
				c1.41-0.06-0.41-1.07,1-1c0.33,0.67,0.67,1.33,1,2c3.64-0.36,4.26-0.78,5-4h-6V224z M537,223h1v-3c-2,0.6-0.86-0.14-2,1h-1v3
				C537,223.4,535.86,224.14,537,223z M534,262h-1c-1.07-1.51-2.59-3.9-4-5c-0.85-1.13,0.13-0.16-1-1c-1.18,2.06-2.92,3.84-5,5
				c0.33,1,0.67,2,1,3c3.85-0.49,2.78-1.23,6-2c0.33,1,0.67,2,1,3h3V262z M515,409v1h1v-3h-2C514.6,409,513.86,407.86,515,409z
				 M444,503v1h3c0.33-1,0.67-2,1-3c-0.67-0.33-1.33-0.67-2-1c-0.85-1.13,0.13-0.16-1-1c-0.82,1.3-0.69,1.19-2,2
				C443.6,503,442.86,501.86,444,503z M462,211h-1v1h3c0.33-1,0.67-2,1-3C462.63,209.64,463.13,209.28,462,211z M436,262h2
				c0.6-2-0.14-0.86,1-2v-1h-3c-0.93,3.43-2.13,2.57-3,6C435.72,264.24,435.28,264.76,436,262z M659,286v3h1
				c1.13,1.12-0.01,0.43,2,1c0.85-1.13-0.13-0.16,1-1v-4c-0.67-0.33-1.33-0.67-2-1v-2h-2c-0.73-2.89-1.07-3.32-4-4
				c0.07,3.87,0.29,5.03,2,7C657.67,285.33,658.33,285.67,659,286z M330,330c-0.67,0.33-1.33,0.67-2,1v3c1-0.33,2-0.67,3-1v-4
				C329.87,329.85,330.84,328.87,330,330z M666,265v1h2c-0.85-1.13,0.13-0.16-1-1c-1.23-2.15-2.17-3.33-5-4
				C662.73,263.89,663.07,264.32,666,265z M333,317c-0.6,2,0.14,0.86-1,2v3h1c0.32-0.84,2.04-3.1,1-5H333z M532,271
				c2.72-0.76,2.28-0.24,3-3C532.28,268.76,532.72,268.24,532,271z M528,425v1h3v-3h-3c-0.85,1.13,0.13,0.16-1,1
				C527.85,425.13,526.87,424.16,528,425z M541,254v1h3v-4c-2.43,0.62-2.2,1.06-4,2C540.85,254.13,539.87,253.16,541,254z M524,419
				h-3v3C523.72,421.24,523.28,421.76,524,419z M697,383c1-2,2-4,3-6c-1-0.33-2-0.67-3-1v3h-1c-0.33,1-0.67,2-1,3h1
				C696.85,383.13,695.87,382.16,697,383z M528,265h-1v4c2.72-0.76,2.28-0.24,3-3C528,265.4,529.14,266.14,528,265z"/>
		</g>
	</g>
</g>
<g id="Shape_1_copy_2_1_" class="st0">
	<g id="Shape_1_copy_2">
		<g>
			<path class="st2" d="M304.85,410l-48.82,22.7l16.65-45.73L38.68,431.09l192.58-13.31l-69.98,67.93l148.31-30.5
				c0,0-1.88-8.27-2.95-18.55C305.36,424.49,304.85,410,304.85,410z M992.64,401.29L816.8,435.96l43.78-73.22l-106.1,32.26
				c0,0-0.33,11.5-0.96,22.42c-0.56,9.77-1.44,19.09-1.44,19.09l47.98-20.75l-41.25,62.68L992.64,401.29z"/>
		</g>
	</g>
</g>
<g id="Shape_1_1_" class="st0">
	<g id="Shape_1">
		<g>
			<path class="st3" d="M282.14,69.72c-18.97,16.3-26.65,58.66,10.33,97.17s67.59,29.46,82.38,14.92
				c14.79-14.54,26.14-47.95-4.97-88.12C338.76,53.52,302.55,52.19,282.14,69.72z M338.26,138.29c-3.86,3.72-12.86,2.08-19.47-5.87
				s-7.13-15.68-1.93-20.14c3.16-2.71,11.67-2.68,18.43,5.2S342.13,134.58,338.26,138.29z M280.53,157.63l-47.03-35.18
				c0,0-17.77,17.59-36.29,43.14c-18.51,25.55-29.62,51.65-29.62,51.65l50.54,30.18l17.96-25.36L297,261.68
				c9.07-15.74,25.92-34.99,25.92-34.99l-59.06-46.29L280.53,157.63z M733.47,134.35c25.72-43.82,14-77.5-8.68-91.96
				c-24.49-15.61-62.48-3.53-85.93,44.44c-23.45,47.97-3.51,77.09,15.35,85.73C676.19,182.63,708.22,177.38,733.47,134.35z
				 M699.24,110.05c-5.07,9.06-13.7,12.3-18.52,9.95s-6.37-11.36-1.18-20.3c5.19-8.94,12.27-12.09,18.25-8.74
				C701.42,92.99,704.31,100.99,699.24,110.05z M861.29,181.97l-33.2,9.15l-1.33-1.48l21.1-27.14l-23.02-29.06l-32.17,14.16
				l-0.89-1.77l17.26-28.92L775.42,84.9l-72.74,117.14l20.21,20.51l55.77-31.42l1.18,1.33l-41.9,49.13l17.85,25.96l129.84-43.08
				L861.29,181.97z M411.89,11.62c-24.78,4.07-58.83,23.17-58.83,23.17l53.15,126.54c12.39-7.94,40.57-18.35,40.57-18.35
				l-14.19-38.02c0,0,14.19-4.73,23.64-15.04c9.46-10.31,17.97-32.63,9.17-52.96C456.63,16.63,436.67,7.55,411.89,11.62z
				 M419.55,71.68l-9.08-22.6c0,0,5.86-4.45,11.92-3.97c6.05,0.47,11.25,5.3,11.16,11.54C433.45,62.88,431.47,70.07,419.55,71.68z
				 M629.64,73.54c6.93-13.28,24.05-28.77,36.74-37.77C657.82,19.39,641,1.1,609.57,1.1c-31.43,0-66.4,30.83-66.4,73.62
				s27,72.29,57.69,72.29c10.77,0,18.59-4.28,18.59-4.28s-2.66-27,4.57-56.06c-21.84,2.51-30.54-10.33-25.53-19.47
				C603.52,58.05,621.23,61.73,629.64,73.54z"/>
		</g>
	</g>
</g>
</svg>
