<?xml version="1.0" encoding="utf-8"?>
<!-- Generator: Adobe Illustrator 23.1.0, SVG Export Plug-In . SVG Version: 6.00 Build 0)  -->
<svg version="1.1" id="Shape_1_1_" xmlns="http://www.w3.org/2000/svg" xmlns:xlink="http://www.w3.org/1999/xlink" x="0px" y="0px"
	 viewBox="0 0 512 519.4" style="enable-background:new 0 0 512 519.4;" xml:space="preserve">
<style type="text/css">
	.st0{fill:#F47265;}
</style>
<g id="Shape_1">
	<g>
		<path class="st0" d="M119.6,66.3c-3.2,19.2-13.9,83.3-24.8,148.2l90.9-22.1L217.9,0H90.2L90,1C104,4.4,126.1,27,119.6,66.3z
			 M403.9,196c-3.1,18.2-5.1,40.7-46,63.7c-14.4,8.1-31.2,14.7-31.2,14.7l14.7-90.5l-93.6,23c-2.6,15.8-4.9,31.3-6.8,45.7
			c-8,59.7-41.3,83.2-82.5,103l22.1-132.1l-91,22.4c-9.4,56.3-18.1,107.5-21,123.9c-6.6,37.9-8.9,91.1-67.7,148.7l1.9,0.8
			c0,0,225.6-114,341.4-172.6C460,288.3,482.9,243.2,492,185.6c2.6-16.3,4.7-29.3,6.4-40.3l-89.9,22.1
			C406.6,179.5,404.9,190,403.9,196z M429.3,0.5c-55.2,0-185.3,0-185.3,0l-0.6,0.8C267.8,15,277.7,31.9,271,72.9
			c-4,24.7-11.2,63.3-18,103.1l93.4-22.7l13.8-84.5c0,0,18.6,0.1,32.3,0.1c13.8,0,32.5,9.6,28.2,29.2c-1.8,8-4.4,22.9-7.1,38.9
			l89.8-21.8c2.1-12.5,4.2-24.1,7-39C517.1,40.5,487.2,0.5,429.3,0.5z"/>
	</g>
</g>
</svg>
