<?xml version="1.0" encoding="utf-8"?>
<!-- Generator: Adobe Illustrator 23.1.0, SVG Export Plug-In . SVG Version: 6.00 Build 0)  -->
<svg version="1.1" id="Layer_1" xmlns="http://www.w3.org/2000/svg" xmlns:xlink="http://www.w3.org/1999/xlink" x="0px" y="0px"
	 viewBox="0 0 348.3 512" style="enable-background:new 0 0 348.3 512;" xml:space="preserve">
<style type="text/css">
	.st0{enable-background:new    ;}
	.st1{fill:#FFFFFF;}
	.st2{fill-rule:evenodd;clip-rule:evenodd;}
</style>
<g id="Shape_1_copy_1_" class="st0">
	<g id="Shape_1_copy">
		<g>
			<path class="st1" d="M0.5-0.3V512h347.9V-0.3H0.5z M343.2,453.6H5.8v-5.3h337.5V453.6z M343.2,389.7H5.8v-5.3h337.5V389.7z
				 M343.2,325.8h-98.2c47.9-122.3-26.5-212.4-23.2-209.4c51.7,45.1,58,143.4,39,199.4h47.7c5.6-14.3,13.9-39.9,14.2-69.7
				c0,0-10.4,17.4-20.7,23.3c0,0,22.3-31.3,20.2-81.8c0,0-12.2,22.2-20.5,24.7c0,0,16.5-32.5,9.8-73.8c0,0-9.7,19-17.4,23.1
				c0,0,4.9-17.7,5.5-28.9c1.1-20.1-2.4-33.3-7.8-42.9c0,0-6.1,21.1-13.3,28.8c0,0-0.3-22.7-3.7-35.8c-4.7-18.7-11.4-26.8-17.6-33.5
				c0,0,0.3,26.7-5.5,35.3c0,0-6.7-36.8-43.8-58.8c0,0,9.2,21.3,7.4,35.5c0,0-27.4-30.1-81-38.8c0,0,34.8,30.1,32.2,33.1
				c0,0-48.3-20.4-112.6-9.6c0,0,42.2,11.5,59.1,21.5C49.3,77.9,25.9,99.8,25.9,99.8c42-5.6,66.4-3.5,66.4-3.5l-30.7,31.3l6.5,17.2
				c0,0-6.2,41.3-9.9,55.6c-1.3,11.4-7,27.7-7,27.7l6.4,11.7l-0.3,13.7c8.8,4.6,23.2,14.5,23.2,14.5l2.4-1.9c0,0,1.4-6.7,3.5-10.4
				c8.2-14.6,15.4-15.1,15.4-15.1c4.4,6.6,0.1,22.3-2.5,27.2c0.5,1.3,1,1.3,2.2,1.1c5.8-3.2,10.8-4.7,14.4-7.9
				c6.4-5.9,9.1-13.2,11-15.8c3.4-3.6-1.9-10.6-2.7-12c-4.9-9.1-0.8-20.3-0.8-20.3c2.1-13.5,6.5-15.1,6.5-15.1l11-9.4
				c7.6-4.4,15.7-11.3,18.8-21.5c7.3-24.2-2.6-36.8-2.6-36.8c11.3,8.9,12.2,28.1,7.9,40.4c-4.9,14.2-9.3,16.9-15.6,22.9
				c3.9,5.1,7.6,17.4,5.9,28.7c-11.7,75.3-69.2,100.9-77.2,104.1h-72V5h337.5V325.8z M98,150.1c-2,3.3-6.3,3.4-13.2-3.2
				c3.8-4.4,6-6.5,10.7-10.6c5.7-5.1,7.6-7.6,9-6.7C108,132.1,107.7,134.2,98,150.1z M79.2,227.5c-0.6-1.6-1.4-3-2.3-4.3
				c3,0.6,5.6,2.8,6.7,5.9c1.5,4.6-0.9,9.5-5.4,11c-4.5,1.5-9.4-1.1-10.8-5.7c-0.3-0.8-0.4-1.7-0.4-2.4l0.4-0.1
				c1.5,4,5.2,6.3,8.4,5.2C78.9,236,80.6,231.8,79.2,227.5z"/>
		</g>
	</g>
</g>
<g id="Shape_1_1_" class="st0">
	<g id="Shape_1">
		<g>
			<path class="st2" d="M138.4,372.3c2.9-0.2,5.6-0.8,8-1.7c5.7-2.2,9.5-6,11.5-11.3l2.4-6.5c0.6-1.5,0.8-2.8,0.8-4.1
				c0-4.2-2.8-7.2-8.4-9c-2.4-0.8-5.1-1.2-8.4-1.4h-24.5l8.3,5.6l-10.2,28.4H138.4z M141.8,345.1h1.7c2.8,0.1,4.2,0.9,4.2,2.4
				c0,0.3-0.1,0.6-0.2,0.9l-4.1,11.4c-0.6,2.4-1.6,4-3.2,4.9c-0.6,0.4-1.4,0.6-2.2,0.7h-3.3L141.8,345.1z M159.4,372.3h14.8l2.3-3.7
				h10.3l-0.1,3.7h14.9l-1-34h-30.4l8.4,5.5L159.4,372.3z M187.9,350.1l-0.8,14.1h-8.3L187.9,350.1z M223.9,372.3l4-11.5l4.5,11.5
				h13.1l-4.7-11.9c2.9-0.5,5.3-1.5,7.2-2.9c2.4-2,3.8-4,4.2-5.9c0.4-1.3,0.6-2.5,0.6-3.8c0-2.4-0.8-4.4-2.2-6.1
				c-2.7-2.3-6.1-3.4-10.2-3.4h-29l8.3,5.6l-10.2,28.4L223.9,372.3L223.9,372.3z M233,346.5h3.5c1.2,0,2.1,0.2,2.6,0.7
				c0.6,0.5,0.8,1.1,0.8,1.9c0,0.4-0.1,1-0.5,1.6c-0.3,0.8-0.8,1.3-1.3,1.5c-0.8,0.3-1.8,0.5-3.2,0.5h-4.1L233,346.5z M269.8,372.3
				l5.6-16l3.7,16h14.3l-4.3-16.5l16.3-17.5h-15.6L276.9,352l4.8-13.7h-24.5l8.3,5.6l-10.2,28.4H269.8z M79.8,466.4
				c-2.5-0.7-5.5-1.1-8.9-1.3c-3,0.2-5.7,0.8-8.1,1.7c-5.8,2.2-9.5,6-11.3,11.3l-3.1,8.9c-0.5,1.5-0.8,2.8-0.8,4
				c0,4.4,3,7.5,8.9,9.2c2.5,0.7,5.5,1.1,8.9,1.2c3-0.2,5.7-0.8,8.1-1.7c5.8-2.2,9.5-6,11.3-11.3l0.9-2.5H71.5l-1,3.1
				c-0.6,2.3-1.6,4-3.2,4.9c-0.6,0.4-1.4,0.6-2.2,0.7c-2.8-0.1-4.2-0.9-4.2-2.4c0-0.3,0.1-0.6,0.1-0.9l4.8-13.7
				c0.6-2.4,1.6-4,3.2-4.9c0.6-0.3,1.4-0.6,2.2-0.7c2.8,0.1,4.2,0.9,4.2,2.4c0,0.3-0.1,0.6-0.1,0.8l-1.9,5.5h14.2l0.3-1.1
				c0.5-1.5,0.8-2.8,0.8-4C88.7,471.1,85.7,468,79.8,466.4z M123.7,466.4c-2.5-0.7-5.5-1.1-8.9-1.3c-3,0.2-5.7,0.8-8.1,1.7
				c-5.8,2.2-9.5,6-11.3,11.3l-3.1,8.9c-0.5,1.5-0.8,2.8-0.8,4c0,4.4,3,7.5,8.9,9.2c2.5,0.7,5.5,1.1,8.9,1.2c3-0.2,5.7-0.8,8.1-1.7
				c5.8-2.2,9.5-6,11.3-11.3l3.1-9c0.5-1.5,0.8-2.8,0.8-4C132.7,471.1,129.7,468,123.7,466.4z M119.2,475.2l-4.8,13.8
				c-0.6,2.3-1.6,4-3.2,4.9c-0.6,0.4-1.4,0.6-2.2,0.7c-2.8-0.1-4.2-0.9-4.2-2.4c0-0.3,0.1-0.6,0.1-0.9l4.8-13.8
				c0.6-2.4,1.6-4,3.2-4.9c0.6-0.3,1.4-0.6,2.2-0.7c2.8,0.1,4.2,0.9,4.2,2.4C119.4,474.6,119.4,474.9,119.2,475.2z M163.8,481.6
				l-0.8-14.7h-25.8l6.7,4.4l-10,28h12.7l5.7-16.3l1.4,0.2v16h9.2l11-16.5l1.3,0.6l-5.7,15.8h12.7l11.5-32.4h-19.5L163.8,481.6z
				 M198,466.6l7.6,5l-10.1,28.2H209l11.7-33.2H198z M252.5,466.4c-2.5-0.7-5.5-1.1-8.9-1.3c-3,0.2-5.7,0.8-8.1,1.7
				c-5.7,2.2-9.5,6-11.3,11.3l-3.1,8.9c-0.5,1.5-0.8,2.8-0.8,4c0,4.4,3,7.5,8.9,9.2c2.5,0.7,5.5,1.1,8.9,1.2c3-0.2,5.7-0.8,8.1-1.7
				c5.7-2.2,9.5-6,11.3-11.3l0.8-2.5h-14.2l-1,3.1c-0.6,2.3-1.7,4-3.2,4.9c-0.6,0.4-1.4,0.6-2.2,0.7c-2.8-0.1-4.2-0.9-4.2-2.4
				c0-0.3,0.1-0.6,0.1-0.9l4.8-13.8c0.6-2.4,1.7-4,3.2-4.9c0.6-0.3,1.4-0.6,2.2-0.7c2.8,0.1,4.2,0.9,4.2,2.4c0,0.3-0.1,0.6-0.1,0.8
				l-1.9,5.5h14.2l0.3-1.1c0.5-1.5,0.8-2.8,0.8-4C261.4,471.1,258.4,468,252.5,466.4z M301.4,468.4c-2.9-2.5-7.8-3.8-14.5-3.8
				c-3.1,0.1-5.8,0.5-8.1,1c-5.6,1.5-8.8,4-9.8,7.6c-0.3,1-0.6,2.1-0.6,3c0,2.5,1.5,4.7,4.4,6.5c0.8,0.5,3.5,1.7,8.3,3.8
				c3,1.3,4.4,2.5,4.4,3.7c0,0.3-0.1,0.7-0.3,1.1c-1,1.9-2.4,2.8-4.2,2.8c-2.8-0.1-4.2-0.9-4.2-2.4c0-0.3,0.1-0.6,0.1-0.8l1-2.8h-14
				c-0.1,0.7-0.2,1.5-0.2,2.2c0,2.8,1,5.1,3.2,6.9c2.9,2.5,7.8,3.8,14.5,3.8c3.1-0.1,5.8-0.6,8.1-1.4c5.7-1.8,9.1-5,10.3-9.6
				c0.3-0.8,0.4-1.7,0.4-2.4c0-2.4-1.5-4.5-4.4-6.4c-0.2-0.1-2.8-1.5-8-4c-2.7-1.4-4-2.6-3.7-3.8c0.3-1.3,1.3-2,2.9-2
				c2.8,0.1,4.2,0.9,4.2,2.4c0,0.3-0.1,0.6-0.1,0.9l-0.6,1.9h13.9c0.1-0.4,0.1-0.8,0.1-1.3C304.5,472.5,303.4,470.3,301.4,468.4z
				 M97.3,436.2l4.5-12.8h7.8l-4.6,12.8h14.3l11.9-34h-14.1l-4.7,13.1h-7.8l4.6-13.1H84.8l8.3,5.6L83,436.2H97.3z M149.3,437.5
				c3-0.2,5.7-0.8,8.1-1.7c5.7-2.2,9.5-6,11.3-11.3l3.1-9c0.5-1.5,0.8-2.8,0.8-4c0-4.4-3-7.5-8.9-9.2c-2.5-0.7-5.5-1.1-8.9-1.3
				c-3,0.2-5.7,0.8-8.1,1.7c-5.7,2.2-9.5,6-11.3,11.3l-3.1,8.9c-0.5,1.5-0.8,2.8-0.8,4c0,4.4,3,7.5,8.9,9.2
				C142.8,437,145.8,437.5,149.3,437.5z M144.9,427.5l4.8-13.8c0.6-2.4,1.6-4,3.2-4.9c0.6-0.3,1.4-0.6,2.2-0.7
				c2.8,0.1,4.2,0.9,4.2,2.4c0,0.3-0.1,0.6-0.1,0.8l-4.8,13.8c-0.6,2.3-1.6,4-3.2,4.9c-0.6,0.4-1.4,0.6-2.2,0.7
				c-2.8-0.1-4.2-0.9-4.2-2.4C144.7,428,144.8,427.7,144.9,427.5z M183.1,407.8l-10.2,28.4h14.3l4-11.5l4.4,11.5h13.1l-4.7-11.9
				c2.9-0.5,5.3-1.5,7.2-2.9c2.4-2,3.8-4,4.2-5.9c0.4-1.3,0.6-2.5,0.6-3.8c0-2.4-0.8-4.4-2.2-6.1c-2.7-2.2-6.1-3.4-10.2-3.4h-29
				L183.1,407.8z M196.3,410.4h3.5c1.2,0,2.1,0.2,2.6,0.7c0.6,0.5,0.8,1.1,0.8,1.9c0,0.4-0.1,1-0.5,1.6c-0.3,0.8-0.8,1.3-1.3,1.5
				c-0.8,0.3-1.8,0.5-3.2,0.5h-4.1L196.3,410.4z M246.4,412.8h13.9c0.1-0.4,0.1-0.8,0.1-1.3c0-2.8-1-5.2-3.2-6.9
				c-2.9-2.5-7.8-3.8-14.5-3.8c-3.1,0.1-5.8,0.5-8.1,1c-5.6,1.5-8.8,4-9.8,7.6c-0.3,1-0.6,2.1-0.6,3c0,2.5,1.5,4.7,4.4,6.5
				c0.8,0.5,3.5,1.7,8.3,3.8c3,1.3,4.4,2.5,4.4,3.7c0,0.3-0.1,0.7-0.3,1.1c-1,1.9-2.4,2.8-4.2,2.8c-2.8-0.1-4.2-1-4.2-2.4
				c0-0.3,0.1-0.6,0.1-0.8l1-2.8h-14c-0.1,0.8-0.2,1.5-0.2,2.2c0,2.8,1,5.2,3.2,6.9c2.9,2.5,7.8,3.8,14.5,3.8
				c3.1-0.1,5.8-0.6,8.1-1.4c5.7-1.8,9.1-5,10.3-9.6c0.3-0.8,0.4-1.6,0.4-2.4c0-2.4-1.5-4.4-4.4-6.4c-0.2-0.1-2.8-1.5-8-4
				c-2.7-1.4-4-2.6-3.7-3.8c0.3-1.3,1.3-2,2.9-2c2.8,0.1,4.2,0.9,4.2,2.4c0,0.3-0.1,0.6-0.1,0.8L246.4,412.8z M271.7,407.8
				l-10.2,28.4h31.7l2.9-8.1h-17.4l1.6-4.4h9.3l2.9-8.1h-9.3l1.8-5.1h17.4l2.9-8.1h-41.8L271.7,407.8z"/>
		</g>
	</g>
</g>
</svg>
