<?xml version="1.0" encoding="utf-8"?>
<!-- Generator: Adobe Illustrator 23.1.0, SVG Export Plug-In . SVG Version: 6.00 Build 0)  -->
<svg version="1.1" xmlns="http://www.w3.org/2000/svg" xmlns:xlink="http://www.w3.org/1999/xlink" x="0px" y="0px"
	 viewBox="0 0 33 104" style="enable-background:new 0 0 33 104;" xml:space="preserve">
<style type="text/css">
	.st0{enable-background:new    ;}
	.st1{fill:#EE2D02;}
	.st2{fill:url(#SVGID_1_);}
</style>
<g id="Rectangle_1_copy_6_1_" class="st0">
</g>
<g id="Rectangle_1_1_" class="st0">
</g>
<g id="Rectangle_1_copy_7_1_" class="st0">
	<g>
		<g id="Rectangle_1_copy_6">
			<g>
				<path d="M27.73,1.92H6.27c0,0-5.27,0.04-5.27,5.31c0,10.01,0,96.66,0,96.66l16.02-14.35L33,103.89c0,0,0-86.71,0-96.62
					C33,1.96,27.73,1.92,27.73,1.92z"/>
			</g>
		</g>
		<g id="Rectangle_1">
			<g>
				<path class="st1" d="M28.33,0.04H4.47c0,0-4.47-0.64-4.47,3.48c0,10.01,0,98.37,0,98.37l16.02-14.35L32,101.89
					c0,0,0-88.43,0-98.33C32,0.36,28.33,0.04,28.33,0.04z"/>
			</g>
		</g>
		<g>
			<linearGradient id="SVGID_1_" gradientUnits="userSpaceOnUse" x1="16" y1="96.4734" x2="16" y2="15.7174">
				<stop  offset="0" style="stop-color:#5F1201"/>
				<stop  offset="0.433" style="stop-color:#B52202"/>
				<stop  offset="0.738" style="stop-color:#EE2D02"/>
			</linearGradient>
			<path class="st2" d="M30.01,15.72h-0.96c0,45.46-0.07,78.37-0.07,78.37L16.02,82.45L2.99,94.12c0,0-0.04-32.91-0.04-78.4H1.99
				c0,17.87,0,80.76,0,80.76l14.03-12.57l13.99,12.57C30.01,96.47,30.01,33.51,30.01,15.72L30.01,15.72z"/>
		</g>
	</g>
</g>
</svg>
