<?xml version="1.0" encoding="utf-8"?>
<!-- Generator: Adobe Illustrator 23.1.0, SVG Export Plug-In . SVG Version: 6.00 Build 0)  -->
<svg version="1.1" id="Ellipse_4_1_" xmlns="http://www.w3.org/2000/svg" xmlns:xlink="http://www.w3.org/1999/xlink" x="0px"
	 y="0px" viewBox="0 0 4 14" style="enable-background:new 0 0 4 14;" xml:space="preserve">
<style type="text/css">
	.st0{fill-rule:evenodd;clip-rule:evenodd;fill:#FFFFFF;}
</style>
<g id="Ellipse_4">
	<g>
		<path class="st0" d="M2,3.5c0.9,0,1.6-0.7,1.6-1.6S2.9,0.3,2,0.3S0.4,1,0.4,1.9S1.1,3.5,2,3.5z M2,5.4C1.1,5.4,0.4,6.1,0.4,7
			c0,0.9,0.7,1.6,1.6,1.6S3.6,7.9,3.6,7C3.6,6.1,2.9,5.4,2,5.4z M2,10.4c-0.9,0-1.6,0.7-1.6,1.6c0,0.9,0.7,1.6,1.6,1.6
			s1.6-0.7,1.6-1.6C3.6,11.1,2.9,10.4,2,10.4z"/>
	</g>
</g>
</svg>
