<?xml version="1.0" encoding="utf-8"?>
<!-- Generator: Adobe Illustrator 23.1.0, SVG Export Plug-In . SVG Version: 6.00 Build 0)  -->
<svg version="1.1" xmlns="http://www.w3.org/2000/svg" xmlns:xlink="http://www.w3.org/1999/xlink" x="0px" y="0px"
	 viewBox="0 0 52 55" style="enable-background:new 0 0 52 55;" xml:space="preserve">
<style type="text/css">
	.st0{enable-background:new    ;}
	.st1{fill:#393939;}
	.st2{fill:#141414;}
</style>
<g id="Rectangle_1_copy_1_" class="st0">
	<g id="Rectangle_1_copy">
		<g>
			<path class="st1" d="M19.7,12.7L24,8.6v24.9c0,1.2,0.9,2.2,2.1,2.2s2-1,2-2.2V8.6l4.4,4c0.8,0.8,2.2,0.8,3.1,0s0.8-2.2,0-3.1
				L28,2.4c-2-1.8-3.9,0-3.9,0l-7.4,7.3c-0.8,0.8-0.8,2.2,0,3.1C17.5,13.5,18.9,13.5,19.7,12.7z M45.3,16.9H32v4h13.3
				c1.2,0,2.7,1.9,2.7,3.1v23.2c0,1.2-1.4,2.7-2.7,2.7H6.9c-1.2,0-2.9-1.4-2.9-2.7V24.1c0-1.2,1.7-3.1,2.9-3.1H20v-4H6.7
				c-3.7,0-6.7,3-6.7,6.7v23.7C0,51,3,54,6.7,54h38.6c3.7,0,6.7-3,6.7-6.7V23.6C52,19.9,49,16.9,45.3,16.9z"/>
		</g>
	</g>
</g>
<g id="Rectangle_1_1_" class="st0">
	<g id="Rectangle_1">
		<g>
			<path class="st2" d="M19.7,11.7L24,7.7v24.9c0,1.2,0.9,2.2,2.1,2.2s2-1,2-2.2V7.7l4.4,4c0.8,0.8,2.2,0.8,3.1,0s0.8-2.2,0-3.1
				L28,1.4c-2-1.8-3.9,0-3.9,0l-7.4,7.3c-0.8,0.8-0.8,2.2,0,3.1C17.5,12.6,18.9,12.6,19.7,11.7z M45.3,16H32v4h13.3
				c1.2,0,2.7,1.9,2.7,3.1v23.2c0,1.2-1.4,2.7-2.7,2.7H6.9C5.7,49,4,47.5,4,46.3V23.2C4,21.9,5.7,20,6.9,20H20v-4H6.7
				C3,16,0,19,0,22.7v23.7C0,50.1,3,53,6.7,53h38.6c3.7,0,6.7-3,6.7-6.7V22.7C52,19,49,16,45.3,16z"/>
		</g>
	</g>
</g>
<g id="Rectangle_1_copy_2_1_" class="st0">
	<g id="Rectangle_1_copy_2">
		<g>
			<path d="M16.6,9.7l7.4-7.3c0,0,1.9-1.8,3.9,0l7.4,7.3c0.3,0.3,0.5,0.7,0.6,1c0.2-0.7,0-1.5-0.6-2L28,1.4c-2-1.8-3.9,0-3.9,0
				l-7.4,7.3c-0.6,0.6-0.7,1.3-0.6,2C16.2,10.3,16.4,10,16.6,9.7z M20,17v-1H6.7C3,16,0,19,0,22.7v1C0,20,3,17,6.7,17H20z M45.3,49
				H6.9C5.7,49,4,47.5,4,46.3v1C4,48.5,5.7,50,6.9,50h38.4c1.2,0,2.7-1.4,2.7-2.7v-1C47.9,47.5,46.5,49,45.3,49z M45.3,16H32v1h13.3
				c3.7,0,6.7,3,6.7,6.7v-1C52,19,49,16,45.3,16z"/>
		</g>
	</g>
</g>
</svg>
