<?xml version="1.0" encoding="utf-8"?>
<svg version="1.1" xmlns="http://www.w3.org/2000/svg" viewBox="0 0 52 55" xml:space="preserve">
<path fill="#FFFFFF" d="M16.6,9.7l7.4-7.3c0,0,1.9-1.8,3.9,0l7.4,7.3c0.8,0.8,0.8,2.2,0,3.1s-2.2,0.8-3.1,0l-4.4-4v24.9
	c0,1.2-0.9,2.2-2,2.2s-2.1-1-2.1-2.2V8.6l-4.3,4.1c-0.8,0.8-2.2,0.8-3.1,0S15.8,10.5,16.6,9.7z M6.7,16H20v4H6.9
	C5.7,20,4,21.9,4,23.2v23.1C4,47.5,5.7,49,6.9,49h38.4c1.2,0,2.7-1.4,2.7-2.7V23.1c0-1.2-1.4-3.1-2.7-3.1H32v-4h13.3
	c3.7,0,6.7,3,6.7,6.7v23.7c0,3.7-3,6.7-6.7,6.7H6.7C3,53,0,50.1,0,46.4V22.7C0,19,3,16,6.7,16z"/>
</svg>
