<?xml version="1.0" encoding="utf-8"?>
<!-- Generator: Adobe Illustrator 23.1.0, SVG Export Plug-In . SVG Version: 6.00 Build 0)  -->
<svg version="1.1" id="Rectangle_1_1_" xmlns="http://www.w3.org/2000/svg" xmlns:xlink="http://www.w3.org/1999/xlink" x="0px"
	 y="0px" viewBox="0 0 31 14" style="enable-background:new 0 0 31 14;" xml:space="preserve">
<style type="text/css">
	.st0{fill:#FFFFFF;}
</style>
<g id="Rectangle_1">
	<g>
		<path class="st0" d="M3,2L0,0v2l3,1V2z M14,0H5v5h9V0z M12,4H7V3h5V4z M12,2H7V1h5V2z M17.01,0v1H23v2l-3,0v7h8V3l-3,0V1h5.99V0
			H17.01z M23,9h-1V7h1V9z M23,6h-1V4h1V6z M26,9h-1V7h1V9z M26,4v2h-1V4H26z M3,6L0,4v2l3,1V6z M29,12H19V3h-2v11h2v-1h10v1h1.99V3
			H29V12z M4,8.86L3.49,8.53L1,12v2h1l2.02-4h1.93c0.41,0.31,1.17,0.87,2.11,1.49C6.66,12.15,5.19,12.69,4,13v1h3l2.56-1.59
			c1.11,0.64,2.32,1.24,3.44,1.59h2v-1c0,0-1.87-0.85-3.67-1.69L13.45,10H15V6H4V8.86z M12,7h1v1h-1V7z M9,7h1v1H9V7z M10.67,10
			c-0.27,0.2-0.59,0.38-0.9,0.57C9.32,10.35,8.93,10.15,8.64,10H10.67z M6,7h1v1H6V7z"/>
	</g>
</g>
</svg>
