<?xml version="1.0" encoding="utf-8"?>
<!-- Shadow companion for reader magnifier cursor -->
<svg version="1.1" id="Rectangle_4_1_" xmlns="http://www.w3.org/2000/svg" xmlns:xlink="http://www.w3.org/1999/xlink" x="0px"
	 y="0px" viewBox="0 0 16 16" style="enable-background:new 0 0 16 16;" xml:space="preserve">
<style type="text/css">
	.st0{fill-rule:evenodd;clip-rule:evenodd;fill:#000000;}
</style>
<g id="Rectangle_4">
	<g>
		<path class="st0" d="M15.8,14.2L12.6,11c0.8-1.1,1.3-2.5,1.3-4c0-3.8-3.1-6.9-6.9-6.9S0,3.2,0,7c0,3.8,3.1,6.9,6.9,6.9
			c1.6,0,3-0.5,4.2-1.4l3.2,3.2c0.4,0.4,1.1,0.4,1.5,0C16.2,15.3,16.2,14.6,15.8,14.2z M6.9,12.2C4,12.2,1.7,9.9,1.7,7
			S4,1.8,6.9,1.8c2.9,0,5.2,2.3,5.2,5.2S9.8,12.2,6.9,12.2z"/>
	</g>
</g>
</svg>
