<?xml version="1.0" encoding="utf-8"?>
<!-- Generator: Adobe Illustrator 23.1.0, SVG Export Plug-In . SVG Version: 6.00 Build 0)  -->
<svg version="1.1" id="Rectangle_1_copy_1_" xmlns="http://www.w3.org/2000/svg" xmlns:xlink="http://www.w3.org/1999/xlink"
     x="0px" y="0px" viewBox="0 0 16 16" style="enable-background:new 0 0 16 16;" xml:space="preserve">
<style type="text/css">
    .st0{fill:#FFFFFF;}
</style>
<g id="Rectangle_1_copy">
    <g>
        <path class="st0" d="M6,1V0H0.02L0,6h0.99V2.39l3.7,3.7L6.1,4.68L2.43,1H6z M4.68,9.9L1,13.57V10H0v6h6v-1H2.4l3.69-3.69L4.68,9.9
            z M10,0v0.99h3.58L9.89,4.68l1.41,1.41L15,2.4V6h1V0.02L10,0z M15,13.57l-3.68-3.68L9.9,11.3l3.7,3.7H10v1h6v-6h-1V13.57z"/>
    </g>
</g>
</svg>
