<?xml version="1.0" encoding="utf-8"?>
<!-- Generator: Adobe Illustrator 23.1.0, SVG Export Plug-In . SVG Version: 6.00 Build 0)  -->
<svg version="1.1" id="Rectangle_1_1_" xmlns="http://www.w3.org/2000/svg" xmlns:xlink="http://www.w3.org/1999/xlink" x="0px"
     y="0px" viewBox="0 0 16 16" style="enable-background:new 0 0 16 16;" xml:space="preserve">
<style type="text/css">
    .st0{fill:#FFFFFF;}
</style>
<g id="Rectangle_1">
    <g>
        <path class="st0" d="M14,0H9.99C8.9,0,7.99,1.95,7.99,1.95S7.08,0,6,0H1.99c-1.1,0-2,0.9-2,2v9.01c0,1.1,0.9,2,2,2h2.66l3.4,2.44
            l3.35-2.44H14c1.1,0,2-0.9,2-2V2C16,0.9,15.1,0,14,0z M7,10H2V9h5V10z M7,7H2V6h5V7z M7,3.99H2V3h5V3.99z M14,10H9V9h5V10z M14,7
            H9V6h5V7z M14,4H9V3h5V4z"/>
    </g>
</g>
</svg>
