<?xml version="1.0" encoding="utf-8"?>
<!-- Generator: Adobe Illustrator 23.1.0, SVG Export Plug-In . SVG Version: 6.00 Build 0)  -->
<svg version="1.1" id="Shape_1_1_" xmlns="http://www.w3.org/2000/svg" xmlns:xlink="http://www.w3.org/1999/xlink" x="0px" y="0px"
	 viewBox="0 0 16 16" style="enable-background:new 0 0 16 16;" xml:space="preserve">
<style type="text/css">
	.st0{fill-rule:evenodd;clip-rule:evenodd;fill:#FFFFFF;}
</style>
<g id="Shape_1">
	<g>
		<path class="st0" d="M12.01,2V1.99c0-1.35-0.57-2-1.93-2H5.81c-1.35,0-1.82,0.64-1.82,2V2H2v2h0.99v9.55
			c0,1.35,1.1,2.45,2.45,2.45h5.11c1.35,0,2.45-1.1,2.45-2.45V4h1V2H12.01z M7,12.02H5.99V6.01H7V12.02z M10,12.02H8.99V6.01H10
			V12.02z M11,2H4.99V1.81C4.99,1.36,5.36,1,5.81,1h4.27C10.54,1,11,1.36,11,1.81V2z"/>
	</g>
</g>
</svg>
