<?xml version="1.0" encoding="utf-8"?>
<!-- Derived from lucide icons (ISC) -->
<svg version="1.1" xmlns="http://www.w3.org/2000/svg" x="0px" y="0px"
     viewBox="0 0 24 24" style="enable-background:new 0 0 24 24;" xml:space="preserve">
<style type="text/css">
    .st0{fill:#FFFFFF;}
</style>
<g>
    <circle class="st0" cx="12" cy="12" r="4"/>
    <rect class="st0" x="11" y="1" width="2" height="4" rx="1" ry="1"/>
    <rect class="st0" x="11" y="19" width="2" height="4" rx="1" ry="1"/>
    <rect class="st0" x="1" y="11" width="4" height="2" rx="1" ry="1"/>
    <rect class="st0" x="19" y="11" width="4" height="2" rx="1" ry="1"/>
    <rect class="st0" x="4.635" y="3.635" width="2" height="4" rx="1" ry="1" transform="rotate(45 5.635 5.635)"/>
    <rect class="st0" x="17.365" y="16.365" width="2" height="4" rx="1" ry="1" transform="rotate(45 18.365 18.365)"/>
    <rect class="st0" x="4.635" y="16.365" width="2" height="4" rx="1" ry="1" transform="rotate(-45 5.635 18.365)"/>
    <rect class="st0" x="17.365" y="3.635" width="2" height="4" rx="1" ry="1" transform="rotate(-45 18.365 5.635)"/>
</g>
</svg>
