<?xml version="1.0" encoding="utf-8"?>
<!-- Generator: Adobe Illustrator 23.1.0, SVG Export Plug-In . SVG Version: 6.00 Build 0)  -->
<svg version="1.1" id="Layer_1" xmlns="http://www.w3.org/2000/svg" xmlns:xlink="http://www.w3.org/1999/xlink" x="0px" y="0px"
	 viewBox="0 0 16 16" style="enable-background:new 0 0 16 16;" xml:space="preserve">
<path d="M14.37,9.53c-0.18-0.12-0.33-0.28-0.46-0.46c-0.59-0.84-0.39-2.01,0.46-2.6c0.72-0.52,0.98-1.48,0.61-2.29
	c-0.43-0.94-1.53-1.35-2.47-0.93c-0.2,0.09-0.41,0.15-0.62,0.17c-1.03,0.09-1.93-0.67-2.02-1.7c-0.08-0.89-0.79-1.6-1.68-1.68
	C7.15-0.05,6.24,0.7,6.14,1.73h0C6.12,1.94,6.06,2.15,5.97,2.35c-0.44,0.93-1.55,1.34-2.48,0.9C2.68,2.89,1.72,3.14,1.21,3.87
	c-0.6,0.84-0.41,2,0.43,2.61C1.81,6.6,1.97,6.75,2.09,6.93c0.59,0.84,0.39,2.01-0.46,2.6c-0.72,0.52-0.98,1.48-0.61,2.29
	c0.43,0.94,1.53,1.35,2.47,0.93c0.2-0.09,0.41-0.15,0.62-0.17c1.03-0.09,1.93,0.67,2.02,1.7c0.08,0.89,0.79,1.6,1.68,1.68
	c1.03,0.1,1.94-0.66,2.04-1.68c0.02-0.22,0.08-0.43,0.17-0.62c0.44-0.93,1.55-1.34,2.48-0.9c0.81,0.37,1.77,0.11,2.29-0.61
	C15.4,11.29,15.2,10.13,14.37,9.53z M8,10.39c-1.32,0-2.39-1.07-2.39-2.39S6.68,5.61,8,5.61S10.39,6.68,10.39,8S9.32,10.39,8,10.39z
	"/>
</svg>
