<?xml version="1.0" encoding="utf-8"?>
<!-- Generator: Adobe Illustrator 23.1.0, SVG Export Plug-In . SVG Version: 6.00 Build 0)  -->
<svg version="1.1" id="Rectangle_1_1_" xmlns="http://www.w3.org/2000/svg" xmlns:xlink="http://www.w3.org/1999/xlink" x="0px"
     y="0px" viewBox="0 0 16 16" style="enable-background:new 0 0 16 16;" xml:space="preserve">
<style type="text/css">
    .st0{fill:#FFFFFF;}
</style>
<g id="Rectangle_1">
    <g>
        <path class="st0" d="M5.3,12.97c-1.27,0-2.29-1.03-2.29-2.29v-5.4c0-0.16,0.02-0.31,0.05-0.46H3c-1.1,0-2,0.9-2,2V13
            c0,1.1,0.9,2,2,2h6.97c1.1,0,2-0.9,2-2v-0.37c-0.35,0.21-0.75,0.34-1.19,0.34H5.3z M13,1H5.99c-1.1,0-1,0.9-1,2v6.01
            c0,1.1,0.9,2,2,2H13c1.1,0,2-0.9,2-2V3C15,1.9,14.1,1,13,1z"/>
    </g>
</g>
</svg>
