<?xml version="1.0" encoding="utf-8"?>
<!-- Generator: Adobe Illustrator 23.1.0, SVG Export Plug-In . SVG Version: 6.00 Build 0)  -->
<svg version="1.1" id="Ellipse_1_1_" xmlns="http://www.w3.org/2000/svg" xmlns:xlink="http://www.w3.org/1999/xlink" x="0px"
	 y="0px" viewBox="0 0 32 32" style="enable-background:new 0 0 32 32;" xml:space="preserve">
<style type="text/css">
	.st0{fill:#FFFFFF;}
</style>
<g id="Ellipse_1">
	<g>
		<path class="st0" d="M16-0.01C7.16-0.01-0.01,7.16-0.01,16S7.16,32.01,16,32.01S32.01,24.84,32.01,16S24.84-0.01,16-0.01z
			 M16.04,30.2v-4.54c-0.01,0-0.03,0-0.04,0c-5.33,0-9.66-4.32-9.66-9.66c0-5.33,4.32-9.66,9.66-9.66c0.01,0,0.03,0,0.04,0V1.8
			C23.87,1.83,30.2,8.17,30.2,16C30.2,23.83,23.87,30.17,16.04,30.2z M25.66,16c0-5.32-4.3-9.63-9.61-9.65v2.19
			c4.1,0.02,7.43,3.36,7.43,7.47c0,4.11-3.32,7.44-7.43,7.47v2.19C21.36,25.63,25.66,21.32,25.66,16z M8.53,16
			c0,4.12,3.34,7.47,7.47,7.47c0.01,0,0.03,0,0.04,0V8.54c-0.01,0-0.03,0-0.04,0C11.88,8.53,8.53,11.88,8.53,16z"/>
	</g>
</g>
</svg>
